<?xml version="1.0" encoding="UTF-8" standalone="no"?>
<!-- Created with Inkscape (http://www.inkscape.org/) -->

<svg
   xmlns:dc="http://purl.org/dc/elements/1.1/"
   xmlns:cc="http://creativecommons.org/ns#"
   xmlns:rdf="http://www.w3.org/1999/02/22-rdf-syntax-ns#"
   xmlns:svg="http://www.w3.org/2000/svg"
   xmlns="http://www.w3.org/2000/svg"
   xmlns:sodipodi="http://sodipodi.sourceforge.net/DTD/sodipodi-0.dtd"
   xmlns:inkscape="http://www.inkscape.org/namespaces/inkscape"
   width="304.01532"
   height="289.8732"
   id="svg10068"
   version="1.1"
   inkscape:version="0.47 r22583"
   sodipodi:docname="speed-002-r.svg"
   inkscape:export-filename="H:\Documents\Hobbies\W433\My Gauges\heading-001.png"
   inkscape:export-xdpi="103.61"
   inkscape:export-ydpi="103.61"
   style="display:inline">
  <defs
     id="defs10070">
    <marker
       inkscape:stockid="Arrow2Sstart"
       orient="auto"
       refY="0"
       refX="0"
       id="Arrow2Sstart"
       style="overflow:visible">
      <path
         id="path4640"
         style="font-size:12px;fill-rule:evenodd;stroke-width:0.625;stroke-linejoin:round"
         d="M 8.7185878,4.0337352 -2.2072895,0.01601326 8.7185884,-4.0017078 c -1.7454984,2.3720609 -1.7354408,5.6174519 -6e-7,8.035443 z"
         transform="matrix(0.3,0,0,0.3,-0.69,0)" />
    </marker>
    <inkscape:perspective
       sodipodi:type="inkscape:persp3d"
       inkscape:vp_x="0 : 526.18109 : 1"
       inkscape:vp_y="0 : 1000 : 0"
       inkscape:vp_z="744.09448 : 526.18109 : 1"
       inkscape:persp3d-origin="372.04724 : 350.78739 : 1"
       id="perspective10076" />
    <inkscape:perspective
       id="perspective9987"
       inkscape:persp3d-origin="0.5 : 0.33333333 : 1"
       inkscape:vp_z="1 : 0.5 : 1"
       inkscape:vp_y="0 : 1000 : 0"
       inkscape:vp_x="0 : 0.5 : 1"
       sodipodi:type="inkscape:persp3d" />
    <inkscape:perspective
       id="perspective10250"
       inkscape:persp3d-origin="0.5 : 0.33333333 : 1"
       inkscape:vp_z="1 : 0.5 : 1"
       inkscape:vp_y="0 : 1000 : 0"
       inkscape:vp_x="0 : 0.5 : 1"
       sodipodi:type="inkscape:persp3d" />
    <inkscape:perspective
       id="perspective10279"
       inkscape:persp3d-origin="0.5 : 0.33333333 : 1"
       inkscape:vp_z="1 : 0.5 : 1"
       inkscape:vp_y="0 : 1000 : 0"
       inkscape:vp_x="0 : 0.5 : 1"
       sodipodi:type="inkscape:persp3d" />
    <inkscape:perspective
       id="perspective10517"
       inkscape:persp3d-origin="0.5 : 0.33333333 : 1"
       inkscape:vp_z="1 : 0.5 : 1"
       inkscape:vp_y="0 : 1000 : 0"
       inkscape:vp_x="0 : 0.5 : 1"
       sodipodi:type="inkscape:persp3d" />
    <inkscape:perspective
       id="perspective11202"
       inkscape:persp3d-origin="0.5 : 0.33333333 : 1"
       inkscape:vp_z="1 : 0.5 : 1"
       inkscape:vp_y="0 : 1000 : 0"
       inkscape:vp_x="0 : 0.5 : 1"
       sodipodi:type="inkscape:persp3d" />
    <inkscape:perspective
       id="perspective3720"
       inkscape:persp3d-origin="0.5 : 0.33333333 : 1"
       inkscape:vp_z="1 : 0.5 : 1"
       inkscape:vp_y="0 : 1000 : 0"
       inkscape:vp_x="0 : 0.5 : 1"
       sodipodi:type="inkscape:persp3d" />
    <inkscape:perspective
       id="perspective3735"
       inkscape:persp3d-origin="0.5 : 0.33333333 : 1"
       inkscape:vp_z="1 : 0.5 : 1"
       inkscape:vp_y="0 : 1000 : 0"
       inkscape:vp_x="0 : 0.5 : 1"
       sodipodi:type="inkscape:persp3d" />
    <inkscape:perspective
       id="perspective3757"
       inkscape:persp3d-origin="0.5 : 0.33333333 : 1"
       inkscape:vp_z="1 : 0.5 : 1"
       inkscape:vp_y="0 : 1000 : 0"
       inkscape:vp_x="0 : 0.5 : 1"
       sodipodi:type="inkscape:persp3d" />
    <inkscape:perspective
       id="perspective3828"
       inkscape:persp3d-origin="0.5 : 0.33333333 : 1"
       inkscape:vp_z="1 : 0.5 : 1"
       inkscape:vp_y="0 : 1000 : 0"
       inkscape:vp_x="0 : 0.5 : 1"
       sodipodi:type="inkscape:persp3d" />
    <inkscape:perspective
       id="perspective3889"
       inkscape:persp3d-origin="0.5 : 0.33333333 : 1"
       inkscape:vp_z="1 : 0.5 : 1"
       inkscape:vp_y="0 : 1000 : 0"
       inkscape:vp_x="0 : 0.5 : 1"
       sodipodi:type="inkscape:persp3d" />
    <inkscape:perspective
       id="perspective3925"
       inkscape:persp3d-origin="0.5 : 0.33333333 : 1"
       inkscape:vp_z="1 : 0.5 : 1"
       inkscape:vp_y="0 : 1000 : 0"
       inkscape:vp_x="0 : 0.5 : 1"
       sodipodi:type="inkscape:persp3d" />
    <inkscape:perspective
       id="perspective3968"
       inkscape:persp3d-origin="0.5 : 0.33333333 : 1"
       inkscape:vp_z="1 : 0.5 : 1"
       inkscape:vp_y="0 : 1000 : 0"
       inkscape:vp_x="0 : 0.5 : 1"
       sodipodi:type="inkscape:persp3d" />
    <inkscape:perspective
       id="perspective3982"
       inkscape:persp3d-origin="0.5 : 0.33333333 : 1"
       inkscape:vp_z="1 : 0.5 : 1"
       inkscape:vp_y="0 : 1000 : 0"
       inkscape:vp_x="0 : 0.5 : 1"
       sodipodi:type="inkscape:persp3d" />
    <inkscape:perspective
       id="perspective4682"
       inkscape:persp3d-origin="0.5 : 0.33333333 : 1"
       inkscape:vp_z="1 : 0.5 : 1"
       inkscape:vp_y="0 : 1000 : 0"
       inkscape:vp_x="0 : 0.5 : 1"
       sodipodi:type="inkscape:persp3d" />
    <inkscape:perspective
       id="perspective3347"
       inkscape:persp3d-origin="0.5 : 0.33333333 : 1"
       inkscape:vp_z="1 : 0.5 : 1"
       inkscape:vp_y="0 : 1000 : 0"
       inkscape:vp_x="0 : 0.5 : 1"
       sodipodi:type="inkscape:persp3d" />
    <inkscape:perspective
       id="perspective5659"
       inkscape:persp3d-origin="0.5 : 0.33333333 : 1"
       inkscape:vp_z="1 : 0.5 : 1"
       inkscape:vp_y="0 : 1000 : 0"
       inkscape:vp_x="0 : 0.5 : 1"
       sodipodi:type="inkscape:persp3d" />
    <inkscape:perspective
       id="perspective5719"
       inkscape:persp3d-origin="0.5 : 0.33333333 : 1"
       inkscape:vp_z="1 : 0.5 : 1"
       inkscape:vp_y="0 : 1000 : 0"
       inkscape:vp_x="0 : 0.5 : 1"
       sodipodi:type="inkscape:persp3d" />
    <inkscape:perspective
       id="perspective5810"
       inkscape:persp3d-origin="0.5 : 0.33333333 : 1"
       inkscape:vp_z="1 : 0.5 : 1"
       inkscape:vp_y="0 : 1000 : 0"
       inkscape:vp_x="0 : 0.5 : 1"
       sodipodi:type="inkscape:persp3d" />
    <inkscape:perspective
       id="perspective3546"
       inkscape:persp3d-origin="0.5 : 0.33333333 : 1"
       inkscape:vp_z="1 : 0.5 : 1"
       inkscape:vp_y="0 : 1000 : 0"
       inkscape:vp_x="0 : 0.5 : 1"
       sodipodi:type="inkscape:persp3d" />
  </defs>
  <sodipodi:namedview
     id="base"
     pagecolor="#ffffff"
     bordercolor="#666666"
     borderopacity="1.0"
     inkscape:pageopacity="0.0"
     inkscape:pageshadow="2"
     inkscape:zoom="0.98994949"
     inkscape:cx="138.75142"
     inkscape:cy="116.44881"
     inkscape:document-units="px"
     inkscape:current-layer="layer9"
     showgrid="false"
     inkscape:window-width="1280"
     inkscape:window-height="774"
     inkscape:window-x="-4"
     inkscape:window-y="-4"
     inkscape:window-maximized="1"
     inkscape:object-paths="true"
     showguides="true"
     inkscape:guide-bbox="true"
     inkscape:snap-to-guides="false"
     inkscape:snap-grids="false"
     inkscape:snap-global="false" />
  <metadata
     id="metadata10073">
    <rdf:RDF>
      <cc:Work
         rdf:about="">
        <dc:format>image/svg+xml</dc:format>
        <dc:type
           rdf:resource="http://purl.org/dc/dcmitype/StillImage" />
        <dc:title></dc:title>
      </cc:Work>
    </rdf:RDF>
  </metadata>
  <g
     style="display:inline"
     inkscape:label="Dark background"
     id="g2932"
     inkscape:groupmode="layer"
     transform="translate(-228.56377,-366.85416)">
    <g
       id="g4687">
      <rect
         style="fill:#453e3e;fill-opacity:1;stroke:#000000;stroke-width:4.19884777;stroke-miterlimit:10;stroke-opacity:1;stroke-dasharray:none;stroke-dashoffset:0"
         id="rect2936"
         width="299.81647"
         height="285.67435"
         x="230.66319"
         y="368.95358"
         ry="21.08169"
         inkscape:export-filename="H:\Documents\Hobbies\W433\g9905.png"
         inkscape:export-xdpi="88.809998"
         inkscape:export-ydpi="88.809998" />
      <path
         sodipodi:type="arc"
         style="fill:#332d2d;fill-opacity:1;stroke:#000000;stroke-width:4;stroke-miterlimit:10;stroke-opacity:1;stroke-dasharray:none;stroke-dashoffset:0"
         id="path2938"
         sodipodi:cx="234.35539"
         sodipodi:cy="850.33167"
         sodipodi:rx="137.38075"
         sodipodi:ry="137.38075"
         d="m 371.73615,850.33167 a 137.38075,137.38075 0 1 1 -274.76151,0 137.38075,137.38075 0 1 1 274.76151,0 z"
         transform="translate(146.21603,-338.54092)"
         inkscape:export-filename="H:\Documents\Hobbies\W433\g9905.png"
         inkscape:export-xdpi="88.809998"
         inkscape:export-ydpi="88.809998" />
    </g>
    <g
       style="display:inline"
       id="g4331"
       transform="matrix(0.06085259,0,0,0.06085259,602.38728,281.91201)"
       inkscape:export-filename="C:\Documents and Settings\t12\My Documents\My Dropbox\graphicswork\openpilot.org\openpilot_logo_std_900x900.png"
       inkscape:export-xdpi="134.99997"
       inkscape:export-ydpi="134.99997">
      <rect
         style="fill:#333333;fill-opacity:1;fill-rule:nonzero;stroke:none;stroke-width:2.4000001;marker:none;visibility:visible;display:inline;overflow:visible;enable-background:accumulate"
         id="rect3561"
         width="586.89862"
         height="586.89862"
         x="-5937.5591"
         y="1598.2484"
         rx="25.455843"
         ry="25.455843"
         inkscape:export-filename="C:\Documents and Settings\t12\My Documents\My Dropbox\graphicswork\openpilot.org\textplay.png"
         inkscape:export-xdpi="122.68"
         inkscape:export-ydpi="122.68" />
      <g
         id="g2599"
         transform="translate(12,12)">
        <path
           sodipodi:nodetypes="ccccccccccccccccccccccccccccccc"
           id="path3563"
           transform="translate(-6411.3421,1598.2484)"
           d="M 786.65625,38.34375 C 776.60685,38.163657 767.79846,42.410094 764,54.53125 l -34.71875,117.375 55.875,30.53125 24.09375,-91.46875 c 6.8335,-10.5642 16.83812,-6.5004 27.34375,-0.125 l 82.84375,54.5625 c 7.1912,6.0887 12.08432,14.26629 11.625,27.375 l -5.125,72.53125 c -1.0457,9.9542 -7.04984,16.18964 -11.78125,15.34375 l -130.875,-71.09375 -23.15625,87.75 31.84375,11.53125 0,0.0312 130.78125,47.3125 c 19.5176,7.1455 36.96694,-14.45879 37.59375,-46.625 l 0.5625,-115.59375 c -0.3794,-28.3851 -14.16862,-43.93701 -27.9375,-55.0625 L 823.65625,53.5625 c -9.10108,-7.436419 -24.07935,-14.987202 -37,-15.21875 z m -110.14108,113.65912 -26.17142,105.59088 16.89017,6.59662 95.74316,34.12742 25.74166,-85.34921 -112.20357,-60.96571 z M 692,297.84375 l -23.96875,81 61.6875,33.9375 L 754.65625,318.125 692,297.84375 z"
           style="fill:#c8c8c8;fill-opacity:1;stroke:none" />
        <path
           inkscape:export-ydpi="122.68"
           inkscape:export-xdpi="122.68"
           inkscape:export-filename="C:\Documents and Settings\t12\My Documents\My Dropbox\graphicswork\openpilot.org\textplay.png"
           inkscape:transform-center-y="82.140396"
           inkscape:transform-center-x="-8.1593243"
           style="fill:#4e94f6;fill-opacity:1;stroke:none"
           d="m -5758.2115,1780.6918 -11.3323,-6.4174 9.9517,-36.7409 -25.1805,-13.7542 -55.5528,23.5818 -76.6225,-20.2729 68.1271,46.1567 26.6499,63.8068 34.5303,11.3175 10.8525,-40.7996 10.7025,1.6951 7.8741,-28.5729 z"
           id="path3565"
           sodipodi:nodetypes="cccccccccccc" />
      </g>
      <path
         style="font-size:83.44415283px;font-style:normal;font-variant:normal;font-weight:bold;font-stretch:normal;text-align:start;line-height:125%;writing-mode:lr-tb;text-anchor:start;fill:#c8c8c8;fill-opacity:1;stroke:none;font-family:Dekers_Bold;-inkscape-font-specification:Dekers_Bold Bold"
         d="m -5544.1683,2064.5486 0,9.3437 9.5,0 0,-9.3437 -9.5,0 z m 16.125,0 0,42.6562 0,0.062 c 0,2.4477 0.4535,4.7299 1.3437,6.8437 0.8901,2.1141 2.1367,3.9737 3.75,5.5313 1.6132,1.6133 3.4798,2.8667 5.5937,3.8125 2.1139,0.89 4.3579,1.3438 6.75,1.3438 l 1.9376,0 0,-8.9376 -1.75,-0.062 c -2.2252,-0.167 -4.1681,-1.0741 -5.7813,-2.6876 -0.7232,-0.7788 -1.3049,-1.655 -1.75,-2.6562 -0.3894,-1.0013 -0.5626,-2.0818 -0.5625,-3.25 l 0,-42.6562 -9.5312,0 z m 92.6874,4.75 0,10.625 -4.25,0 0,9 4.25,0 0,18.4374 c 0,2.4478 0.4538,4.7299 1.3438,6.8438 0.9457,2.0583 2.1925,3.8867 3.75,5.5 1.6133,1.6132 3.4797,2.8598 5.5938,3.75 2.1138,0.89 4.3959,1.3438 6.8437,1.3438 l 6.8437,0 0,-9 -6.75,0 c -2.3364,-0.167 -4.2479,-1.0741 -5.75,-2.6876 -0.7231,-0.7788 -1.3363,-1.655 -1.7812,-2.6562 -0.3894,-1.0013 -0.5624,-2.075 -0.5625,-3.1875 l 0,-18.3437 14.8437,0 0,-1.9063 0,-7.0937 -14.8437,0 0,-10.625 -9.5313,0 z m -220.9374,12.4374 c -2.4478,0 -4.73,0.4919 -6.8438,1.4376 -2.0583,0.8901 -3.8869,2.1367 -5.5,3.75 -1.6133,1.6132 -2.8913,3.4799 -3.7812,5.5937 -0.8901,2.0583 -1.3127,4.3024 -1.3126,6.75 l 0,25.5313 9.5,0 0,-25.4376 c 0,-2.3919 0.8312,-4.4247 2.5,-6.0937 0.7789,-0.7788 1.6862,-1.3988 2.6876,-1.8437 1.0569,-0.445 2.1444,-0.6563 3.3124,-0.6563 l 22.0313,0 c 1.1682,0 2.2797,0.2111 3.2813,0.6563 1.0569,0.4451 1.9709,1.065 2.75,1.8437 1.6687,1.6689 2.4998,3.7017 2.5,6.0937 l 0,25.4376 2.7187,0 6.7813,0 6.625,0 0,17.18 9.5312,0 0,-17.18 8,0 19.6875,0 3.5,0 c 2.392,0 4.6673,-0.4539 6.7813,-1.3438 2.1138,-0.8901 3.9491,-2.1368 5.5624,-3.75 1.6133,-1.6133 2.8913,-3.4417 3.7813,-5.5 0.89,-2.1139 1.3124,-4.3958 1.3125,-6.8438 l 0,-8 c -1e-4,-2.4476 -0.4224,-4.7297 -1.3125,-6.8437 -0.8901,-2.1139 -2.1681,-3.9805 -3.7813,-5.5937 -1.6132,-1.6132 -3.4486,-2.8599 -5.5624,-3.75 -2.1139,-0.8901 -4.3894,-1.3436 -6.7813,-1.3438 l -23.1875,0 c -2.4477,1e-4 -4.7296,0.4537 -6.8438,1.3438 -2.0583,0.8901 -3.8867,2.1367 -5.5,3.75 -1.6132,1.6132 -2.8981,3.4799 -3.8437,5.5937 -0.89,2.1139 -1.3437,4.396 -1.3437,6.8437 l 0,16.4376 -6.625,0 0,-16.4376 0,-0.094 c 0,-2.4477 -0.4538,-4.6916 -1.3438,-6.75 -0.8901,-2.1139 -2.1367,-3.9805 -3.75,-5.5937 -1.6133,-1.6132 -3.4798,-2.8599 -5.5938,-3.75 -2.0583,-0.9457 -4.3021,-1.4376 -6.75,-1.4376 l -23.1874,0 z m 112.125,0 0,43.0626 9.5,0 0,-43.0626 -9.5,0 z m -306.6563,0.094 c -2.4477,1e-4 -4.7296,0.4537 -6.8437,1.3438 -2.114,0.8901 -3.9422,2.1367 -5.5,3.75 -1.6133,1.6132 -2.898,3.4799 -3.8438,5.5937 -0.89,2.1139 -1.3125,4.396 -1.3125,6.8437 l 0,8 c 0,2.4478 0.4226,4.7299 1.3125,6.8438 0.9457,2.0583 2.2307,3.8867 3.8438,5.5 1.5576,1.6132 3.3862,2.8598 5.5,3.75 2.1139,0.89 4.3958,1.3438 6.8437,1.3438 l 17.375,0 5.75,0 24.2187,0 0,17.18 9.5313,0 0,-17.18 8,0 3.125,0 20.0625,0 c 2.392,0 4.6676,-0.4539 6.7812,-1.3438 2.1139,-0.8901 3.9807,-2.1368 5.5938,-3.75 1.6132,-1.6133 2.8597,-3.4417 3.75,-5.5 0.89,-2.1139 1.3436,-4.3958 1.3438,-6.8438 l 0,-8 c -2e-4,-2.4476 -0.454,-4.7297 -1.3438,-6.8437 -0.8901,-2.1139 -2.1366,-3.9805 -3.75,-5.5937 -1.6133,-1.6132 -3.4796,-2.8599 -5.5938,-3.75 -2.1139,-0.8901 -4.3891,-1.3436 -6.7812,-1.3438 l -23.1875,0 c -2.4477,1e-4 -4.7302,0.4537 -6.8437,1.3438 -2.0583,0.8901 -3.8871,2.1367 -5.5,3.75 -1.6134,1.6132 -2.8979,3.4799 -3.8438,5.5937 -0.8901,2.1139 -1.3436,4.396 -1.3438,6.8437 l 0,16.4376 -8.8437,0 c 0.2889,-0.5174 0.5747,-1.0439 0.8125,-1.5938 0.89,-2.1139 1.3436,-4.3958 1.3438,-6.8438 l 0,-8 c -10e-5,-2.4476 -0.454,-4.7297 -1.3438,-6.8437 -0.8901,-2.1139 -2.1366,-3.9805 -3.75,-5.5937 -1.6133,-1.6132 -3.4797,-2.8599 -5.5938,-3.75 -2.1138,-0.8901 -4.3959,-1.3436 -6.8437,-1.3438 l -23.125,0 z m 129.75,0 c -2.4477,1e-4 -4.7302,0.4537 -6.8437,1.3438 -2.1141,0.8901 -3.9426,2.1367 -5.5,3.75 -1.6133,1.6132 -2.8979,3.4799 -3.8438,5.5937 -0.8901,2.0583 -1.3436,4.3024 -1.3438,6.75 l 0,8 c 0,2.4477 0.4539,4.7299 1.3438,6.8437 0.9457,2.1141 2.2303,3.9805 3.8438,5.5938 1.5576,1.6132 3.3858,2.8598 5.5,3.75 2.1139,0.89 4.3959,1.3438 6.8437,1.3438 l 35.375,0 0,-9 -34.8125,0 c -2.3921,0 -4.3937,-0.831 -6.0625,-2.5 -0.612,-0.6676 -1.1487,-1.4156 -1.5937,-2.25 -0.445,-0.8344 -0.7326,-1.7419 -0.8438,-2.6876 l 48.5625,0 0,-9.0937 c -1e-4,-2.4477 -0.4538,-4.6916 -1.3437,-6.75 -0.8903,-2.1139 -2.1371,-3.9805 -3.75,-5.5937 -1.6133,-1.6132 -3.4801,-2.8599 -5.5938,-3.75 -2.1139,-0.8901 -4.3959,-1.3436 -6.8438,-1.3438 l -23.0937,0 z m 236.625,0 c -2.4477,1e-4 -4.7301,0.4537 -6.8437,1.3438 -2.1141,0.8901 -3.9424,2.1367 -5.5,3.75 -1.6133,1.6132 -2.8981,3.4799 -3.8438,5.5937 -0.8901,2.1139 -1.3126,4.396 -1.3125,6.8437 l 0,8 c 0,2.4478 0.4224,4.7299 1.3125,6.8438 0.9457,2.0583 2.2304,3.8867 3.8438,5.5 1.5577,1.6132 3.3856,2.8598 5.5,3.75 2.1138,0.89 4.396,1.3438 6.8437,1.3438 l 23.125,0 c 2.4477,0 4.73,-0.4539 6.8437,-1.3438 2.114,-0.8901 3.9806,-2.1368 5.5938,-3.75 1.6132,-1.6133 2.8598,-3.4417 3.75,-5.5 0.89,-2.1139 1.3438,-4.3958 1.3438,-6.8438 l 0,-8 c -2e-4,-2.4476 -0.4538,-4.7297 -1.3438,-6.8437 -0.8902,-2.1139 -2.1367,-3.9805 -3.75,-5.5937 -1.6133,-1.6132 -3.4797,-2.8599 -5.5938,-3.75 -2.1138,-0.8901 -4.396,-1.3436 -6.8437,-1.3438 l -23.125,0 z m -365.7813,9 21.9376,0 c 2.3919,0 4.4248,0.8312 6.0937,2.5 0.7788,0.7789 1.3988,1.7244 1.8437,2.7812 0.445,1.0013 0.6562,2.0885 0.6563,3.3126 l 0,7.8437 c -1e-4,1.1682 -0.2113,2.2868 -0.6563,3.3437 -0.445,1.0014 -1.0649,1.9089 -1.8437,2.6876 -1.6689,1.6689 -3.7018,2.4999 -6.0937,2.5 l -2.7188,0 -19.2188,0 c -2.3921,0 -4.4249,-0.831 -6.0937,-2.5 -0.7788,-0.7789 -1.3987,-1.6862 -1.8437,-2.6876 -0.445,-1.0569 -0.6564,-2.1756 -0.6563,-3.3437 l 0,-7.8437 c -1e-4,-1.2239 0.2113,-2.3112 0.6563,-3.3126 0.4449,-1.0569 1.0648,-2.0023 1.8437,-2.7812 1.6689,-1.6688 3.7016,-2.5001 6.0937,-2.5 z m 64.875,0 21.9376,0 c 2.3919,0 4.4249,0.8312 6.0937,2.5 1.6689,1.6689 2.5,3.7015 2.5,6.0938 l 0,7.8437 c -1e-4,2.4477 -0.831,4.4738 -2.5,6.0313 -1.6689,1.6689 -3.7018,2.4999 -6.0937,2.5 l -16.4063,0 -14.125,0 0,-8.5313 0,-4.4687 0,-3.375 c 0,-1.2239 0.2112,-2.3112 0.6563,-3.3126 0.5006,-1.0569 1.1585,-2.0023 1.9374,-2.7812 1.5577,-1.6688 3.5524,-2.5001 6,-2.5 z m 64.8438,0 21.9688,0 c 2.3919,0 4.425,0.8312 6.0937,2.5 0.7788,0.7789 1.3674,1.7244 1.8125,2.7812 0.445,1.0013 0.6875,2.0818 0.6875,3.25 l -39.1563,0 c 0,-1.1681 0.2425,-2.2486 0.6876,-3.25 0.445,-1.0569 1.0648,-2.0023 1.8437,-2.7812 1.6688,-1.6688 3.6705,-2.5001 6.0625,-2.5 z m 129.5938,0 21.9374,0 c 2.3921,0 4.425,0.8312 6.0938,2.5 1.6689,1.6689 2.5,3.7015 2.5,6.0938 l 0,7.8437 c -1e-4,2.4477 -0.831,4.4738 -2.5,6.0313 -1.6317,1.6317 -3.6144,2.4636 -5.9375,2.5 l -30.6875,0 0,-8.5313 0,-4.4687 0,-3.375 c 0,-1.2239 0.2115,-2.3112 0.6562,-3.3126 0.5008,-1.0569 1.1276,-2.0023 1.9063,-2.7812 1.5576,-1.6688 3.5834,-2.5001 6.0313,-2.5 z m 107.0624,0 21.9376,0 c 2.392,0 4.4248,0.8312 6.0937,2.5 0.7788,0.7789 1.3987,1.7244 1.8437,2.7812 0.4451,1.0013 0.6564,2.0885 0.6563,3.3126 l 0,7.8437 c 0,1.1682 -0.2112,2.2868 -0.6563,3.3437 -0.4451,1.0014 -1.0649,1.9089 -1.8437,2.6876 -1.6689,1.6689 -3.7021,2.4999 -6.0937,2.5 l -21.9376,0 c -2.3921,0 -4.4249,-0.831 -6.0937,-2.5 -0.7789,-0.7789 -1.399,-1.6862 -1.8437,-2.6876 -0.4452,-1.0569 -0.6562,-2.1756 -0.6563,-3.3437 l 0,-7.8437 c 0,-1.2239 0.2111,-2.3112 0.6563,-3.3126 0.4449,-1.0569 1.0648,-2.0023 1.8437,-2.7812 1.6688,-1.6688 3.7016,-2.5001 6.0937,-2.5 z"
         id="path3573"
         sodipodi:nodetypes="ccccccccscccccccccccccccccccsccccscccccccccccscccccsccccscccccccccccsscccssscccscccccccscccccccccsccccccsccccccccccsscccssscccscccccccssscccsccccccscccccsccccsscccsccccccsccsscccsssccccsccccscccsccccscccsccccccccccccccsccccscccscccccccccccccsccccsccsccccsc"
         inkscape:export-filename="C:\Documents and Settings\t12\My Documents\My Dropbox\graphicswork\openpilot.org\textplay.png"
         inkscape:export-xdpi="122.68"
         inkscape:export-ydpi="122.68" />
    </g>
  </g>
  <g
     inkscape:groupmode="layer"
     id="layer9"
     inkscape:label="Vario background (fixed)"
     style="display:inline"
     sodipodi:insensitive="true"
     transform="translate(-228.56377,-366.85416)">
    <path
       style="fill:none;stroke:#ffffff;stroke-width:8;stroke-linecap:butt;stroke-linejoin:miter;stroke-miterlimit:4;stroke-opacity:1;stroke-dasharray:none"
       d="m 380.91517,404.77478 0,-26.50433"
       id="path9559-0"
       inkscape:transform-center-y="-113.44194" />
    <path
       inkscape:transform-center-y="-113.44194"
       id="path9769-8"
       d="m 353.54603,408.42129 -6.77844,-25.60122"
       style="fill:none;stroke:#ffffff;stroke-width:3;stroke-linecap:butt;stroke-linejoin:miter;stroke-miterlimit:4;stroke-opacity:1;stroke-dasharray:none" />
    <path
       style="fill:none;stroke:#ffffff;stroke-width:3;stroke-linecap:butt;stroke-linejoin:miter;stroke-miterlimit:4;stroke-opacity:1;stroke-dasharray:none"
       d="M 328.04203,419.1122 314.94709,396.15877"
       id="path9775-4"
       inkscape:transform-center-y="-113.44194" />
    <path
       inkscape:transform-center-y="-113.44194"
       id="path9781-17"
       d="M 306.14124,436.11902 287.6222,417.37763"
       style="fill:none;stroke:#ffffff;stroke-width:8;stroke-linecap:butt;stroke-linejoin:miter;stroke-miterlimit:4;stroke-opacity:1;stroke-dasharray:none" />
    <path
       style="fill:none;stroke:#ffffff;stroke-width:3;stroke-linecap:butt;stroke-linejoin:miter;stroke-miterlimit:4;stroke-opacity:1;stroke-dasharray:none"
       d="m 289.33619,458.28276 -22.6811,-13.25217"
       id="path9787-5"
       inkscape:transform-center-y="-113.44194" />
    <path
       inkscape:transform-center-y="-113.44194"
       id="path9793-6"
       d="m 278.77211,484.09296 -25.29748,-6.85982"
       style="fill:none;stroke:#ffffff;stroke-width:3;stroke-linecap:butt;stroke-linejoin:miter;stroke-miterlimit:4;stroke-opacity:1;stroke-dasharray:none" />
    <path
       style="fill:none;stroke:#ffffff;stroke-width:8;stroke-linecap:butt;stroke-linejoin:miter;stroke-miterlimit:4;stroke-opacity:1;stroke-dasharray:none"
       d="m 275.16886,511.79071 -26.18989,0"
       id="path9799-23"
       inkscape:transform-center-y="-113.44194" />
    <path
       inkscape:transform-center-y="-113.44194"
       id="path9805-16"
       d="m 278.7721,539.48846 -25.29749,6.85983"
       style="fill:none;stroke:#ffffff;stroke-width:3;stroke-linecap:butt;stroke-linejoin:miter;stroke-miterlimit:4;stroke-opacity:1;stroke-dasharray:none" />
    <path
       style="fill:none;stroke:#ffffff;stroke-width:3;stroke-linecap:butt;stroke-linejoin:miter;stroke-miterlimit:4;stroke-opacity:1;stroke-dasharray:none"
       d="m 289.33616,565.29872 -22.68111,13.25217"
       id="path9811-6"
       inkscape:transform-center-y="-113.44194" />
    <path
       inkscape:transform-center-y="-113.44194"
       id="path9817-9"
       d="m 306.14121,587.46239 -18.51904,18.7414"
       style="fill:none;stroke:#ffffff;stroke-width:8;stroke-linecap:butt;stroke-linejoin:miter;stroke-miterlimit:4;stroke-opacity:1;stroke-dasharray:none" />
    <path
       style="fill:none;stroke:#ffffff;stroke-width:3;stroke-linecap:butt;stroke-linejoin:miter;stroke-miterlimit:4;stroke-opacity:1;stroke-dasharray:none"
       d="m 328.04197,604.46928 -13.09494,22.95343"
       id="path9823-5"
       inkscape:transform-center-y="-113.44194" />
    <path
       inkscape:transform-center-y="-113.44194"
       id="path9829-1"
       d="m 353.54594,615.16015 -6.77844,25.60123"
       style="fill:none;stroke:#ffffff;stroke-width:3;stroke-linecap:butt;stroke-linejoin:miter;stroke-miterlimit:4;stroke-opacity:1;stroke-dasharray:none" />
    <path
       style="fill:none;stroke:#ffffff;stroke-width:8;stroke-linecap:butt;stroke-linejoin:miter;stroke-miterlimit:4;stroke-opacity:1;stroke-dasharray:none"
       d="m 380.91511,618.8068 0,26.50433"
       id="path9835-3"
       inkscape:transform-center-y="-113.44194" />
    <path
       inkscape:transform-center-y="-113.44194"
       id="path9841-1"
       d="m 408.28428,615.16027 6.77844,25.60122"
       style="fill:none;stroke:#ffffff;stroke-width:3;stroke-linecap:butt;stroke-linejoin:miter;stroke-miterlimit:4;stroke-opacity:1;stroke-dasharray:none" />
    <path
       style="fill:none;stroke:#ffffff;stroke-width:3;stroke-linecap:butt;stroke-linejoin:miter;stroke-miterlimit:4;stroke-opacity:1;stroke-dasharray:none"
       d="m 433.78826,604.46941 13.09494,22.95343"
       id="path9847-7"
       inkscape:transform-center-y="-113.44194" />
    <path
       inkscape:transform-center-y="-113.44194"
       id="path9853-7"
       d="m 455.68907,587.46251 18.51904,18.7414"
       style="fill:none;stroke:#ffffff;stroke-width:8;stroke-linecap:butt;stroke-linejoin:miter;stroke-miterlimit:4;stroke-opacity:1;stroke-dasharray:none" />
    <path
       style="fill:none;stroke:#ffffff;stroke-width:3;stroke-linecap:butt;stroke-linejoin:miter;stroke-miterlimit:4;stroke-opacity:1;stroke-dasharray:none"
       d="m 472.4941,565.29882 22.6811,13.25217"
       id="path9859-3"
       inkscape:transform-center-y="-113.44194" />
    <path
       inkscape:transform-center-y="-113.44194"
       id="path9865-8"
       d="m 483.0582,539.48863 25.29748,6.85982"
       style="fill:none;stroke:#ffffff;stroke-width:3;stroke-linecap:butt;stroke-linejoin:miter;stroke-miterlimit:4;stroke-opacity:1;stroke-dasharray:none" />
    <path
       inkscape:transform-center-y="-113.44194"
       id="path9877-6"
       d="m 483.05833,484.09305 25.29749,-6.85982"
       style="fill:none;stroke:#ffffff;stroke-width:3;stroke-linecap:butt;stroke-linejoin:miter;stroke-miterlimit:4;stroke-opacity:1;stroke-dasharray:none" />
    <path
       style="fill:none;stroke:#ffffff;stroke-width:3;stroke-linecap:butt;stroke-linejoin:miter;stroke-miterlimit:4;stroke-opacity:1;stroke-dasharray:none"
       d="m 472.49428,458.28282 22.68111,-13.25217"
       id="path9883-4"
       inkscape:transform-center-y="-113.44194" />
    <path
       inkscape:transform-center-y="-113.44194"
       id="path9889-5"
       d="m 455.68922,436.11905 18.51904,-18.7414"
       style="fill:none;stroke:#ffffff;stroke-width:8;stroke-linecap:butt;stroke-linejoin:miter;stroke-miterlimit:4;stroke-opacity:1;stroke-dasharray:none" />
    <path
       style="fill:none;stroke:#ffffff;stroke-width:3;stroke-linecap:butt;stroke-linejoin:miter;stroke-miterlimit:4;stroke-opacity:1;stroke-dasharray:none"
       d="m 433.78845,419.11219 13.09494,-22.95343"
       id="path9895-0"
       inkscape:transform-center-y="-113.44194" />
    <path
       inkscape:transform-center-y="-113.44194"
       id="path9901-13"
       d="m 408.28446,408.42124 6.77844,-25.60123"
       style="fill:none;stroke:#ffffff;stroke-width:3;stroke-linecap:butt;stroke-linejoin:miter;stroke-miterlimit:4;stroke-opacity:1;stroke-dasharray:none" />
    <text
       xml:space="preserve"
       style="font-size:40px;font-style:normal;font-weight:normal;fill:#000000;fill-opacity:1;stroke:none;font-family:Bitstream Vera Sans"
       x="300.07623"
       y="524.50854"
       id="text3825"><tspan
         sodipodi:role="line"
         id="tspan3827"
         x="300.07623"
         y="524.50854"
         style="font-size:36px;fill:#ffffff;fill-opacity:1;stroke:#ffffff;stroke-opacity:1">0</tspan></text>
    <path
       sodipodi:type="arc"
       style="fill:none;stroke:#ffffff;stroke-width:4;stroke-linecap:round;stroke-linejoin:round;stroke-miterlimit:10;stroke-opacity:1;stroke-dasharray:none;stroke-dashoffset:0;marker-start:none"
       id="path4601"
       sodipodi:cx="242.14285"
       sodipodi:cy="405.93362"
       sodipodi:rx="87.14286"
       sodipodi:ry="88.571426"
       d="m 161.61336,439.77935 a 87.14286,88.571426 0 0 1 0.0421,-67.79488"
       transform="translate(138.42857,105.85713)"
       sodipodi:start="2.7494934"
       sodipodi:end="3.5349558"
       sodipodi:open="true" />
    <g
       id="g5617">
      <path
         sodipodi:nodetypes="ccc"
         id="path5613"
         d="m 300.04464,477.76397 -7.54464,7.99107 0,0"
         style="fill:none;stroke:#ffffff;stroke-width:4;stroke-linecap:round;stroke-linejoin:miter;stroke-miterlimit:4;stroke-opacity:1;stroke-dasharray:none" />
      <path
         style="fill:none;stroke:#ffffff;stroke-width:4;stroke-linecap:round;stroke-linejoin:miter;stroke-miterlimit:4;stroke-opacity:1;stroke-dasharray:none"
         d="m 300.17773,477.67697 1.11774,10.93293 0,0"
         id="path5615"
         sodipodi:nodetypes="ccc" />
    </g>
    <g
       id="g5621"
       transform="matrix(1,0,0,-1,-0.14657416,1023.3421)">
      <path
         style="fill:none;stroke:#ffffff;stroke-width:4;stroke-linecap:round;stroke-linejoin:miter;stroke-miterlimit:4;stroke-opacity:1;stroke-dasharray:none"
         d="m 300.04464,477.76397 -7.54464,7.99107 0,0"
         id="path5623"
         sodipodi:nodetypes="ccc" />
      <path
         sodipodi:nodetypes="ccc"
         id="path5625"
         d="m 300.17773,477.67697 1.11774,10.93293 0,0"
         style="fill:none;stroke:#ffffff;stroke-width:4;stroke-linecap:round;stroke-linejoin:miter;stroke-miterlimit:4;stroke-opacity:1;stroke-dasharray:none" />
    </g>
    <text
       xml:space="preserve"
       style="font-size:40px;font-style:normal;font-weight:normal;fill:#000000;fill-opacity:1;stroke:none;font-family:Bitstream Vera Sans"
       x="380.85715"
       y="548.93359"
       id="text5627"><tspan
         sodipodi:role="line"
         x="380.85715"
         y="548.93359"
         id="tspan5631"
         style="font-size:18px;text-align:center;text-anchor:middle;fill:#ffffff;fill-opacity:1;stroke:#ffffff;stroke-opacity:1">VERTICAL</tspan><tspan
         sodipodi:role="line"
         x="380.85715"
         y="571.43359"
         id="tspan5635"
         style="font-size:18px;text-align:center;text-anchor:middle;fill:#ffffff;fill-opacity:1;stroke:#ffffff;stroke-opacity:1">SPEED</tspan></text>
    <text
       xml:space="preserve"
       style="font-size:40px;font-style:normal;font-weight:normal;fill:#000000;fill-opacity:1;stroke:none;display:inline;font-family:Bitstream Vera Sans"
       x="380.38245"
       y="461.84027"
       id="text5627-6"><tspan
         sodipodi:role="line"
         x="380.38245"
         y="461.84027"
         id="tspan5635-5"
         style="font-size:18px;text-align:center;text-anchor:middle;fill:#ffffff;fill-opacity:1;stroke:#ffffff;stroke-opacity:1">M/S</tspan></text>
    <text
       xml:space="preserve"
       style="font-size:40px;font-style:normal;font-weight:normal;fill:#000000;fill-opacity:1;stroke:none;display:inline;font-family:Bitstream Vera Sans"
       x="305.14856"
       y="462.36218"
       id="text3825-4"><tspan
         sodipodi:role="line"
         id="tspan3827-2"
         x="305.14856"
         y="462.36218"
         style="font-size:32px;fill:#ffffff;fill-opacity:1;stroke:#ffffff;stroke-opacity:1">5</tspan></text>
    <text
       id="text5736"
       y="435.77521"
       x="361.79016"
       style="font-size:40px;font-style:normal;font-weight:normal;fill:#000000;fill-opacity:1;stroke:none;display:inline;font-family:Bitstream Vera Sans"
       xml:space="preserve"><tspan
         style="font-size:32px;fill:#ffffff;fill-opacity:1;stroke:#ffffff;stroke-opacity:1"
         y="435.77521"
         x="361.79016"
         id="tspan5738"
         sodipodi:role="line">10</tspan></text>
    <text
       xml:space="preserve"
       style="font-size:40px;font-style:normal;font-weight:normal;fill:#000000;fill-opacity:1;stroke:none;display:inline;font-family:Bitstream Vera Sans"
       x="418.8186"
       y="462.36218"
       id="text5740"><tspan
         sodipodi:role="line"
         id="tspan5742"
         x="418.8186"
         y="462.36218"
         style="font-size:32px;fill:#ffffff;fill-opacity:1;stroke:#ffffff;stroke-opacity:1">15</tspan></text>
    <text
       id="text5746"
       y="586.36218"
       x="305.14856"
       style="font-size:40px;font-style:normal;font-weight:normal;fill:#000000;fill-opacity:1;stroke:none;display:inline;font-family:Bitstream Vera Sans"
       xml:space="preserve"><tspan
         style="font-size:32px;fill:#ffffff;fill-opacity:1;stroke:#ffffff;stroke-opacity:1"
         y="586.36218"
         x="305.14856"
         id="tspan5748"
         sodipodi:role="line">5</tspan></text>
    <text
       xml:space="preserve"
       style="font-size:40px;font-style:normal;font-weight:normal;fill:#000000;fill-opacity:1;stroke:none;display:inline;font-family:Bitstream Vera Sans"
       x="361.79016"
       y="611.77521"
       id="text5750"><tspan
         sodipodi:role="line"
         id="tspan5752"
         x="361.79016"
         y="611.77521"
         style="font-size:32px;fill:#ffffff;fill-opacity:1;stroke:#ffffff;stroke-opacity:1">10</tspan></text>
    <text
       id="text5754"
       y="586.36218"
       x="418.8186"
       style="font-size:40px;font-style:normal;font-weight:normal;fill:#000000;fill-opacity:1;stroke:none;display:inline;font-family:Bitstream Vera Sans"
       xml:space="preserve"><tspan
         style="font-size:32px;fill:#ffffff;fill-opacity:1;stroke:#ffffff;stroke-opacity:1"
         y="586.36218"
         x="418.8186"
         id="tspan5756"
         sodipodi:role="line">15</tspan></text>
  </g>
</svg>
