<?xml version="1.0" encoding="utf-8"?>
<!-- Generator: Adobe Illustrator 15.0.0, SVG Export Plug-In . SVG Version: 6.00 Build 0)  -->
<!DOCTYPE svg PUBLIC "-//W3C//DTD SVG 1.1//EN" "http://www.w3.org/Graphics/SVG/1.1/DTD/svg11.dtd">
<svg version="1.1"
	 id="svg4745" inkscape:version="0.48pre1 r9509" sodipodi:docname="altimeter.svg" xmlns:inkscape="http://www.inkscape.org/namespaces/inkscape" xmlns:sodipodi="http://sodipodi.sourceforge.net/DTD/sodipodi-0.dtd" xmlns:rdf="http://www.w3.org/1999/02/22-rdf-syntax-ns#" xmlns:cc="http://creativecommons.org/ns#" xmlns:dc="http://purl.org/dc/elements/1.1/" xmlns:svg="http://www.w3.org/2000/svg"
	 xmlns="http://www.w3.org/2000/svg" xmlns:xlink="http://www.w3.org/1999/xlink" x="0px" y="0px" width="311.811px"
	 height="311.811px" viewBox="0 0 311.811 311.811" enable-background="new 0 0 311.811 311.811" xml:space="preserve">
<g id="layer1" inkscape:groupmode="layer" inkscape:label="Background">
	<g id="background" inkscape:label="#g3668">
		
			<linearGradient id="path5246_1_" gradientUnits="userSpaceOnUse" x1="251.3574" y1="889.7874" x2="43.5737" y2="529.8954" gradientTransform="matrix(1 0 0 1 8.4399 -553.9355)">
			<stop  offset="0" style="stop-color:#404041"/>
			<stop  offset="1" style="stop-color:#9FA0A4"/>
		</linearGradient>
		<path id="path5246" inkscape:connector-curvature="0" fill="url(#path5246_1_)" d="M311.81,297.638
			c0,7.825-6.346,14.172-14.172,14.172H14.174C6.346,311.81,0,305.464,0,297.638V14.174C0,6.347,6.346,0.001,14.174,0.001h283.464
			c7.827,0,14.173,6.347,14.173,14.173L311.81,297.638L311.81,297.638z"/>
		<g id="g5248">
			<path id="path5250" inkscape:connector-curvature="0" fill="#333333" d="M308.977,295.063c0,7.683-6.231,13.914-13.913,13.914
				H16.749c-7.685,0-13.915-6.231-13.915-13.914V16.75c0-7.686,6.23-13.916,13.915-13.916h278.313
				c7.683,0,13.914,6.229,13.914,13.916L308.977,295.063L308.977,295.063z"/>
			
				<linearGradient id="path5257_1_" gradientUnits="userSpaceOnUse" x1="249.4688" y1="886.5178" x2="45.4604" y2="533.1651" gradientTransform="matrix(1 0 0 1 8.4399 -553.9355)">
				<stop  offset="0" style="stop-color:#231F20"/>
				<stop  offset="1" style="stop-color:#F1F1F2"/>
			</linearGradient>
			<path id="path5257" inkscape:connector-curvature="0" opacity="0.2" fill="url(#path5257_1_)" enable-background="new    " d="
				M308.977,295.063c0,7.683-6.231,13.914-13.913,13.914H16.749c-7.685,0-13.915-6.231-13.915-13.914V16.75
				c0-7.686,6.23-13.916,13.915-13.916h278.313c7.683,0,13.914,6.229,13.914,13.916L308.977,295.063L308.977,295.063z"/>
		</g>
		<g id="g5259">
			<g id="g5263">
				<g id="g5265">
					<g id="g5267">
						
							<linearGradient id="circle5274_1_" gradientUnits="userSpaceOnUse" x1="11.4033" y1="575.8528" x2="5.7329" y2="566.0313" gradientTransform="matrix(1 0 0 1 8.4399 -553.9355)">
							<stop  offset="0" style="stop-color:#151515"/>
							<stop  offset="1" style="stop-color:#58595B"/>
						</linearGradient>
						
							<circle id="circle5274" sodipodi:ry="5.6690001" sodipodi:rx="5.6690001" sodipodi:cy="17.006001" sodipodi:cx="17.007999" fill="url(#circle5274_1_)" cx="17.008" cy="17.006" r="5.669">
						</circle>
					</g>
					<g id="g5276">
						
							<circle id="circle5278" sodipodi:ry="5.3860002" sodipodi:rx="5.3860002" sodipodi:cy="17.006001" sodipodi:cx="17.007999" fill="#1F1F1F" cx="17.008" cy="17.006" r="5.386">
						</circle>
						
							<linearGradient id="circle5285_1_" gradientUnits="userSpaceOnUse" x1="11.2617" y1="575.6077" x2="5.8745" y2="566.2767" gradientTransform="matrix(1 0 0 1 8.4399 -553.9355)">
							<stop  offset="0" style="stop-color:#404041"/>
							<stop  offset="1" style="stop-color:#9FA0A4"/>
						</linearGradient>
						
							<circle id="circle5285" sodipodi:ry="5.3860002" sodipodi:rx="5.3860002" sodipodi:cy="17.006001" sodipodi:cx="17.007999" opacity="0.5" fill="url(#circle5285_1_)" enable-background="new    " cx="17.008" cy="17.006" r="5.386">
						</circle>
					</g>
					
						<linearGradient id="polygon5292_1_" gradientUnits="userSpaceOnUse" x1="10.2583" y1="573.8704" x2="6.8769" y2="568.0137" gradientTransform="matrix(1 0 0 1 8.4399 -553.9355)">
						<stop  offset="0" style="stop-color:#58595B"/>
						<stop  offset="1" style="stop-color:#151515"/>
					</linearGradient>
					<polygon id="polygon5292" fill="url(#polygon5292_1_)" points="18.698,14.078 20.389,17.006 18.698,19.935 15.317,19.935 
						13.626,17.006 15.317,14.078 					"/>
					<polygon id="polygon5294" points="18.563,14.312 20.119,17.006 18.563,19.701 15.452,19.701 13.897,17.006 15.452,14.312 					
						"/>
				</g>
			</g>
		</g>
		<g id="g5296">
			<g id="g5300">
				<g id="g5302">
					<g id="g5304">
						
							<linearGradient id="circle5311_1_" gradientUnits="userSpaceOnUse" x1="289.1992" y1="575.8518" x2="283.5288" y2="566.0303" gradientTransform="matrix(1 0 0 1 8.4399 -553.9355)">
							<stop  offset="0" style="stop-color:#151515"/>
							<stop  offset="1" style="stop-color:#58595B"/>
						</linearGradient>
						
							<circle id="circle5311" sodipodi:ry="5.6690001" sodipodi:rx="5.6690001" sodipodi:cy="17.006001" sodipodi:cx="294.80399" fill="url(#circle5311_1_)" cx="294.804" cy="17.006" r="5.669">
						</circle>
					</g>
					<g id="g5313">
						
							<circle id="circle5315" sodipodi:ry="5.3860002" sodipodi:rx="5.3860002" sodipodi:cy="17.006001" sodipodi:cx="294.80399" fill="#1F1F1F" cx="294.804" cy="17.006" r="5.386">
						</circle>
						
							<linearGradient id="circle5322_1_" gradientUnits="userSpaceOnUse" x1="289.0576" y1="575.6067" x2="283.671" y2="566.2766" gradientTransform="matrix(1 0 0 1 8.4399 -553.9355)">
							<stop  offset="0" style="stop-color:#404041"/>
							<stop  offset="1" style="stop-color:#9FA0A4"/>
						</linearGradient>
						
							<circle id="circle5322" sodipodi:ry="5.3860002" sodipodi:rx="5.3860002" sodipodi:cy="17.006001" sodipodi:cx="294.80399" opacity="0.5" fill="url(#circle5322_1_)" enable-background="new    " cx="294.804" cy="17.006" r="5.386">
						</circle>
					</g>
					
						<linearGradient id="polygon5329_1_" gradientUnits="userSpaceOnUse" x1="288.0547" y1="573.8704" x2="284.6734" y2="568.0137" gradientTransform="matrix(1 0 0 1 8.4399 -553.9355)">
						<stop  offset="0" style="stop-color:#58595B"/>
						<stop  offset="1" style="stop-color:#151515"/>
					</linearGradient>
					<polygon id="polygon5329" fill="url(#polygon5329_1_)" points="296.494,14.078 298.186,17.006 296.494,19.935 293.112,19.935 
						291.422,17.006 293.112,14.078 					"/>
					<polygon id="polygon5331" points="296.358,14.312 297.914,17.006 296.358,19.701 293.248,19.701 291.692,17.006 
						293.248,14.312 					"/>
				</g>
			</g>
		</g>
		<g id="g5333">
			<g id="g5337">
				<g id="g5339">
					<g id="g5341">
						
							<linearGradient id="circle5348_1_" gradientUnits="userSpaceOnUse" x1="289.1982" y1="853.6497" x2="283.5284" y2="843.829" gradientTransform="matrix(1 0 0 1 8.4399 -553.9355)">
							<stop  offset="0" style="stop-color:#151515"/>
							<stop  offset="1" style="stop-color:#58595B"/>
						</linearGradient>
						
							<circle id="circle5348" sodipodi:ry="5.6690001" sodipodi:rx="5.6690001" sodipodi:cy="294.80301" sodipodi:cx="294.80301" fill="url(#circle5348_1_)" cx="294.804" cy="294.803" r="5.669">
						</circle>
					</g>
					<g id="g5350">
						
							<circle id="circle5352" sodipodi:ry="5.3860002" sodipodi:rx="5.3860002" sodipodi:cy="294.80301" sodipodi:cx="294.80301" fill="#1F1F1F" cx="294.804" cy="294.803" r="5.386">
						</circle>
						
							<linearGradient id="circle5359_1_" gradientUnits="userSpaceOnUse" x1="289.0566" y1="853.4036" x2="283.67" y2="844.0734" gradientTransform="matrix(1 0 0 1 8.4399 -553.9355)">
							<stop  offset="0" style="stop-color:#404041"/>
							<stop  offset="1" style="stop-color:#9FA0A4"/>
						</linearGradient>
						
							<circle id="circle5359" sodipodi:ry="5.3860002" sodipodi:rx="5.3860002" sodipodi:cy="294.80301" sodipodi:cx="294.80301" opacity="0.5" fill="url(#circle5359_1_)" enable-background="new    " cx="294.804" cy="294.803" r="5.386">
						</circle>
					</g>
					
						<linearGradient id="polygon5366_1_" gradientUnits="userSpaceOnUse" x1="288.0527" y1="851.6663" x2="284.6719" y2="845.8104" gradientTransform="matrix(1 0 0 1 8.4399 -553.9355)">
						<stop  offset="0" style="stop-color:#58595B"/>
						<stop  offset="1" style="stop-color:#151515"/>
					</linearGradient>
					<polygon id="polygon5366" fill="url(#polygon5366_1_)" points="296.493,291.874 298.185,294.803 296.493,297.73 
						293.112,297.73 291.421,294.803 293.112,291.874 					"/>
					<polygon id="polygon5368" points="296.358,292.107 297.913,294.803 296.358,297.496 293.247,297.496 291.692,294.803 
						293.247,292.107 					"/>
				</g>
			</g>
		</g>
		<g id="g5370">
			<g id="g5374">
				<g id="g5376">
					<g id="g5378">
						
							<linearGradient id="circle5385_1_" gradientUnits="userSpaceOnUse" x1="11.4033" y1="853.6497" x2="5.7334" y2="843.829" gradientTransform="matrix(1 0 0 1 8.4399 -553.9355)">
							<stop  offset="0" style="stop-color:#151515"/>
							<stop  offset="1" style="stop-color:#58595B"/>
						</linearGradient>
						
							<circle id="circle5385" sodipodi:ry="5.6690001" sodipodi:rx="5.6690001" sodipodi:cy="294.80301" sodipodi:cx="17.007999" fill="url(#circle5385_1_)" cx="17.008" cy="294.803" r="5.669">
						</circle>
					</g>
					<g id="g5387">
						
							<circle id="circle5389" sodipodi:ry="5.3860002" sodipodi:rx="5.3860002" sodipodi:cy="294.80301" sodipodi:cx="17.007999" fill="#1F1F1F" cx="17.008" cy="294.803" r="5.386">
						</circle>
						
							<linearGradient id="circle5396_1_" gradientUnits="userSpaceOnUse" x1="11.2617" y1="853.4036" x2="5.875" y2="844.0735" gradientTransform="matrix(1 0 0 1 8.4399 -553.9355)">
							<stop  offset="0" style="stop-color:#404041"/>
							<stop  offset="1" style="stop-color:#9FA0A4"/>
						</linearGradient>
						
							<circle id="circle5396" sodipodi:ry="5.3860002" sodipodi:rx="5.3860002" sodipodi:cy="294.80301" sodipodi:cx="17.007999" opacity="0.5" fill="url(#circle5396_1_)" enable-background="new    " cx="17.008" cy="294.803" r="5.386">
						</circle>
					</g>
					
						<linearGradient id="polygon5403_1_" gradientUnits="userSpaceOnUse" x1="10.2583" y1="851.6653" x2="6.8775" y2="845.8094" gradientTransform="matrix(1 0 0 1 8.4399 -553.9355)">
						<stop  offset="0" style="stop-color:#58595B"/>
						<stop  offset="1" style="stop-color:#151515"/>
					</linearGradient>
					<polygon id="polygon5403" fill="url(#polygon5403_1_)" points="18.699,291.874 20.39,294.803 18.699,297.73 15.318,297.73 
						13.626,294.803 15.318,291.874 					"/>
					<polygon id="polygon5405" points="18.564,292.107 20.119,294.803 18.564,297.496 15.453,297.496 13.898,294.803 
						15.453,292.107 					"/>
				</g>
			</g>
		</g>
		<g id="g5407">
			<g id="g5411">
				
					<linearGradient id="circle5418_1_" gradientUnits="userSpaceOnUse" x1="72.3354" y1="579.7102" x2="222.5967" y2="839.9703" gradientTransform="matrix(1 0 0 1 8.4399 -553.9355)">
					<stop  offset="0" style="stop-color:#FFFFFF"/>
					<stop  offset="1" style="stop-color:#231F20"/>
				</linearGradient>
				
					<circle id="circle5418" sodipodi:ry="150.23599" sodipodi:rx="150.23599" sodipodi:cy="155.90401" sodipodi:cx="155.90601" fill="url(#circle5418_1_)" cx="155.906" cy="155.904" r="150.236">
				</circle>
			</g>
		</g>
		
			<linearGradient id="circle5425_1_" gradientUnits="userSpaceOnUse" x1="75.1704" y1="584.6204" x2="219.7617" y2="835.0599" gradientTransform="matrix(1 0 0 1 8.4399 -553.9355)">
			<stop  offset="0" style="stop-color:#404041"/>
			<stop  offset="1" style="stop-color:#9FA0A4"/>
		</linearGradient>
		
			<circle id="circle5425" sodipodi:ry="144.567" sodipodi:rx="144.567" sodipodi:cy="155.90401" sodipodi:cx="155.90601" fill="url(#circle5425_1_)" cx="155.906" cy="155.904" r="144.567">
		</circle>
		<g id="g5427">
			
				<circle id="circle5429" sodipodi:ry="143.149" sodipodi:rx="143.149" sodipodi:cy="155.905" sodipodi:cx="155.905" cx="155.905" cy="155.905" r="143.149">
			</circle>
			
				<radialGradient id="circle5436_1_" cx="147.4648" cy="709.8411" r="143.1489" gradientTransform="matrix(1 0 0 1 8.4399 -553.9355)" gradientUnits="userSpaceOnUse">
				<stop  offset="0" style="stop-color:#404040"/>
				<stop  offset="1" style="stop-color:#000000"/>
			</radialGradient>
			
				<circle id="circle5436" sodipodi:ry="143.149" sodipodi:rx="143.149" sodipodi:cy="155.905" sodipodi:cx="155.905" fill="url(#circle5436_1_)" cx="155.905" cy="155.905" r="143.149">
			</circle>
		</g>
		<g>
			<line fill="none" x1="165.164" y1="131.423" x2="207.329" y2="169.79"/>
			<g>
				<path fill="#F8B133" d="M164.103,132.484c14.056,12.789,28.11,25.578,42.166,38.367c1.426,1.299,3.555-0.815,2.121-2.121
					c-14.056-12.789-28.111-25.578-42.166-38.367C164.798,129.064,162.67,131.179,164.103,132.484L164.103,132.484z"/>
			</g>
		</g>
		<g>
			<line fill="none" x1="207.329" y1="169.79" x2="207.329" y2="184.839"/>
			<g>
				<path fill="#F8B133" d="M205.829,169.79c0,5.017,0,10.031,0,15.049c0,1.935,3,1.935,3,0c0-5.018,0-10.032,0-15.049
					C208.829,167.855,205.829,167.855,205.829,169.79L205.829,169.79z"/>
			</g>
		</g>
		<g>
			<line fill="none" x1="207.329" y1="184.839" x2="165.33" y2="162.757"/>
			<g>
				<path fill="#F8B133" d="M208.086,183.544c-13.999-7.361-27.999-14.723-41.999-22.082c-1.71-0.899-3.227,1.688-1.514,2.59
					c13.998,7.361,27.998,14.722,41.998,22.082C208.282,187.033,209.799,184.444,208.086,183.544L208.086,183.544z"/>
			</g>
		</g>
		<g>
			<line fill="none" x1="165.33" y1="162.757" x2="163.165" y2="201.725"/>
			<g>
				<path fill="#F8B133" d="M163.83,162.757c-0.722,12.989-1.442,25.979-2.165,38.969c-0.107,1.935,2.895,1.924,3,0
					c0.723-12.989,1.443-25.979,2.165-38.969C166.937,160.823,163.937,160.833,163.83,162.757L163.83,162.757z"/>
			</g>
		</g>
		<g>
			<line fill="none" x1="163.165" y1="201.725" x2="179.185" y2="215.581"/>
			<g>
				<path fill="#F8B133" d="M162.104,202.786c5.34,4.617,10.681,9.236,16.021,13.854c1.455,1.259,3.587-0.854,2.121-2.121
					c-5.34-4.618-10.681-9.237-16.021-13.854C162.771,199.406,160.638,201.518,162.104,202.786L162.104,202.786z"/>
			</g>
		</g>
		<g>
			<line fill="none" x1="179.185" y1="215.581" x2="179.185" y2="230.735"/>
			<g>
				<path fill="#F8B133" d="M177.685,215.581c0,5.052,0,10.103,0,15.153c0,1.936,3,1.936,3,0c0-5.052,0-10.103,0-15.153
					C180.685,213.646,177.685,213.646,177.685,215.581L177.685,215.581z"/>
			</g>
		</g>
		<g>
			<line fill="none" x1="179.185" y1="230.735" x2="160.55" y2="219.044"/>
			<g>
				<path fill="#F8B133" d="M179.942,229.44c-6.213-3.896-12.424-7.795-18.637-11.69c-1.644-1.031-3.147,1.563-1.514,2.59
					c6.212,3.896,12.424,7.795,18.637,11.69C180.071,233.061,181.577,230.466,179.942,229.44L179.942,229.44z"/>
			</g>
		</g>
		<g>
			<line fill="none" x1="160.55" y1="219.044" x2="155.652" y2="223.156"/>
			<g>
				<path fill="#F8B133" d="M159.489,217.983c-1.633,1.371-3.265,2.742-4.897,4.113c-1.483,1.246,0.65,3.356,2.121,2.121
					c1.634-1.371,3.265-2.742,4.897-4.113C163.094,218.858,160.96,216.748,159.489,217.983L159.489,217.983z"/>
			</g>
		</g>
		<g>
			<line fill="none" x1="155.652" y1="223.156" x2="151.473" y2="219.044"/>
			<g>
				<path fill="#F8B133" d="M156.713,222.096c-1.393-1.371-2.786-2.742-4.179-4.113c-1.379-1.356-3.501,0.764-2.121,2.121
					c1.393,1.371,2.786,2.742,4.179,4.113C155.971,225.575,158.094,223.455,156.713,222.096L156.713,222.096z"/>
			</g>
		</g>
		<g>
			<line fill="none" x1="151.473" y1="219.044" x2="131.556" y2="230.735"/>
			<g>
				<path fill="#F8B133" d="M150.717,217.749c-6.639,3.896-13.278,7.794-19.917,11.69c-1.667,0.979-0.158,3.571,1.514,2.59
					c6.639-3.896,13.278-7.794,19.917-11.69C153.897,219.36,152.388,216.767,150.717,217.749L150.717,217.749z"/>
			</g>
		</g>
		<g>
			<line fill="none" x1="131.556" y1="230.735" x2="131.556" y2="215.581"/>
			<g>
				<path fill="#F8B133" d="M133.056,230.735c0-5.052,0-10.103,0-15.153c0-1.936-3-1.936-3,0c0,5.052,0,10.103,0,15.153
					C130.056,232.67,133.056,232.67,133.056,230.735L133.056,230.735z"/>
			</g>
		</g>
		<g>
			<line fill="none" x1="131.556" y1="215.581" x2="148.443" y2="199.995"/>
			<g>
				<path fill="#F8B133" d="M132.617,216.641c5.629-5.195,11.258-10.391,16.887-15.586c1.424-1.313-0.702-3.431-2.121-2.121
					c-5.629,5.195-11.258,10.392-16.887,15.586C129.072,215.835,131.198,217.951,132.617,216.641L132.617,216.641z"/>
			</g>
		</g>
		<g>
			<line fill="none" x1="148.443" y1="199.995" x2="145.844" y2="162.757"/>
			<g>
				<path fill="#F8B133" d="M149.943,199.995c-0.866-12.413-1.732-24.825-2.599-37.238c-0.134-1.919-3.135-1.933-3,0
					c0.866,12.413,1.732,24.825,2.599,37.238C147.077,201.914,150.078,201.927,149.943,199.995L149.943,199.995z"/>
			</g>
		</g>
		<g>
			<line fill="none" x1="145.844" y1="162.757" x2="103.412" y2="184.839"/>
			<g>
				<path fill="#F8B133" d="M145.088,161.462c-14.145,7.359-28.289,14.721-42.433,22.082c-1.717,0.893-0.2,3.48,1.514,2.59
					c14.145-7.36,28.289-14.721,42.433-22.082C148.318,163.159,146.801,160.57,145.088,161.462L145.088,161.462z"/>
			</g>
		</g>
		<g>
			<line fill="none" x1="103.412" y1="184.839" x2="103.412" y2="169.79"/>
			<g>
				<path fill="#F8B133" d="M104.912,184.839c0-5.018,0-10.032,0-15.049c0-1.936-3-1.936-3,0c0,5.017,0,10.031,0,15.049
					C101.912,186.773,104.912,186.773,104.912,184.839L104.912,184.839z"/>
			</g>
		</g>
		<g>
			<line fill="none" x1="103.412" y1="169.79" x2="145.844" y2="131.581"/>
			<g>
				<path fill="#F8B133" d="M104.472,170.85c14.145-12.736,28.289-25.472,42.433-38.208c1.44-1.297-0.688-3.412-2.121-2.121
					c-14.145,12.736-28.289,25.473-42.433,38.208C100.911,170.026,103.039,172.141,104.472,170.85L104.472,170.85z"/>
			</g>
		</g>
		<g>
			<line fill="none" x1="162.147" y1="105.551" x2="165.33" y2="131.423"/>
			<g>
				<path fill="#F8B133" d="M160.647,105.551c1.061,8.624,2.121,17.249,3.183,25.873c0.233,1.895,3.235,1.917,3,0
					c-1.062-8.624-2.122-17.249-3.183-25.873C163.414,103.656,160.411,103.634,160.647,105.551L160.647,105.551z"/>
			</g>
		</g>
		<g>
			<line fill="none" x1="145.844" y1="131.581" x2="149.166" y2="105.551"/>
			<g>
				<path fill="#F8B133" d="M147.344,131.581c1.107-8.678,2.214-17.354,3.321-26.031c0.244-1.916-2.759-1.892-3,0
					c-1.107,8.677-2.214,17.354-3.321,26.031C144.1,133.497,147.103,133.473,147.344,131.581L147.344,131.581z"/>
			</g>
		</g>
		<g>
			<line fill="none" x1="155.652" y1="92.64" x2="149.166" y2="105.146"/>
			<g>
				<path fill="#F8B133" d="M154.357,91.883c-2.162,4.169-4.324,8.337-6.486,12.506c-0.889,1.715,1.7,3.232,2.591,1.515
					c2.162-4.169,4.324-8.337,6.486-12.506C157.837,91.682,155.248,90.165,154.357,91.883L154.357,91.883z"/>
			</g>
		</g>
		<g>
			<line fill="none" x1="155.652" y1="92.64" x2="162.147" y2="105.146"/>
			<g>
				<path fill="#F8B133" d="M154.357,93.397c2.166,4.168,4.332,8.337,6.496,12.506c0.893,1.718,3.48,0.2,2.59-1.515
					c-2.164-4.168-4.33-8.337-6.494-12.506C156.055,90.165,153.467,91.683,154.357,93.397L154.357,93.397z"/>
			</g>
		</g>
		<g>
			<line fill="none" x1="155.652" y1="66.405" x2="155.652" y2="94.155"/>
			<g>
				<path fill="#F8B133" d="M154.671,66.467c0,9.25,0,18.5,0,27.75c0,1.059,1.963,0.803,1.963-0.124c0-9.25,0-18.5,0-27.75
					C156.634,65.284,154.671,65.54,154.671,66.467L154.671,66.467z"/>
			</g>
		</g>
	</g>
</g>
<g id="needle_1_" inkscape:groupmode="layer" inkscape:label="Foreground">
	<g id="compass" inkscape:label="#g8506">
		<line id="line5438" fill="none" stroke="#FFFFFF" stroke-width="4" x1="155.906" y1="15.589" x2="155.906" y2="36.376"/>
		<line id="line5438_3_" fill="none" stroke="#FFFFFF" stroke-width="4" x1="119.65" y1="20.493" x2="125.03" y2="40.572"/>
		<line id="line5438_4_" fill="none" stroke="#FFFFFF" stroke-width="4" x1="85.898" y1="34.615" x2="96.291" y2="52.617"/>
		<line id="line5438_5_" fill="none" stroke="#FFFFFF" stroke-width="4" x1="56.951" y1="56.99" x2="71.65" y2="71.689"/>
		<line id="line5438_6_" fill="none" stroke="#FFFFFF" stroke-width="4" x1="34.61" y1="86.118" x2="52.612" y2="96.512"/>
		<line id="line5438_7_" fill="none" stroke="#FFFFFF" stroke-width="4" x1="20.568" y1="120.036" x2="40.647" y2="125.416"/>
		<line id="line5438_8_" fill="none" stroke="#FFFFFF" stroke-width="4" x1="15.875" y1="156.289" x2="36.661" y2="156.289"/>
		<line id="line5438_9_" fill="none" stroke="#FFFFFF" stroke-width="4" x1="20.724" y1="192.521" x2="40.802" y2="187.141"/>
		<line id="line5438_10_" fill="none" stroke="#FFFFFF" stroke-width="4" x1="34.798" y1="226.273" x2="52.8" y2="215.88"/>
		<line id="line5438_11_" fill="none" stroke="#FFFFFF" stroke-width="4" x1="57.129" y1="255.243" x2="71.827" y2="240.545"/>
		<line id="line5438_12_" fill="none" stroke="#FFFFFF" stroke-width="4" x1="86.208" y1="277.445" x2="96.601" y2="259.443"/>
		<line id="line5438_13_" fill="none" stroke="#FFFFFF" stroke-width="4" x1="120.053" y1="291.363" x2="125.433" y2="271.284"/>
		<line id="line5438_14_" fill="none" stroke="#FFFFFF" stroke-width="4" x1="156.328" y1="296.06" x2="156.327" y2="275.273"/>
		<line id="line5438_15_" fill="none" stroke="#FFFFFF" stroke-width="4" x1="192.603" y1="291.195" x2="187.222" y2="271.117"/>
		<line id="line5438_16_" fill="none" stroke="#FFFFFF" stroke-width="4" x1="226.382" y1="277.107" x2="215.987" y2="259.106"/>
		<line id="line5438_17_" fill="none" stroke="#FFFFFF" stroke-width="4" x1="255.362" y1="254.757" x2="240.664" y2="240.059"/>
		<line id="line5438_18_" fill="none" stroke="#FFFFFF" stroke-width="4" x1="277.592" y1="225.642" x2="259.589" y2="215.251"/>
		<line id="line5438_19_" fill="none" stroke="#FFFFFF" stroke-width="4" x1="291.517" y1="191.768" x2="271.437" y2="186.39"/>
		<line id="line5438_20_" fill="none" stroke="#FFFFFF" stroke-width="4" x1="296.209" y1="155.432" x2="275.422" y2="155.435"/>
		<line id="line5438_21_" fill="none" stroke="#FFFFFF" stroke-width="4" x1="291.317" y1="119.125" x2="271.239" y2="124.508"/>
		<line id="line5438_22_" fill="none" stroke="#FFFFFF" stroke-width="4" x1="277.179" y1="85.323" x2="259.177" y2="95.719"/>
		<line id="line5438_23_" fill="none" stroke="#FFFFFF" stroke-width="4" x1="254.772" y1="56.333" x2="240.076" y2="71.034"/>
		<line id="line5438_24_" fill="none" stroke="#FFFFFF" stroke-width="4" x1="225.621" y1="34.135" x2="215.229" y2="52.138"/>
		<line id="line5438_25_" fill="none" stroke="#FFFFFF" stroke-width="4" x1="191.718" y1="20.245" x2="186.34" y2="40.325"/>
		<line id="line5438_26_" fill="none" stroke="#FFFFFF" stroke-width="4" x1="155.37" y1="15.605" x2="155.373" y2="36.393"/>
		<text id="text5556" transform="matrix(1 0 0 1 142.6421 66.4045)" fill="#F4962A" font-family="'CenturyGothic'" font-size="37">N</text>
		
			<text id="text5570" transform="matrix(-1 0 0 -1 164.0635 243.5461)" fill="#F4982D" font-family="'CenturyGothic'" font-size="37">S</text>
		
			<text id="text5556_1_" transform="matrix(0 -1 1 0 67.9053 173.6624)" fill="#F4962A" font-family="'CenturyGothic'" font-size="37">W</text>
		
			<text id="text5556_2_" transform="matrix(0 1 -1 0 244.4053 145.5139)" fill="#F4962A" font-family="'CenturyGothic'" font-size="37">E</text>
		<line id="line5438_1_" fill="none" stroke="#FFFFFF" stroke-width="4" x1="155.905" y1="274.014" x2="155.905" y2="294.802"/>
		
			<text id="text5556_3_" transform="matrix(0.866 0.5 -0.5 0.866 201.4229 65.7844)" fill="#FFFFFF" font-family="'CenturyGothic'" font-size="19">3</text>
		
			<text id="text5556_4_" transform="matrix(0.5 0.866 -0.866 0.5 241.9561 99.3811)" fill="#FFFFFF" font-family="'CenturyGothic'" font-size="19">6</text>
		
			<text id="text5556_5_" transform="matrix(-0.5 0.866 -0.866 -0.5 249.6318 195.9885)" fill="#FFFFFF" font-family="'CenturyGothic'" font-size="19">12</text>
		
			<text id="text5556_6_" transform="matrix(-0.866 0.5 -0.5 -0.866 215.0293 235.2405)" fill="#FFFFFF" font-family="'CenturyGothic'" font-size="19">15</text>
		
			<text id="text5556_7_" transform="matrix(-0.866 -0.5 0.5 -0.866 115.5723 248.7708)" fill="#FFFFFF" font-family="'CenturyGothic'" font-size="19">21</text>
		
			<text id="text5556_8_" transform="matrix(-0.5 -0.866 0.866 -0.5 73.21 216.1799)" fill="#FFFFFF" font-family="'CenturyGothic'" font-size="19">24</text>
		
			<text id="text5556_9_" transform="matrix(0.5 -0.866 0.866 0.5 62.6797 115.6311)" fill="#FFFFFF" font-family="'CenturyGothic'" font-size="19">30</text>
		
			<text id="text5556_10_" transform="matrix(0.866 -0.5 0.5 0.866 94.7393 73.6819)" fill="#FFFFFF" font-family="'CenturyGothic'" font-size="19">33</text>
	</g>
	<g id="g5908" inkscape:label="#Background">
		<path id="path5916" inkscape:connector-curvature="0" fill="none" stroke="#3B3131" stroke-width="2" stroke-opacity="0" d="
			M311.81,297.638c0,7.825-6.346,14.172-14.172,14.172H14.174C6.346,311.81,0,305.464,0,297.638V14.174
			C0,6.347,6.346,0.001,14.174,0.001h283.464c7.827,0,14.173,6.347,14.173,14.173L311.81,297.638L311.81,297.638z"/>
	</g>
</g>
</svg>
