<?xml version="1.0" encoding="UTF-8" standalone="no"?>
<!-- Created with Inkscape (http://www.inkscape.org/) -->

<svg
   xmlns:dc="http://purl.org/dc/elements/1.1/"
   xmlns:cc="http://creativecommons.org/ns#"
   xmlns:rdf="http://www.w3.org/1999/02/22-rdf-syntax-ns#"
   xmlns:svg="http://www.w3.org/2000/svg"
   xmlns="http://www.w3.org/2000/svg"
   xmlns:xlink="http://www.w3.org/1999/xlink"
   xmlns:sodipodi="http://sodipodi.sourceforge.net/DTD/sodipodi-0.dtd"
   xmlns:inkscape="http://www.inkscape.org/namespaces/inkscape"
   width="492.01529"
   height="495.57877"
   id="svg2"
   version="1.1"
   inkscape:version="0.48.5 r10040"
   sodipodi:docname="gpsEarth.svg">
  <defs
     id="defs4">
    <linearGradient
       id="linearGradient3902"
       inkscape:collect="always">
      <stop
         id="stop3904"
         offset="0"
         style="stop-color:#f1f4fc;stop-opacity:0.92084942" />
      <stop
         id="stop3906"
         offset="1"
         style="stop-color:#f1f4fc;stop-opacity:0;" />
    </linearGradient>
    <linearGradient
       id="linearGradient3943">
      <stop
         id="stop3945"
         offset="0"
         style="stop-color:#fd700b;stop-opacity:1;" />
      <stop
         id="stop3947"
         offset="1"
         style="stop-color:#fff954;stop-opacity:0;" />
    </linearGradient>
    <linearGradient
       id="linearGradient3853">
      <stop
         style="stop-color:#fff954;stop-opacity:1;"
         offset="0"
         id="stop3855" />
      <stop
         style="stop-color:#fff954;stop-opacity:0;"
         offset="1"
         id="stop3857" />
    </linearGradient>
    <linearGradient
       id="linearGradient3845">
      <stop
         style="stop-color:#ffe054;stop-opacity:1;"
         offset="0"
         id="stop3847" />
      <stop
         style="stop-color:#fff954;stop-opacity:0;"
         offset="1"
         id="stop3849" />
    </linearGradient>
    <linearGradient
       inkscape:collect="always"
       id="linearGradient3825">
      <stop
         style="stop-color:#f1f4fc;stop-opacity:1;"
         offset="0"
         id="stop3827" />
      <stop
         style="stop-color:#f1f4fc;stop-opacity:0;"
         offset="1"
         id="stop3829" />
    </linearGradient>
    <linearGradient
       inkscape:collect="always"
       id="linearGradient3815">
      <stop
         style="stop-color:#f1f4fc;stop-opacity:1;"
         offset="0"
         id="stop3817" />
      <stop
         style="stop-color:#f1f4fc;stop-opacity:0;"
         offset="1"
         id="stop3819" />
    </linearGradient>
    <linearGradient
       id="linearGradient3899">
      <stop
         id="stop3901"
         offset="0"
         style="stop-color:#9eacdf;stop-opacity:1;" />
      <stop
         style="stop-color:#727272;stop-opacity:1"
         offset="0.53534538"
         id="stop3903" />
      <stop
         id="stop3905"
         offset="1"
         style="stop-color:#9498a5;stop-opacity:0;" />
    </linearGradient>
    <linearGradient
       id="linearGradient3592">
      <stop
         style="stop-color:#9eacdf;stop-opacity:1;"
         offset="0"
         id="stop3594" />
      <stop
         id="stop3897"
         offset="0.5"
         style="stop-color:#acbbf0;stop-opacity:0.49803922;" />
      <stop
         style="stop-color:#9498a5;stop-opacity:0;"
         offset="1"
         id="stop3596" />
    </linearGradient>
    <inkscape:perspective
       sodipodi:type="inkscape:persp3d"
       inkscape:vp_x="0 : 526.18109 : 1"
       inkscape:vp_y="0 : 1000 : 0"
       inkscape:vp_z="744.09448 : 526.18109 : 1"
       inkscape:persp3d-origin="372.04724 : 350.78739 : 1"
       id="perspective10" />
    <linearGradient
       inkscape:collect="always"
       xlink:href="#linearGradient3592"
       id="linearGradient3602"
       x1="337.63348"
       y1="371.99725"
       x2="729.8302"
       y2="676.58545"
       gradientUnits="userSpaceOnUse" />
    <inkscape:perspective
       id="perspective3631"
       inkscape:persp3d-origin="0.5 : 0.33333333 : 1"
       inkscape:vp_z="1 : 0.5 : 1"
       inkscape:vp_y="0 : 1000 : 0"
       inkscape:vp_x="0 : 0.5 : 1"
       sodipodi:type="inkscape:persp3d" />
    <inkscape:perspective
       id="perspective3631-9"
       inkscape:persp3d-origin="0.5 : 0.33333333 : 1"
       inkscape:vp_z="1 : 0.5 : 1"
       inkscape:vp_y="0 : 1000 : 0"
       inkscape:vp_x="0 : 0.5 : 1"
       sodipodi:type="inkscape:persp3d" />
    <inkscape:perspective
       id="perspective3631-4"
       inkscape:persp3d-origin="0.5 : 0.33333333 : 1"
       inkscape:vp_z="1 : 0.5 : 1"
       inkscape:vp_y="0 : 1000 : 0"
       inkscape:vp_x="0 : 0.5 : 1"
       sodipodi:type="inkscape:persp3d" />
    <inkscape:perspective
       id="perspective3739"
       inkscape:persp3d-origin="0.5 : 0.33333333 : 1"
       inkscape:vp_z="1 : 0.5 : 1"
       inkscape:vp_y="0 : 1000 : 0"
       inkscape:vp_x="0 : 0.5 : 1"
       sodipodi:type="inkscape:persp3d" />
    <linearGradient
       inkscape:collect="always"
       xlink:href="#linearGradient3899"
       id="linearGradient3820"
       gradientUnits="userSpaceOnUse"
       x1="337.63348"
       y1="371.99725"
       x2="729.8302"
       y2="676.58545" />
    <linearGradient
       inkscape:collect="always"
       xlink:href="#linearGradient3815"
       id="linearGradient3823"
       x1="482.57312"
       y1="500.55402"
       x2="194.33984"
       y2="219.71851"
       gradientUnits="userSpaceOnUse" />
    <linearGradient
       inkscape:collect="always"
       xlink:href="#linearGradient3825"
       id="linearGradient3831"
       x1="540.86261"
       y1="555.99707"
       x2="243.24741"
       y2="265.59933"
       gradientUnits="userSpaceOnUse" />
    <radialGradient
       inkscape:collect="always"
       xlink:href="#linearGradient3815"
       id="radialGradient3843"
       cx="559.92383"
       cy="182.67093"
       fx="559.92383"
       fy="182.67093"
       r="21.496641"
       gradientUnits="userSpaceOnUse"
       gradientTransform="matrix(-0.11243486,0.51064271,-0.68854473,-0.15160586,748.65596,-75.556107)" />
    <linearGradient
       inkscape:collect="always"
       xlink:href="#linearGradient3845"
       id="linearGradient3859"
       x1="572.75409"
       y1="197.75398"
       x2="599.88422"
       y2="231.04071"
       gradientUnits="userSpaceOnUse" />
    <radialGradient
       inkscape:collect="always"
       xlink:href="#linearGradient3825"
       id="radialGradient3873"
       cx="528.15979"
       cy="189.95265"
       fx="528.15979"
       fy="189.95265"
       r="2.2728431"
       gradientTransform="matrix(-0.88493342,-0.46571756,0.45766876,-0.86963948,926.20406,586.09717)"
       gradientUnits="userSpaceOnUse" />
    <radialGradient
       inkscape:collect="always"
       xlink:href="#linearGradient3825"
       id="radialGradient3877"
       gradientUnits="userSpaceOnUse"
       gradientTransform="matrix(-0.88493342,-0.46571756,0.45766876,-0.86963948,973.07286,586.09717)"
       cx="528.15979"
       cy="189.95265"
       fx="528.15979"
       fy="189.95265"
       r="2.2728431" />
    <radialGradient
       inkscape:collect="always"
       xlink:href="#linearGradient3815"
       id="radialGradient3907"
       gradientUnits="userSpaceOnUse"
       gradientTransform="matrix(-0.11243486,0.51064271,-0.68854473,-0.15160586,748.65596,-75.556107)"
       cx="559.92383"
       cy="182.67093"
       fx="559.92383"
       fy="182.67093"
       r="21.496641" />
    <radialGradient
       inkscape:collect="always"
       xlink:href="#linearGradient3825"
       id="radialGradient3909"
       gradientUnits="userSpaceOnUse"
       gradientTransform="matrix(-0.88493342,-0.46571756,0.45766876,-0.86963948,926.20406,586.09717)"
       cx="528.15979"
       cy="189.95265"
       fx="528.15979"
       fy="189.95265"
       r="2.2728431" />
    <radialGradient
       inkscape:collect="always"
       xlink:href="#linearGradient3825"
       id="radialGradient3911"
       gradientUnits="userSpaceOnUse"
       gradientTransform="matrix(-0.88493342,-0.46571756,0.45766876,-0.86963948,973.07286,586.09717)"
       cx="528.15979"
       cy="189.95265"
       fx="528.15979"
       fy="189.95265"
       r="2.2728431" />
    <linearGradient
       inkscape:collect="always"
       xlink:href="#linearGradient3853"
       id="linearGradient3927"
       gradientUnits="userSpaceOnUse"
       x1="572.75409"
       y1="197.75398"
       x2="599.88422"
       y2="231.04071" />
    <linearGradient
       inkscape:collect="always"
       xlink:href="#linearGradient3845"
       id="linearGradient3929"
       gradientUnits="userSpaceOnUse"
       x1="545.28937"
       y1="196.2579"
       x2="540.71686"
       y2="196.2579" />
    <radialGradient
       inkscape:collect="always"
       xlink:href="#linearGradient3815"
       id="radialGradient3931"
       gradientUnits="userSpaceOnUse"
       gradientTransform="matrix(-0.11243486,0.51064271,-0.68854473,-0.15160586,748.65596,-75.556107)"
       cx="559.92383"
       cy="182.67093"
       fx="559.92383"
       fy="182.67093"
       r="21.496641" />
    <radialGradient
       inkscape:collect="always"
       xlink:href="#linearGradient3825"
       id="radialGradient3933"
       gradientUnits="userSpaceOnUse"
       gradientTransform="matrix(-0.88493342,-0.46571756,0.45766876,-0.86963948,926.20406,586.09717)"
       cx="528.15979"
       cy="189.95265"
       fx="528.15979"
       fy="189.95265"
       r="2.2728431" />
    <radialGradient
       inkscape:collect="always"
       xlink:href="#linearGradient3825"
       id="radialGradient3935"
       gradientUnits="userSpaceOnUse"
       gradientTransform="matrix(-0.88493342,-0.46571756,0.45766876,-0.86963948,973.07286,586.09717)"
       cx="528.15979"
       cy="189.95265"
       fx="528.15979"
       fy="189.95265"
       r="2.2728431" />
    <radialGradient
       inkscape:collect="always"
       xlink:href="#linearGradient3815"
       id="radialGradient3937"
       gradientUnits="userSpaceOnUse"
       gradientTransform="matrix(-0.11243486,0.51064271,-0.68854473,-0.15160586,748.65596,-75.556107)"
       cx="559.92383"
       cy="182.67093"
       fx="559.92383"
       fy="182.67093"
       r="21.496641" />
    <radialGradient
       inkscape:collect="always"
       xlink:href="#linearGradient3825"
       id="radialGradient3939"
       gradientUnits="userSpaceOnUse"
       gradientTransform="matrix(-0.88493342,-0.46571756,0.45766876,-0.86963948,926.20406,586.09717)"
       cx="528.15979"
       cy="189.95265"
       fx="528.15979"
       fy="189.95265"
       r="2.2728431" />
    <radialGradient
       inkscape:collect="always"
       xlink:href="#linearGradient3825"
       id="radialGradient3941"
       gradientUnits="userSpaceOnUse"
       gradientTransform="matrix(-0.88493342,-0.46571756,0.45766876,-0.86963948,973.07286,586.09717)"
       cx="528.15979"
       cy="189.95265"
       fx="528.15979"
       fy="189.95265"
       r="2.2728431" />
    <filter
       inkscape:collect="always"
       id="filter3985">
      <feGaussianBlur
         inkscape:collect="always"
         stdDeviation="0.8285714"
         id="feGaussianBlur3987" />
    </filter>
    <filter
       inkscape:collect="always"
       id="filter3997">
      <feGaussianBlur
         inkscape:collect="always"
         stdDeviation="0.62142855"
         id="feGaussianBlur3999" />
    </filter>
    <radialGradient
       inkscape:collect="always"
       xlink:href="#linearGradient3815"
       id="radialGradient4015"
       gradientUnits="userSpaceOnUse"
       gradientTransform="matrix(-0.11243486,0.51064271,-0.68854473,-0.15160586,748.65596,-75.556107)"
       cx="559.92383"
       cy="182.67093"
       fx="559.92383"
       fy="182.67093"
       r="21.496641" />
    <radialGradient
       inkscape:collect="always"
       xlink:href="#linearGradient3825"
       id="radialGradient4017"
       gradientUnits="userSpaceOnUse"
       gradientTransform="matrix(-0.88493342,-0.46571756,0.45766876,-0.86963948,926.20406,586.09717)"
       cx="528.15979"
       cy="189.95265"
       fx="528.15979"
       fy="189.95265"
       r="2.2728431" />
    <radialGradient
       inkscape:collect="always"
       xlink:href="#linearGradient3825"
       id="radialGradient4019"
       gradientUnits="userSpaceOnUse"
       gradientTransform="matrix(-0.88493342,-0.46571756,0.45766876,-0.86963948,973.07286,586.09717)"
       cx="528.15979"
       cy="189.95265"
       fx="528.15979"
       fy="189.95265"
       r="2.2728431" />
    <radialGradient
       inkscape:collect="always"
       xlink:href="#linearGradient3815"
       id="radialGradient4035"
       gradientUnits="userSpaceOnUse"
       gradientTransform="matrix(-0.11243486,0.51064271,-0.68854473,-0.15160586,748.65596,-75.556107)"
       cx="559.92383"
       cy="182.67093"
       fx="559.92383"
       fy="182.67093"
       r="21.496641" />
    <radialGradient
       inkscape:collect="always"
       xlink:href="#linearGradient3825"
       id="radialGradient4037"
       gradientUnits="userSpaceOnUse"
       gradientTransform="matrix(-0.88493342,-0.46571756,0.45766876,-0.86963948,926.20406,586.09717)"
       cx="528.15979"
       cy="189.95265"
       fx="528.15979"
       fy="189.95265"
       r="2.2728431" />
    <radialGradient
       inkscape:collect="always"
       xlink:href="#linearGradient3825"
       id="radialGradient4039"
       gradientUnits="userSpaceOnUse"
       gradientTransform="matrix(-0.88493342,-0.46571756,0.45766876,-0.86963948,973.07286,586.09717)"
       cx="528.15979"
       cy="189.95265"
       fx="528.15979"
       fy="189.95265"
       r="2.2728431" />
    <radialGradient
       inkscape:collect="always"
       xlink:href="#linearGradient3815"
       id="radialGradient4055"
       gradientUnits="userSpaceOnUse"
       gradientTransform="matrix(-0.11243486,0.51064271,-0.68854473,-0.15160586,748.65596,-75.556107)"
       cx="559.92383"
       cy="182.67093"
       fx="559.92383"
       fy="182.67093"
       r="21.496641" />
    <radialGradient
       inkscape:collect="always"
       xlink:href="#linearGradient3825"
       id="radialGradient4057"
       gradientUnits="userSpaceOnUse"
       gradientTransform="matrix(-0.88493342,-0.46571756,0.45766876,-0.86963948,926.20406,586.09717)"
       cx="528.15979"
       cy="189.95265"
       fx="528.15979"
       fy="189.95265"
       r="2.2728431" />
    <radialGradient
       inkscape:collect="always"
       xlink:href="#linearGradient3825"
       id="radialGradient4059"
       gradientUnits="userSpaceOnUse"
       gradientTransform="matrix(-0.88493342,-0.46571756,0.45766876,-0.86963948,973.07286,586.09717)"
       cx="528.15979"
       cy="189.95265"
       fx="528.15979"
       fy="189.95265"
       r="2.2728431" />
    <linearGradient
       inkscape:collect="always"
       xlink:href="#linearGradient3899"
       id="linearGradient4239"
       gradientUnits="userSpaceOnUse"
       x1="337.63348"
       y1="371.99725"
       x2="729.8302"
       y2="676.58545" />
    <filter
       inkscape:collect="always"
       id="filter4256">
      <feGaussianBlur
         inkscape:collect="always"
         stdDeviation="4.5456863"
         id="feGaussianBlur4258" />
    </filter>
    <radialGradient
       inkscape:collect="always"
       xlink:href="#linearGradient3902"
       id="radialGradient3900"
       cx="219.28656"
       cy="264.63971"
       fx="219.28656"
       fy="264.63971"
       r="229.28432"
       gradientUnits="userSpaceOnUse"
       gradientTransform="matrix(0.36621472,0.44959574,-0.69284855,0.5643542,330.33614,1.9177412)" />
    <filter
       inkscape:collect="always"
       id="filter3932">
      <feGaussianBlur
         inkscape:collect="always"
         stdDeviation="2.2728432"
         id="feGaussianBlur3934" />
    </filter>
  </defs>
  <sodipodi:namedview
     id="base"
     pagecolor="#ffffff"
     bordercolor="#666666"
     borderopacity="1.0"
     inkscape:pageopacity="0.0"
     inkscape:pageshadow="2"
     inkscape:zoom="1.4710073"
     inkscape:cx="246.00764"
     inkscape:cy="247.78938"
     inkscape:document-units="px"
     inkscape:current-layer="map"
     showgrid="false"
     inkscape:window-width="1280"
     inkscape:window-height="928"
     inkscape:window-x="0"
     inkscape:window-y="27"
     inkscape:window-maximized="1" />
  <metadata
     id="metadata7">
    <rdf:RDF>
      <cc:Work
         rdf:about="">
        <dc:format>image/svg+xml</dc:format>
        <dc:type
           rdf:resource="http://purl.org/dc/dcmitype/StillImage" />
        <dc:title />
      </cc:Work>
    </rdf:RDF>
  </metadata>
  <g
     inkscape:label="Layer 1"
     inkscape:groupmode="layer"
     id="layer1"
     transform="translate(-123.98479,-154.29596)">
    <g
       id="map"
       inkscape:label="#g3789">
      <path
         sodipodi:type="arc"
         style="fill:url(#linearGradient3820);fill-opacity:1;stroke:#909196;stroke-width:4;stroke-miterlimit:4;stroke-opacity:1;stroke-dasharray:none;filter:url(#filter4256)"
         id="path4250"
         sodipodi:cx="370.72598"
         sodipodi:cy="404.8544"
         sodipodi:rx="227.28432"
         sodipodi:ry="227.28432"
         d="M 598.0103,404.8544 C 598.0103,530.38006 496.25164,632.13872 370.72598,632.13872 C 245.20032,632.13872 143.44167,530.38006 143.44167,404.8544 C 143.44167,279.32874 245.20032,177.57008 370.72598,177.57008 C 496.25164,177.57008 598.0103,279.32874 598.0103,404.8544 z"
         transform="translate(3.1541623,-3.1541561)" />
      <path
         transform="translate(3.1541623,-3.1541561)"
         d="M 598.0103,404.8544 C 598.0103,530.38006 496.25164,632.13872 370.72598,632.13872 C 245.20032,632.13872 143.44167,530.38006 143.44167,404.8544 C 143.44167,279.32874 245.20032,177.57008 370.72598,177.57008 C 496.25164,177.57008 598.0103,279.32874 598.0103,404.8544 z"
         sodipodi:ry="227.28432"
         sodipodi:rx="227.28432"
         sodipodi:cy="404.8544"
         sodipodi:cx="370.72598"
         id="path3590"
         style="fill:url(#linearGradient3820);fill-opacity:1;stroke:#909196;stroke-width:4;stroke-miterlimit:4;stroke-opacity:1;stroke-dasharray:none"
         sodipodi:type="arc" />
      <path
         sodipodi:type="arc"
         style="fill:url(#radialGradient3900);fill-opacity:1;stroke:none;stroke-width:4;stroke-miterlimit:4;stroke-opacity:1;stroke-dasharray:none;filter:url(#filter3932)"
         id="path3130"
         sodipodi:cx="370.72598"
         sodipodi:cy="404.8544"
         sodipodi:rx="227.28432"
         sodipodi:ry="227.28432"
         d="M 598.0103,404.8544 C 598.0103,530.38006 496.25164,632.13872 370.72598,632.13872 C 245.20032,632.13872 143.44167,530.38006 143.44167,404.8544 C 143.44167,279.32874 245.20032,177.57008 370.72598,177.57008 C 496.25164,177.57008 598.0103,279.32874 598.0103,404.8544 z"
         transform="translate(3.1541623,-3.1541561)" />
      <path
         id="path3604"
         d="m 145.31205,404.8544 447.79741,0"
         style="fill:none;stroke:#f1f4fc;stroke-width:3.96454072000000002;stroke-linecap:butt;stroke-linejoin:miter;stroke-miterlimit:4;stroke-opacity:1;stroke-dasharray:none;opacity:1" />
      <path
         style="fill:none;stroke:#f1f4fc;stroke-width:3.96454072;stroke-linecap:butt;stroke-linejoin:miter;stroke-miterlimit:4;stroke-opacity:1;stroke-dasharray:none"
         d="m 370.72598,180.95569 0,447.79741"
         id="path3606" />
      <g
         transform="translate(2.1015148,2)"
         id="g3618">
        <rect
           style="fill:#acbbf0;fill-opacity:1;stroke:#909196;stroke-width:4;stroke-linecap:butt;stroke-linejoin:round;stroke-miterlimit:4;stroke-opacity:1;stroke-dasharray:none;stroke-dashoffset:0"
           id="rect3612"
           width="34.345188"
           height="34.345188"
           x="351.45187"
           y="156.29596"
           ry="3.3283663" />
        <text
           xml:space="preserve"
           style="font-size:26.23160934px;font-style:normal;font-variant:normal;font-weight:900;font-stretch:normal;text-align:start;line-height:125%;writing-mode:lr-tb;text-anchor:start;fill:#f1f4fc;fill-opacity:1;stroke:none;font-family:Arial Black;-inkscape-font-specification:Arial Black Heavy"
           x="357.6861"
           y="182.85712"
           id="text3614"
           sodipodi:linespacing="125%"><tspan
             sodipodi:role="line"
             id="tspan3616"
             x="357.6861"
             y="182.85712">N</tspan></text>
      </g>
      <g
         transform="translate(4,-0.53294563)"
         id="g3695">
        <rect
           style="fill:#acbbf0;fill-opacity:1;stroke:#909196;stroke-width:4;stroke-linecap:butt;stroke-linejoin:round;stroke-miterlimit:4;stroke-opacity:1;stroke-dasharray:none;stroke-dashoffset:0"
           id="rect3612-7"
           width="34.345188"
           height="34.345188"
           x="579.65491"
           y="388.21475"
           ry="3.3283663" />
        <text
           xml:space="preserve"
           style="font-size:26.23160934px;font-style:normal;font-variant:normal;font-weight:900;font-stretch:normal;text-align:start;line-height:125%;writing-mode:lr-tb;text-anchor:start;fill:#f1f4fc;fill-opacity:1;stroke:none;font-family:Arial Black;-inkscape-font-specification:Arial Black Heavy"
           x="587.00348"
           y="414.77591"
           id="text3614-4"
           sodipodi:linespacing="125%"><tspan
             sodipodi:role="line"
             id="tspan3616-0"
             x="587.00348"
             y="414.77591">E</tspan></text>
      </g>
      <g
         transform="translate(-0.40098763,-2)"
         id="g3707">
        <rect
           style="fill:#acbbf0;fill-opacity:1;stroke:#909196;stroke-width:4;stroke-linecap:butt;stroke-linejoin:round;stroke-miterlimit:4;stroke-opacity:1;stroke-dasharray:none;stroke-dashoffset:0"
           id="rect3612-8"
           width="34.345188"
           height="34.345188"
           x="353.95438"
           y="613.52954"
           ry="3.3283663" />
        <text
           xml:space="preserve"
           style="font-size:26.23160934px;font-style:normal;font-variant:normal;font-weight:900;font-stretch:normal;text-align:start;line-height:125%;writing-mode:lr-tb;text-anchor:start;fill:#f1f4fc;fill-opacity:1;stroke:none;font-family:Arial Black;-inkscape-font-specification:Arial Black Heavy"
           x="361.69998"
           y="640.0907"
           id="text3614-8"
           sodipodi:linespacing="125%"><tspan
             sodipodi:role="line"
             id="tspan3616-2"
             x="361.69998"
             y="640.0907">S</tspan></text>
      </g>
      <g
         transform="translate(6.502516,459.47727)"
         id="g3687">
        <rect
           ry="3.3283663"
           y="-71.795464"
           x="123.48228"
           height="34.345188"
           width="34.345188"
           id="rect3612-5"
           style="fill:#acbbf0;fill-opacity:1;stroke:#909196;stroke-width:4;stroke-linecap:butt;stroke-linejoin:round;stroke-miterlimit:4;stroke-opacity:1;stroke-dasharray:none;stroke-dashoffset:0" />
        <text
           sodipodi:linespacing="125%"
           id="text3614-1"
           y="-45.23431"
           x="127.53906"
           style="font-size:26.23160934px;font-style:normal;font-variant:normal;font-weight:900;font-stretch:normal;text-align:start;line-height:125%;writing-mode:lr-tb;text-anchor:start;fill:#f1f4fc;fill-opacity:1;stroke:none;font-family:Arial Black;-inkscape-font-specification:Arial Black Heavy"
           xml:space="preserve"><tspan
             y="-45.23431"
             x="127.53906"
             id="tspan3616-7"
             sodipodi:role="line">W</tspan></text>
      </g>
      <g
         id="g3035"
         transform="matrix(1.0013302,0,0,1.0013302,-0.26088662,-0.77082907)">
        <path
           sodipodi:type="arc"
           style="fill:none;stroke:url(#linearGradient3831);stroke-width:2.39174914;stroke-linecap:butt;stroke-linejoin:round;stroke-miterlimit:4;stroke-opacity:1;stroke-dasharray:none;stroke-dashoffset:0"
           id="path3608"
           sodipodi:cx="392.44427"
           sodipodi:cy="410.41025"
           sodipodi:rx="89.398499"
           sodipodi:ry="89.398499"
           d="M 451.71402,343.4835 C 488.67664,376.21728 492.10479,432.71737 459.37102,469.67999 C 426.63724,506.64261 370.13715,510.07077 333.17453,477.33699 C 296.21191,444.60322 292.78376,388.10313 325.51753,351.14051 C 353.85472,319.14246 400.87763,311.67909 437.72993,333.33041"
           transform="matrix(1.2638612,0,0,1.2638612,-124.40402,-114.71229)"
           sodipodi:start="5.4371862"
           sodipodi:end="11.526764"
           sodipodi:open="true" />
        <path
           transform="matrix(1.9716104,0,0,1.9716104,-399.86707,-407.46887)"
           d="M 451.12161,342.96352 C 488.37141,375.37012 492.2976,431.83779 459.891,469.08759 C 427.4844,506.33739 371.01674,510.26358 333.76693,477.85698 C 296.51713,445.45038 292.59095,388.98271 324.99755,351.73291 C 354.53734,317.77837 404.71293,311.07706 442.12815,336.08929"
           sodipodi:ry="89.398499"
           sodipodi:rx="89.398499"
           sodipodi:cy="410.41025"
           sodipodi:cx="392.44427"
           id="path3610"
           style="fill:none;stroke:url(#linearGradient3823);stroke-width:1.52159882;stroke-linecap:butt;stroke-linejoin:round;stroke-miterlimit:4;stroke-opacity:0.44600004;stroke-dasharray:none;stroke-dashoffset:0"
           sodipodi:type="arc"
           sodipodi:start="5.428369"
           sodipodi:end="11.584848"
           sodipodi:open="true" />
        <g
           style="font-size:40px;font-style:normal;font-weight:normal;fill:#f1f4fc;fill-opacity:1;stroke:none;font-family:Bitstream Vera Sans"
           id="text3727"
           transform="translate(2,-2)">
          <path
             d="M 432.35937,317.06058 L 427.28711,317.06058 L 427.28711,314.77054 L 432.35937,308.74124 L 434.78613,308.74124 L 434.78613,314.90042 L 436.04395,314.90042 L 436.04395,317.06058 L 434.78613,317.06058 L 434.78613,318.93362 L 432.35937,318.93362 z M 432.35937,314.90042 L 432.35937,311.74905 L 429.67969,314.90042 z"
             style="font-size:14px;fill:#f1f4fc;font-family:Arial Black;-inkscape-font-specification:Arial Black"
             id="path3764"
             inkscape:connector-curvature="0" />
          <path
             d="M 438.05371,308.91214 L 444.66406,308.91214 L 444.66406,311.13382 L 440.18652,311.13382 L 439.94727,312.63773 C 440.25716,312.4919 440.56364,312.38252 440.8667,312.3096 C 441.16975,312.2367 441.4694,312.20023 441.76562,312.20023 C 442.76822,312.20023 443.5817,312.50329 444.20605,313.10941 C 444.8304,313.71553 445.14257,314.47888 445.14258,315.39944 C 445.14257,316.04658 444.98192,316.66865 444.66064,317.26566 C 444.33935,317.86266 443.88362,318.31839 443.29346,318.63284 C 442.70328,318.9473 441.94791,319.10452 441.02734,319.10452 C 440.36653,319.10452 439.80029,319.04182 439.32861,318.91653 C 438.85693,318.79121 438.45589,318.60436 438.12549,318.35599 C 437.79508,318.10762 437.52734,317.8262 437.32227,317.51175 C 437.11719,317.1973 436.94629,316.80537 436.80957,316.33597 L 439.62598,316.02835 C 439.69428,316.47953 439.85384,316.82246 440.10449,317.05716 C 440.35514,317.29186 440.65364,317.40921 441,317.40921 C 441.38736,317.40921 441.70751,317.26224 441.96045,316.96829 C 442.21337,316.67435 442.33984,316.23571 442.33984,315.65237 C 442.33984,315.05537 442.21223,314.61787 441.95703,314.33987 C 441.70182,314.06188 441.3623,313.92289 440.93848,313.92288 C 440.66959,313.92289 440.40983,313.98898 440.15918,314.12112 C 439.97233,314.21682 439.76725,314.39001 439.54395,314.64066 L 437.17187,314.29886 z"
             style="font-size:14px;fill:#f1f4fc;font-family:Arial Black;-inkscape-font-specification:Arial Black"
             id="path3766"
             inkscape:connector-curvature="0" />
          <path
             d="M 450.43359,310.68948 C 450.43359,311.22725 450.24218,311.68754 449.85937,312.07034 C 449.47656,312.45316 449.01399,312.64457 448.47168,312.64456 C 447.93392,312.64457 447.47363,312.45316 447.09082,312.07034 C 446.70801,311.68754 446.5166,311.22725 446.5166,310.68948 C 446.5166,310.14717 446.70801,309.68575 447.09082,309.30521 C 447.47363,308.92468 447.93392,308.73442 448.47168,308.73441 C 449.01399,308.73442 449.47656,308.92468 449.85937,309.30521 C 450.24218,309.68575 450.43359,310.14717 450.43359,310.68948 z M 449.16211,310.68248 C 449.16211,310.49108 449.09491,310.32702 448.96045,310.19029 C 448.82601,310.05358 448.66308,309.98522 448.47168,309.98521 C 448.28027,309.98522 448.11621,310.05361 447.97949,310.19029 C 447.84277,310.32702 447.77441,310.49108 447.77441,310.68248 C 447.77441,310.87389 447.84281,311.03682 447.97949,311.17125 C 448.11621,311.30569 448.28027,311.37291 448.47168,311.37291 C 448.66308,311.37291 448.82601,311.30571 448.96045,311.17125 C 449.09489,311.03682 449.16211,310.87389 449.16211,310.68248 z"
             style="font-size:14px;fill:#f1f4fc;font-family:Arial Black;-inkscape-font-specification:Arial Black"
             id="path3768"
             inkscape:connector-curvature="0" />
        </g>
        <g
           style="font-size:40px;font-style:normal;font-weight:normal;fill:#f1f4fc;fill-opacity:1;stroke:none;font-family:Bitstream Vera Sans"
           id="text3727-1">
          <path
             d="M 480.27866,266.95483 L 471.92514,266.95483 C 472.02084,266.12997 472.31137,265.35409 472.79672,264.6272 C 473.28207,263.90031 474.19239,263.0424 475.52768,262.05347 C 476.34343,261.44735 476.86524,260.98707 477.09311,260.67261 C 477.32097,260.35816 477.4349,260.05966 477.43491,259.7771 C 477.4349,259.47177 477.32211,259.21086 477.09653,258.99438 C 476.87094,258.77792 476.58724,258.66969 476.24545,258.66968 C 475.88998,258.66969 475.59945,258.78134 475.37387,259.00464 C 475.14828,259.22795 474.99675,259.62216 474.91928,260.18726 L 472.13022,259.96167 C 472.23959,259.17782 472.44011,258.56601 472.73178,258.12622 C 473.02345,257.68645 473.43474,257.34921 473.96567,257.1145 C 474.49659,256.87981 475.23145,256.76246 476.17026,256.76245 C 477.15007,256.76246 477.91228,256.87411 478.45688,257.09741 C 479.00147,257.32073 479.42985,257.66366 479.74203,258.12622 C 480.0542,258.58879 480.21029,259.10719 480.2103,259.6814 C 480.21029,260.29208 480.03141,260.87541 479.67368,261.4314 C 479.31592,261.98739 478.66537,262.59807 477.72202,263.26343 C 477.16146,263.6508 476.78663,263.92196 476.5975,264.0769 C 476.40837,264.23185 476.1862,264.43465 475.931,264.6853 L 480.27866,264.6853 z"
             style="font-size:14px;fill:#f1f4fc;font-family:Arial Black;-inkscape-font-specification:Arial Black"
             id="path3757"
             inkscape:connector-curvature="0" />
          <path
             d="M 481.48178,261.90308 C 481.48178,259.99814 481.82472,258.66513 482.51059,257.90405 C 483.19646,257.14299 484.24122,256.76246 485.64487,256.76245 C 486.31934,256.76246 486.87305,256.84565 487.306,257.01196 C 487.73894,257.17831 488.09213,257.39478 488.36557,257.66138 C 488.639,257.92799 488.85433,258.20826 489.01157,258.5022 C 489.16878,258.79615 489.29525,259.13909 489.39096,259.53101 C 489.5778,260.27841 489.67123,261.0577 489.67123,261.8689 C 489.67123,263.68726 489.36361,265.01799 488.74838,265.86108 C 488.13314,266.70418 487.07357,267.12573 485.56967,267.12573 C 484.72657,267.12573 484.04525,266.99129 483.52573,266.72241 C 483.00619,266.45353 482.58009,266.05933 482.24741,265.53979 C 482.00587,265.17066 481.81788,264.66594 481.68344,264.02563 C 481.549,263.38534 481.48178,262.67782 481.48178,261.90308 z M 484.2435,261.91008 C 484.2435,263.18613 484.35629,264.05771 484.58188,264.52483 C 484.80746,264.99195 485.13445,265.22551 485.56284,265.22551 C 485.84538,265.22551 486.09034,265.12641 486.2977,264.92815 C 486.50505,264.72991 486.65772,264.4166 486.75571,263.98821 C 486.85371,263.55983 486.90267,262.89218 486.90268,261.98528 C 486.90267,260.65455 486.78988,259.76019 486.5643,259.30217 C 486.33871,258.84417 486.00033,258.61517 485.54916,258.61516 C 485.08887,258.61517 484.75619,258.84873 484.55112,259.31584 C 484.34604,259.78297 484.2435,260.64772 484.2435,261.91008 z"
             style="font-size:14px;fill:#f1f4fc;font-family:Arial Black;-inkscape-font-specification:Arial Black"
             id="path3759"
             inkscape:connector-curvature="0" />
          <path
             d="M 494.98959,258.71069 C 494.98959,259.24846 494.79818,259.70875 494.41537,260.09155 C 494.03256,260.47437 493.56999,260.66578 493.02768,260.66577 C 492.48992,260.66578 492.02963,260.47437 491.64682,260.09155 C 491.26401,259.70875 491.0726,259.24846 491.0726,258.71069 C 491.0726,258.16838 491.26401,257.70696 491.64682,257.32642 C 492.02963,256.94589 492.48992,256.75563 493.02768,256.75562 C 493.56999,256.75563 494.03256,256.94589 494.41537,257.32642 C 494.79818,257.70696 494.98959,258.16838 494.98959,258.71069 z M 493.71811,258.70369 C 493.71811,258.51229 493.65091,258.34823 493.51645,258.2115 C 493.38201,258.07479 493.21908,258.00643 493.02768,258.00642 C 492.83627,258.00643 492.67221,258.07482 492.53549,258.2115 C 492.39877,258.34823 492.33041,258.51229 492.33041,258.70369 C 492.33041,258.8951 492.39881,259.05802 492.53549,259.19246 C 492.67221,259.3269 492.83627,259.39412 493.02768,259.39412 C 493.21908,259.39412 493.38201,259.32692 493.51645,259.19246 C 493.65089,259.05802 493.71811,258.8951 493.71811,258.70369 z"
             style="font-size:14px;fill:#f1f4fc;font-family:Arial Black;-inkscape-font-specification:Arial Black"
             id="path3761"
             inkscape:connector-curvature="0" />
        </g>
      </g>
    </g>
    <g
       id="satellite"
       transform="matrix(0.93879118,0,0,0.93879118,26.496058,0.9451615)"
       inkscape:label="#g3722">
      <path
         transform="translate(0.08444214,2.2540576e-8)"
         d="M 589.99999,195.93361 C 589.99999,207.37379 580.72589,216.64789 569.28571,216.64789 C 557.84552,216.64789 548.57142,207.37379 548.57142,195.93361 C 548.57142,184.49343 557.84552,175.21932 569.28571,175.21932 C 580.72589,175.21932 589.99999,184.49343 589.99999,195.93361 z"
         sodipodi:ry="20.714285"
         sodipodi:rx="20.714285"
         sodipodi:cy="195.93361"
         sodipodi:cx="569.28571"
         id="path3712"
         style="fill:url(#linearGradient3859);fill-opacity:1.0;stroke:#fcaa21;stroke-width:1.56471384000000002;stroke-miterlimit:4;stroke-opacity:1;stroke-dasharray:none"
         sodipodi:type="arc" />
      <rect
         ry="2.2728431"
         y="173.52946"
         x="590.45447"
         height="45.456863"
         width="4.5456862"
         id="rect3718"
         style="fill:#ffe054;fill-opacity:1;stroke:#fcaa21;stroke-width:1.56471384000000002;stroke-linecap:butt;stroke-linejoin:round;stroke-miterlimit:4;stroke-opacity:1;stroke-dasharray:none;stroke-dashoffset:0" />
      <rect
         style="fill:#ffe054;fill-opacity:1;stroke:#fcaa21;stroke-width:1.56471384000000002;stroke-linecap:butt;stroke-linejoin:round;stroke-miterlimit:4;stroke-opacity:1;stroke-dasharray:none;stroke-dashoffset:0"
         id="rect3720"
         width="4.5456862"
         height="45.456863"
         x="543.74017"
         y="173.52946"
         ry="2.2728431" />
      <path
         sodipodi:type="arc"
         style="fill:url(#radialGradient3843);fill-opacity:1;stroke:none;filter:url(#filter3997)"
         id="path3833"
         sodipodi:cx="569.28571"
         sodipodi:cy="195.93361"
         sodipodi:rx="20.714285"
         sodipodi:ry="20.714285"
         d="M 589.99999,195.93361 A 20.714285,20.714285 0 1 1 548.57142,195.93361 A 20.714285,20.714285 0 1 1 589.99999,195.93361 z"
         transform="translate(0.08444218,2.2540576e-8)" />
      <rect
         ry="2.2728431"
         y="173.52946"
         x="543.74017"
         height="45.456863"
         width="4.5456862"
         id="rect3861"
         style="fill:url(#radialGradient3873);fill-opacity:1;stroke:none" />
      <rect
         style="fill:url(#radialGradient3877);fill-opacity:1;stroke:none"
         id="rect3875"
         width="4.5456862"
         height="45.456863"
         x="590.60834"
         y="173.52946"
         ry="2.2728431" />
    </g>
    <g
       inkscape:label="#g3722"
       transform="matrix(0.93879118,0,0,0.93879118,94.496058,0.9451615)"
       id="sat-notSeen"
       style="opacity:0.4">
      <path
         sodipodi:type="arc"
         style="fill:#ffe054;fill-opacity:1;stroke:#fcaa21;stroke-width:1.56471384000000002;stroke-miterlimit:4;stroke-opacity:1;stroke-dasharray:none"
         id="path3891"
         sodipodi:cx="569.28571"
         sodipodi:cy="195.93361"
         sodipodi:rx="20.714285"
         sodipodi:ry="20.714285"
         d="M 589.99999,195.93361 C 589.99999,207.37379 580.72589,216.64789 569.28571,216.64789 C 557.84552,216.64789 548.57142,207.37379 548.57142,195.93361 C 548.57142,184.49343 557.84552,175.21932 569.28571,175.21932 C 580.72589,175.21932 589.99999,184.49343 589.99999,195.93361 z"
         transform="translate(0.08444214,2.2540576e-8)" />
      <rect
         style="fill:#ffe054;fill-opacity:1;stroke:#fcaa21;stroke-width:1.56471384000000002;stroke-linecap:butt;stroke-linejoin:round;stroke-miterlimit:4;stroke-opacity:1;stroke-dasharray:none;stroke-dashoffset:0"
         id="rect3893"
         width="4.5456862"
         height="45.456863"
         x="590.45447"
         y="173.52946"
         ry="2.2728431" />
      <rect
         ry="2.2728431"
         y="173.52946"
         x="543.74017"
         height="45.456863"
         width="4.5456862"
         id="rect3895"
         style="fill:#ffe054;fill-opacity:1;stroke:#fcaa21;stroke-width:1.56471384000000002;stroke-linecap:butt;stroke-linejoin:round;stroke-miterlimit:4;stroke-opacity:1;stroke-dasharray:none;stroke-dashoffset:0" />
      <path
         transform="translate(0.08444218,2.2540576e-8)"
         d="M 589.99999,195.93361 A 20.714285,20.714285 0 1 1 548.57142,195.93361 A 20.714285,20.714285 0 1 1 589.99999,195.93361 z"
         sodipodi:ry="20.714285"
         sodipodi:rx="20.714285"
         sodipodi:cy="195.93361"
         sodipodi:cx="569.28571"
         id="path3897"
         style="fill:url(#radialGradient3907);fill-opacity:1;stroke:none"
         sodipodi:type="arc" />
      <rect
         style="fill:url(#radialGradient3909);fill-opacity:1;stroke:none"
         id="rect3899"
         width="4.5456862"
         height="45.456863"
         x="543.74017"
         y="173.52946"
         ry="2.2728431" />
      <rect
         ry="2.2728431"
         y="173.52946"
         x="590.60834"
         height="45.456863"
         width="4.5456862"
         id="rect3901"
         style="fill:url(#radialGradient3911);fill-opacity:1;stroke:none" />
    </g>
    <g
       inkscape:label="#g3722"
       transform="matrix(0.93879118,0,0,0.93879118,26.496058,-53.054838)"
       id="satellite-sbas">
      <path
         sodipodi:type="arc"
         style="fill:#fd700b;fill-opacity:1;stroke:#ff5721;stroke-width:1.56471384000000002;stroke-miterlimit:4;stroke-opacity:1;stroke-dasharray:none"
         id="path3915"
         sodipodi:cx="569.28571"
         sodipodi:cy="195.93361"
         sodipodi:rx="20.714285"
         sodipodi:ry="20.714285"
         d="M 589.99999,195.93361 C 589.99999,207.37379 580.72589,216.64789 569.28571,216.64789 C 557.84552,216.64789 548.57142,207.37379 548.57142,195.93361 C 548.57142,184.49343 557.84552,175.21932 569.28571,175.21932 C 580.72589,175.21932 589.99999,184.49343 589.99999,195.93361 z"
         transform="translate(0.08444214,2.2540576e-8)" />
      <rect
         style="fill:#fd700b;fill-opacity:1;stroke:#ff5721;stroke-width:1.56477822999999994;stroke-linecap:butt;stroke-linejoin:round;stroke-miterlimit:4;stroke-opacity:1;stroke-dasharray:none;stroke-dashoffset:0"
         id="rect3917"
         width="4.5456862"
         height="45.456863"
         x="590.45447"
         y="173.52946"
         ry="2.2728431" />
      <rect
         ry="2.2728431"
         y="173.52946"
         x="543.74017"
         height="45.456863"
         width="4.5456862"
         id="rect3919"
         style="fill:#fd700b;fill-opacity:1;stroke:#ff5721;stroke-width:1.56471384000000002;stroke-linecap:butt;stroke-linejoin:round;stroke-miterlimit:4;stroke-opacity:1;stroke-dasharray:none;stroke-dashoffset:0" />
      <path
         transform="translate(0.08444218,-2.2540576e-8)"
         d="M 589.99999,195.93361 C 589.99999,207.37379 580.72589,216.64789 569.28571,216.64789 C 557.84552,216.64789 548.57142,207.37379 548.57142,195.93361 C 548.57142,184.49343 557.84552,175.21932 569.28571,175.21932 C 580.72589,175.21932 589.99999,184.49343 589.99999,195.93361 z"
         sodipodi:ry="20.714285"
         sodipodi:rx="20.714285"
         sodipodi:cy="195.93361"
         sodipodi:cx="569.28571"
         id="path3921"
         style="fill:url(#radialGradient3937);fill-opacity:1;stroke:none;filter:url(#filter3985)"
         sodipodi:type="arc" />
      <rect
         style="fill:url(#radialGradient3939);fill-opacity:1;stroke:none"
         id="rect3923"
         width="4.5456862"
         height="45.456863"
         x="543.74017"
         y="173.52946"
         ry="2.2728431" />
      <rect
         ry="2.2728431"
         y="173.52946"
         x="590.60834"
         height="45.456863"
         width="4.5456862"
         id="rect3925"
         style="fill:url(#radialGradient3941);fill-opacity:1;stroke:none" />
    </g>
    <g
       id="sat-sbas-notSeen"
       transform="matrix(0.93879118,0,0,0.93879118,94.496058,-53.054838)"
       inkscape:label="#g3722"
       style="opacity:0.4">
      <path
         transform="translate(0.08444214,2.2540576e-8)"
         d="M 589.99999,195.93361 C 589.99999,207.37379 580.72589,216.64789 569.28571,216.64789 C 557.84552,216.64789 548.57142,207.37379 548.57142,195.93361 C 548.57142,184.49343 557.84552,175.21932 569.28571,175.21932 C 580.72589,175.21932 589.99999,184.49343 589.99999,195.93361 z"
         sodipodi:ry="20.714285"
         sodipodi:rx="20.714285"
         sodipodi:cy="195.93361"
         sodipodi:cx="569.28571"
         id="path4003"
         style="fill:#fd700b;fill-opacity:1;stroke:#ff5721;stroke-width:1.56471384;stroke-miterlimit:4;stroke-opacity:1;stroke-dasharray:none"
         sodipodi:type="arc" />
      <rect
         ry="2.2728431"
         y="173.52946"
         x="590.45447"
         height="45.456863"
         width="4.5456862"
         id="rect4005"
         style="fill:#fd700b;fill-opacity:1;stroke:#ff5721;stroke-width:1.56477821;stroke-linecap:butt;stroke-linejoin:round;stroke-miterlimit:4;stroke-opacity:1;stroke-dasharray:none;stroke-dashoffset:0" />
      <rect
         style="fill:#fd700b;fill-opacity:1;stroke:#ff5721;stroke-width:1.56471384;stroke-linecap:butt;stroke-linejoin:round;stroke-miterlimit:4;stroke-opacity:1;stroke-dasharray:none;stroke-dashoffset:0"
         id="rect4007"
         width="4.5456862"
         height="45.456863"
         x="543.74017"
         y="173.52946"
         ry="2.2728431" />
      <path
         sodipodi:type="arc"
         style="fill:url(#radialGradient4015);fill-opacity:1;stroke:none;filter:url(#filter3985)"
         id="path4009"
         sodipodi:cx="569.28571"
         sodipodi:cy="195.93361"
         sodipodi:rx="20.714285"
         sodipodi:ry="20.714285"
         d="M 589.99999,195.93361 C 589.99999,207.37379 580.72589,216.64789 569.28571,216.64789 C 557.84552,216.64789 548.57142,207.37379 548.57142,195.93361 C 548.57142,184.49343 557.84552,175.21932 569.28571,175.21932 C 580.72589,175.21932 589.99999,184.49343 589.99999,195.93361 z"
         transform="translate(0.08444218,-2.2540576e-8)" />
      <rect
         ry="2.2728431"
         y="173.52946"
         x="543.74017"
         height="45.456863"
         width="4.5456862"
         id="rect4011"
         style="fill:url(#radialGradient4017);fill-opacity:1;stroke:none" />
      <rect
         style="fill:url(#radialGradient4019);fill-opacity:1;stroke:none"
         id="rect4013"
         width="4.5456862"
         height="45.456863"
         x="590.60834"
         y="173.52946"
         ry="2.2728431" />
    </g>
    <g
       id="satellite-glonass"
       transform="matrix(0.93879118,0,0,0.93879118,26.496058,-109.05484)"
       inkscape:label="#g3722">
      <path
         transform="translate(0.08444214,2.2540576e-8)"
         d="M 589.99999,195.93361 C 589.99999,207.37379 580.72589,216.64789 569.28571,216.64789 C 557.84552,216.64789 548.57142,207.37379 548.57142,195.93361 C 548.57142,184.49343 557.84552,175.21932 569.28571,175.21932 C 580.72589,175.21932 589.99999,184.49343 589.99999,195.93361 z"
         sodipodi:ry="20.714285"
         sodipodi:rx="20.714285"
         sodipodi:cy="195.93361"
         sodipodi:cx="569.28571"
         id="path4023"
         style="fill:#008ef3;fill-opacity:1;stroke:#0061f3;stroke-width:1.56471384;stroke-miterlimit:4;stroke-opacity:1;stroke-dasharray:none"
         sodipodi:type="arc" />
      <rect
         ry="2.2728431"
         y="173.52946"
         x="590.45447"
         height="45.456863"
         width="4.5456862"
         id="rect4025"
         style="fill:#008ef3;fill-opacity:1;stroke:#0061f3;stroke-width:1.56477821;stroke-linecap:butt;stroke-linejoin:round;stroke-miterlimit:4;stroke-opacity:1;stroke-dasharray:none;stroke-dashoffset:0" />
      <rect
         style="fill:#008ef3;fill-opacity:1;stroke:#0061f3;stroke-width:1.56471384;stroke-linecap:butt;stroke-linejoin:round;stroke-miterlimit:4;stroke-opacity:1;stroke-dasharray:none;stroke-dashoffset:0"
         id="rect4027"
         width="4.5456862"
         height="45.456863"
         x="543.74017"
         y="173.52946"
         ry="2.2728431" />
      <path
         sodipodi:type="arc"
         style="fill:url(#radialGradient4035);fill-opacity:1;stroke:none;filter:url(#filter3985)"
         id="path4029"
         sodipodi:cx="569.28571"
         sodipodi:cy="195.93361"
         sodipodi:rx="20.714285"
         sodipodi:ry="20.714285"
         d="M 589.99999,195.93361 C 589.99999,207.37379 580.72589,216.64789 569.28571,216.64789 C 557.84552,216.64789 548.57142,207.37379 548.57142,195.93361 C 548.57142,184.49343 557.84552,175.21932 569.28571,175.21932 C 580.72589,175.21932 589.99999,184.49343 589.99999,195.93361 z"
         transform="translate(0.08444218,2.2540576e-8)" />
      <rect
         ry="2.2728431"
         y="173.52946"
         x="543.74017"
         height="45.456863"
         width="4.5456862"
         id="rect4031"
         style="fill:url(#radialGradient4037);fill-opacity:1;stroke:none" />
      <rect
         style="fill:url(#radialGradient4039);fill-opacity:1;stroke:none"
         id="rect4033"
         width="4.5456862"
         height="45.456863"
         x="590.60834"
         y="173.52946"
         ry="2.2728431" />
    </g>
    <g
       inkscape:label="#g3722"
       transform="matrix(0.93879118,0,0,0.93879118,94.496058,-109.05484)"
       id="sat-glonass-notSeen"
       style="opacity:0.4">
      <path
         sodipodi:type="arc"
         style="fill:#008ef3;fill-opacity:1;stroke:#0061f3;stroke-width:1.56471384;stroke-miterlimit:4;stroke-opacity:1;stroke-dasharray:none"
         id="path4043"
         sodipodi:cx="569.28571"
         sodipodi:cy="195.93361"
         sodipodi:rx="20.714285"
         sodipodi:ry="20.714285"
         d="M 589.99999,195.93361 C 589.99999,207.37379 580.72589,216.64789 569.28571,216.64789 C 557.84552,216.64789 548.57142,207.37379 548.57142,195.93361 C 548.57142,184.49343 557.84552,175.21932 569.28571,175.21932 C 580.72589,175.21932 589.99999,184.49343 589.99999,195.93361 z"
         transform="translate(0.08444214,2.2540576e-8)" />
      <rect
         style="fill:#008ef3;fill-opacity:1;stroke:#0061f3;stroke-width:1.56477821;stroke-linecap:butt;stroke-linejoin:round;stroke-miterlimit:4;stroke-opacity:1;stroke-dasharray:none;stroke-dashoffset:0"
         id="rect4045"
         width="4.5456862"
         height="45.456863"
         x="590.45447"
         y="173.52946"
         ry="2.2728431" />
      <rect
         ry="2.2728431"
         y="173.52946"
         x="543.74017"
         height="45.456863"
         width="4.5456862"
         id="rect4047"
         style="fill:#008ef3;fill-opacity:1;stroke:#0061f3;stroke-width:1.56471384;stroke-linecap:butt;stroke-linejoin:round;stroke-miterlimit:4;stroke-opacity:1;stroke-dasharray:none;stroke-dashoffset:0" />
      <path
         transform="translate(0.08444218,2.2540576e-8)"
         d="M 589.99999,195.93361 C 589.99999,207.37379 580.72589,216.64789 569.28571,216.64789 C 557.84552,216.64789 548.57142,207.37379 548.57142,195.93361 C 548.57142,184.49343 557.84552,175.21932 569.28571,175.21932 C 580.72589,175.21932 589.99999,184.49343 589.99999,195.93361 z"
         sodipodi:ry="20.714285"
         sodipodi:rx="20.714285"
         sodipodi:cy="195.93361"
         sodipodi:cx="569.28571"
         id="path4049"
         style="fill:url(#radialGradient4055);fill-opacity:1;stroke:none;filter:url(#filter3985)"
         sodipodi:type="arc" />
      <rect
         style="fill:url(#radialGradient4057);fill-opacity:1;stroke:none"
         id="rect4051"
         width="4.5456862"
         height="45.456863"
         x="543.74017"
         y="173.52946"
         ry="2.2728431" />
      <rect
         ry="2.2728431"
         y="173.52946"
         x="590.60834"
         height="45.456863"
         width="4.5456862"
         id="rect4053"
         style="fill:url(#radialGradient4059);fill-opacity:1;stroke:none" />
    </g>
  </g>
</svg>
