<?xml version="1.0" encoding="UTF-8" standalone="no"?>
<!-- Created with Inkscape (http://www.inkscape.org/) -->

<svg
   xmlns:dc="http://purl.org/dc/elements/1.1/"
   xmlns:cc="http://creativecommons.org/ns#"
   xmlns:rdf="http://www.w3.org/1999/02/22-rdf-syntax-ns#"
   xmlns:svg="http://www.w3.org/2000/svg"
   xmlns="http://www.w3.org/2000/svg"
   xmlns:xlink="http://www.w3.org/1999/xlink"
   xmlns:sodipodi="http://sodipodi.sourceforge.net/DTD/sodipodi-0.dtd"
   xmlns:inkscape="http://www.inkscape.org/namespaces/inkscape"
   width="170"
   height="170"
   id="svg6055"
   sodipodi:version="0.32"
   inkscape:version="0.48pre1 r9509"
   version="1.0"
   sodipodi:docname="general.svg"
   inkscape:output_extension="org.inkscape.output.svg.inkscape"
   inkscape:export-filename="C:\Users\David\Desktop\general.png"
   inkscape:export-xdpi="43.178135"
   inkscape:export-ydpi="43.178135">
  <defs
     id="defs6057">
    <linearGradient
       id="linearGradient6605">
      <stop
         style="stop-color:#ebebeb;stop-opacity:1;"
         offset="0"
         id="stop6607" />
      <stop
         style="stop-color:#f2f2f2;stop-opacity:0;"
         offset="1"
         id="stop6609" />
    </linearGradient>
    <linearGradient
       id="linearGradient6578">
      <stop
         style="stop-color:#0080dd;stop-opacity:1;"
         offset="0"
         id="stop6580" />
      <stop
         id="stop6588"
         offset="1"
         style="stop-color:#000000;stop-opacity:1;" />
    </linearGradient>
    <inkscape:perspective
       sodipodi:type="inkscape:persp3d"
       inkscape:vp_x="0 : 526.18109 : 1"
       inkscape:vp_y="0 : 1000 : 0"
       inkscape:vp_z="744.09448 : 526.18109 : 1"
       inkscape:persp3d-origin="372.04724 : 350.78739 : 1"
       id="perspective6063" />
    <linearGradient
       inkscape:collect="always"
       xlink:href="#linearGradient6578"
       id="linearGradient6584"
       x1="78"
       y1="22.666672"
       x2="78.333336"
       y2="167"
       gradientUnits="userSpaceOnUse" />
    <linearGradient
       inkscape:collect="always"
       xlink:href="#linearGradient6605"
       id="linearGradient6611"
       x1="80.343735"
       y1="1.0072454"
       x2="65.322945"
       y2="98.961182"
       gradientUnits="userSpaceOnUse" />
  </defs>
  <sodipodi:namedview
     id="base"
     pagecolor="#ffffff"
     bordercolor="#666666"
     borderopacity="1.0"
     gridtolerance="10000"
     guidetolerance="10"
     objecttolerance="10"
     inkscape:pageopacity="0.0"
     inkscape:pageshadow="2"
     inkscape:zoom="1.5"
     inkscape:cx="-74"
     inkscape:cy="107.40658"
     inkscape:document-units="px"
     inkscape:current-layer="layer4"
     showgrid="false"
     inkscape:window-width="1280"
     inkscape:window-height="736"
     inkscape:window-x="0"
     inkscape:window-y="26"
     inkscape:window-maximized="0" />
  <metadata
     id="metadata6060">
    <rdf:RDF>
      <cc:Work
         rdf:about="">
        <dc:format>image/svg+xml</dc:format>
        <dc:type
           rdf:resource="http://purl.org/dc/dcmitype/StillImage" />
        <dc:title />
      </cc:Work>
    </rdf:RDF>
  </metadata>
  <g
     inkscape:label="Button Background"
     inkscape:groupmode="layer"
     id="layer1"
     style="display:inline">
    <rect
       style="fill:#008000;fill-opacity:1;stroke:none"
       id="rect6065"
       width="166"
       height="164.66667"
       x="2"
       y="2.3333333"
       ry="10.333333"
       rx="11.333333" />
    <rect
       rx="11.333333"
       ry="10.333333"
       y="2.3333333"
       x="2"
       height="164.66667"
       width="166"
       id="rect6067"
       style="fill:url(#linearGradient6584);fill-opacity:1;stroke:none" />
    <path
       sodipodi:type="inkscape:offset"
       inkscape:radius="7.0079322"
       inkscape:original="M 13.34375 9.6875 C 10.637404 9.6875 9.34375 11.257186 9.34375 12.65625 L 9.34375 74.9375 C 28.442268 86.097639 57.426427 91.82834 85.96875 91.65625 C 112.54355 91.492523 142.23085 86.680395 160.65625 74.1875 L 160.65625 12.65625 C 160.65625 11.257191 159.36259 9.6875 156.65625 9.6875 L 13.34375 9.6875 z "
       style="display:inline;fill:url(#linearGradient6611);fill-opacity:1;stroke:none"
       id="path6603"
       d="m 13.34375,2.6875 c -5.416089,0 -11,4.2497314 -11,9.96875 l 0,62.28125 A 7.008633,7.008633 0 0 0 5.8125,81 C 26.675372,93.191132 56.491094,98.834168 86,98.65625 113.38859,98.487509 143.96623,93.985989 164.59375,80 a 7.008633,7.008633 0 0 0 3.0625,-5.8125 l 0,-61.53125 c 0,-5.7190491 -5.5839,-9.96875 -11,-9.96875 l -143.3125,0 z"
       transform="matrix(1,0,0,0.9652679,0,0.09334239)" />
  </g>
  <g
     inkscape:groupmode="layer"
     id="layer4"
     inkscape:label="Item Image"
     style="display:inline">
    <path
       style="fill:#e6e6e6;fill-opacity:1;fill-rule:evenodd;stroke:none"
       d="m 24.109796,55.319436 c -0.09399,7.868346 5.277045,11.942913 12.120077,13.217722 13.6169,1.873235 30.853662,0.353837 44.18075,1.734613 0.646484,16.580837 1.050958,25.333305 1.756807,39.072279 -16.984632,0.0789 -20.590813,1.24144 -20.865276,6.34095 -0.270367,5.02318 3.948264,5.87623 8.126388,6.01798 4.178088,0.14176 8.788558,0.0913 13.328844,0.18435 -2.5e-5,-2e-5 0.02191,2.49246 0.819343,2.98458 0.741266,0.45746 2.321057,0.53501 3.152549,0.15302 0.767806,-0.35267 1.037651,-3.21423 1.037674,-3.2142 0,0 8.559546,-0.0336 12.783318,0.0879 4.61246,0.14091 8.97769,-0.16723 9.09783,-6.23862 0.12001,-6.06946 -9.41713,-6.25926 -21.106942,-6.31604 1.145876,-18.301343 1.330336,-19.318618 2.289474,-39.072278 13.271608,-1.286854 28.081228,0.13862 39.595808,-1.734614 9.21037,-1.498356 14.97137,-5.35207 14.70952,-13.190917 -0.26182,-7.838846 -4.71632,-10.625828 -14.77901,-10.639105 -17.78768,-0.02297 -37.839744,-1.609752 -37.839744,-1.609752 -0.172435,-7.753629 1.772443,-18.524677 -5.90569,-18.554906 -7.678184,-0.03027 -6.283202,10.745307 -6.532344,18.572316 -9.525055,0.0018 -30.337264,1.719773 -44.049384,1.643031 -6.415291,-0.03737 -11.825123,2.616211 -11.919992,10.561611 z"
       id="path3241"
       sodipodi:nodetypes="cccczzczzcczccszsczcsz"
       inkscape:connector-curvature="0" />
  </g>
  <g
     inkscape:groupmode="layer"
     id="layer3"
     inkscape:label="Text"
     style="display:inline">
    <flowRoot
       xml:space="preserve"
       id="flowRoot3773"
       style="font-size:28px;font-style:normal;font-weight:normal;text-align:center;line-height:125%;letter-spacing:0;word-spacing:0;text-anchor:middle;fill:#ffffff;fill-opacity:1;stroke:none;display:inline;font-family:Sans"><flowRegion
         id="flowRegion3775"><rect
           id="rect3777"
           width="165.33333"
           height="32.000065"
           x="2.0000007"
           y="134.66667"
           style="font-size:28px;text-align:center;text-anchor:middle;fill:#ffffff" /></flowRegion><flowPara
         id="flowPara3779"
         style="-inkscape-font-specification:Arial;font-family:Arial;font-weight:normal;font-style:normal;font-stretch:normal;font-variant:normal">General</flowPara></flowRoot>  </g>
</svg>
