<?xml version="1.0" encoding="UTF-8" standalone="no"?>
<!-- Created with Inkscape (http://www.inkscape.org/) -->

<svg
   xmlns:dc="http://purl.org/dc/elements/1.1/"
   xmlns:cc="http://creativecommons.org/ns#"
   xmlns:rdf="http://www.w3.org/1999/02/22-rdf-syntax-ns#"
   xmlns:svg="http://www.w3.org/2000/svg"
   xmlns="http://www.w3.org/2000/svg"
   xmlns:sodipodi="http://sodipodi.sourceforge.net/DTD/sodipodi-0.dtd"
   xmlns:inkscape="http://www.inkscape.org/namespaces/inkscape"
   version="1.1"
   width="575.08228"
   height="708.87085"
   id="svg3479"
   inkscape:version="0.47+devel r9530"
   sodipodi:docname="AES_Intellinet.svg">
  <sodipodi:namedview
     pagecolor="#ffffff"
     bordercolor="#666666"
     borderopacity="1"
     objecttolerance="10"
     gridtolerance="10"
     guidetolerance="10"
     inkscape:pageopacity="0"
     inkscape:pageshadow="2"
     inkscape:window-width="1680"
     inkscape:window-height="925"
     id="namedview3112"
     showgrid="false"
     fit-margin-top="0"
     fit-margin-left="0"
     fit-margin-right="0"
     fit-margin-bottom="0"
     inkscape:zoom="0.55494202"
     inkscape:cx="218.3335"
     inkscape:cy="283.65935"
     inkscape:window-x="0"
     inkscape:window-y="0"
     inkscape:window-maximized="0"
     inkscape:current-layer="layer1" />
  <defs
     id="defs3481">
    <linearGradient
       id="linearGradient3914">
      <stop
         style="stop-color:#000000;stop-opacity:1;"
         offset="0"
         id="stop3916" />
      <stop
         style="stop-color:#938d8d;stop-opacity:1;"
         offset="1"
         id="stop3918" />
    </linearGradient>
  </defs>
  <metadata
     id="metadata3484">
    <rdf:RDF>
      <cc:Work
         rdf:about="">
        <dc:format>image/svg+xml</dc:format>
        <dc:type
           rdf:resource="http://purl.org/dc/dcmitype/StillImage" />
        <dc:title></dc:title>
      </cc:Work>
    </rdf:RDF>
  </metadata>
  <g
     id="layer1"
     transform="translate(-96.216134,-100.96959)">
    <path
       d="m 138.62799,412.00083 -5.64516,3.38856 0,386.9739 2.41935,5.4217 z"
       id="path3500"
       style="fill:#f4e3d7;stroke:#000000;stroke-width:0.91671348px;stroke-linecap:butt;stroke-linejoin:miter;stroke-opacity:1"
       inkscape:connector-curvature="0" />
    <path
       d="m 129.74505,413.85292 -32.258063,8.34851 -0.80645,365.94286 33.870963,18.78414 z"
       id="path3502"
       style="fill:#e3e2db;stroke:#000000;stroke-width:0.92880517px;stroke-linecap:butt;stroke-linejoin:miter;stroke-opacity:1"
       inkscape:connector-curvature="0" />
    <path
       d="m 384.36546,421.62814 0.80645,-72.58064 14.51613,0 0.80645,72.58064 z"
       id="path3562"
       style="fill:#ececec;stroke:#000000;stroke-width:1px;stroke-linecap:butt;stroke-linejoin:miter;stroke-opacity:1"
       inkscape:connector-curvature="0" />
    <path
       d="M 385.17191,349.0475 384.36546,120.82169"
       id="path3566"
       style="fill:none;stroke:#000000;stroke-width:1px;stroke-linecap:butt;stroke-linejoin:miter;stroke-opacity:1"
       inkscape:connector-curvature="0" />
    <path
       d="m 384.35034,101.46959 c -2.68065,0 -4.8125,2.1631 -4.8125,4.84375 l 0,16.9375 c 0,2.68065 2.13185,4.84375 4.8125,4.84375 l 1.46875,0 -1.46875,220.9375 15.34375,0.8125 -5.84375,-222 c 1.98181,-0.60497 3.40625,-2.40882 3.40625,-4.59375 l 0,-16.9375 c 0,-2.68065 -2.13185,-4.84375 -4.8125,-4.84375 l -8.09375,0 z"
       id="path3570"
       style="fill:#000000;stroke:#000000;stroke-width:1px;stroke-linecap:butt;stroke-linejoin:miter;stroke-opacity:1"
       inkscape:connector-curvature="0" />
    <path
       d="M 665.13192,425.71649 139.83553,413.73253 134.3061,809.20336 670.66135,792.42581 z"
       id="path3498"
       style="fill:#ececec;stroke:#000000;stroke-width:1.27415919px;stroke-linecap:butt;stroke-linejoin:miter;stroke-opacity:1"
       inkscape:connector-curvature="0" />
    <path
       sodipodi:type="arc"
       style="fill:#4d4d4d;fill-opacity:1;stroke:none"
       id="path3114"
       sodipodi:cx="324.35822"
       sodipodi:cy="615.37958"
       sodipodi:rx="64.871643"
       sodipodi:ry="62.168655"
       d="m 389.22986,615.37958 c 0,34.3348 -29.04403,62.16865 -64.87164,62.16865 -35.82762,0 -64.87165,-27.83385 -64.87165,-62.16865 0,-34.3348 29.04403,-62.16866 64.87165,-62.16866 35.12283,0 63.8666,26.78811 64.84639,60.4344"
       sodipodi:start="0"
       sodipodi:end="6.2552856"
       transform="matrix(1,0,0,0.92753623,-30.633831,40.087749)"
       sodipodi:open="true" />
    <path
       sodipodi:open="true"
       transform="matrix(0.875,0,0,0.78260869,252.2786,129.27319)"
       sodipodi:end="6.2552856"
       sodipodi:start="0"
       d="m 389.22986,615.37958 c 0,34.3348 -29.04403,62.16865 -64.87164,62.16865 -35.82762,0 -64.87165,-27.83385 -64.87165,-62.16865 0,-34.3348 29.04403,-62.16866 64.87165,-62.16866 35.12283,0 63.8666,26.78811 64.84639,60.4344"
       sodipodi:ry="62.168655"
       sodipodi:rx="64.871643"
       sodipodi:cy="615.37958"
       sodipodi:cx="324.35822"
       id="path3116"
       style="fill:#4d4d4d;fill-opacity:1;stroke:none"
       sodipodi:type="arc" />
    <path
       style="fill:#251c1c;fill-opacity:1;stroke:none"
       d="m 292.5864,609.02537 45.81682,-2.05672 -0.66401,11.31194 -45.81682,-3.08507 z"
       id="path3120"
       inkscape:connector-curvature="0"
       sodipodi:nodetypes="ccccc" />
    <path
       sodipodi:type="arc"
       style="fill:#000000;fill-opacity:1;stroke:none"
       id="path3922"
       sodipodi:cx="376.61591"
       sodipodi:cy="613.57764"
       sodipodi:rx="7.2079601"
       sodipodi:ry="6.3069654"
       d="m 383.82387,613.57764 c 0,3.48324 -3.22712,6.30696 -7.20796,6.30696 -3.98085,0 -7.20796,-2.82372 -7.20796,-6.30696 0,-3.48324 3.22711,-6.30697 7.20796,-6.30697 3.90253,0 7.09629,2.71764 7.20515,6.13103"
       sodipodi:start="0"
       sodipodi:end="6.2552856"
       sodipodi:open="true"
       transform="matrix(0.53504197,0,0,0.89898475,136.41341,60.795201)" />
    <path
       sodipodi:nodetypes="ccccc"
       inkscape:connector-curvature="0"
       id="path3926"
       d="m 534.68428,609.66247 45.81682,-2.05672 -0.66401,11.31194 -45.81682,-3.08507 z"
       style="fill:#251c1c;fill-opacity:1;stroke:none" />
    <path
       transform="matrix(0.53504197,0,0,0.89898475,378.51129,61.432301)"
       sodipodi:open="true"
       sodipodi:end="6.2552856"
       sodipodi:start="0"
       d="m 383.82387,613.57764 c 0,3.48324 -3.22712,6.30696 -7.20796,6.30696 -3.98085,0 -7.20796,-2.82372 -7.20796,-6.30696 0,-3.48324 3.22711,-6.30697 7.20796,-6.30697 3.90253,0 7.09629,2.71764 7.20515,6.13103"
       sodipodi:ry="6.3069654"
       sodipodi:rx="7.2079601"
       sodipodi:cy="613.57764"
       sodipodi:cx="376.61591"
       id="path3928"
       style="fill:#000000;fill-opacity:1;stroke:none"
       sodipodi:type="arc" />
  </g>
</svg>
