%FSLAX25Y25*%
%MOIN*%
G70*
G01*
G75*
G04 Layer_Physical_Order=1*
G04 Layer_Color=255*
%ADD10C,0.01000*%
%ADD11R,0.07087X0.04724*%
%ADD12R,0.06102X0.02362*%
%ADD13R,0.04331X0.05512*%
%ADD14R,0.03543X0.02559*%
%ADD15R,0.03543X0.03150*%
%ADD16R,0.06299X0.02756*%
%ADD17R,0.07480X0.04331*%
%ADD18R,0.02047X0.06510*%
%ADD19R,0.02900X0.06510*%
G36*
X69000Y31436D02*
X61404D01*
Y25111D01*
X69000D01*
Y9389D01*
X61404D01*
Y3064D01*
X69000D01*
Y500D01*
X11040D01*
Y6383D01*
X1960D01*
Y500D01*
X500D01*
Y33600D01*
X1960D01*
Y33600D01*
Y33548D01*
X1960Y33176D01*
X1960Y33176D01*
X1960D01*
Y27617D01*
X11040D01*
Y33176D01*
X11040Y33176D01*
D01*
D01*
X11040Y33548D01*
D01*
X11092Y33600D01*
X18825D01*
X18892Y33544D01*
X19098Y33046D01*
X12376Y26324D01*
X12214Y26126D01*
X12093Y25900D01*
X12019Y25655D01*
X11994Y25400D01*
Y15700D01*
X12019Y15445D01*
X12093Y15200D01*
X12214Y14974D01*
X12214Y14974D01*
X12214Y14974D01*
X12376Y14776D01*
X14192Y12961D01*
Y12956D01*
Y12956D01*
X14239Y12913D01*
X15901Y11251D01*
X15901Y11251D01*
X15900Y11250D01*
X15929Y11223D01*
X16982Y10171D01*
X16982Y10171D01*
X17180Y10008D01*
X17406Y9888D01*
X17550Y9844D01*
Y8917D01*
X25450D01*
Y13272D01*
X19792D01*
X19728Y13279D01*
Y13279D01*
X19724Y13274D01*
X19144Y13307D01*
X18567Y13405D01*
X18005Y13567D01*
X17464Y13791D01*
X16952Y14074D01*
X16475Y14413D01*
X16098Y14749D01*
X16041Y14806D01*
X16041Y14806D01*
X16041Y14806D01*
X14606Y16241D01*
Y24859D01*
X20741Y30994D01*
X38487D01*
Y23944D01*
X40646D01*
Y22070D01*
X40453D01*
Y17911D01*
X44932D01*
Y17499D01*
X44957Y17244D01*
X45032Y16999D01*
X45152Y16773D01*
X45315Y16575D01*
X45946Y15944D01*
X45888Y15347D01*
X45586Y15145D01*
X45100Y14906D01*
X44588Y14731D01*
X44057Y14626D01*
X43522Y14591D01*
X43516Y14596D01*
Y14596D01*
X43453Y14589D01*
X40453D01*
Y10430D01*
X45596D01*
Y11360D01*
X45716Y11424D01*
X45914Y11586D01*
X46547Y12220D01*
X46582Y12250D01*
X46580Y12252D01*
X46886Y12558D01*
X47159Y12791D01*
X47514Y13009D01*
X47899Y13169D01*
X48304Y13266D01*
X48715Y13298D01*
X48720Y13294D01*
Y13294D01*
X48783Y13300D01*
X54441D01*
Y17237D01*
Y18024D01*
X54644Y18132D01*
X54842Y18295D01*
X55303Y18756D01*
X55331Y18780D01*
X55329Y18782D01*
X55329Y18782D01*
X57015Y20467D01*
X57037Y20488D01*
X57036Y20489D01*
X57036Y20489D01*
X57624Y21076D01*
X57624Y21076D01*
X57786Y21274D01*
X57907Y21500D01*
X57981Y21745D01*
X58006Y22000D01*
X58006Y22000D01*
Y25600D01*
X57981Y25855D01*
X57907Y26100D01*
X57786Y26326D01*
X57624Y26524D01*
X56024Y28124D01*
X55826Y28286D01*
X55600Y28407D01*
X55355Y28481D01*
X55100Y28506D01*
X50441D01*
X45902Y33046D01*
X46131Y33600D01*
X69000D01*
Y31436D01*
D02*
G37*
%LPC*%
G36*
X31072Y25619D02*
X25928D01*
Y25084D01*
X25450D01*
Y25084D01*
X17550D01*
Y20728D01*
X23208D01*
X23272Y20721D01*
Y20721D01*
X23272Y20722D01*
X23409Y20704D01*
X23536Y20651D01*
X23641Y20571D01*
X23645Y20567D01*
X23645Y20567D01*
Y20567D01*
X23645Y20567D01*
X23912Y20300D01*
X23929Y20280D01*
X23930Y20282D01*
X23930Y20282D01*
X30500Y13712D01*
X30500Y13712D01*
D01*
X30532Y13680D01*
X30715Y13457D01*
X30872Y13162D01*
X30969Y12842D01*
X31002Y12514D01*
X30998Y12510D01*
X30998D01*
X31004Y12446D01*
Y10430D01*
X31393D01*
Y9056D01*
X31082D01*
Y1944D01*
X37013D01*
Y9056D01*
X35907D01*
Y10430D01*
X36147D01*
Y14589D01*
X33317D01*
X32379Y15528D01*
X32349Y15562D01*
X32347Y15560D01*
X32347Y15560D01*
X27592Y20315D01*
X27821Y20869D01*
X28633D01*
X28697Y20863D01*
Y20863D01*
X28701Y20866D01*
X29150Y20837D01*
X29596Y20748D01*
X30026Y20602D01*
X30090Y20571D01*
X30096Y20560D01*
X30258Y20362D01*
X30456Y20199D01*
X30531Y20159D01*
X30531Y20159D01*
X30531D01*
X30531D01*
Y20159D01*
Y20159D01*
X30532Y20159D01*
X30532Y20159D01*
X30773Y19974D01*
X30958Y19733D01*
X31004Y19623D01*
Y17911D01*
X36147D01*
Y22070D01*
X33147D01*
X33084Y22076D01*
Y22076D01*
X33077Y22071D01*
X32789Y22109D01*
X32516Y22222D01*
X32317Y22375D01*
X32285Y22407D01*
X32285Y22407D01*
X32285Y22407D01*
X31290Y23401D01*
X31290Y23402D01*
X31291Y23403D01*
X31273Y23418D01*
X31072Y23620D01*
Y25619D01*
D02*
G37*
%LPD*%
D10*
X15118Y13882D02*
G03*
X19728Y11972I4611J4611D01*
G01*
X16825Y12175D02*
G03*
X19728Y10972I2903J2903D01*
G01*
X17906Y11095D02*
G03*
X19042Y11642I0J1453D01*
G01*
Y10547D02*
G03*
X17906Y11095I-1136J-906D01*
G01*
X24569Y21490D02*
G03*
X23272Y22028I-1297J-1297D01*
G01*
X24150Y22906D02*
G03*
X24854Y21205I2404J0D01*
G01*
X32073Y20771D02*
G03*
X28697Y22169I-3377J-3377D01*
G01*
X30366Y22478D02*
G03*
X28697Y23169I-1670J-1670D01*
G01*
X32304Y12510D02*
G03*
X31423Y14636I-3007J0D01*
G01*
X31896Y20873D02*
G03*
X32882Y20743I649J1124D01*
G01*
X32331Y19788D02*
G03*
X31182Y21285I-2382J-638D01*
G01*
X31361Y21483D02*
G03*
X33084Y20770I1723J1723D01*
G01*
X32304Y19990D02*
G03*
X31915Y20929I-1328J0D01*
G01*
X46238Y18926D02*
G03*
X43872Y19297I-1438J-1438D01*
G01*
X45268Y19896D02*
G03*
X43416Y20186I-1126J-1126D01*
G01*
X45174Y19990D02*
G03*
X44117Y19493I0J-1372D01*
G01*
Y20487D02*
G03*
X45174Y19990I1057J875D01*
G01*
X43516Y13289D02*
G03*
X47363Y14883I0J5440D01*
G01*
X43516Y12289D02*
G03*
X45656Y13175I0J3025D01*
G01*
X44990Y12510D02*
G03*
X44161Y12071I0J-1003D01*
G01*
Y12948D02*
G03*
X44990Y12510I829J564D01*
G01*
X52460Y19900D02*
G03*
X56113Y21413I0J5166D01*
G01*
X52460Y18900D02*
G03*
X54405Y19705I0J2752D01*
G01*
X53918Y19218D02*
G03*
X52982Y18781I0J-1221D01*
G01*
Y19656D02*
G03*
X53918Y19218I936J784D01*
G01*
X47107Y16631D02*
G03*
X48720Y15963I1613J1613D01*
G01*
X48039Y15281D02*
G03*
X47743Y15994I-1008J0D01*
G01*
X48720Y14600D02*
G03*
X45922Y13442I0J-3957D01*
G01*
X50590Y11344D02*
X50645Y11400D01*
X46239Y17499D02*
X48456Y15281D01*
X50390D01*
X46239Y17499D02*
Y18925D01*
X45174Y19990D02*
X46239Y18925D01*
X48256Y15281D02*
X50390D01*
X47762D02*
X50390D01*
X17906Y11095D02*
X21500D01*
X43024Y19990D02*
X45174D01*
X29050Y23794D02*
X32854Y19990D01*
X33549Y12510D02*
X33576D01*
X23154Y22906D02*
X33549Y12510D01*
X21500Y22906D02*
X23154D01*
X44990Y12510D02*
X47762Y15281D01*
X43024Y12510D02*
X44990D01*
X13300Y15700D02*
X17906Y11095D01*
X13300Y15700D02*
Y25400D01*
X50590Y19218D02*
X53918D01*
X13300Y25400D02*
X20200Y32300D01*
X44800D01*
X53918Y19218D02*
X56700Y22000D01*
Y25600D01*
X44800Y32300D02*
X49900Y27200D01*
X55100D01*
X56700Y25600D01*
D11*
X65747Y28274D02*
D03*
Y6226D02*
D03*
D12*
X50590Y23155D02*
D03*
Y15281D02*
D03*
Y11344D02*
D03*
Y19218D02*
D03*
D13*
X39953Y5500D02*
D03*
X34047D02*
D03*
X35547Y27500D02*
D03*
X41453D02*
D03*
D14*
X43024Y12510D02*
D03*
Y16250D02*
D03*
Y19990D02*
D03*
X33576D02*
D03*
Y12510D02*
D03*
D15*
X28500Y23244D02*
D03*
Y28756D02*
D03*
D16*
X21500Y22906D02*
D03*
Y17000D02*
D03*
Y11095D02*
D03*
D17*
X6500Y30583D02*
D03*
Y3417D02*
D03*
D18*
X42476Y24245D02*
D03*
D19*
X33650Y9255D02*
D03*
M02*
