<?xml version="1.0" encoding="UTF-8" standalone="no"?>
<!-- Created with Inkscape (http://www.inkscape.org/) -->

<svg
   xmlns:dc="http://purl.org/dc/elements/1.1/"
   xmlns:cc="http://creativecommons.org/ns#"
   xmlns:rdf="http://www.w3.org/1999/02/22-rdf-syntax-ns#"
   xmlns:svg="http://www.w3.org/2000/svg"
   xmlns="http://www.w3.org/2000/svg"
   xmlns:xlink="http://www.w3.org/1999/xlink"
   xmlns:sodipodi="http://sodipodi.sourceforge.net/DTD/sodipodi-0.dtd"
   xmlns:inkscape="http://www.inkscape.org/namespaces/inkscape"
   width="304.01532"
   height="289.8732"
   id="svg10068"
   version="1.1"
   inkscape:version="0.47 r22583"
   sodipodi:docname="thermometer.svg"
   inkscape:export-filename="C:\Documents and Settings\elafargue\Desktop\thermometer.png"
   inkscape:export-xdpi="59.209999"
   inkscape:export-ydpi="59.209999"
   style="display:inline">
  <defs
     id="defs10070">
    <marker
       inkscape:stockid="Arrow2Sstart"
       orient="auto"
       refY="0"
       refX="0"
       id="Arrow2Sstart"
       style="overflow:visible">
      <path
         id="path4640"
         style="font-size:12px;fill-rule:evenodd;stroke-width:0.625;stroke-linejoin:round"
         d="M 8.7185878,4.0337352 -2.2072895,0.01601326 8.7185884,-4.0017078 c -1.7454984,2.3720609 -1.7354408,5.6174519 -6e-7,8.035443 z"
         transform="matrix(0.3,0,0,0.3,-0.69,0)" />
    </marker>
    <inkscape:perspective
       sodipodi:type="inkscape:persp3d"
       inkscape:vp_x="0 : 526.18109 : 1"
       inkscape:vp_y="0 : 1000 : 0"
       inkscape:vp_z="744.09448 : 526.18109 : 1"
       inkscape:persp3d-origin="372.04724 : 350.78739 : 1"
       id="perspective10076" />
    <inkscape:perspective
       id="perspective9987"
       inkscape:persp3d-origin="0.5 : 0.33333333 : 1"
       inkscape:vp_z="1 : 0.5 : 1"
       inkscape:vp_y="0 : 1000 : 0"
       inkscape:vp_x="0 : 0.5 : 1"
       sodipodi:type="inkscape:persp3d" />
    <inkscape:perspective
       id="perspective10250"
       inkscape:persp3d-origin="0.5 : 0.33333333 : 1"
       inkscape:vp_z="1 : 0.5 : 1"
       inkscape:vp_y="0 : 1000 : 0"
       inkscape:vp_x="0 : 0.5 : 1"
       sodipodi:type="inkscape:persp3d" />
    <inkscape:perspective
       id="perspective10279"
       inkscape:persp3d-origin="0.5 : 0.33333333 : 1"
       inkscape:vp_z="1 : 0.5 : 1"
       inkscape:vp_y="0 : 1000 : 0"
       inkscape:vp_x="0 : 0.5 : 1"
       sodipodi:type="inkscape:persp3d" />
    <inkscape:perspective
       id="perspective10517"
       inkscape:persp3d-origin="0.5 : 0.33333333 : 1"
       inkscape:vp_z="1 : 0.5 : 1"
       inkscape:vp_y="0 : 1000 : 0"
       inkscape:vp_x="0 : 0.5 : 1"
       sodipodi:type="inkscape:persp3d" />
    <inkscape:perspective
       id="perspective11202"
       inkscape:persp3d-origin="0.5 : 0.33333333 : 1"
       inkscape:vp_z="1 : 0.5 : 1"
       inkscape:vp_y="0 : 1000 : 0"
       inkscape:vp_x="0 : 0.5 : 1"
       sodipodi:type="inkscape:persp3d" />
    <inkscape:perspective
       id="perspective3720"
       inkscape:persp3d-origin="0.5 : 0.33333333 : 1"
       inkscape:vp_z="1 : 0.5 : 1"
       inkscape:vp_y="0 : 1000 : 0"
       inkscape:vp_x="0 : 0.5 : 1"
       sodipodi:type="inkscape:persp3d" />
    <inkscape:perspective
       id="perspective3735"
       inkscape:persp3d-origin="0.5 : 0.33333333 : 1"
       inkscape:vp_z="1 : 0.5 : 1"
       inkscape:vp_y="0 : 1000 : 0"
       inkscape:vp_x="0 : 0.5 : 1"
       sodipodi:type="inkscape:persp3d" />
    <inkscape:perspective
       id="perspective3757"
       inkscape:persp3d-origin="0.5 : 0.33333333 : 1"
       inkscape:vp_z="1 : 0.5 : 1"
       inkscape:vp_y="0 : 1000 : 0"
       inkscape:vp_x="0 : 0.5 : 1"
       sodipodi:type="inkscape:persp3d" />
    <inkscape:perspective
       id="perspective3828"
       inkscape:persp3d-origin="0.5 : 0.33333333 : 1"
       inkscape:vp_z="1 : 0.5 : 1"
       inkscape:vp_y="0 : 1000 : 0"
       inkscape:vp_x="0 : 0.5 : 1"
       sodipodi:type="inkscape:persp3d" />
    <inkscape:perspective
       id="perspective3889"
       inkscape:persp3d-origin="0.5 : 0.33333333 : 1"
       inkscape:vp_z="1 : 0.5 : 1"
       inkscape:vp_y="0 : 1000 : 0"
       inkscape:vp_x="0 : 0.5 : 1"
       sodipodi:type="inkscape:persp3d" />
    <inkscape:perspective
       id="perspective3925"
       inkscape:persp3d-origin="0.5 : 0.33333333 : 1"
       inkscape:vp_z="1 : 0.5 : 1"
       inkscape:vp_y="0 : 1000 : 0"
       inkscape:vp_x="0 : 0.5 : 1"
       sodipodi:type="inkscape:persp3d" />
    <inkscape:perspective
       id="perspective3968"
       inkscape:persp3d-origin="0.5 : 0.33333333 : 1"
       inkscape:vp_z="1 : 0.5 : 1"
       inkscape:vp_y="0 : 1000 : 0"
       inkscape:vp_x="0 : 0.5 : 1"
       sodipodi:type="inkscape:persp3d" />
    <inkscape:perspective
       id="perspective3982"
       inkscape:persp3d-origin="0.5 : 0.33333333 : 1"
       inkscape:vp_z="1 : 0.5 : 1"
       inkscape:vp_y="0 : 1000 : 0"
       inkscape:vp_x="0 : 0.5 : 1"
       sodipodi:type="inkscape:persp3d" />
    <inkscape:perspective
       id="perspective4682"
       inkscape:persp3d-origin="0.5 : 0.33333333 : 1"
       inkscape:vp_z="1 : 0.5 : 1"
       inkscape:vp_y="0 : 1000 : 0"
       inkscape:vp_x="0 : 0.5 : 1"
       sodipodi:type="inkscape:persp3d" />
    <inkscape:perspective
       id="perspective3347"
       inkscape:persp3d-origin="0.5 : 0.33333333 : 1"
       inkscape:vp_z="1 : 0.5 : 1"
       inkscape:vp_y="0 : 1000 : 0"
       inkscape:vp_x="0 : 0.5 : 1"
       sodipodi:type="inkscape:persp3d" />
    <inkscape:perspective
       id="perspective5659"
       inkscape:persp3d-origin="0.5 : 0.33333333 : 1"
       inkscape:vp_z="1 : 0.5 : 1"
       inkscape:vp_y="0 : 1000 : 0"
       inkscape:vp_x="0 : 0.5 : 1"
       sodipodi:type="inkscape:persp3d" />
    <inkscape:perspective
       id="perspective5719"
       inkscape:persp3d-origin="0.5 : 0.33333333 : 1"
       inkscape:vp_z="1 : 0.5 : 1"
       inkscape:vp_y="0 : 1000 : 0"
       inkscape:vp_x="0 : 0.5 : 1"
       sodipodi:type="inkscape:persp3d" />
    <inkscape:perspective
       id="perspective5810"
       inkscape:persp3d-origin="0.5 : 0.33333333 : 1"
       inkscape:vp_z="1 : 0.5 : 1"
       inkscape:vp_y="0 : 1000 : 0"
       inkscape:vp_x="0 : 0.5 : 1"
       sodipodi:type="inkscape:persp3d" />
    <inkscape:perspective
       id="perspective3546"
       inkscape:persp3d-origin="0.5 : 0.33333333 : 1"
       inkscape:vp_z="1 : 0.5 : 1"
       inkscape:vp_y="0 : 1000 : 0"
       inkscape:vp_x="0 : 0.5 : 1"
       sodipodi:type="inkscape:persp3d" />
    <inkscape:perspective
       id="perspective4328"
       inkscape:persp3d-origin="0.5 : 0.33333333 : 1"
       inkscape:vp_z="1 : 0.5 : 1"
       inkscape:vp_y="0 : 1000 : 0"
       inkscape:vp_x="0 : 0.5 : 1"
       sodipodi:type="inkscape:persp3d" />
    <linearGradient
       inkscape:collect="always"
       xlink:href="#linearGradient8928"
       id="linearGradient5318"
       gradientUnits="userSpaceOnUse"
       gradientTransform="matrix(2.2532936,0,0,2.206809,446.89077,-285.33499)"
       x1="-29.837337"
       y1="285.0596"
       x2="-29.837337"
       y2="342.60553" />
    <linearGradient
       id="linearGradient8928">
      <stop
         style="stop-color:#ffffff;stop-opacity:0.89156628;"
         offset="0"
         id="stop8930" />
      <stop
         style="stop-color:#ffffff;stop-opacity:0;"
         offset="1"
         id="stop8932" />
    </linearGradient>
    <inkscape:perspective
       id="perspective4367"
       inkscape:persp3d-origin="0.5 : 0.33333333 : 1"
       inkscape:vp_z="1 : 0.5 : 1"
       inkscape:vp_y="0 : 1000 : 0"
       inkscape:vp_x="0 : 0.5 : 1"
       sodipodi:type="inkscape:persp3d" />
  </defs>
  <sodipodi:namedview
     id="base"
     pagecolor="#ffffff"
     bordercolor="#666666"
     borderopacity="1.0"
     inkscape:pageopacity="0.0"
     inkscape:pageshadow="2"
     inkscape:zoom="1.4"
     inkscape:cx="132.73125"
     inkscape:cy="149.93943"
     inkscape:document-units="px"
     inkscape:current-layer="g3658"
     showgrid="false"
     inkscape:window-width="1280"
     inkscape:window-height="744"
     inkscape:window-x="-4"
     inkscape:window-y="1020"
     inkscape:window-maximized="1"
     inkscape:object-paths="true"
     showguides="true"
     inkscape:guide-bbox="true"
     inkscape:snap-to-guides="false"
     inkscape:snap-grids="false"
     inkscape:snap-global="false" />
  <metadata
     id="metadata10073">
    <rdf:RDF>
      <cc:Work
         rdf:about="">
        <dc:format>image/svg+xml</dc:format>
        <dc:type
           rdf:resource="http://purl.org/dc/dcmitype/StillImage" />
        <dc:title></dc:title>
        <dc:creator>
          <cc:Agent>
            <dc:title>Edouard Lafargue</dc:title>
          </cc:Agent>
        </dc:creator>
      </cc:Work>
    </rdf:RDF>
  </metadata>
  <g
     style="display:inline"
     inkscape:label="Dark background"
     id="g2932"
     inkscape:groupmode="layer"
     transform="translate(-228.56377,-366.85416)">
    <g
       id="background"
       inkscape:label="#g4785">
      <g
         id="g4687">
        <rect
           inkscape:export-ydpi="88.809998"
           inkscape:export-xdpi="88.809998"
           inkscape:export-filename="H:\Documents\Hobbies\W433\g9905.png"
           ry="21.08169"
           y="368.95358"
           x="230.66319"
           height="285.67435"
           width="299.81647"
           id="rect2936"
           style="fill:#453e3e;fill-opacity:1;stroke:#000000;stroke-width:4.19884777;stroke-miterlimit:10;stroke-opacity:1;stroke-dasharray:none;stroke-dashoffset:0" />
        <path
           inkscape:export-ydpi="88.809998"
           inkscape:export-xdpi="88.809998"
           inkscape:export-filename="H:\Documents\Hobbies\W433\g9905.png"
           transform="translate(146.21603,-338.54092)"
           d="m 371.73615,850.33167 c 0,75.87329 -61.50746,137.38075 -137.38076,137.38075 -75.87329,0 -137.38075,-61.50746 -137.38075,-137.38075 0,-75.8733 61.50746,-137.38076 137.38075,-137.38076 75.8733,0 137.38076,61.50746 137.38076,137.38076 z"
           sodipodi:ry="137.38075"
           sodipodi:rx="137.38075"
           sodipodi:cy="850.33167"
           sodipodi:cx="234.35539"
           id="path2938"
           style="fill:#332d2d;fill-opacity:1;stroke:#000000;stroke-width:4;stroke-miterlimit:10;stroke-opacity:1;stroke-dasharray:none;stroke-dashoffset:0"
           sodipodi:type="arc" />
      </g>
      <g
         id="g4616"
         style="display:inline">
        <g
           id="g3610">
          <path
             inkscape:export-ydpi="88.809998"
             inkscape:export-xdpi="88.809998"
             inkscape:export-filename="H:\Documents\Hobbies\W433\g9905.png"
             transform="matrix(0.95971398,0,0,0.95971398,155.20505,-304.35199)"
             d="m 371.73478,849.71855 c 0.33861,75.87254 -60.89373,137.65389 -136.76627,137.9925 -40.68091,0.18156 -79.35028,-17.676 -105.59164,-48.76234"
             sodipodi:ry="137.38075"
             sodipodi:rx="137.38075"
             sodipodi:cy="850.33167"
             sodipodi:cx="234.35539"
             id="path3612"
             style="fill:none;stroke:#1c870b;stroke-width:7.29383993;stroke-miterlimit:10;stroke-opacity:1;stroke-dasharray:none;stroke-dashoffset:0;display:inline"
             sodipodi:type="arc"
             sodipodi:start="6.2787224"
             sodipodi:end="8.7236931"
             sodipodi:open="true" />
          <path
             sodipodi:end="3.2737492"
             sodipodi:start="2.4318428"
             sodipodi:type="arc"
             style="fill:none;stroke:#f1b907;stroke-width:7.29383993;stroke-miterlimit:10;stroke-opacity:1;stroke-dasharray:none;stroke-dashoffset:0;display:inline"
             id="path3614"
             sodipodi:cx="234.35539"
             sodipodi:cy="850.33167"
             sodipodi:rx="137.38075"
             sodipodi:ry="137.38075"
             d="M 130.14867,939.85501 C 104.64756,910.17128 93.015889,871.02096 98.172596,832.2287"
             transform="matrix(0.95971398,0,0,0.95971398,155.20505,-304.35199)"
             inkscape:export-filename="H:\Documents\Hobbies\W433\g9905.png"
             inkscape:export-xdpi="88.809998"
             inkscape:export-ydpi="88.809998"
             sodipodi:open="true" />
          <path
             inkscape:export-ydpi="88.809998"
             inkscape:export-xdpi="88.809998"
             inkscape:export-filename="H:\Documents\Hobbies\W433\g9905.png"
             transform="matrix(0.95971398,0,0,0.95971398,155.20505,-304.35199)"
             d="M 98.104411,832.74926 C 103.53774,790.6449 128.1318,753.41769 164.72909,731.90173"
             sodipodi:ry="137.38075"
             sodipodi:rx="137.38075"
             sodipodi:cy="850.33167"
             sodipodi:cx="234.35539"
             id="path3616"
             style="fill:none;stroke:#ff251b;stroke-width:7.29383993;stroke-miterlimit:10;stroke-opacity:1;stroke-dasharray:none;stroke-dashoffset:0;display:inline"
             sodipodi:type="arc"
             sodipodi:start="3.2699277"
             sodipodi:end="4.1809056"
             sodipodi:open="true" />
          <path
             sodipodi:end="6.2827734"
             sodipodi:start="4.9734938"
             sodipodi:type="arc"
             style="fill:none;stroke:#0b5487;stroke-width:7.29383993;stroke-miterlimit:10;stroke-opacity:1;stroke-dasharray:none;stroke-dashoffset:0;display:inline"
             id="path3792"
             sodipodi:cx="234.35539"
             sodipodi:cy="850.33167"
             sodipodi:rx="137.38075"
             sodipodi:ry="137.38075"
             d="m 269.81997,717.60738 c 60.08571,16.0552 101.89055,70.47396 101.91616,132.6677"
             transform="matrix(0.95971398,0,0,0.95971398,155.20505,-304.35199)"
             inkscape:export-filename="H:\Documents\Hobbies\W433\g9905.png"
             inkscape:export-xdpi="88.809998"
             inkscape:export-ydpi="88.809998"
             sodipodi:open="true" />
        </g>
        <g
           transform="matrix(1.0028474,0.0183318,-0.02852535,0.99663927,0,0)"
           style="font-size:42.15462493999999800px;font-style:normal;font-weight:normal;fill:#ffffff;fill-opacity:1;stroke:none;font-family:Bitstream Vera Sans"
           id="text3618">
          <path
             d="m 317.84091,456.08612 c -1e-5,0.26857 -0.008,0.4476 -0.0244,0.53711 -1e-5,0.0488 -0.16684,0.28891 -0.50049,0.72021 -1.0905,1.46486 -2.03858,3.39357 -2.84424,5.78614 -0.78126,2.3112 -1.28988,4.30908 -1.52588,5.99365 -0.0244,0.19531 -0.0529,0.32552 -0.0855,0.39062 -0.057,0.11394 -0.16276,0.19125 -0.31738,0.23194 -0.22787,0.0651 -0.70801,0.0976 -1.44043,0.0976 -0.75684,0 -1.22477,-0.0326 -1.40381,-0.0976 -0.0977,-0.0326 -0.14648,-0.13021 -0.14648,-0.29297 0,-1.00911 0.41096,-2.51058 1.23291,-4.50439 0.54524,-1.31836 1.31021,-2.94189 2.29492,-4.87061 0.82193,-1.61132 1.2329,-2.44139 1.23291,-2.49023 -1e-5,-0.12206 -0.1058,-0.1831 -0.31738,-0.18311 -0.69988,1e-5 -1.75375,0.057 -3.16162,0.1709 -1.40788,0.11394 -2.46176,0.17091 -3.16163,0.1709 -0.21972,10e-6 -0.32959,-0.0732 -0.32959,-0.21973 0,-0.15461 0.0244,-0.35806 0.0733,-0.61035 0.0651,-0.33365 0.10172,-0.54117 0.10986,-0.62256 0.0163,-0.14647 0.0244,-0.59406 0.0244,-1.34277 0,-0.17089 0.11394,-0.25634 0.3418,-0.25635 0.54525,10e-6 1.47298,0.0529 2.7832,0.15869 0.84635,0.0651 3.08024,0.0977 6.70166,0.0977 0.30924,10e-6 0.46386,0.37843 0.46387,1.13525 z"
             style="font-size:25px;font-variant:normal;font-stretch:normal;font-family:Berlin Sans FB;-inkscape-font-specification:Berlin Sans FB;fill:#ffffff;fill-opacity:1"
             id="path3095" />
          <path
             d="m 332.42831,462.25067 c -1e-5,2.05079 -0.60629,3.81674 -1.81884,5.29785 -1.29396,1.58692 -2.94598,2.38037 -4.95606,2.38037 -2.00196,0 -3.6499,-0.79345 -4.94385,-2.38037 -1.2207,-1.48925 -1.83105,-3.2552 -1.83105,-5.29785 0,-2.04263 0.61035,-3.80044 1.83105,-5.27344 1.29395,-1.57062 2.94189,-2.35594 4.94385,-2.35595 2.01008,10e-6 3.6621,0.78126 4.95606,2.34375 1.21255,1.47299 1.81883,3.23487 1.81884,5.28564 z m -2.86865,0 c -1e-5,-1.25325 -0.3296,-2.3356 -0.98877,-3.24707 -0.73243,-1.00096 -1.70492,-1.50145 -2.91748,-1.50146 -1.21257,10e-6 -2.18099,0.5005 -2.90527,1.50146 -0.64291,0.89519 -0.96436,1.97755 -0.96436,3.24707 0,1.25326 0.32552,2.33969 0.97657,3.25928 0.73241,1.02539 1.69677,1.53809 2.89306,1.53808 1.15559,1e-5 2.11588,-0.52489 2.88086,-1.5747 0.68358,-0.95215 1.02538,-2.02636 1.02539,-3.22266 z"
             style="font-size:25px;font-variant:normal;font-stretch:normal;font-family:Berlin Sans FB;-inkscape-font-specification:Berlin Sans FB;fill:#ffffff;fill-opacity:1"
             id="path3097" />
        </g>
        <g
           transform="scale(1.0059854,0.99405021)"
           style="font-size:42.15462493999999800px;font-style:normal;font-weight:normal;fill:#ffda5c;fill-opacity:1;stroke:none;font-family:Bitstream Vera Sans"
           id="text3622">
          <path
             d="m 292.16321,516.11758 c -2e-5,2.18184 -0.63296,3.91856 -1.89882,5.21016 -1.26588,1.2916 -2.98973,1.9374 -5.17155,1.9374 -2.36709,0 -4.199,-0.83362 -5.49575,-2.50087 -1.18354,-1.51287 -1.77531,-3.48372 -1.77531,-5.91256 0,-2.97428 1.0549,-5.55233 3.16469,-7.73418 2.10978,-2.18181 4.64667,-3.27273 7.61068,-3.27274 0.19553,1e-5 0.33446,0.10808 0.41681,0.32418 0.52486,1.45114 0.7873,2.187 0.78731,2.20756 -10e-6,0.29848 -0.19041,0.44771 -0.57119,0.44769 -1.44084,2e-5 -2.7273,0.29333 -3.85937,0.87994 -1.46142,0.76159 -2.47515,1.76503 -3.04118,3.01031 -0.072,0.16467 -0.10807,0.29332 -0.10806,0.38593 -1e-5,0.12351 0.0514,0.18012 0.15437,0.16981 0.61749,-0.23669 1.22985,-0.4734 1.83706,-0.71012 0.65866,-0.21611 1.30703,-0.32417 1.94512,-0.32419 1.75987,2e-5 3.2007,0.54033 4.3225,1.62094 1.12177,1.08063 1.68267,2.50088 1.68269,4.26074 z m -3.31906,0.0618 c -2e-5,-1.03944 -0.32935,-1.89622 -0.988,-2.57034 -0.65868,-0.67409 -1.50774,-1.01114 -2.54719,-1.01115 -2.61408,10e-6 -3.92112,1.0549 -3.92112,3.16468 0,1.19384 0.3036,2.24359 0.91081,3.14925 0.69983,1.01888 1.62093,1.52831 2.76331,1.52831 2.52145,0 3.78217,-1.42024 3.78219,-4.26075 z"
             style="font-size:31.61596679999999900px;font-variant:normal;font-stretch:normal;font-family:Berlin Sans FB;-inkscape-font-specification:Berlin Sans FB;fill:#ffda5c;fill-opacity:1"
             id="path3905" />
          <path
             d="m 310.99693,513.55496 c -1e-5,2.59351 -0.76674,4.82679 -2.30018,6.69987 -1.63639,2.00687 -3.72559,3.01031 -6.26762,3.01031 -2.53175,0 -4.61581,-1.00344 -6.25218,-3.01031 -1.54375,-1.88337 -2.31562,-4.11666 -2.31562,-6.69987 0,-2.58319 0.77187,-4.80619 2.31562,-6.66899 1.63637,-1.98627 3.72043,-2.97942 6.25218,-2.97943 2.54203,10e-6 4.63123,0.98801 6.26762,2.96399 1.53344,1.86281 2.30017,4.09095 2.30018,6.68443 z m -3.6278,0 c -2e-5,-1.5849 -0.41683,-2.95369 -1.25044,-4.10637 -0.92626,-1.26586 -2.15611,-1.89879 -3.68956,-1.89881 -1.53346,2e-5 -2.75817,0.63295 -3.67412,1.89881 -0.81305,1.1321 -1.21957,2.50088 -1.21956,4.10637 -1e-5,1.58493 0.41166,2.95886 1.235,4.12181 0.92624,1.29675 2.1458,1.94513 3.65868,1.94512 1.46141,10e-6 2.67582,-0.6638 3.64325,-1.99143 0.86448,-1.20412 1.29673,-2.56262 1.29675,-4.0755 z"
             style="font-size:31.61596679999999900px;font-variant:normal;font-stretch:normal;font-family:Berlin Sans FB;-inkscape-font-specification:Berlin Sans FB;fill:#ffda5c;fill-opacity:1"
             id="path3907" />
        </g>
        <g
           transform="matrix(1.0030016,0.0051681,0.0051681,0.99703401,0,0)"
           style="font-size:42.15462493999999800px;font-style:normal;font-weight:normal;fill:#ffffff;fill-opacity:1;stroke:none;font-family:Bitstream Vera Sans"
           id="text3626">
          <path
             d="m 299.68051,556.15295 c -1e-5,1.76596 -0.57374,3.10466 -1.72119,4.01612 -1.04981,0.84635 -2.47803,1.26953 -4.28467,1.26953 -0.5778,0 -1.43636,-0.1058 -2.57568,-0.31738 -1.41602,-0.26042 -2.12403,-0.54118 -2.12402,-0.84229 -10e-6,-0.28483 0.061,-0.75276 0.1831,-1.40381 0.13835,-0.74869 0.27262,-1.12304 0.40283,-1.12304 -0.11393,0 0.25025,0.22176 1.09253,0.66528 0.84228,0.44352 1.63371,0.66528 2.37427,0.66528 1.01725,0 1.84326,-0.20345 2.47803,-0.61035 0.74869,-0.48828 1.12304,-1.20849 1.12304,-2.16064 0,-1.59505 -1.17188,-2.39258 -3.51562,-2.39258 -0.30925,0 -0.76294,0.0448 -1.36109,0.13427 -0.59814,0.0895 -1.01522,0.13429 -1.25122,0.13428 -0.17903,10e-6 -0.29297,-0.0529 -0.34179,-0.15869 -0.0163,-0.0488 -0.0244,-0.12206 -0.0244,-0.21973 -0.008,-0.17089 -0.004,-0.41096 0.0122,-0.72021 0.008,-0.34993 0.0122,-0.59 0.0122,-0.72022 0,-0.59406 -0.008,-1.48721 -0.0244,-2.67944 -0.0163,-1.19221 -0.0244,-2.08535 -0.0244,-2.67944 0,-0.11392 0.0915,-0.2543 0.27466,-0.42114 0.1831,-0.16682 0.33162,-0.25023 0.44555,-0.25025 0.42318,2e-5 1.06201,0.0183 1.91651,0.0549 0.85449,0.0366 1.49739,0.055 1.92871,0.0549 0.40689,2e-5 1.02335,-0.0203 1.84936,-0.061 0.826,-0.0407 1.44653,-0.061 1.86158,-0.061 0.18716,2e-5 0.28075,0.0773 0.28076,0.23194 -10e-6,0.17091 -0.0387,0.48422 -0.11597,0.93994 -0.0773,0.45574 -0.11598,0.80161 -0.11597,1.0376 -10e-6,0.0895 -0.0631,0.18311 -0.1892,0.28076 -0.12615,0.0977 -0.23805,0.14649 -0.3357,0.14648 -0.42318,10e-6 -1.05591,-0.0244 -1.89819,-0.0732 -0.84229,-0.0488 -1.47502,-0.0732 -1.89819,-0.0732 -0.60222,1e-5 -1.13119,0.0122 -1.58692,0.0366 0,0.66733 -0.0407,1.69272 -0.12207,3.07617 0.24414,1e-5 0.61238,-0.0285 1.10474,-0.0854 0.49234,-0.057 0.86466,-0.0854 1.11694,-0.0855 1.49739,10e-6 2.68961,0.34588 3.57666,1.0376 0.98469,0.77312 1.47704,1.8921 1.47705,3.35693 z"
             style="font-size:25px;font-variant:normal;font-stretch:normal;font-family:Berlin Sans FB;-inkscape-font-specification:Berlin Sans FB;fill:#ffffff;fill-opacity:1"
             id="path3090" />
          <path
             d="m 314.89047,553.76038 c -10e-6,2.05078 -0.60629,3.81673 -1.81885,5.29785 -1.29395,1.58691 -2.94597,2.38037 -4.95605,2.38037 -2.00196,0 -3.64991,-0.79346 -4.94385,-2.38037 -1.2207,-1.48926 -1.83105,-3.25521 -1.83105,-5.29785 0,-2.04264 0.61035,-3.80045 1.83105,-5.27344 1.29394,-1.57063 2.94189,-2.35594 4.94385,-2.35596 2.01008,2e-5 3.6621,0.78127 4.95605,2.34375 1.21256,1.47299 1.81884,3.23487 1.81885,5.28565 z m -2.86865,0 c -10e-6,-1.25325 -0.3296,-2.33561 -0.98877,-3.24707 -0.73243,-1.00097 -1.70492,-1.50146 -2.91748,-1.50147 -1.21257,10e-6 -2.18099,0.5005 -2.90527,1.50147 -0.64291,0.89519 -0.96436,1.97754 -0.96436,3.24707 0,1.25326 0.32552,2.33968 0.97656,3.25927 0.73242,1.0254 1.69677,1.53809 2.89307,1.53809 1.15559,0 2.11588,-0.5249 2.88086,-1.57471 0.68358,-0.95214 1.02538,-2.02636 1.02539,-3.22265 z"
             style="font-size:25px;font-variant:normal;font-stretch:normal;font-family:Berlin Sans FB;-inkscape-font-specification:Berlin Sans FB;fill:#ffffff;fill-opacity:1"
             id="path3092" />
        </g>
        <g
           transform="matrix(0.99703401,0.0051681,0.0051681,1.0030016,0,0)"
           style="font-size:42.15462493999999800px;font-style:normal;font-weight:normal;fill:#ffffff;fill-opacity:1;stroke:none;font-family:Bitstream Vera Sans"
           id="text3630">
          <path
             d="m 333.70258,586.6554 c -2e-5,0.15462 -0.0895,0.22786 -0.26856,0.21972 -0.29298,-0.0163 -0.70802,-0.0244 -1.24512,-0.0244 -0.19532,0 -0.30925,0.0122 -0.34179,0.0366 -0.0651,0.0407 -0.0977,0.15462 -0.0977,0.3418 -1e-5,0.28483 0.0224,0.71411 0.0671,1.28784 0.0447,0.57373 0.0671,1.00301 0.0671,1.28784 -1e-5,0.17904 -0.10174,0.28483 -0.30518,0.31738 -0.2767,0.0488 -0.75277,0.0732 -1.42822,0.0732 -1.13933,0 -1.70899,-0.0895 -1.70898,-0.26855 -10e-6,-0.236 0.0448,-0.68359 0.13427,-1.34277 0.0895,-0.65918 0.13427,-1.14339 0.13428,-1.45264 -1e-5,-0.18717 -0.0692,-0.28076 -0.20752,-0.28076 -0.65919,0 -1.64592,0.0204 -2.9602,0.061 -1.3143,0.0407 -2.30103,0.061 -2.96021,0.061 -0.48828,0 -0.73242,-0.50049 -0.73242,-1.50147 0,-0.78938 0.0773,-1.27766 0.23193,-1.46484 0.56152,-0.6429 1.36719,-1.6276 2.41699,-2.9541 1.31022,-1.83918 2.32747,-3.3081 3.05176,-4.40674 0.22786,-0.35806 0.57779,-0.8911 1.04981,-1.59912 0.1302,-0.17088 0.25634,-0.25633 0.37841,-0.25635 0.56152,2e-5 1.42008,0.2116 2.57569,0.63477 0.25227,0.0895 0.37841,0.24008 0.37842,0.45166 -1e-5,0.41505 -0.0305,1.03964 -0.0916,1.87378 -0.061,0.83415 -0.0916,1.45875 -0.0915,1.87378 -1e-5,0.37435 -0.004,1.01726 -0.0122,1.92871 -0.0163,0.82194 -0.0204,1.46485 -0.0122,1.92871 l 0,0.98877 c 0.21157,0 0.52285,-0.0163 0.93383,-0.0488 0.41096,-0.0326 0.71817,-0.0488 0.92164,-0.0488 0.0651,1e-5 0.0976,0.0692 0.0976,0.20752 -10e-6,0.22787 0.004,0.5717 0.0122,1.03149 0.008,0.45981 0.0122,0.80771 0.0122,1.04371 z m -4.55323,-8.70362 c 0,-0.0651 -0.0244,-0.11392 -0.0732,-0.14648 -0.0733,10e-6 -0.17904,0.13836 -0.31738,0.41504 -0.0814,0.17904 -0.16684,0.35401 -0.25635,0.5249 -1.40788,1.88803 -2.81576,3.79232 -4.22363,5.71289 0.0407,0.0895 0.37027,0.13428 0.98877,0.13428 l 0.50049,0 c 1.35904,0 2.37222,-0.0203 3.03955,-0.061 0.008,-1.00097 0.0203,-2.00194 0.0366,-3.00293 0.0325,-1.27766 0.10172,-2.25422 0.20752,-2.92969 0.0651,-0.39061 0.0977,-0.60627 0.0977,-0.64697 z"
             style="font-size:25px;font-variant:normal;font-stretch:normal;font-family:Berlin Sans FB;-inkscape-font-specification:Berlin Sans FB;fill:#ffffff;fill-opacity:1"
             id="path3085" />
          <path
             d="m 348.37543,582.62708 c -2e-5,2.05078 -0.6063,3.81673 -1.81885,5.29785 -1.29396,1.58691 -2.94597,2.38037 -4.95606,2.38037 -2.00195,0 -3.6499,-0.79346 -4.94384,-2.38037 -1.22071,-1.48926 -1.83106,-3.25521 -1.83106,-5.29785 0,-2.04264 0.61035,-3.80045 1.83106,-5.27344 1.29394,-1.57063 2.94189,-2.35594 4.94384,-2.35596 2.01009,2e-5 3.6621,0.78126 4.95606,2.34375 1.21255,1.47299 1.81883,3.23487 1.81885,5.28565 z m -2.86866,0 c -1e-5,-1.25325 -0.3296,-2.33561 -0.98876,-3.24708 -0.73244,-1.00096 -1.70493,-1.50145 -2.91749,-1.50146 -1.21257,10e-6 -2.18099,0.5005 -2.90527,1.50146 -0.64291,0.8952 -0.96436,1.97755 -0.96435,3.24708 -1e-5,1.25326 0.32551,2.33968 0.97656,3.25927 0.73242,1.0254 1.69677,1.53809 2.89306,1.53809 1.1556,0 2.11588,-0.5249 2.88086,-1.57471 0.68359,-0.95214 1.02538,-2.02636 1.02539,-3.22265 z"
             style="font-size:25px;font-variant:normal;font-stretch:normal;font-family:Berlin Sans FB;-inkscape-font-specification:Berlin Sans FB;fill:#ffffff;fill-opacity:1"
             id="path3087" />
        </g>
        <g
           transform="scale(0.99405021,1.0059854)"
           style="font-size:42.15462493999999800px;font-style:normal;font-weight:normal;fill:#ffda5c;fill-opacity:1;stroke:none;font-family:Bitstream Vera Sans"
           id="text3634">
          <path
             d="m 378.06577,600.94212 c -2e-5,1.89367 -0.71014,3.33965 -2.13038,4.33793 -1.2453,0.88509 -2.85079,1.32763 -4.81649,1.32763 -2.33621,0 -4.446,-0.43225 -6.32937,-1.29675 -0.19554,-0.0926 -0.29331,-0.18525 -0.29331,-0.27788 0,0.0309 0.247,-0.77187 0.741,-2.40824 0.0618,-0.22642 0.15437,-0.33962 0.27787,-0.33963 1.83191,0.93655 3.33964,1.40482 4.52319,1.40481 2.80961,1e-5 4.21442,-1.01887 4.21443,-3.05662 -10e-6,-1.26587 -0.48372,-2.1458 -1.45113,-2.63981 -0.68954,-0.3602 -1.72385,-0.5403 -3.10293,-0.54031 -0.28817,10e-6 -0.68955,0.0103 -1.20412,0.0309 -0.51459,0.0206 -0.87994,0.0309 -1.09606,0.0309 -0.59692,10e-6 -0.89538,-0.12349 -0.89538,-0.3705 0,-1.39965 0.15437,-2.09949 0.46313,-2.0995 0.45283,1e-5 1.13465,0.0515 2.04546,0.15438 0.91081,0.10292 1.59263,0.15438 2.04547,0.15437 0.67924,10e-6 1.23242,-0.2264 1.65953,-0.67925 0.42709,-0.45282 0.64064,-1.01886 0.64065,-1.69812 -10e-6,-1.89365 -1.22986,-2.84048 -3.68955,-2.8405 -1.44084,2e-5 -2.73759,0.30362 -3.89025,0.91081 -0.0412,0.0206 -0.0926,0.0309 -0.15438,0.0309 -0.25729,10e-6 -0.38593,-0.76671 -0.38593,-2.30019 0,-0.51456 0.82847,-0.91593 2.48543,-1.20412 1.14237,-0.19552 2.17668,-0.29329 3.10294,-0.29331 1.71869,2e-5 3.18525,0.37566 4.39968,1.12693 1.45111,0.8851 2.17667,2.13554 2.17668,3.75131 -10e-6,0.83364 -0.22642,1.66726 -0.67924,2.50088 -0.49402,0.88509 -1.10637,1.482 -1.83706,1.79074 2.12006,0.71014 3.1801,2.20757 3.18012,4.49231 z"
             style="font-size:31.61596679999999900px;font-variant:normal;font-stretch:normal;font-family:Berlin Sans FB;-inkscape-font-specification:Berlin Sans FB;fill:#ffda5c;fill-opacity:1"
             id="path3900" />
          <path
             d="m 396.83775,596.92838 c -2e-5,2.5935 -0.76675,4.82679 -2.30019,6.69986 -1.63638,2.00688 -3.72559,3.01031 -6.26762,3.01031 -2.53175,0 -4.61581,-1.00343 -6.25218,-3.01031 -1.54375,-1.88337 -2.31562,-4.11665 -2.31562,-6.69986 0,-2.5832 0.77187,-4.80619 2.31562,-6.669 1.63637,-1.98627 3.72043,-2.97941 6.25218,-2.97943 2.54203,2e-5 4.63124,0.98802 6.26762,2.964 1.53344,1.8628 2.30017,4.09094 2.30019,6.68443 z m -3.62781,0 c -2e-5,-1.58491 -0.41683,-2.9537 -1.25044,-4.10638 -0.92626,-1.26585 -2.15611,-1.89879 -3.68956,-1.89881 -1.53346,2e-5 -2.75817,0.63296 -3.67412,1.89881 -0.81304,1.1321 -1.21956,2.50089 -1.21956,4.10638 0,1.58492 0.41166,2.95885 1.235,4.1218 0.92624,1.29676 2.1458,1.94513 3.65868,1.94513 1.46141,0 2.67582,-0.66381 3.64325,-1.99144 0.86449,-1.20412 1.29673,-2.56261 1.29675,-4.07549 z"
             style="font-size:31.61596679999999900px;font-variant:normal;font-stretch:normal;font-family:Berlin Sans FB;-inkscape-font-specification:Berlin Sans FB;fill:#ffda5c;fill-opacity:1"
             id="path3902" />
        </g>
        <g
           transform="matrix(0.99703401,-0.0051681,-0.0051681,1.0030016,0,0)"
           style="font-size:42.15462493999999800px;font-style:normal;font-weight:normal;fill:#ffffff;fill-opacity:1;stroke:none;font-family:Bitstream Vera Sans"
           id="text3638">
          <path
             d="m 424.7338,593.30731 c -2e-5,0.23601 -0.0122,0.60018 -0.0366,1.09253 -0.0244,0.49235 -0.0366,0.8606 -0.0366,1.10474 -10e-6,0.17903 -0.13429,0.26855 -0.40283,0.26855 0.0895,0 -0.29501,-0.0326 -1.15356,-0.0977 -0.85857,-0.0651 -2.13421,-0.0977 -3.82691,-0.0977 -0.5778,0 -1.4506,0.0122 -2.61841,0.0366 -1.1678,0.0244 -2.04468,0.0366 -2.63061,0.0366 -0.18718,0 -0.30518,-0.0814 -0.35401,-0.24414 l -0.31738,-1.75781 c 0,-0.0977 0.28483,-0.19531 0.85449,-0.29297 0.63477,-0.11393 1.03353,-0.24007 1.19629,-0.37842 1.13118,-0.98469 2.24202,-2.14843 3.33252,-3.49121 1.40787,-1.74967 2.11181,-3.07616 2.11182,-3.97949 -1e-5,-0.74055 -0.30112,-1.3509 -0.90332,-1.83106 -0.56153,-0.44757 -1.21664,-0.67137 -1.96533,-0.67138 -0.72429,10e-6 -1.44857,0.14243 -2.17285,0.42724 -0.49643,0.19533 -0.99285,0.45574 -1.48926,0.78125 -0.42318,0.28485 -0.63477,0.42726 -0.63477,0.42725 -0.0651,10e-6 -0.10986,-0.004 -0.13428,-0.0122 -0.0814,-0.0407 -0.1302,-0.18309 -0.14648,-0.42724 -0.008,-0.1953 -0.0326,-0.47607 -0.0732,-0.84229 -0.1709,-0.74055 -0.25635,-1.04165 -0.25635,-0.90332 0,-0.0651 0.061,-0.1424 0.18311,-0.23193 0.65104,-0.49641 1.48925,-0.90331 2.51464,-1.22071 0.9847,-0.30109 1.91243,-0.45164 2.78321,-0.45166 1.49739,2e-5 2.73029,0.34995 3.69873,1.04981 1.09862,0.7894 1.64794,1.90838 1.64795,3.35693 -1e-5,1.57879 -1.4323,3.79233 -4.29688,6.64063 -0.31739,0.37435 -0.81787,0.90739 -1.50146,1.59912 0.21158,0.0163 0.47607,0.0244 0.79345,0.0244 1.59505,10e-6 3.42203,-0.0977 5.48096,-0.29297 l 0.0977,-0.0122 c 0.17088,0 0.25633,0.13021 0.25635,0.39062 z"
             style="font-size:25px;font-variant:normal;font-stretch:normal;font-family:Berlin Sans FB;-inkscape-font-specification:Berlin Sans FB;fill:#ffffff;fill-opacity:1"
             id="path3080" />
          <path
             d="m 439.26016,588.20477 c -10e-6,2.05079 -0.60629,3.81674 -1.81885,5.29785 -1.29395,1.58692 -2.94597,2.38038 -4.95605,2.38038 -2.00196,0 -3.64991,-0.79346 -4.94385,-2.38038 -1.2207,-1.48925 -1.83105,-3.2552 -1.83105,-5.29785 0,-2.04263 0.61035,-3.80044 1.83105,-5.27343 1.29394,-1.57063 2.94189,-2.35595 4.94385,-2.35596 2.01008,10e-6 3.6621,0.78126 4.95605,2.34375 1.21256,1.47299 1.81884,3.23487 1.81885,5.28564 z m -2.86865,0 c -10e-6,-1.25324 -0.3296,-2.3356 -0.98877,-3.24707 -0.73243,-1.00096 -1.70492,-1.50145 -2.91748,-1.50146 -1.21257,10e-6 -2.18099,0.5005 -2.90527,1.50146 -0.64291,0.89519 -0.96436,1.97755 -0.96436,3.24707 0,1.25326 0.32552,2.33969 0.97656,3.25928 0.73242,1.02539 1.69677,1.53809 2.89307,1.53809 1.15559,0 2.11588,-0.5249 2.88086,-1.57471 0.68358,-0.95214 1.02538,-2.02636 1.02539,-3.22266 z"
             style="font-size:25px;font-variant:normal;font-stretch:normal;font-family:Berlin Sans FB;-inkscape-font-specification:Berlin Sans FB;fill:#ffffff;fill-opacity:1"
             id="path3082" />
        </g>
        <g
           transform="matrix(1.0030016,-0.0051681,-0.0051681,0.99703401,0,0)"
           style="font-size:42.15462493999999800px;font-style:normal;font-weight:normal;fill:#ffffff;fill-opacity:1;stroke:none;font-family:Bitstream Vera Sans"
           id="text3642">
          <path
             d="m 447.65457,553.96674 c 0,0.0407 -0.004,0.11394 -0.0122,0.21972 -0.18718,1.473 -0.28076,3.88999 -0.28076,7.25098 0,0.71615 0.008,1.79444 0.0244,3.23486 0.0163,1.44043 0.0244,2.51872 0.0244,3.23487 0,0.31738 -0.13428,0.47607 -0.40283,0.47607 -0.26856,0 -0.65512,0.008 -1.15967,0.0244 -0.50456,0.0163 -0.88298,0.0244 -1.13525,0.0244 -0.25228,0 -0.37842,-0.10173 -0.37842,-0.30518 0,-0.1709 0.0529,-1.66829 0.15869,-4.49219 0.0488,-1.36718 0.0732,-3.36099 0.0732,-5.98144 0,-0.18716 -0.0407,-0.28075 -0.12207,-0.28076 -0.19531,1e-5 -0.50252,0.0651 -0.92163,0.19531 -0.41911,0.13022 -0.73039,0.19532 -0.93384,0.19531 -0.18717,1e-5 -0.28076,-0.0488 -0.28076,-0.14648 0,-0.0976 0.0102,-0.24413 0.0305,-0.43945 0.0203,-0.19531 0.0305,-0.34179 0.0305,-0.43946 0,-0.0895 -0.008,-0.22378 -0.0244,-0.40283 -0.0163,-0.17902 -0.0244,-0.3133 -0.0244,-0.40283 0,-0.10578 0.0895,-0.1953 0.26855,-0.26856 0.47201,-0.1953 0.9725,-0.52895 1.50147,-1.00097 0.0244,-0.0244 0.24821,-0.26854 0.67139,-0.73243 0.3662,-0.39874 0.56965,-0.59812 0.61035,-0.59814 -0.008,2e-5 0.32958,0.0733 1.01318,0.21973 0.25227,0.0326 0.61848,0.0936 1.09863,0.1831 0.11393,0.0326 0.1709,0.10988 0.1709,0.23194 z"
             style="font-size:25px;font-variant:normal;font-stretch:normal;font-family:Berlin Sans FB;-inkscape-font-specification:Berlin Sans FB;fill:#ffffff;fill-opacity:1"
             id="path3075" />
          <path
             d="m 463.24295,561.05902 c -1e-5,2.05079 -0.6063,3.81674 -1.81885,5.29785 -1.29395,1.58692 -2.94597,2.38037 -4.95605,2.38037 -2.00196,0 -3.64991,-0.79345 -4.94385,-2.38037 -1.2207,-1.48925 -1.83105,-3.2552 -1.83105,-5.29785 0,-2.04263 0.61035,-3.80044 1.83105,-5.27344 1.29394,-1.57062 2.94189,-2.35594 4.94385,-2.35595 2.01008,10e-6 3.6621,0.78126 4.95605,2.34375 1.21255,1.47299 1.81884,3.23487 1.81885,5.28564 z m -2.86865,0 c -1e-5,-1.25325 -0.3296,-2.3356 -0.98877,-3.24707 -0.73243,-1.00096 -1.70493,-1.50145 -2.91748,-1.50146 -1.21257,1e-5 -2.181,0.5005 -2.90528,1.50146 -0.6429,0.89519 -0.96435,1.97755 -0.96435,3.24707 0,1.25326 0.32552,2.33969 0.97656,3.25928 0.73242,1.02539 1.69677,1.53809 2.89307,1.53808 1.15559,1e-5 2.11587,-0.52489 2.88086,-1.5747 0.68358,-0.95215 1.02538,-2.02636 1.02539,-3.22266 z"
             style="font-size:25px;font-variant:normal;font-stretch:normal;font-family:Berlin Sans FB;-inkscape-font-specification:Berlin Sans FB;fill:#ffffff;fill-opacity:1"
             id="path3077" />
        </g>
        <g
           transform="scale(1.0059854,0.99405021)"
           style="font-size:42.15462493999999800px;font-style:normal;font-weight:normal;fill:#ffda5c;fill-opacity:1;stroke:none;font-family:Bitstream Vera Sans"
           id="text3646">
          <path
             d="m 474.7629,514.0181 c -2e-5,2.5935 -0.76675,4.82679 -2.30019,6.69987 -1.63639,2.00687 -3.72559,3.0103 -6.26762,3.0103 -2.53175,0 -4.61581,-1.00343 -6.25218,-3.0103 -1.54375,-1.88337 -2.31562,-4.11666 -2.31562,-6.69987 0,-2.5832 0.77187,-4.80619 2.31562,-6.669 1.63637,-1.98627 3.72043,-2.97941 6.25218,-2.97943 2.54203,2e-5 4.63123,0.98802 6.26762,2.964 1.53344,1.8628 2.30017,4.09094 2.30019,6.68443 z m -3.62781,0 c -2e-5,-1.58491 -0.41683,-2.9537 -1.25044,-4.10637 -0.92626,-1.26586 -2.15611,-1.8988 -3.68956,-1.89881 -1.53346,10e-6 -2.75817,0.63295 -3.67412,1.89881 -0.81304,1.13209 -1.21956,2.50088 -1.21956,4.10637 0,1.58492 0.41166,2.95885 1.235,4.12181 0.92624,1.29675 2.1458,1.94512 3.65868,1.94512 1.46141,0 2.67582,-0.66381 3.64325,-1.99144 0.86449,-1.20411 1.29673,-2.56261 1.29675,-4.07549 z"
             style="font-size:31.61596679999999900px;font-variant:normal;font-stretch:normal;font-family:Berlin Sans FB;-inkscape-font-specification:Berlin Sans FB;fill:#ffda5c;fill-opacity:1"
             id="path3897" />
        </g>
        <g
           transform="matrix(1.003013,0.00195381,0.00836321,0.99701234,0,0)"
           style="font-size:42.15462493999999800px;font-style:normal;font-weight:normal;fill:#ffffff;fill-opacity:1;stroke:none;font-family:Bitstream Vera Sans"
           id="text3650">
          <path
             d="m 441.01254,465.97809 -0.0122,0.10986 c -0.0733,0.28484 -0.17091,0.70395 -0.29297,1.25733 -0.0244,0.26856 -0.0773,0.65918 -0.15869,1.17187 -0.0163,0.0732 -0.24822,0.12208 -0.69581,0.14649 -0.30925,0.0163 -0.7487,0.0163 -1.31835,0 -0.73243,-0.0163 -1.07423,-0.0244 -1.0254,-0.0244 -0.50456,10e-6 -1.25325,0.0468 -2.24609,0.14038 -0.99284,0.0936 -1.73747,0.14039 -2.23389,0.14038 -0.21972,10e-6 -0.32959,-0.13427 -0.32959,-0.40283 0,-0.37434 0.23601,-1.15152 0.70801,-2.33154 0.0407,-0.11393 0.15462,-0.17089 0.3418,-0.1709 0.28483,1e-5 0.70394,0.0102 1.25732,0.0305 0.55339,0.0204 0.97249,0.0305 1.25733,0.0305 0.49641,1e-5 1.24511,-0.0508 2.24609,-0.15258 1.00097,-0.10172 1.74967,-0.15258 2.2461,-0.15259 0.17902,10e-6 0.26447,0.0692 0.25634,0.20752 z"
             style="font-size:25px;font-variant:normal;font-stretch:normal;font-family:Berlin Sans FB;-inkscape-font-specification:Berlin Sans FB;fill:#ffffff;fill-opacity:1"
             id="path3100" />
          <path
             d="m 447.31137,460.35065 c 0,0.0407 -0.004,0.11394 -0.0122,0.21972 -0.18718,1.473 -0.28076,3.88999 -0.28076,7.25098 0,0.71615 0.008,1.79444 0.0244,3.23486 0.0163,1.44044 0.0244,2.51872 0.0244,3.23487 -10e-6,0.31738 -0.13428,0.47607 -0.40283,0.47607 -0.26856,0 -0.65512,0.008 -1.15967,0.0244 -0.50456,0.0163 -0.88298,0.0244 -1.13525,0.0244 -0.25228,0 -0.37842,-0.10173 -0.37842,-0.30518 0,-0.17089 0.0529,-1.66829 0.15869,-4.49218 0.0488,-1.36719 0.0732,-3.361 0.0732,-5.98145 0,-0.18716 -0.0407,-0.28075 -0.12207,-0.28076 -0.19531,10e-6 -0.50252,0.0651 -0.92163,0.19531 -0.41911,0.13022 -0.73039,0.19532 -0.93384,0.19531 -0.18717,1e-5 -0.28076,-0.0488 -0.28076,-0.14648 0,-0.0976 0.0102,-0.24413 0.0305,-0.43945 0.0203,-0.1953 0.0305,-0.34179 0.0305,-0.43946 0,-0.0895 -0.008,-0.22378 -0.0244,-0.40283 -0.0163,-0.17902 -0.0244,-0.3133 -0.0244,-0.40283 0,-0.10578 0.0895,-0.1953 0.26855,-0.26856 0.47201,-0.1953 0.97249,-0.52895 1.50147,-1.00097 0.0244,-0.0244 0.24821,-0.26854 0.67138,-0.73242 0.36621,-0.39875 0.56966,-0.59813 0.61036,-0.59815 -0.008,2e-5 0.32958,0.0733 1.01318,0.21973 0.25227,0.0326 0.61848,0.0936 1.09863,0.1831 0.11393,0.0326 0.1709,0.10988 0.1709,0.23194 z"
             style="font-size:25px;font-variant:normal;font-stretch:normal;font-family:Berlin Sans FB;-inkscape-font-specification:Berlin Sans FB;fill:#ffffff;fill-opacity:1"
             id="path3102" />
          <path
             d="m 462.89975,467.44293 c -10e-6,2.05079 -0.6063,3.81674 -1.81885,5.29785 -1.29395,1.58692 -2.94597,2.38037 -4.95605,2.38037 -2.00196,0 -3.64991,-0.79345 -4.94385,-2.38037 -1.2207,-1.48925 -1.83106,-3.2552 -1.83105,-5.29785 -10e-6,-2.04263 0.61035,-3.80044 1.83105,-5.27344 1.29394,-1.57062 2.94189,-2.35594 4.94385,-2.35595 2.01008,1e-5 3.6621,0.78126 4.95605,2.34375 1.21255,1.47299 1.81884,3.23487 1.81885,5.28564 z m -2.86865,0 c -10e-6,-1.25324 -0.3296,-2.3356 -0.98877,-3.24707 -0.73243,-1.00096 -1.70493,-1.50145 -2.91748,-1.50146 -1.21257,1e-5 -2.181,0.5005 -2.90528,1.50146 -0.6429,0.89519 -0.96436,1.97755 -0.96435,3.24707 -1e-5,1.25326 0.32552,2.33969 0.97656,3.25928 0.73242,1.02539 1.69677,1.53809 2.89307,1.53809 1.15559,0 2.11587,-0.5249 2.88086,-1.57471 0.68358,-0.95214 1.02538,-2.02636 1.02539,-3.22266 z"
             style="font-size:25px;font-variant:normal;font-stretch:normal;font-family:Berlin Sans FB;-inkscape-font-specification:Berlin Sans FB;fill:#ffffff;fill-opacity:1"
             id="path3104" />
        </g>
        <g
           transform="matrix(0.99695769,-0.01337541,0.02382081,1.002732,0,0)"
           style="font-size:42.15462493999999800px;font-style:normal;font-weight:normal;fill:#ffffff;fill-opacity:1;stroke:none;font-family:Bitstream Vera Sans"
           id="text3654">
          <path
             d="m 400.05649,435.84402 -0.0122,0.10987 c -0.0733,0.28484 -0.17091,0.70394 -0.29297,1.25732 -0.0244,0.26856 -0.0773,0.65919 -0.15869,1.17188 -0.0163,0.0733 -0.24822,0.12207 -0.6958,0.14648 -0.30925,0.0163 -0.7487,0.0163 -1.31836,0 -0.73243,-0.0163 -1.07422,-0.0244 -1.02539,-0.0244 -0.50456,0 -1.25326,0.0468 -2.24609,0.14038 -0.99284,0.0936 -1.73747,0.14039 -2.23389,0.14038 -0.21973,1e-5 -0.32959,-0.13427 -0.32959,-0.40283 0,-0.37435 0.236,-1.15153 0.70801,-2.33155 0.0407,-0.11392 0.15462,-0.17089 0.34179,-0.17089 0.28483,0 0.70394,0.0102 1.25733,0.0305 0.55338,0.0204 0.97249,0.0305 1.25732,0.0305 0.49642,10e-6 1.24511,-0.0509 2.2461,-0.15259 1.00097,-0.10171 1.74966,-0.15258 2.24609,-0.15258 0.17903,0 0.26448,0.0692 0.25635,0.20751 z"
             style="font-size:25px;font-variant:normal;font-stretch:normal;font-family:Berlin Sans FB;-inkscape-font-specification:Berlin Sans FB;fill:#ffffff;fill-opacity:1"
             id="path3107" />
          <path
             d="m 412.54428,442.41141 c -1e-5,0.236 -0.0122,0.60018 -0.0366,1.09253 -0.0244,0.49235 -0.0366,0.86059 -0.0366,1.10473 -1e-5,0.17904 -0.13429,0.26856 -0.40283,0.26856 0.0895,0 -0.29502,-0.0326 -1.15357,-0.0977 -0.85857,-0.0651 -2.1342,-0.0976 -3.8269,-0.0976 -0.57781,0 -1.45061,0.0122 -2.61841,0.0366 -1.16781,0.0244 -2.04468,0.0366 -2.63062,0.0366 -0.18717,0 -0.30517,-0.0814 -0.354,-0.24414 l -0.31738,-1.75782 c 0,-0.0976 0.28483,-0.19531 0.85449,-0.29296 0.63476,-0.11393 1.03353,-0.24007 1.19629,-0.37842 1.13118,-0.9847 2.24202,-2.14844 3.33252,-3.49121 1.40787,-1.74967 2.11181,-3.07617 2.11182,-3.9795 -10e-6,-0.74054 -0.30112,-1.3509 -0.90333,-1.83105 -0.56153,-0.44758 -1.21664,-0.67137 -1.96533,-0.67139 -0.72429,2e-5 -1.44857,0.14243 -2.17285,0.42725 -0.49642,0.19532 -0.99284,0.45574 -1.48926,0.78125 -0.42317,0.28484 -0.63476,0.42726 -0.63476,0.42725 -0.0651,1e-5 -0.10987,-0.004 -0.13428,-0.0122 -0.0814,-0.0407 -0.13021,-0.1831 -0.14648,-0.42725 -0.008,-0.1953 -0.0326,-0.47606 -0.0733,-0.84228 -0.17089,-0.74055 -0.25634,-1.04166 -0.25634,-0.90332 0,-0.0651 0.061,-0.14241 0.1831,-0.23194 0.65104,-0.4964 1.48926,-0.9033 2.51465,-1.2207 0.9847,-0.30109 1.91243,-0.45165 2.7832,-0.45166 1.49739,1e-5 2.7303,0.34995 3.69873,1.0498 1.09863,0.78941 1.64794,1.90838 1.64795,3.35694 -1e-5,1.57878 -1.4323,3.79232 -4.29687,6.64062 -0.31739,0.37436 -0.81788,0.9074 -1.50147,1.59912 0.21159,0.0163 0.47607,0.0244 0.79346,0.0244 1.59504,0 3.42203,-0.0977 5.48096,-0.29297 l 0.0977,-0.0122 c 0.17089,10e-6 0.25634,0.13021 0.25635,0.39063 z"
             style="font-size:25px;font-variant:normal;font-stretch:normal;font-family:Berlin Sans FB;-inkscape-font-specification:Berlin Sans FB;fill:#ffffff;fill-opacity:1"
             id="path3109" />
          <path
             d="m 427.07065,437.30887 c -2e-5,2.05078 -0.6063,3.81673 -1.81885,5.29785 -1.29396,1.58691 -2.94597,2.38037 -4.95605,2.38037 -2.00196,0 -3.64991,-0.79346 -4.94385,-2.38037 -1.22071,-1.48925 -1.83106,-3.2552 -1.83106,-5.29785 0,-2.04264 0.61035,-3.80045 1.83106,-5.27344 1.29394,-1.57062 2.94189,-2.35594 4.94385,-2.35596 2.01008,2e-5 3.66209,0.78127 4.95605,2.34375 1.21255,1.473 1.81883,3.23488 1.81885,5.28565 z m -2.86865,0 c -2e-5,-1.25325 -0.32961,-2.3356 -0.98877,-3.24707 -0.73244,-1.00097 -1.70493,-1.50145 -2.91748,-1.50147 -1.21258,2e-5 -2.181,0.5005 -2.90528,1.50147 -0.64291,0.89519 -0.96436,1.97755 -0.96435,3.24707 -1e-5,1.25326 0.32551,2.33968 0.97656,3.25928 0.73242,1.02539 1.69677,1.53808 2.89307,1.53808 1.15559,0 2.11587,-0.5249 2.88086,-1.57471 0.68358,-0.95214 1.02537,-2.02636 1.02539,-3.22265 z"
             style="font-size:25px;font-variant:normal;font-stretch:normal;font-family:Berlin Sans FB;-inkscape-font-specification:Berlin Sans FB;fill:#ffffff;fill-opacity:1"
             id="path3111" />
        </g>
        <g
           id="g3658">
          <path
             inkscape:transform-center-y="-56.72097"
             id="path3660"
             d="m 301.16771,431.43366 -9.25952,-9.37069"
             style="fill:none;stroke:#ffffff;stroke-width:1.58079839;stroke-linecap:butt;stroke-linejoin:miter;stroke-miterlimit:4;stroke-opacity:1;stroke-dasharray:none" />
          <path
             id="path3662"
             d="m 294.93891,445.4761 -0.26189,-0.26504"
             style="fill:none;stroke:#ffffff;stroke-width:4.21546221;stroke-linecap:round;stroke-linejoin:miter;stroke-miterlimit:4;stroke-opacity:1;stroke-dasharray:none" />
          <g
             transform="matrix(0.52379765,-0.9181371,0.90724415,0.5300867,-528.64868,286.54901)"
             id="g3664"
             inkscape:transform-center-x="98.243601"
             inkscape:transform-center-y="-50.866997">
            <path
               inkscape:transform-center-y="-113.44194"
               id="path3666"
               d="m 249.96225,756.92024 0,-25"
               style="fill:none;stroke:#ffffff;stroke-width:3;stroke-linecap:butt;stroke-linejoin:miter;stroke-miterlimit:4;stroke-opacity:1;stroke-dasharray:none" />
            <path
               id="path3668"
               d="m 236.39201,755.83184 0,-0.35355"
               style="fill:none;stroke:#ffffff;stroke-width:4;stroke-linecap:round;stroke-linejoin:miter;stroke-miterlimit:4;stroke-opacity:1;stroke-dasharray:none" />
          </g>
          <path
             inkscape:transform-center-y="-56.720975"
             id="path3670"
             d="m 272.10397,482.37799 -12.64874,-3.42991"
             style="fill:none;stroke:#ffffff;stroke-width:1.58079839;stroke-linecap:butt;stroke-linejoin:miter;stroke-miterlimit:4;stroke-opacity:1;stroke-dasharray:none" />
          <path
             id="path3672"
             d="m 273.64759,497.69089 -0.35776,-0.097"
             style="fill:none;stroke:#ffffff;stroke-width:4.21546268;stroke-linecap:round;stroke-linejoin:miter;stroke-miterlimit:4;stroke-opacity:1;stroke-dasharray:none" />
          <g
             transform="matrix(0,-1.0601734,1.0475953,0,-518.121,776.79403)"
             id="g3674"
             inkscape:transform-center-x="113.44195"
             inkscape:transform-center-y="7.0350866">
            <path
               inkscape:transform-center-y="-113.44194"
               id="path3676"
               d="m 249.96225,756.92024 0,-25"
               style="fill:none;stroke:#ffffff;stroke-width:3;stroke-linecap:butt;stroke-linejoin:miter;stroke-miterlimit:4;stroke-opacity:1;stroke-dasharray:none" />
            <path
               id="path3678"
               d="m 236.39201,755.83184 0,-0.35355"
               style="fill:none;stroke:#ffffff;stroke-width:4;stroke-linecap:round;stroke-linejoin:miter;stroke-miterlimit:4;stroke-opacity:1;stroke-dasharray:none" />
          </g>
          <path
             inkscape:transform-center-y="-56.72097"
             id="path3680"
             d="m 272.10396,541.20342 -12.64875,3.42991"
             style="fill:none;stroke:#ffffff;stroke-width:1.58079839;stroke-linecap:butt;stroke-linejoin:miter;stroke-miterlimit:4;stroke-opacity:1;stroke-dasharray:none" />
          <path
             id="path3682"
             d="m 281.00638,553.6837 -0.35776,0.097"
             style="fill:none;stroke:#ffffff;stroke-width:4.21546268;stroke-linecap:round;stroke-linejoin:miter;stroke-miterlimit:4;stroke-opacity:1;stroke-dasharray:none" />
          <g
             transform="matrix(-0.52379766,-0.9181371,0.90724415,-0.53008671,-266.78943,1196.0317)"
             id="g3684"
             inkscape:transform-center-x="95.072352"
             inkscape:transform-center-y="56.957503">
            <path
               inkscape:transform-center-y="-113.44194"
               id="path3686"
               d="m 249.96225,756.92024 0,-25"
               style="fill:none;stroke:#ffffff;stroke-width:3;stroke-linecap:butt;stroke-linejoin:miter;stroke-miterlimit:4;stroke-opacity:1;stroke-dasharray:none" />
            <path
               id="path3688"
               d="m 236.39201,755.83184 0,-0.35355"
               style="fill:none;stroke:#ffffff;stroke-width:4;stroke-linecap:round;stroke-linejoin:miter;stroke-miterlimit:4;stroke-opacity:1;stroke-dasharray:none" />
          </g>
          <path
             inkscape:transform-center-y="-56.72097"
             id="path3690"
             d="m 301.16768,592.14774 -9.25952,9.3707"
             style="fill:none;stroke:#ffffff;stroke-width:1.58079839;stroke-linecap:butt;stroke-linejoin:miter;stroke-miterlimit:4;stroke-opacity:1;stroke-dasharray:none" />
          <path
             id="path3692"
             d="m 315.04351,598.45133 -0.2619,0.26504"
             style="fill:none;stroke:#ffffff;stroke-width:4.21546221;stroke-linecap:round;stroke-linejoin:miter;stroke-miterlimit:4;stroke-opacity:1;stroke-dasharray:none" />
          <g
             transform="matrix(-0.90724415,-0.5300867,0.52379765,-0.9181371,158.00195,1431.9274)"
             id="g3694"
             inkscape:transform-center-x="50.867022"
             inkscape:transform-center-y="98.243548">
            <path
               inkscape:transform-center-y="-113.44194"
               id="path3696"
               d="m 249.96225,756.92024 0,-25"
               style="fill:none;stroke:#ffffff;stroke-width:3;stroke-linecap:butt;stroke-linejoin:miter;stroke-miterlimit:4;stroke-opacity:1;stroke-dasharray:none" />
            <path
               id="path3698"
               d="m 236.39201,755.83184 0,-0.35355"
               style="fill:none;stroke:#ffffff;stroke-width:4;stroke-linecap:round;stroke-linejoin:miter;stroke-miterlimit:4;stroke-opacity:1;stroke-dasharray:none" />
          </g>
          <path
             inkscape:transform-center-y="-56.72097"
             id="path3700"
             d="m 351.50756,621.56046 -3.38922,12.80061"
             style="fill:none;stroke:#ffffff;stroke-width:1.58079839;stroke-linecap:butt;stroke-linejoin:miter;stroke-miterlimit:4;stroke-opacity:1;stroke-dasharray:none" />
          <path
             id="path3702"
             d="m 366.63879,619.99831 -0.0959,0.36205"
             style="fill:none;stroke:#ffffff;stroke-width:4.21546268;stroke-linecap:round;stroke-linejoin:miter;stroke-miterlimit:4;stroke-opacity:1;stroke-dasharray:none" />
          <g
             transform="matrix(-1.0475953,0,0,-1.0601734,642.43062,1421.2734)"
             id="g3704"
             inkscape:transform-center-x="-7.0350726"
             inkscape:transform-center-y="113.44198">
            <path
               inkscape:transform-center-y="-113.44194"
               id="path3706"
               d="m 249.96225,756.92024 0,-25"
               style="fill:none;stroke:#ffffff;stroke-width:3;stroke-linecap:butt;stroke-linejoin:miter;stroke-miterlimit:4;stroke-opacity:1;stroke-dasharray:none" />
            <path
               id="path3708"
               d="m 236.39201,755.83184 0,-0.35355"
               style="fill:none;stroke:#ffffff;stroke-width:4;stroke-linecap:round;stroke-linejoin:miter;stroke-miterlimit:4;stroke-opacity:1;stroke-dasharray:none" />
          </g>
          <path
             inkscape:transform-center-y="-56.720975"
             id="path3710"
             d="m 409.63512,621.56057 3.38922,12.80061"
             style="fill:none;stroke:#ffffff;stroke-width:1.58079839;stroke-linecap:butt;stroke-linejoin:miter;stroke-miterlimit:4;stroke-opacity:1;stroke-dasharray:none" />
          <path
             id="path3712"
             d="m 421.96733,612.55127 0.0959,0.36205"
             style="fill:none;stroke:#ffffff;stroke-width:4.21546268;stroke-linecap:round;stroke-linejoin:miter;stroke-miterlimit:4;stroke-opacity:1;stroke-dasharray:none" />
          <g
             transform="matrix(-0.90724415,0.53008671,-0.52379766,-0.9181371,1056.6944,1166.9243)"
             id="g3714"
             inkscape:transform-center-x="-56.957529"
             inkscape:transform-center-y="95.072432">
            <path
               inkscape:transform-center-y="-113.44194"
               id="path3716"
               d="m 249.96225,756.92024 0,-25"
               style="fill:none;stroke:#ffffff;stroke-width:3;stroke-linecap:butt;stroke-linejoin:miter;stroke-miterlimit:4;stroke-opacity:1;stroke-dasharray:none" />
            <path
               id="path3718"
               d="m 236.39201,755.83184 0,-0.35355"
               style="fill:none;stroke:#ffffff;stroke-width:4;stroke-linecap:round;stroke-linejoin:miter;stroke-miterlimit:4;stroke-opacity:1;stroke-dasharray:none" />
          </g>
          <path
             inkscape:transform-center-y="-56.72097"
             id="path3720"
             d="m 459.97503,592.14785 9.25952,9.3707"
             style="fill:none;stroke:#ffffff;stroke-width:1.58079839;stroke-linecap:butt;stroke-linejoin:miter;stroke-miterlimit:4;stroke-opacity:1;stroke-dasharray:none" />
          <path
             id="path3722"
             d="m 466.20383,578.10542 0.26189,0.26504"
             style="fill:none;stroke:#ffffff;stroke-width:4.21546221;stroke-linecap:round;stroke-linejoin:miter;stroke-miterlimit:4;stroke-opacity:1;stroke-dasharray:none" />
          <g
             transform="matrix(-0.52379765,0.9181371,-0.90724415,-0.5300867,1289.7915,737.03255)"
             id="g3724"
             inkscape:transform-center-x="-98.243584"
             inkscape:transform-center-y="50.867071">
            <path
               inkscape:transform-center-y="-113.44194"
               id="path3726"
               d="m 249.96225,756.92024 0,-25"
               style="fill:none;stroke:#ffffff;stroke-width:3;stroke-linecap:butt;stroke-linejoin:miter;stroke-miterlimit:4;stroke-opacity:1;stroke-dasharray:none" />
            <path
               id="path3728"
               d="m 236.39201,755.83184 0,-0.35355"
               style="fill:none;stroke:#ffffff;stroke-width:4;stroke-linecap:round;stroke-linejoin:miter;stroke-miterlimit:4;stroke-opacity:1;stroke-dasharray:none" />
          </g>
          <path
             inkscape:transform-center-y="-56.720975"
             id="path3730"
             d="m 489.03887,541.20357 12.64874,3.42991"
             style="fill:none;stroke:#ffffff;stroke-width:1.58079839;stroke-linecap:butt;stroke-linejoin:miter;stroke-miterlimit:4;stroke-opacity:1;stroke-dasharray:none" />
          <path
             id="path3732"
             d="m 487.49525,525.89068 0.35776,0.097"
             style="fill:none;stroke:#ffffff;stroke-width:4.21546268;stroke-linecap:round;stroke-linejoin:miter;stroke-miterlimit:4;stroke-opacity:1;stroke-dasharray:none" />
          <path
             style="fill:none;stroke:#ffffff;stroke-width:3.16159678;stroke-linecap:butt;stroke-linejoin:miter;stroke-miterlimit:4;stroke-opacity:1;stroke-dasharray:none"
             d="m 486.31781,511.79082 26.18989,0"
             id="path3734"
             inkscape:transform-center-y="-113.44194" />
          <path
             style="fill:none;stroke:#ffffff;stroke-width:4.21546221;stroke-linecap:round;stroke-linejoin:miter;stroke-miterlimit:4;stroke-opacity:1;stroke-dasharray:none"
             d="m 487.45802,497.40401 0.37037,0"
             id="path3737" />
          <path
             inkscape:transform-center-y="-56.720975"
             id="path3739"
             d="m 489.0389,482.37808 12.64875,-3.42991"
             style="fill:none;stroke:#ffffff;stroke-width:1.58079839;stroke-linecap:butt;stroke-linejoin:miter;stroke-miterlimit:4;stroke-opacity:1;stroke-dasharray:none" />
          <path
             id="path3741"
             d="m 480.13648,469.8978 0.35776,-0.097"
             style="fill:none;stroke:#ffffff;stroke-width:4.21546268;stroke-linecap:round;stroke-linejoin:miter;stroke-miterlimit:4;stroke-opacity:1;stroke-dasharray:none" />
          <g
             transform="matrix(0.52379766,0.9181371,-0.90724415,0.53008671,1027.9323,-172.45017)"
             id="g3743"
             inkscape:transform-center-x="-95.072442"
             inkscape:transform-center-y="-56.957499">
            <path
               inkscape:transform-center-y="-113.44194"
               id="path3745"
               d="m 249.96225,756.92024 0,-25"
               style="fill:none;stroke:#ffffff;stroke-width:3;stroke-linecap:butt;stroke-linejoin:miter;stroke-miterlimit:4;stroke-opacity:1;stroke-dasharray:none" />
            <path
               id="path3747"
               d="m 236.39201,755.83184 0,-0.35355"
               style="fill:none;stroke:#ffffff;stroke-width:4;stroke-linecap:round;stroke-linejoin:miter;stroke-miterlimit:4;stroke-opacity:1;stroke-dasharray:none" />
          </g>
          <path
             inkscape:transform-center-y="-56.72097"
             id="path3749"
             d="m 459.97521,431.43369 9.25952,-9.3707"
             style="fill:none;stroke:#ffffff;stroke-width:1.58079839;stroke-linecap:butt;stroke-linejoin:miter;stroke-miterlimit:4;stroke-opacity:1;stroke-dasharray:none" />
          <path
             id="path3751"
             d="m 446.09938,425.1301 0.2619,-0.26504"
             style="fill:none;stroke:#ffffff;stroke-width:4.21546221;stroke-linecap:round;stroke-linejoin:miter;stroke-miterlimit:4;stroke-opacity:1;stroke-dasharray:none" />
          <g
             transform="matrix(0.90724415,0.5300867,-0.52379765,0.9181371,603.14093,-408.34604)"
             id="g3753"
             inkscape:transform-center-x="-50.867101"
             inkscape:transform-center-y="-98.243621">
            <path
               inkscape:transform-center-y="-113.44194"
               id="path3755"
               d="m 249.96225,756.92024 0,-25"
               style="fill:none;stroke:#ffffff;stroke-width:3;stroke-linecap:butt;stroke-linejoin:miter;stroke-miterlimit:4;stroke-opacity:1;stroke-dasharray:none" />
            <path
               id="path3757"
               d="m 236.39201,755.83184 0,-0.35355"
               style="fill:none;stroke:#ffffff;stroke-width:4;stroke-linecap:round;stroke-linejoin:miter;stroke-miterlimit:4;stroke-opacity:1;stroke-dasharray:none" />
          </g>
          <path
             inkscape:transform-center-y="-56.72097"
             id="path3759"
             d="m 409.6353,402.02092 3.38922,-12.80061"
             style="fill:none;stroke:#ffffff;stroke-width:1.58079839;stroke-linecap:butt;stroke-linejoin:miter;stroke-miterlimit:4;stroke-opacity:1;stroke-dasharray:none" />
          <g
             transform="matrix(0.99703401,0.0051681,0.0051681,1.0030016,0,0)"
             style="font-size:42.15462493999999800px;font-style:normal;font-weight:normal;fill:#ffffff;fill-opacity:1;stroke:none;font-family:Bitstream Vera Sans"
             id="text3761">
            <path
               d="m 368.50009,530.85266 c 0,-1.08234 0.38045,-2.00194 1.14136,-2.75879 0.7609,-0.75682 1.67846,-1.13523 2.75268,-1.13525 1.07422,2e-5 1.99178,0.38047 2.75269,1.14136 0.7609,0.76092 1.14135,1.67848 1.14136,2.75268 -1e-5,1.07423 -0.38046,1.99179 -1.14136,2.75269 -0.76091,0.76091 -1.67847,1.14136 -2.75269,1.14135 -1.07422,10e-6 -1.99178,-0.38044 -2.75268,-1.14135 -0.76091,-0.7609 -1.14136,-1.67846 -1.14136,-2.75269 z m 2.02637,0 c 0,0.51271 0.1831,0.95216 0.54932,1.31836 0.3662,0.36622 0.80565,0.54933 1.31835,0.54932 0.51269,1e-5 0.95215,-0.1831 1.31836,-0.54932 0.36621,-0.3662 0.54931,-0.80565 0.54932,-1.31836 -1e-5,-0.51268 -0.18311,-0.95213 -0.54932,-1.31836 -0.36621,-0.36619 -0.80567,-0.5493 -1.31836,-0.54931 -0.5127,10e-6 -0.95215,0.18312 -1.31835,0.54931 -0.36622,0.36623 -0.54932,0.80568 -0.54932,1.31836 z"
               style="font-size:25px;font-variant:normal;font-weight:bold;font-stretch:normal;font-family:Arial;-inkscape-font-specification:Arial Bold;fill:#ffffff;fill-opacity:1"
               id="path3910" />
            <path
               d="m 390.7291,538.57971 3.50341,1.11084 c -0.53712,1.95313 -1.43027,3.40373 -2.67944,4.35181 -1.2492,0.94808 -2.83408,1.42212 -4.75464,1.42212 -2.37631,0 -4.32943,-0.81177 -5.85937,-2.43531 -1.52995,-1.62353 -2.29493,-3.84317 -2.29493,-6.65893 0,-2.9785 0.76905,-5.29173 2.30713,-6.9397 1.53808,-1.64793 3.56038,-2.4719 6.0669,-2.47192 2.18911,2e-5 3.96727,0.64699 5.33447,1.94092 0.81379,0.76499 1.42414,1.86362 1.83106,3.29589 l -3.57666,0.8545 c -0.21161,-0.92772 -0.65309,-1.66015 -1.32447,-2.19727 -0.6714,-0.53709 -1.48723,-0.80565 -2.44751,-0.80566 -1.3265,10e-6 -2.40276,0.47609 -3.22876,1.42822 -0.82601,0.95216 -1.23902,2.49431 -1.23901,4.62646 -10e-6,2.26238 0.40689,3.87371 1.2207,4.83399 0.8138,0.96029 1.87174,1.44043 3.17383,1.44043 0.96028,0 1.78628,-0.30517 2.47803,-0.91553 0.69172,-0.61035 1.18814,-1.57063 1.48926,-2.88086 z"
               style="font-size:25px;font-variant:normal;font-weight:bold;font-stretch:normal;font-family:Arial;-inkscape-font-specification:Arial Bold;fill:#ffffff;fill-opacity:1"
               id="path3912" />
          </g>
          <g
             inkscape:transform-center-y="-95.162493"
             inkscape:transform-center-x="56.869025"
             id="g4584"
             transform="matrix(0.91269062,-0.53323123,0.52065313,0.91269062,-296.37309,-135.95668)">
            <path
               style="fill:none;stroke:#ffffff;stroke-width:3;stroke-linecap:butt;stroke-linejoin:miter;stroke-miterlimit:4;stroke-opacity:1;stroke-dasharray:none"
               d="m 249.96225,756.92024 0,-25"
               id="path4586"
               inkscape:transform-center-y="-113.44194" />
            <path
               style="fill:none;stroke:#ffffff;stroke-width:4;stroke-linecap:round;stroke-linejoin:miter;stroke-miterlimit:4;stroke-opacity:1;stroke-dasharray:none"
               d="m 236.39201,755.83184 0,-0.35355"
               id="path4588" />
          </g>
        </g>
        <g
           transform="matrix(0.99695769,-0.01337541,0.02382081,1.002732,0,0)"
           style="font-size:42.15462493999999800px;font-style:normal;font-weight:normal;fill:#ffffff;fill-opacity:1;stroke:none;font-family:Bitstream Vera Sans"
           id="text4590">
          <path
             d="m 325.83865,439.59995 c -10e-6,1.35905 -0.52084,2.44547 -1.5625,3.25927 -0.96843,0.76498 -2.18913,1.14746 -3.66211,1.14746 -1.6276,0 -2.92155,-0.354 -3.88183,-1.06201 -1.11491,-0.8138 -1.67237,-2.0345 -1.67237,-3.66211 0,-1.48111 0.63477,-2.57567 1.9043,-3.28369 -0.41504,-0.32551 -0.75277,-0.79141 -1.01318,-1.3977 -0.26042,-0.60628 -0.39063,-1.21866 -0.39063,-1.83716 0,-1.37532 0.52084,-2.44953 1.5625,-3.22266 0.93587,-0.68358 2.11588,-1.02537 3.54004,-1.02539 1.2858,2e-5 2.40885,0.3703 3.36914,1.11084 1.05794,0.79754 1.58691,1.81886 1.58692,3.06397 -10e-6,0.63477 -0.15871,1.27361 -0.47608,1.9165 -0.31739,0.66733 -0.7365,1.17595 -1.25732,1.52588 1.30207,0.74056 1.95311,1.89616 1.95312,3.4668 z m -2.72216,-6.7627 c -10e-6,-0.56151 -0.22991,-1.04572 -0.6897,-1.45264 -0.45981,-0.40689 -1.02336,-0.61034 -1.69068,-0.61035 -0.77311,10e-6 -1.38346,0.15464 -1.83105,0.46387 -0.44759,0.30926 -0.67139,0.71209 -0.67139,1.20849 0,0.64292 0.46794,1.20851 1.40381,1.69678 0.42317,0.22788 1.21256,0.52898 2.36817,0.90332 0.74055,-0.61848 1.11083,-1.35497 1.11084,-2.20947 z m -0.19532,6.9458 c 0,-0.74055 -0.48829,-1.35091 -1.46484,-1.83105 -0.78939,-0.30924 -1.58285,-0.61442 -2.38037,-0.91553 -0.89519,0.61036 -1.34278,1.41195 -1.34278,2.40478 0,0.6836 0.22787,1.23699 0.6836,1.66016 0.49641,0.46387 1.19628,0.6958 2.09961,0.6958 1.60318,0 2.40478,-0.67138 2.40478,-2.01416 z"
             style="font-size:25px;font-variant:normal;font-stretch:normal;font-family:Berlin Sans FB;-inkscape-font-specification:Berlin Sans FB;fill:#ffffff;fill-opacity:1"
             id="path3114" />
          <path
             d="m 340.56033,436.29184 c -1e-5,2.05079 -0.60629,3.81673 -1.81884,5.29785 -1.29396,1.58692 -2.94598,2.38037 -4.95606,2.38037 -2.00196,0 -3.64991,-0.79345 -4.94385,-2.38037 -1.2207,-1.48925 -1.83105,-3.2552 -1.83105,-5.29785 0,-2.04263 0.61035,-3.80044 1.83105,-5.27344 1.29394,-1.57062 2.94189,-2.35594 4.94385,-2.35595 2.01008,1e-5 3.6621,0.78126 4.95606,2.34375 1.21255,1.47299 1.81883,3.23487 1.81884,5.28564 z m -2.86865,0 c -1e-5,-1.25325 -0.3296,-2.3356 -0.98877,-3.24707 -0.73243,-1.00097 -1.70492,-1.50145 -2.91748,-1.50147 -1.21257,2e-5 -2.18099,0.5005 -2.90527,1.50147 -0.64291,0.89519 -0.96436,1.97755 -0.96436,3.24707 0,1.25326 0.32552,2.33969 0.97656,3.25928 0.73242,1.02539 1.69678,1.53809 2.89307,1.53808 1.15559,10e-6 2.11588,-0.5249 2.88086,-1.5747 0.68358,-0.95215 1.02538,-2.02637 1.02539,-3.22266 z"
             style="font-size:25px;font-variant:normal;font-stretch:normal;font-family:Berlin Sans FB;-inkscape-font-specification:Berlin Sans FB;fill:#ffffff;fill-opacity:1"
             id="path3116" />
        </g>
      </g>
    </g>
  </g>
  <g
     inkscape:groupmode="layer"
     id="g4600"
     inkscape:label="Thermo needle (rotating)"
     style="display:inline"
     transform="translate(-228.56377,-366.85416)">
    <g
       id="needle"
       inkscape:label="#g4887">
      <rect
         inkscape:export-ydpi="88.809998"
         inkscape:export-xdpi="88.809998"
         inkscape:export-filename="H:\Documents\Hobbies\W433\g9905.png"
         ry="21.08169"
         y="368.95358"
         x="230.66319"
         height="285.67435"
         width="299.81647"
         id="rect4883"
         style="fill:none;stroke:none;display:inline" />
      <g
         inkscape:transform-center-x="-56.063896"
         transform="matrix(-0.01657574,0.99986261,-0.99986261,-0.01657574,896.61296,137.73455)"
         id="g4602"
         inkscape:transform-center-y="-0.028308026">
        <path
           sodipodi:type="arc"
           style="fill:#000000;fill-opacity:1;stroke:#000000;stroke-opacity:1"
           id="path4604"
           sodipodi:cx="332.84528"
           sodipodi:cy="326.56757"
           sodipodi:rx="11.111678"
           sodipodi:ry="11.111678"
           d="m 343.95695,326.56757 a 11.111678,11.111678 0 1 1 -22.22335,0 11.111678,11.111678 0 1 1 22.22335,0 z"
           transform="matrix(0.40649424,-0.91365334,0.91365334,0.40649424,-53.097808,682.8684)" />
        <g
           transform="matrix(0.80214733,0,0,1.1252853,75.297071,-63.014536)"
           id="g4606">
          <path
             sodipodi:nodetypes="cccccc"
             id="path4608"
             d="m 380.44366,398.39045 -7.89771,11.86735 3.69682,91.12647 8.581,-0.22355 3.77313,-90.6463 -8.15324,-12.12397 z"
             style="fill:#ffffff;fill-opacity:1;stroke:#000000;stroke-width:2;stroke-linecap:butt;stroke-linejoin:round;stroke-miterlimit:4;stroke-opacity:1;stroke-dasharray:none" />
          <path
             sodipodi:nodetypes="ccccc"
             id="path4610"
             d="m 375.15274,482.96905 10.84149,0.0266 -1.1808,19.25768 -8.57326,0.29219 -1.08743,-19.57649 z"
             style="fill:#000000;fill-opacity:1;stroke:#000000;stroke-width:0.9443056px;stroke-linecap:butt;stroke-linejoin:miter;stroke-opacity:1" />
        </g>
      </g>
    </g>
  </g>
</svg>
