<?xml version="1.0" encoding="utf-8"?>
<!-- Generator: Adobe Illustrator 15.0.0, SVG Export Plug-In . SVG Version: 6.00 Build 0)  -->
<!DOCTYPE svg PUBLIC "-//W3C//DTD SVG 1.1//EN" "http://www.w3.org/Graphics/SVG/1.1/DTD/svg11.dtd">
<svg version="1.1"
	 id="svg4745" xmlns:svg="http://www.w3.org/2000/svg" xmlns:sodipodi="http://sodipodi.sourceforge.net/DTD/sodipodi-0.dtd" xmlns:rdf="http://www.w3.org/1999/02/22-rdf-syntax-ns#" xmlns:dc="http://purl.org/dc/elements/1.1/" xmlns:inkscape="http://www.inkscape.org/namespaces/inkscape" xmlns:cc="http://creativecommons.org/ns#" sodipodi:docname="altimeter.svg" inkscape:version="0.48pre1 r9509"
	 xmlns="http://www.w3.org/2000/svg" xmlns:xlink="http://www.w3.org/1999/xlink" x="0px" y="0px" width="311.811px"
	 height="311.811px" viewBox="0 0 311.811 311.811" enable-background="new 0 0 311.811 311.811" xml:space="preserve">
<g id="layer1" inkscape:label="Background" inkscape:groupmode="layer">
	<g id="background" inkscape:label="#g3668">
		
			<linearGradient id="path5246_1_" gradientUnits="userSpaceOnUse" x1="251.3574" y1="889.7874" x2="43.5737" y2="529.8954" gradientTransform="matrix(1 0 0 1 8.4399 -553.9355)">
			<stop  offset="0" style="stop-color:#404041"/>
			<stop  offset="1" style="stop-color:#9FA0A4"/>
		</linearGradient>
		<path id="path5246" inkscape:connector-curvature="0" fill="url(#path5246_1_)" d="M311.81,297.638
			c0,7.825-6.346,14.172-14.172,14.172H14.174C6.346,311.81,0,305.464,0,297.638V14.174C0,6.347,6.346,0.001,14.174,0.001h283.464
			c7.827,0,14.173,6.347,14.173,14.173L311.81,297.638L311.81,297.638z"/>
		<g id="g5248">
			<path id="path5250" inkscape:connector-curvature="0" fill="#333333" d="M308.977,295.063c0,7.683-6.231,13.914-13.913,13.914
				H16.749c-7.685,0-13.915-6.231-13.915-13.914V16.75c0-7.686,6.23-13.916,13.915-13.916h278.313
				c7.683,0,13.914,6.229,13.914,13.916L308.977,295.063L308.977,295.063z"/>
			
				<linearGradient id="path5257_1_" gradientUnits="userSpaceOnUse" x1="249.4688" y1="886.5178" x2="45.4604" y2="533.1651" gradientTransform="matrix(1 0 0 1 8.4399 -553.9355)">
				<stop  offset="0" style="stop-color:#231F20"/>
				<stop  offset="1" style="stop-color:#F1F1F2"/>
			</linearGradient>
			<path id="path5257" inkscape:connector-curvature="0" opacity="0.2" fill="url(#path5257_1_)" enable-background="new    " d="
				M308.977,295.063c0,7.683-6.231,13.914-13.913,13.914H16.749c-7.685,0-13.915-6.231-13.915-13.914V16.75
				c0-7.686,6.23-13.916,13.915-13.916h278.313c7.683,0,13.914,6.229,13.914,13.916L308.977,295.063L308.977,295.063z"/>
		</g>
		<g id="g5259">
			<g id="g5263">
				<g id="g5265">
					<g id="g5267">
						
							<linearGradient id="circle5274_1_" gradientUnits="userSpaceOnUse" x1="11.4033" y1="575.8528" x2="5.7329" y2="566.0313" gradientTransform="matrix(1 0 0 1 8.4399 -553.9355)">
							<stop  offset="0" style="stop-color:#151515"/>
							<stop  offset="1" style="stop-color:#58595B"/>
						</linearGradient>
						
							<circle id="circle5274" sodipodi:ry="5.6690001" sodipodi:cy="17.006001" sodipodi:rx="5.6690001" sodipodi:cx="17.007999" fill="url(#circle5274_1_)" cx="17.008" cy="17.006" r="5.669">
						</circle>
					</g>
					<g id="g5276">
						
							<circle id="circle5278" sodipodi:ry="5.3860002" sodipodi:cy="17.006001" sodipodi:rx="5.3860002" sodipodi:cx="17.007999" fill="#1F1F1F" cx="17.008" cy="17.006" r="5.386">
						</circle>
						
							<linearGradient id="circle5285_1_" gradientUnits="userSpaceOnUse" x1="11.2617" y1="575.6077" x2="5.8745" y2="566.2767" gradientTransform="matrix(1 0 0 1 8.4399 -553.9355)">
							<stop  offset="0" style="stop-color:#404041"/>
							<stop  offset="1" style="stop-color:#9FA0A4"/>
						</linearGradient>
						
							<circle id="circle5285" sodipodi:ry="5.3860002" sodipodi:cy="17.006001" sodipodi:rx="5.3860002" sodipodi:cx="17.007999" opacity="0.5" fill="url(#circle5285_1_)" enable-background="new    " cx="17.008" cy="17.006" r="5.386">
						</circle>
					</g>
					
						<linearGradient id="polygon5292_1_" gradientUnits="userSpaceOnUse" x1="10.2583" y1="573.8704" x2="6.8769" y2="568.0137" gradientTransform="matrix(1 0 0 1 8.4399 -553.9355)">
						<stop  offset="0" style="stop-color:#58595B"/>
						<stop  offset="1" style="stop-color:#151515"/>
					</linearGradient>
					<polygon id="polygon5292" fill="url(#polygon5292_1_)" points="18.698,14.078 20.389,17.006 18.698,19.935 15.317,19.935 
						13.626,17.006 15.317,14.078 					"/>
					<polygon id="polygon5294" points="18.563,14.312 20.119,17.006 18.563,19.701 15.452,19.701 13.897,17.006 15.452,14.312 					
						"/>
				</g>
			</g>
		</g>
		<g id="g5296">
			<g id="g5300">
				<g id="g5302">
					<g id="g5304">
						
							<linearGradient id="circle5311_1_" gradientUnits="userSpaceOnUse" x1="289.1992" y1="575.8518" x2="283.5288" y2="566.0303" gradientTransform="matrix(1 0 0 1 8.4399 -553.9355)">
							<stop  offset="0" style="stop-color:#151515"/>
							<stop  offset="1" style="stop-color:#58595B"/>
						</linearGradient>
						
							<circle id="circle5311" sodipodi:ry="5.6690001" sodipodi:cy="17.006001" sodipodi:rx="5.6690001" sodipodi:cx="294.80399" fill="url(#circle5311_1_)" cx="294.804" cy="17.006" r="5.669">
						</circle>
					</g>
					<g id="g5313">
						
							<circle id="circle5315" sodipodi:ry="5.3860002" sodipodi:cy="17.006001" sodipodi:rx="5.3860002" sodipodi:cx="294.80399" fill="#1F1F1F" cx="294.804" cy="17.006" r="5.386">
						</circle>
						
							<linearGradient id="circle5322_1_" gradientUnits="userSpaceOnUse" x1="289.0576" y1="575.6067" x2="283.671" y2="566.2766" gradientTransform="matrix(1 0 0 1 8.4399 -553.9355)">
							<stop  offset="0" style="stop-color:#404041"/>
							<stop  offset="1" style="stop-color:#9FA0A4"/>
						</linearGradient>
						
							<circle id="circle5322" sodipodi:ry="5.3860002" sodipodi:cy="17.006001" sodipodi:rx="5.3860002" sodipodi:cx="294.80399" opacity="0.5" fill="url(#circle5322_1_)" enable-background="new    " cx="294.804" cy="17.006" r="5.386">
						</circle>
					</g>
					
						<linearGradient id="polygon5329_1_" gradientUnits="userSpaceOnUse" x1="288.0547" y1="573.8704" x2="284.6734" y2="568.0137" gradientTransform="matrix(1 0 0 1 8.4399 -553.9355)">
						<stop  offset="0" style="stop-color:#58595B"/>
						<stop  offset="1" style="stop-color:#151515"/>
					</linearGradient>
					<polygon id="polygon5329" fill="url(#polygon5329_1_)" points="296.494,14.078 298.186,17.006 296.494,19.935 293.112,19.935 
						291.422,17.006 293.112,14.078 					"/>
					<polygon id="polygon5331" points="296.358,14.312 297.914,17.006 296.358,19.701 293.248,19.701 291.692,17.006 
						293.248,14.312 					"/>
				</g>
			</g>
		</g>
		<g id="g5333">
			<g id="g5337">
				<g id="g5339">
					<g id="g5341">
						
							<linearGradient id="circle5348_1_" gradientUnits="userSpaceOnUse" x1="289.1982" y1="853.6497" x2="283.5284" y2="843.829" gradientTransform="matrix(1 0 0 1 8.4399 -553.9355)">
							<stop  offset="0" style="stop-color:#151515"/>
							<stop  offset="1" style="stop-color:#58595B"/>
						</linearGradient>
						
							<circle id="circle5348" sodipodi:ry="5.6690001" sodipodi:cy="294.80301" sodipodi:rx="5.6690001" sodipodi:cx="294.80301" fill="url(#circle5348_1_)" cx="294.804" cy="294.803" r="5.669">
						</circle>
					</g>
					<g id="g5350">
						
							<circle id="circle5352" sodipodi:ry="5.3860002" sodipodi:cy="294.80301" sodipodi:rx="5.3860002" sodipodi:cx="294.80301" fill="#1F1F1F" cx="294.804" cy="294.803" r="5.386">
						</circle>
						
							<linearGradient id="circle5359_1_" gradientUnits="userSpaceOnUse" x1="289.0566" y1="853.4036" x2="283.67" y2="844.0734" gradientTransform="matrix(1 0 0 1 8.4399 -553.9355)">
							<stop  offset="0" style="stop-color:#404041"/>
							<stop  offset="1" style="stop-color:#9FA0A4"/>
						</linearGradient>
						
							<circle id="circle5359" sodipodi:ry="5.3860002" sodipodi:cy="294.80301" sodipodi:rx="5.3860002" sodipodi:cx="294.80301" opacity="0.5" fill="url(#circle5359_1_)" enable-background="new    " cx="294.804" cy="294.803" r="5.386">
						</circle>
					</g>
					
						<linearGradient id="polygon5366_1_" gradientUnits="userSpaceOnUse" x1="288.0527" y1="851.6663" x2="284.6719" y2="845.8104" gradientTransform="matrix(1 0 0 1 8.4399 -553.9355)">
						<stop  offset="0" style="stop-color:#58595B"/>
						<stop  offset="1" style="stop-color:#151515"/>
					</linearGradient>
					<polygon id="polygon5366" fill="url(#polygon5366_1_)" points="296.493,291.874 298.185,294.803 296.493,297.73 
						293.112,297.73 291.421,294.803 293.112,291.874 					"/>
					<polygon id="polygon5368" points="296.358,292.107 297.913,294.803 296.358,297.496 293.247,297.496 291.692,294.803 
						293.247,292.107 					"/>
				</g>
			</g>
		</g>
		<g id="g5370">
			<g id="g5374">
				<g id="g5376">
					<g id="g5378">
						
							<linearGradient id="circle5385_1_" gradientUnits="userSpaceOnUse" x1="11.4033" y1="853.6497" x2="5.7334" y2="843.829" gradientTransform="matrix(1 0 0 1 8.4399 -553.9355)">
							<stop  offset="0" style="stop-color:#151515"/>
							<stop  offset="1" style="stop-color:#58595B"/>
						</linearGradient>
						
							<circle id="circle5385" sodipodi:ry="5.6690001" sodipodi:cy="294.80301" sodipodi:rx="5.6690001" sodipodi:cx="17.007999" fill="url(#circle5385_1_)" cx="17.008" cy="294.803" r="5.669">
						</circle>
					</g>
					<g id="g5387">
						
							<circle id="circle5389" sodipodi:ry="5.3860002" sodipodi:cy="294.80301" sodipodi:rx="5.3860002" sodipodi:cx="17.007999" fill="#1F1F1F" cx="17.008" cy="294.803" r="5.386">
						</circle>
						
							<linearGradient id="circle5396_1_" gradientUnits="userSpaceOnUse" x1="11.2617" y1="853.4036" x2="5.875" y2="844.0735" gradientTransform="matrix(1 0 0 1 8.4399 -553.9355)">
							<stop  offset="0" style="stop-color:#404041"/>
							<stop  offset="1" style="stop-color:#9FA0A4"/>
						</linearGradient>
						
							<circle id="circle5396" sodipodi:ry="5.3860002" sodipodi:cy="294.80301" sodipodi:rx="5.3860002" sodipodi:cx="17.007999" opacity="0.5" fill="url(#circle5396_1_)" enable-background="new    " cx="17.008" cy="294.803" r="5.386">
						</circle>
					</g>
					
						<linearGradient id="polygon5403_1_" gradientUnits="userSpaceOnUse" x1="10.2583" y1="851.6653" x2="6.8775" y2="845.8094" gradientTransform="matrix(1 0 0 1 8.4399 -553.9355)">
						<stop  offset="0" style="stop-color:#58595B"/>
						<stop  offset="1" style="stop-color:#151515"/>
					</linearGradient>
					<polygon id="polygon5403" fill="url(#polygon5403_1_)" points="18.699,291.874 20.39,294.803 18.699,297.73 15.318,297.73 
						13.626,294.803 15.318,291.874 					"/>
					<polygon id="polygon5405" points="18.564,292.107 20.119,294.803 18.564,297.496 15.453,297.496 13.898,294.803 
						15.453,292.107 					"/>
				</g>
			</g>
		</g>
		<g id="g5407">
			<g id="g5411">
				
					<linearGradient id="circle5418_1_" gradientUnits="userSpaceOnUse" x1="72.3354" y1="579.7102" x2="222.5967" y2="839.9703" gradientTransform="matrix(1 0 0 1 8.4399 -553.9355)">
					<stop  offset="0" style="stop-color:#FFFFFF"/>
					<stop  offset="1" style="stop-color:#231F20"/>
				</linearGradient>
				
					<circle id="circle5418" sodipodi:ry="150.23599" sodipodi:cy="155.90401" sodipodi:rx="150.23599" sodipodi:cx="155.90601" fill="url(#circle5418_1_)" cx="155.906" cy="155.904" r="150.236">
				</circle>
			</g>
		</g>
		
			<linearGradient id="circle5425_1_" gradientUnits="userSpaceOnUse" x1="75.1704" y1="584.6204" x2="219.7617" y2="835.0599" gradientTransform="matrix(1 0 0 1 8.4399 -553.9355)">
			<stop  offset="0" style="stop-color:#404041"/>
			<stop  offset="1" style="stop-color:#9FA0A4"/>
		</linearGradient>
		
			<circle id="circle5425" sodipodi:ry="144.567" sodipodi:cy="155.90401" sodipodi:rx="144.567" sodipodi:cx="155.90601" fill="url(#circle5425_1_)" cx="155.906" cy="155.904" r="144.567">
		</circle>
		<g id="g5427">
			
				<circle id="circle5429" sodipodi:ry="143.149" sodipodi:cy="155.905" sodipodi:rx="143.149" sodipodi:cx="155.905" cx="155.905" cy="155.905" r="143.149">
			</circle>
			
				<radialGradient id="circle5436_1_" cx="147.4648" cy="709.8411" r="143.1489" gradientTransform="matrix(1 0 0 1 8.4399 -553.9355)" gradientUnits="userSpaceOnUse">
				<stop  offset="0" style="stop-color:#404040"/>
				<stop  offset="1" style="stop-color:#000000"/>
			</radialGradient>
			
				<circle id="circle5436" sodipodi:ry="143.149" sodipodi:cy="155.905" sodipodi:rx="143.149" sodipodi:cx="155.905" fill="url(#circle5436_1_)" cx="155.905" cy="155.905" r="143.149">
			</circle>
		</g>
		<g>
			<line fill="none" x1="165.164" y1="131.423" x2="207.329" y2="169.79"/>
			<g>
				<path fill="#F8B133" d="M164.103,132.484c14.056,12.789,28.11,25.578,42.166,38.367c1.426,1.299,3.555-0.815,2.121-2.121
					c-14.056-12.789-28.111-25.578-42.166-38.367C164.798,129.064,162.67,131.179,164.103,132.484L164.103,132.484z"/>
			</g>
		</g>
		<g>
			<line fill="none" x1="207.329" y1="169.79" x2="207.329" y2="184.839"/>
			<g>
				<path fill="#F8B133" d="M205.829,169.79c0,5.017,0,10.031,0,15.049c0,1.935,3,1.935,3,0c0-5.018,0-10.032,0-15.049
					C208.829,167.855,205.829,167.855,205.829,169.79L205.829,169.79z"/>
			</g>
		</g>
		<g>
			<line fill="none" x1="207.329" y1="184.839" x2="165.33" y2="162.757"/>
			<g>
				<path fill="#F8B133" d="M208.086,183.544c-13.999-7.361-27.999-14.723-41.999-22.082c-1.71-0.899-3.227,1.688-1.514,2.59
					c13.998,7.361,27.998,14.722,41.998,22.082C208.282,187.033,209.799,184.444,208.086,183.544L208.086,183.544z"/>
			</g>
		</g>
		<g>
			<line fill="none" x1="165.33" y1="162.757" x2="163.165" y2="201.725"/>
			<g>
				<path fill="#F8B133" d="M163.83,162.757c-0.722,12.989-1.442,25.979-2.165,38.969c-0.107,1.935,2.895,1.924,3,0
					c0.723-12.989,1.443-25.979,2.165-38.969C166.937,160.823,163.937,160.833,163.83,162.757L163.83,162.757z"/>
			</g>
		</g>
		<g>
			<line fill="none" x1="163.165" y1="201.725" x2="179.185" y2="215.581"/>
			<g>
				<path fill="#F8B133" d="M162.104,202.786c5.34,4.617,10.681,9.236,16.021,13.854c1.455,1.259,3.587-0.854,2.121-2.121
					c-5.34-4.618-10.681-9.237-16.021-13.854C162.771,199.406,160.638,201.518,162.104,202.786L162.104,202.786z"/>
			</g>
		</g>
		<g>
			<line fill="none" x1="179.185" y1="215.581" x2="179.185" y2="230.735"/>
			<g>
				<path fill="#F8B133" d="M177.685,215.581c0,5.052,0,10.103,0,15.153c0,1.936,3,1.936,3,0c0-5.052,0-10.103,0-15.153
					C180.685,213.646,177.685,213.646,177.685,215.581L177.685,215.581z"/>
			</g>
		</g>
		<g>
			<line fill="none" x1="179.185" y1="230.735" x2="160.55" y2="219.044"/>
			<g>
				<path fill="#F8B133" d="M179.942,229.44c-6.213-3.896-12.424-7.795-18.637-11.69c-1.644-1.031-3.147,1.563-1.514,2.59
					c6.212,3.896,12.424,7.795,18.637,11.69C180.071,233.061,181.577,230.466,179.942,229.44L179.942,229.44z"/>
			</g>
		</g>
		<g>
			<line fill="none" x1="160.55" y1="219.044" x2="155.652" y2="223.156"/>
			<g>
				<path fill="#F8B133" d="M159.489,217.983c-1.633,1.371-3.265,2.742-4.897,4.113c-1.483,1.246,0.65,3.356,2.121,2.121
					c1.634-1.371,3.265-2.742,4.897-4.113C163.094,218.858,160.96,216.748,159.489,217.983L159.489,217.983z"/>
			</g>
		</g>
		<g>
			<line fill="none" x1="155.652" y1="223.156" x2="151.473" y2="219.044"/>
			<g>
				<path fill="#F8B133" d="M156.713,222.096c-1.393-1.371-2.786-2.742-4.179-4.113c-1.379-1.356-3.501,0.764-2.121,2.121
					c1.393,1.371,2.786,2.742,4.179,4.113C155.971,225.575,158.094,223.455,156.713,222.096L156.713,222.096z"/>
			</g>
		</g>
		<g>
			<line fill="none" x1="151.473" y1="219.044" x2="131.556" y2="230.735"/>
			<g>
				<path fill="#F8B133" d="M150.717,217.749c-6.639,3.896-13.278,7.794-19.917,11.69c-1.667,0.979-0.158,3.571,1.514,2.59
					c6.639-3.896,13.278-7.794,19.917-11.69C153.897,219.36,152.388,216.767,150.717,217.749L150.717,217.749z"/>
			</g>
		</g>
		<g>
			<line fill="none" x1="131.556" y1="230.735" x2="131.556" y2="215.581"/>
			<g>
				<path fill="#F8B133" d="M133.056,230.735c0-5.052,0-10.103,0-15.153c0-1.936-3-1.936-3,0c0,5.052,0,10.103,0,15.153
					C130.056,232.67,133.056,232.67,133.056,230.735L133.056,230.735z"/>
			</g>
		</g>
		<g>
			<line fill="none" x1="131.556" y1="215.581" x2="148.443" y2="199.995"/>
			<g>
				<path fill="#F8B133" d="M132.617,216.641c5.629-5.195,11.258-10.391,16.887-15.586c1.424-1.313-0.702-3.431-2.121-2.121
					c-5.629,5.195-11.258,10.392-16.887,15.586C129.072,215.835,131.198,217.951,132.617,216.641L132.617,216.641z"/>
			</g>
		</g>
		<g>
			<line fill="none" x1="148.443" y1="199.995" x2="145.844" y2="162.757"/>
			<g>
				<path fill="#F8B133" d="M149.943,199.995c-0.866-12.413-1.732-24.825-2.599-37.238c-0.134-1.919-3.135-1.933-3,0
					c0.866,12.413,1.732,24.825,2.599,37.238C147.077,201.914,150.078,201.927,149.943,199.995L149.943,199.995z"/>
			</g>
		</g>
		<g>
			<line fill="none" x1="145.844" y1="162.757" x2="103.412" y2="184.839"/>
			<g>
				<path fill="#F8B133" d="M145.088,161.462c-14.145,7.359-28.289,14.721-42.433,22.082c-1.717,0.893-0.2,3.48,1.514,2.59
					c14.145-7.36,28.289-14.721,42.433-22.082C148.318,163.159,146.801,160.57,145.088,161.462L145.088,161.462z"/>
			</g>
		</g>
		<g>
			<line fill="none" x1="103.412" y1="184.839" x2="103.412" y2="169.79"/>
			<g>
				<path fill="#F8B133" d="M104.912,184.839c0-5.018,0-10.032,0-15.049c0-1.936-3-1.936-3,0c0,5.017,0,10.031,0,15.049
					C101.912,186.773,104.912,186.773,104.912,184.839L104.912,184.839z"/>
			</g>
		</g>
		<g>
			<line fill="none" x1="103.412" y1="169.79" x2="145.844" y2="131.581"/>
			<g>
				<path fill="#F8B133" d="M104.472,170.85c14.145-12.736,28.289-25.472,42.433-38.208c1.44-1.297-0.688-3.412-2.121-2.121
					c-14.145,12.736-28.289,25.473-42.433,38.208C100.911,170.026,103.039,172.141,104.472,170.85L104.472,170.85z"/>
			</g>
		</g>
		<g>
			<line fill="none" x1="162.147" y1="105.551" x2="165.33" y2="131.423"/>
			<g>
				<path fill="#F8B133" d="M160.647,105.551c1.061,8.624,2.121,17.249,3.183,25.873c0.233,1.895,3.235,1.917,3,0
					c-1.062-8.624-2.122-17.249-3.183-25.873C163.414,103.656,160.411,103.634,160.647,105.551L160.647,105.551z"/>
			</g>
		</g>
		<g>
			<line fill="none" x1="145.844" y1="131.581" x2="149.166" y2="105.551"/>
			<g>
				<path fill="#F8B133" d="M147.344,131.581c1.107-8.678,2.214-17.354,3.321-26.031c0.244-1.916-2.759-1.892-3,0
					c-1.107,8.677-2.214,17.354-3.321,26.031C144.1,133.497,147.103,133.473,147.344,131.581L147.344,131.581z"/>
			</g>
		</g>
		<g>
			<line fill="none" x1="155.652" y1="92.64" x2="149.166" y2="105.146"/>
			<g>
				<path fill="#F8B133" d="M154.357,91.883c-2.162,4.169-4.324,8.337-6.486,12.506c-0.889,1.715,1.7,3.232,2.591,1.515
					c2.162-4.169,4.324-8.337,6.486-12.506C157.837,91.682,155.248,90.165,154.357,91.883L154.357,91.883z"/>
			</g>
		</g>
		<g>
			<line fill="none" x1="155.652" y1="92.64" x2="162.147" y2="105.146"/>
			<g>
				<path fill="#F8B133" d="M154.357,93.397c2.166,4.168,4.332,8.337,6.496,12.506c0.893,1.718,3.48,0.2,2.59-1.515
					c-2.164-4.168-4.33-8.337-6.494-12.506C156.055,90.165,153.467,91.683,154.357,93.397L154.357,93.397z"/>
			</g>
		</g>
		<g>
			<line fill="none" x1="155.652" y1="66.405" x2="155.652" y2="94.155"/>
			<g>
				<path fill="#F8B133" d="M154.671,66.467c0,9.25,0,18.5,0,27.75c0,1.059,1.963,0.803,1.963-0.124c0-9.25,0-18.5,0-27.75
					C156.634,65.284,154.671,65.54,154.671,66.467L154.671,66.467z"/>
			</g>
		</g>
	</g>
</g>
<g id="needle_1_" inkscape:label="Foreground" inkscape:groupmode="layer">
	<g id="compass" inkscape:label="#g8506">
		<line id="line5438" fill="none" stroke="#FFFFFF" stroke-width="4" x1="155.906" y1="15.589" x2="155.906" y2="36.376"/>
		<line id="line5438_3_" fill="none" stroke="#FFFFFF" stroke-width="4" x1="119.65" y1="20.493" x2="125.03" y2="40.572"/>
		<line id="line5438_4_" fill="none" stroke="#FFFFFF" stroke-width="4" x1="85.898" y1="34.615" x2="96.291" y2="52.617"/>
		<line id="line5438_5_" fill="none" stroke="#FFFFFF" stroke-width="4" x1="56.951" y1="56.99" x2="71.65" y2="71.689"/>
		<line id="line5438_6_" fill="none" stroke="#FFFFFF" stroke-width="4" x1="34.61" y1="86.118" x2="52.612" y2="96.512"/>
		<line id="line5438_7_" fill="none" stroke="#FFFFFF" stroke-width="4" x1="20.568" y1="120.036" x2="40.647" y2="125.416"/>
		<line id="line5438_8_" fill="none" stroke="#FFFFFF" stroke-width="4" x1="15.875" y1="156.289" x2="36.661" y2="156.289"/>
		<line id="line5438_9_" fill="none" stroke="#FFFFFF" stroke-width="4" x1="20.724" y1="192.521" x2="40.802" y2="187.141"/>
		<line id="line5438_10_" fill="none" stroke="#FFFFFF" stroke-width="4" x1="34.798" y1="226.273" x2="52.8" y2="215.88"/>
		<line id="line5438_11_" fill="none" stroke="#FFFFFF" stroke-width="4" x1="57.129" y1="255.243" x2="71.827" y2="240.545"/>
		<line id="line5438_12_" fill="none" stroke="#FFFFFF" stroke-width="4" x1="86.208" y1="277.445" x2="96.601" y2="259.443"/>
		<line id="line5438_13_" fill="none" stroke="#FFFFFF" stroke-width="4" x1="120.053" y1="291.363" x2="125.433" y2="271.284"/>
		<line id="line5438_14_" fill="none" stroke="#FFFFFF" stroke-width="4" x1="156.328" y1="296.06" x2="156.327" y2="275.273"/>
		<line id="line5438_15_" fill="none" stroke="#FFFFFF" stroke-width="4" x1="192.603" y1="291.195" x2="187.222" y2="271.117"/>
		<line id="line5438_16_" fill="none" stroke="#FFFFFF" stroke-width="4" x1="226.382" y1="277.107" x2="215.987" y2="259.106"/>
		<line id="line5438_17_" fill="none" stroke="#FFFFFF" stroke-width="4" x1="255.362" y1="254.757" x2="240.664" y2="240.059"/>
		<line id="line5438_18_" fill="none" stroke="#FFFFFF" stroke-width="4" x1="277.592" y1="225.642" x2="259.589" y2="215.251"/>
		<line id="line5438_19_" fill="none" stroke="#FFFFFF" stroke-width="4" x1="291.517" y1="191.768" x2="271.437" y2="186.39"/>
		<line id="line5438_20_" fill="none" stroke="#FFFFFF" stroke-width="4" x1="296.209" y1="155.432" x2="275.422" y2="155.435"/>
		<line id="line5438_21_" fill="none" stroke="#FFFFFF" stroke-width="4" x1="291.317" y1="119.125" x2="271.239" y2="124.508"/>
		<line id="line5438_22_" fill="none" stroke="#FFFFFF" stroke-width="4" x1="277.179" y1="85.323" x2="259.177" y2="95.719"/>
		<line id="line5438_23_" fill="none" stroke="#FFFFFF" stroke-width="4" x1="254.772" y1="56.333" x2="240.076" y2="71.034"/>
		<line id="line5438_24_" fill="none" stroke="#FFFFFF" stroke-width="4" x1="225.621" y1="34.135" x2="215.229" y2="52.138"/>
		<line id="line5438_25_" fill="none" stroke="#FFFFFF" stroke-width="4" x1="191.718" y1="20.245" x2="186.34" y2="40.325"/>
		<line id="line5438_26_" fill="none" stroke="#FFFFFF" stroke-width="4" x1="155.37" y1="15.605" x2="155.373" y2="36.393"/>
		<g id="text5556" enable-background="new    ">
			<path fill="#F4962A" d="M145.894,66.405V39.828h0.578L164.159,60.2V39.828h2.619v26.576h-0.596L148.64,46.281v20.124H145.894z"/>
		</g>
		<g id="text5570" enable-background="new    ">
			<path fill="#F4982D" d="M163.575,248.496l-2.258,1.354c-1.59-2.926-3.426-4.39-5.51-4.39c-0.891,0-1.728,0.208-2.511,0.623
				c-0.783,0.416-1.379,0.973-1.789,1.671c-0.409,0.699-0.614,1.439-0.614,2.223c0,0.892,0.301,1.765,0.903,2.619
				c0.831,1.181,2.349,2.602,4.553,4.264c2.216,1.675,3.595,2.885,4.137,3.632c0.939,1.253,1.409,2.607,1.409,4.065
				c0,1.156-0.277,2.21-0.831,3.161s-1.334,1.701-2.34,2.249c-1.005,0.548-2.099,0.822-3.279,0.822
				c-1.252,0-2.424-0.311-3.514-0.931c-1.09-0.62-2.243-1.761-3.459-3.423l2.168-1.645c1,1.325,1.852,2.198,2.556,2.619
				c0.705,0.422,1.473,0.633,2.304,0.633c1.072,0,1.948-0.325,2.629-0.976s1.021-1.451,1.021-2.403c0-0.578-0.12-1.138-0.361-1.68
				c-0.24-0.542-0.68-1.132-1.318-1.771c-0.35-0.337-1.494-1.223-3.433-2.655c-2.3-1.699-3.878-3.21-4.733-4.535
				c-0.855-1.325-1.283-2.656-1.283-3.992c0-1.928,0.731-3.602,2.195-5.023c1.463-1.421,3.243-2.131,5.338-2.131
				c1.615,0,3.078,0.431,4.39,1.291C161.257,245.031,162.468,246.473,163.575,248.496z"/>
		</g>
		<g id="text5556_1_" enable-background="new    ">
			<path fill="#F4962A" d="M41.329,171.928V169.2l19.15-5.43l-19.15-7.618v-0.551l19.15-7.53l-19.15-5.522v-2.708l26.576,7.636
				v0.493l-20.107,7.886l20.107,8.04v0.496L41.329,171.928z"/>
		</g>
		<g id="text5556_2_" enable-background="new    ">
			<path fill="#F4962A" d="M270.981,148.766v15.229h-2.602v-12.574h-8.329v12.466h-2.602v-12.466h-10.442v12.466h-2.602v-15.122
				H270.981z"/>
		</g>
		<line id="line5438_1_" fill="none" stroke="#FFFFFF" stroke-width="4" x1="155.905" y1="274.014" x2="155.905" y2="294.802"/>
		<g id="text5556_3_" enable-background="new    ">
			<path fill="#FFFFFF" d="M208.842,57.963l-1.205-0.696c0.782-0.848,1.636-1.355,2.56-1.521c0.925-0.166,1.811-0.005,2.656,0.484
				c0.615,0.355,1.109,0.827,1.48,1.416c0.37,0.589,0.564,1.206,0.58,1.852c0.018,0.646-0.125,1.228-0.425,1.747
				c-0.587,1.018-1.559,1.531-2.915,1.542c0.436,0.558,0.706,1.164,0.814,1.818c0.152,0.925,0.004,1.773-0.445,2.551
				c-0.386,0.67-0.932,1.207-1.636,1.609c-0.704,0.404-1.458,0.596-2.261,0.575c-0.802-0.021-1.581-0.248-2.336-0.684
				c-1.018-0.588-1.697-1.372-2.039-2.351c-0.342-0.979-0.289-2.097,0.158-3.354l1.156,0.668c-0.238,0.884-0.267,1.606-0.084,2.17
				c0.236,0.714,0.732,1.29,1.488,1.726c0.856,0.495,1.693,0.636,2.51,0.421c0.816-0.214,1.424-0.667,1.822-1.356
				c0.267-0.461,0.386-0.968,0.358-1.519c-0.028-0.553-0.202-1.057-0.521-1.512c-0.319-0.455-0.923-0.972-1.811-1.549l0.626-1.084
				c0.54,0.313,1.089,0.501,1.644,0.567c0.553,0.067,1.016,0.011,1.388-0.168c0.37-0.179,0.657-0.442,0.858-0.79
				c0.297-0.515,0.348-1.076,0.154-1.688s-0.603-1.099-1.229-1.46c-0.509-0.295-1.03-0.404-1.565-0.33
				C210.089,57.12,209.495,57.425,208.842,57.963z"/>
		</g>
		<g id="text5556_4_" enable-background="new    ">
			<path fill="#FFFFFF" d="M257.56,98.427l-0.072,1.339l-6.682-0.403c0.392,0.345,0.695,0.705,0.912,1.081
				c0.542,0.938,0.663,1.931,0.363,2.977c-0.299,1.046-0.944,1.854-1.936,2.427c-0.68,0.393-1.386,0.59-2.117,0.59
				c-0.732,0.002-1.428-0.196-2.088-0.591s-1.184-0.927-1.57-1.597c-0.375-0.649-0.565-1.342-0.572-2.078
				c-0.008-0.736,0.182-1.426,0.566-2.07c0.385-0.644,0.902-1.152,1.551-1.527c0.482-0.278,1.045-0.473,1.691-0.586
				c0.646-0.111,1.489-0.131,2.531-0.06L257.56,98.427z M250.521,100.761c-0.396-0.687-0.979-1.133-1.742-1.338
				c-0.766-0.205-1.493-0.109-2.185,0.291c-0.686,0.395-1.13,0.976-1.335,1.741s-0.107,1.491,0.289,2.179
				c0.396,0.686,0.976,1.133,1.742,1.338c0.765,0.205,1.49,0.11,2.175-0.285c0.692-0.399,1.139-0.98,1.344-1.747
				C251.013,102.175,250.917,101.448,250.521,100.761z"/>
		</g>
		<g id="text5556_5_" enable-background="new    ">
			<path fill="#FFFFFF" d="M259.691,205.857l-1.341,2.322l-11.817-6.823l0.677-1.173l10.662,6.155l1.071-1.856L259.691,205.857z"/>
			<path fill="#FFFFFF" d="M251.39,211.701l0.654-1.133c1.146,0.704,1.879,1.647,2.196,2.827c0.317,1.178,0.158,2.316-0.476,3.415
				c-0.628,1.087-1.487,1.765-2.576,2.031c-1.091,0.267-2.112,0.125-3.066-0.426c-0.67-0.387-1.206-0.909-1.607-1.569
				c-0.401-0.658-0.837-1.74-1.306-3.242l-1.47-4.774l-3.148,5.452l-1.141-0.658l4.634-8.026l2.272,7.333
				c0.453,1.482,0.836,2.498,1.15,3.047c0.316,0.551,0.736,0.977,1.262,1.28c0.665,0.384,1.38,0.466,2.146,0.248
				c0.766-0.218,1.355-0.687,1.771-1.404c0.436-0.755,0.546-1.528,0.331-2.32C252.803,212.99,252.261,212.296,251.39,211.701z"/>
		</g>
		<g id="text5556_6_" enable-background="new    ">
			<path fill="#FFFFFF" d="M218.808,248.817l-2.322,1.341l-6.822-11.818l1.172-0.678l6.156,10.662l1.855-1.072L218.808,248.817z"/>
			<path fill="#FFFFFF" d="M204.644,256.994l-0.649-1.124l4.2-2.426l-1.27-3.563c-0.427,0.446-0.846,0.789-1.258,1.026
				c-1.076,0.621-2.171,0.773-3.285,0.456c-1.113-0.318-1.996-1.039-2.645-2.164c-0.449-0.775-0.68-1.592-0.695-2.446
				c-0.016-0.856,0.184-1.633,0.598-2.333c0.413-0.699,1.021-1.281,1.824-1.745c0.96-0.554,1.938-0.728,2.936-0.521
				c0.997,0.205,1.829,0.737,2.496,1.596l-1.213,0.7c-0.354-0.403-0.722-0.684-1.104-0.843c-0.38-0.158-0.802-0.221-1.264-0.186
				c-0.461,0.035-0.891,0.166-1.287,0.396c-0.777,0.448-1.273,1.128-1.491,2.038c-0.218,0.909-0.071,1.806,0.438,2.688
				c0.46,0.798,1.086,1.299,1.876,1.506s1.606,0.066,2.447-0.418c0.696-0.402,1.418-1.102,2.165-2.096l2.297,6.503L204.644,256.994z
				"/>
		</g>
		<g id="text5556_7_" enable-background="new    ">
			<path fill="#FFFFFF" d="M108.979,255.794l1.133,0.654c-0.705,1.146-1.648,1.879-2.827,2.195c-1.18,0.317-2.318,0.158-3.416-0.476
				c-1.087-0.628-1.764-1.487-2.031-2.577c-0.267-1.09-0.125-2.111,0.426-3.065c0.387-0.67,0.91-1.206,1.569-1.607
				c0.659-0.401,1.74-0.837,3.243-1.306l4.774-1.47l-5.452-3.147l0.659-1.142l8.026,4.634l-7.333,2.273
				c-1.482,0.452-2.498,0.836-3.047,1.15c-0.55,0.315-0.977,0.735-1.28,1.262c-0.384,0.664-0.466,1.379-0.248,2.146
				c0.219,0.766,0.687,1.356,1.404,1.771c0.755,0.436,1.529,0.547,2.321,0.332C107.69,257.206,108.384,256.664,108.979,255.794z"/>
			<path fill="#FFFFFF" d="M96.585,253.566l-2.322-1.341l6.823-11.817l1.173,0.677l-6.155,10.661l1.856,1.072L96.585,253.566z"/>
		</g>
		<g id="text5556_8_" enable-background="new    ">
			<path fill="#FFFFFF" d="M63.988,218.966l0.654,1.133c-1.184,0.641-2.366,0.803-3.546,0.488c-1.18-0.315-2.086-1.021-2.72-2.12
				c-0.628-1.087-0.785-2.169-0.471-3.247c0.314-1.077,0.948-1.892,1.902-2.442c0.67-0.387,1.391-0.589,2.163-0.607
				c0.771-0.019,1.925,0.146,3.461,0.491l4.869,1.113l-3.148-5.452l1.141-0.659l4.634,8.027l-7.486-1.699
				c-1.51-0.349-2.582-0.525-3.215-0.526c-0.634-0.003-1.214,0.148-1.739,0.452c-0.665,0.384-1.094,0.962-1.288,1.734
				c-0.193,0.772-0.083,1.518,0.331,2.235c0.436,0.755,1.051,1.237,1.844,1.448C62.166,219.544,63.037,219.422,63.988,218.966z"/>
			<path fill="#FFFFFF" d="M51.783,207.049l-0.138-0.239l8.243-4.76l-0.826-1.43l1.125-0.649l0.825,1.43l2.748-1.587l0.678,1.174
				l-2.748,1.586l3.266,5.656L51.783,207.049z M60.565,203.224l-4.964,2.865l6.985,0.635L60.565,203.224z"/>
		</g>
		<g id="text5556_9_" enable-background="new    ">
			<path fill="#FFFFFF" d="M54.858,108.212l-0.696,1.205c-0.848-0.782-1.355-1.635-1.521-2.56c-0.166-0.924-0.005-1.81,0.484-2.656
				c0.355-0.616,0.827-1.109,1.416-1.48s1.206-0.564,1.852-0.581s1.228,0.125,1.747,0.425c1.018,0.587,1.531,1.559,1.542,2.915
				c0.558-0.435,1.164-0.706,1.818-0.814c0.925-0.152,1.773-0.004,2.551,0.445c0.67,0.386,1.207,0.932,1.609,1.636
				c0.404,0.705,0.596,1.458,0.575,2.26s-0.248,1.582-0.684,2.336c-0.588,1.018-1.372,1.698-2.351,2.039
				c-0.979,0.342-2.097,0.29-3.354-0.157l0.668-1.157c0.884,0.239,1.606,0.267,2.17,0.085c0.714-0.237,1.29-0.733,1.726-1.489
				c0.495-0.856,0.636-1.693,0.421-2.51c-0.214-0.816-0.667-1.424-1.356-1.823c-0.461-0.266-0.968-0.385-1.519-0.358
				c-0.553,0.028-1.057,0.202-1.512,0.52c-0.455,0.32-0.972,0.923-1.549,1.811l-1.084-0.626c0.313-0.541,0.501-1.088,0.567-1.643
				c0.067-0.554,0.011-1.017-0.168-1.388c-0.179-0.371-0.442-0.657-0.79-0.858c-0.515-0.297-1.076-0.349-1.688-0.155
				c-0.612,0.193-1.099,0.603-1.46,1.229c-0.295,0.509-0.404,1.031-0.33,1.566C54.016,106.966,54.32,107.559,54.858,108.212z"/>
			<path fill="#FFFFFF" d="M62.342,102.581c-1.561-0.9-2.668-1.763-3.326-2.59c-0.658-0.826-1.031-1.672-1.118-2.536
				c-0.086-0.864,0.089-1.674,0.524-2.429c0.442-0.766,1.063-1.332,1.864-1.698c0.8-0.367,1.747-0.475,2.84-0.327
				c1.093,0.149,2.384,0.653,3.872,1.513c1.484,0.856,2.562,1.716,3.234,2.58c0.674,0.863,1.053,1.738,1.137,2.622
				c0.086,0.885-0.092,1.711-0.534,2.477c-0.437,0.755-1.046,1.31-1.829,1.665s-1.703,0.454-2.76,0.298
				C65.19,103.999,63.889,103.474,62.342,102.581z M63.006,101.475c1.335,0.771,2.413,1.234,3.233,1.391
				c0.821,0.156,1.543,0.103,2.166-0.159s1.084-0.652,1.384-1.172c0.303-0.525,0.414-1.114,0.33-1.77
				c-0.082-0.655-0.401-1.3-0.957-1.935c-0.672-0.78-1.6-1.513-2.784-2.197c-1.19-0.687-2.24-1.118-3.15-1.293
				s-1.673-0.133-2.293,0.127c-0.618,0.261-1.076,0.648-1.373,1.162c-0.304,0.525-0.412,1.119-0.327,1.782
				c0.086,0.664,0.4,1.313,0.944,1.949S61.666,100.702,63.006,101.475z"/>
		</g>
		<g id="text5556_10_" enable-background="new    ">
			<path fill="#FFFFFF" d="M91.675,63.346l-1.205,0.696c-0.344-1.102-0.356-2.094-0.038-2.979c0.318-0.884,0.9-1.569,1.747-2.058
				c0.616-0.355,1.271-0.547,1.968-0.573c0.694-0.027,1.326,0.114,1.893,0.422c0.568,0.309,1.001,0.723,1.301,1.241
				c0.588,1.018,0.547,2.116-0.121,3.296c0.699-0.098,1.36-0.029,1.981,0.204c0.876,0.331,1.538,0.883,1.987,1.661
				c0.386,0.669,0.578,1.411,0.575,2.222c-0.003,0.812-0.213,1.561-0.632,2.245c-0.419,0.685-1.006,1.246-1.761,1.682
				c-1.019,0.588-2.036,0.785-3.056,0.59c-1.019-0.193-1.96-0.797-2.824-1.813l1.156-0.668c0.646,0.649,1.258,1.034,1.836,1.158
				c0.738,0.151,1.484,0.01,2.24-0.426c0.856-0.495,1.396-1.149,1.619-1.963s0.135-1.567-0.264-2.257
				c-0.267-0.461-0.646-0.817-1.137-1.069c-0.492-0.251-1.016-0.354-1.568-0.306c-0.555,0.049-1.304,0.314-2.247,0.794L94.5,64.362
				c0.541-0.313,0.979-0.692,1.313-1.14c0.336-0.446,0.518-0.875,0.549-1.286c0.031-0.41-0.055-0.79-0.256-1.138
				c-0.297-0.514-0.758-0.84-1.384-0.978c-0.626-0.139-1.253-0.027-1.88,0.334c-0.509,0.294-0.865,0.691-1.068,1.191
				C91.568,61.845,91.535,62.512,91.675,63.346z"/>
			<path fill="#FFFFFF" d="M100.793,58.081l-1.205,0.696c-0.344-1.102-0.355-2.094-0.037-2.978s0.9-1.569,1.747-2.059
				c0.616-0.355,1.271-0.547,1.967-0.573c0.695-0.027,1.326,0.114,1.894,0.422s1.001,0.722,1.301,1.241
				c0.588,1.018,0.547,2.116-0.122,3.296c0.7-0.098,1.36-0.029,1.981,0.204c0.877,0.331,1.539,0.883,1.987,1.66
				c0.386,0.669,0.579,1.411,0.575,2.222c-0.002,0.813-0.213,1.561-0.631,2.245c-0.42,0.685-1.006,1.246-1.762,1.682
				c-1.018,0.588-2.035,0.784-3.055,0.59c-1.019-0.193-1.96-0.797-2.824-1.813l1.156-0.668c0.646,0.649,1.258,1.034,1.836,1.158
				c0.737,0.151,1.484,0.01,2.24-0.426c0.855-0.495,1.396-1.149,1.619-1.963c0.223-0.813,0.135-1.567-0.264-2.257
				c-0.267-0.461-0.646-0.817-1.138-1.069c-0.491-0.252-1.015-0.354-1.569-0.306c-0.553,0.049-1.302,0.314-2.246,0.794l-0.625-1.084
				c0.541-0.313,0.978-0.692,1.313-1.14c0.336-0.446,0.518-0.875,0.549-1.286s-0.055-0.79-0.256-1.139
				c-0.297-0.514-0.758-0.839-1.384-0.978c-0.627-0.139-1.253-0.027-1.88,0.334c-0.51,0.294-0.865,0.691-1.069,1.191
				S100.654,57.247,100.793,58.081z"/>
		</g>
	</g>
	<g id="g5908" inkscape:label="#Background">
		<path id="path5916" inkscape:connector-curvature="0" fill="none" stroke="#3B3131" stroke-width="2" stroke-opacity="0" d="
			M311.81,297.638c0,7.825-6.346,14.172-14.172,14.172H14.174C6.346,311.81,0,305.464,0,297.638V14.174
			C0,6.347,6.346,0.001,14.174,0.001h283.464c7.827,0,14.173,6.347,14.173,14.173L311.81,297.638L311.81,297.638z"/>
	</g>
</g>
</svg>
