<?xml version="1.0" encoding="UTF-8" standalone="no"?>
<!-- Created with Inkscape (http://www.inkscape.org/) -->

<svg
   xmlns:dc="http://purl.org/dc/elements/1.1/"
   xmlns:cc="http://creativecommons.org/ns#"
   xmlns:rdf="http://www.w3.org/1999/02/22-rdf-syntax-ns#"
   xmlns:svg="http://www.w3.org/2000/svg"
   xmlns="http://www.w3.org/2000/svg"
   xmlns:sodipodi="http://sodipodi.sourceforge.net/DTD/sodipodi-0.dtd"
   xmlns:inkscape="http://www.inkscape.org/namespaces/inkscape"
   id="svg2"
   version="1.1"
   inkscape:version="0.48+devel r10146"
   width="107.06175"
   height="93.892875"
   xml:space="preserve"
   sodipodi:docname="CopterControl Logo.ai"><title
     id="title220">CopterControl Logo</title><metadata
     id="metadata8"><rdf:RDF><cc:Work
         rdf:about=""><dc:format>image/svg+xml</dc:format><dc:type
           rdf:resource="http://purl.org/dc/dcmitype/StillImage" /><dc:title>CopterControl Logo</dc:title><cc:license
           rdf:resource="http://creativecommons.org/licenses/by-sa/3.0/" /><dc:creator><cc:Agent><dc:title>dankers</dc:title></cc:Agent></dc:creator><dc:rights><cc:Agent><dc:title>cc-by-sa</dc:title></cc:Agent></dc:rights><dc:publisher><cc:Agent><dc:title>OpenPilot Project</dc:title></cc:Agent></dc:publisher><dc:identifier>cc logo</dc:identifier><dc:subject><rdf:Bag><rdf:li>CopterControl Logo OpenPilot</rdf:li></rdf:Bag></dc:subject><dc:description>The CopterControl Logo</dc:description></cc:Work><cc:License
         rdf:about="http://creativecommons.org/licenses/by-sa/3.0/"><cc:permits
           rdf:resource="http://creativecommons.org/ns#Reproduction" /><cc:permits
           rdf:resource="http://creativecommons.org/ns#Distribution" /><cc:requires
           rdf:resource="http://creativecommons.org/ns#Notice" /><cc:requires
           rdf:resource="http://creativecommons.org/ns#Attribution" /><cc:permits
           rdf:resource="http://creativecommons.org/ns#DerivativeWorks" /><cc:requires
           rdf:resource="http://creativecommons.org/ns#ShareAlike" /></cc:License></rdf:RDF></metadata><defs
     id="defs6"><clipPath
       clipPathUnits="userSpaceOnUse"
       id="clipPath16"><path
         d="m 0,75.114 85.649,0 L 85.649,0 0,0 0,75.114 z"
         id="path18" /></clipPath><linearGradient
       x1="0"
       y1="0"
       x2="1"
       y2="0"
       gradientUnits="userSpaceOnUse"
       gradientTransform="matrix(37.618134,-6.509201,-6.509201,-37.618134,4.909668,60.972168)"
       spreadMethod="pad"
       id="linearGradient36"><stop
         style="stop-opacity:1;stop-color:#354c85"
         offset="0"
         id="stop38" /><stop
         style="stop-opacity:1;stop-color:#303455"
         offset="1"
         id="stop40" /></linearGradient><linearGradient
       x1="0"
       y1="0"
       x2="1"
       y2="0"
       gradientUnits="userSpaceOnUse"
       gradientTransform="matrix(-3.2920685,9.7740784,9.7740784,3.2920685,61.740234,26.514648)"
       spreadMethod="pad"
       id="linearGradient56"><stop
         style="stop-opacity:1;stop-color:#354c85"
         offset="0"
         id="stop58" /><stop
         style="stop-opacity:1;stop-color:#303455"
         offset="1"
         id="stop60" /></linearGradient><clipPath
       clipPathUnits="userSpaceOnUse"
       id="clipPath68"><path
         d="m 0,75.114 85.649,0 L 85.649,0 0,0 0,75.114 z"
         id="path70" /></clipPath><linearGradient
       x1="0"
       y1="0"
       x2="1"
       y2="0"
       gradientUnits="userSpaceOnUse"
       gradientTransform="matrix(38.292648,-27.297745,-27.297745,-38.292648,30.150391,70.164551)"
       spreadMethod="pad"
       id="linearGradient88"><stop
         style="stop-opacity:1;stop-color:#4d73b7"
         offset="0"
         id="stop90" /><stop
         style="stop-opacity:1;stop-color:#8fd6ec"
         offset="1"
         id="stop92" /></linearGradient><linearGradient
       x1="0"
       y1="0"
       x2="1"
       y2="0"
       gradientUnits="userSpaceOnUse"
       gradientTransform="matrix(9.605484,-15.166565,-15.166565,-9.605484,56.474609,42.531738)"
       spreadMethod="pad"
       id="linearGradient108"><stop
         style="stop-opacity:1;stop-color:#4d73b7"
         offset="0"
         id="stop110" /><stop
         style="stop-opacity:1;stop-color:#8fd6ec"
         offset="1"
         id="stop112" /></linearGradient><clipPath
       clipPathUnits="userSpaceOnUse"
       id="clipPath120"><path
         d="m 0,75.114 85.649,0 L 85.649,0 0,0 0,75.114 z"
         id="path122" /></clipPath><linearGradient
       x1="0"
       y1="0"
       x2="1"
       y2="0"
       gradientUnits="userSpaceOnUse"
       gradientTransform="matrix(7.1740875,17.9496,17.9496,-7.1740875,29.070801,42.709961)"
       spreadMethod="pad"
       id="linearGradient140"><stop
         style="stop-opacity:1;stop-color:#6f7072"
         offset="0"
         id="stop142" /><stop
         style="stop-opacity:1;stop-color:#343433"
         offset="1"
         id="stop144" /></linearGradient><linearGradient
       x1="0"
       y1="0"
       x2="1"
       y2="0"
       gradientUnits="userSpaceOnUse"
       gradientTransform="matrix(-79.929367,44.493195,44.493195,79.929382,78.154297,6.0214844)"
       spreadMethod="pad"
       id="linearGradient160"><stop
         style="stop-opacity:1;stop-color:#6f7072"
         offset="0"
         id="stop162" /><stop
         style="stop-opacity:1;stop-color:#343433"
         offset="1"
         id="stop164" /></linearGradient><clipPath
       clipPathUnits="userSpaceOnUse"
       id="clipPath172"><path
         d="m 0,75.114 85.649,0 L 85.649,0 0,0 0,75.114 z"
         id="path174" /></clipPath><linearGradient
       x1="0"
       y1="0"
       x2="1"
       y2="0"
       gradientUnits="userSpaceOnUse"
       gradientTransform="matrix(9.069809,-8.5465393,-8.5465393,-9.069809,20.291504,62.015625)"
       spreadMethod="pad"
       id="linearGradient192"><stop
         style="stop-opacity:1;stop-color:#434243"
         offset="0"
         id="stop194" /><stop
         style="stop-opacity:1;stop-color:#e3e4e5"
         offset="1"
         id="stop196" /></linearGradient><linearGradient
       x1="0"
       y1="0"
       x2="1"
       y2="0"
       gradientUnits="userSpaceOnUse"
       gradientTransform="matrix(47.259293,-36.970856,-36.970856,-47.259293,24.228027,39.206543)"
       spreadMethod="pad"
       id="linearGradient212"><stop
         style="stop-opacity:1;stop-color:#434243"
         offset="0"
         id="stop214" /><stop
         style="stop-opacity:1;stop-color:#e3e4e5"
         offset="1"
         id="stop216" /></linearGradient></defs><sodipodi:namedview
     pagecolor="#ffffff"
     bordercolor="#666666"
     borderopacity="1"
     objecttolerance="10"
     gridtolerance="10"
     guidetolerance="10"
     inkscape:pageopacity="0"
     inkscape:pageshadow="2"
     inkscape:window-width="1440"
     inkscape:window-height="838"
     id="namedview4"
     showgrid="false"
     inkscape:zoom="6.6669328"
     inkscape:cx="30.356801"
     inkscape:cy="46.946438"
     inkscape:window-x="-8"
     inkscape:window-y="-8"
     inkscape:window-maximized="1"
     inkscape:current-layer="g10" /><g
     id="g10"
     inkscape:groupmode="layer"
     inkscape:label="CopterControl Logo"
     transform="matrix(1.25,0,0,-1.25,0,93.892875)"><g
       id="g12"><g
         id="g14"
         clip-path="url(#clipPath16)"><g
           id="g20"
           transform="translate(60.6445,28.2295)"><path
             d="m 0,0 c -6.208,-0.053 -10.823,3.812 -11.22,5.088 -0.134,-0.043 -0.184,-0.146 -0.153,-0.307 0.252,-1.206 4.933,-5.215 11.249,-5.16 4.279,0.055 7.628,2.766 8.873,6.837 C 7.415,2.598 4.146,0.053 0,0"
             style="fill:#c5e8f1;fill-opacity:1;fill-rule:nonzero;stroke:none"
             id="path22" /></g></g></g><g
       id="g24"><g
         id="g26"><g
           id="g32"><g
             id="g34"><path
               d="M 6.43,69.157 C 6.169,68.951 5.908,68.732 5.644,68.514 l 0,0 c 11.155,2.805 21.139,1.912 29.036,-0.307 l 0,0 c 7.089,-2 13.213,-4.802 19.838,-10.464 l 0,0 c 3.78,-3.245 7.223,-7.768 8.973,-12.112 l 0,0 c 1.17,-2.921 1.625,-5.824 1.073,-8.189 l 0,0 c 0.089,0.376 0.173,0.748 0.255,1.115 l 0,0 c 0.511,2.291 0.024,5.119 -1.166,7.967 l 0,0 c -1.773,4.232 -5.206,8.648 -8.96,11.821 l 0,0 C 48.13,63.892 42.083,66.65 35.095,68.644 l 0,0 c -4.461,1.269 -9.593,2.121 -15.234,2.12 l 0,0 c -4.216,0 -8.717,-0.475 -13.431,-1.607"
               style="fill:url(#linearGradient36);stroke:none"
               id="path42" /></g></g></g></g><g
       id="g44"><g
         id="g46"><g
           id="g52"><g
             id="g54"><path
               d="m 69.83,36.183 c 0.004,0.021 0.007,0.041 0.01,0.062 l 0,0 C 69.837,36.224 69.834,36.204 69.83,36.183 M 60.521,27.85 c -6.317,-0.054 -10.998,3.954 -11.25,5.161 l 0,0 c -0.018,0.074 -0.013,0.139 0.008,0.189 l 0,0 c -0.197,-0.477 -0.396,-0.959 -0.597,-1.446 l 0,0 c -0.024,-0.052 -0.024,-0.118 -0.01,-0.197 l 0,0 c 0.247,-1.229 4.956,-5.268 11.378,-5.131 l 0,0 c 4.906,0.12 8.763,3.627 9.617,8.734 l 0,0 c 0.056,0.342 0.111,0.684 0.163,1.023 l 0,0 C 69.051,31.254 65.317,27.908 60.521,27.85"
               style="fill:url(#linearGradient56);stroke:none"
               id="path62" /></g></g></g></g><g
       id="g64"><g
         id="g66"
         clip-path="url(#clipPath68)"><g
           id="g72"
           transform="translate(35.0947,68.6436)"><path
             d="m 0,0 c 6.988,-1.993 13.035,-4.752 19.599,-10.298 3.754,-3.174 7.186,-7.59 8.96,-11.822 1.283,-3.073 1.744,-6.127 1.019,-8.513 0.007,0.021 0.019,0.043 0.026,0.067 0.866,2.43 0.422,5.618 -0.921,8.823 -1.773,4.234 -5.205,8.65 -8.957,11.824 C 13.16,-4.373 7.115,-1.614 0.125,0.379 -5.032,1.847 -11.095,2.749 -17.8,2.428 -21.496,2.167 -25.159,1.545 -28.664,0.514 -17.644,3.16 -7.794,2.219 0,0"
             style="fill:#c5e8f1;fill-opacity:1;fill-rule:nonzero;stroke:none"
             id="path74" /></g></g></g><g
       id="g76"><g
         id="g78"><g
           id="g84"><g
             id="g86"><path
               d="M 17.295,71.071 C 24,71.393 30.063,70.491 35.22,69.023 l 0,0 c 6.99,-1.994 13.035,-4.752 19.6,-10.299 l 0,0 c 3.752,-3.173 7.185,-7.59 8.958,-11.823 l 0,0 c 0.423,-1.008 0.756,-2.015 0.988,-2.996 l 0,0 c 1.521,-0.322 3.01,-0.687 4.465,-1.093 l 0,0 c -0.154,0.504 -0.33,1.013 -0.533,1.529 l 0,0 c -0.13,0.322 -0.261,0.64 -0.408,0.96 l 0,0 C 64.894,52.885 56.816,60.835 46.537,65.779 l 0,0 c -7.068,3.395 -16.036,5.439 -25.082,5.439 l 0,0 c -1.387,0 -2.776,-0.048 -4.16,-0.147"
               style="fill:url(#linearGradient88);stroke:none"
               id="path94" /></g></g></g></g><g
       id="g96"><g
         id="g98"><g
           id="g104"><g
             id="g106"><path
               d="m 64.699,38.077 c -0.008,-0.024 -0.02,-0.046 -0.026,-0.066 l 0,0 C 64.639,37.904 64.61,37.799 64.574,37.696 l 0,0 C 62.334,31.473 53.282,33.063 49.624,33.34 l 0,0 c -0.081,0.004 -0.146,-0.003 -0.2,-0.022 l 0,0 c 0.397,-1.276 5.013,-5.141 11.221,-5.089 l 0,0 c 4.145,0.054 7.415,2.599 8.749,6.459 l 0,0 c 0.716,2.341 0.736,5.131 -0.163,8.124 l 0,0 c -1.455,0.406 -2.944,0.771 -4.465,1.093 l 0,0 c 0.504,-2.143 0.528,-4.163 -0.067,-5.828"
               style="fill:url(#linearGradient108);stroke:none"
               id="path114" /></g></g></g></g><g
       id="g116"><g
         id="g118"
         clip-path="url(#clipPath120)"><g
           id="g124"
           transform="translate(26.7627,56.5591)"><path
             d="m 0,0 c -0.731,-0.943 -1.264,-2.005 -1.634,-3.159 0.363,1.007 0.86,1.94 1.504,2.78 4.266,5.474 14.028,4.04 17.411,3.457 0.252,-0.046 0.341,0.026 0.283,0.177 -0.021,0.056 -0.067,0.122 -0.129,0.2 -0.01,0.002 -0.017,0.002 -0.027,0.004 C 14.025,4.042 4.261,5.477 0,0"
             style="fill:#e4e4e4;fill-opacity:1;fill-rule:nonzero;stroke:none"
             id="path126" /></g></g></g><g
       id="g128"><g
         id="g130"><g
           id="g136"><g
             id="g138"><path
               d="m 26.564,56.201 c -0.233,-0.292 -0.439,-0.603 -0.631,-0.923 l 0,0 c -0.238,-0.403 -0.485,-0.804 -0.727,-1.216 l 0,0 c 0.195,0.331 0.413,0.645 0.646,0.955 l 0,0 c 4.367,5.683 14.275,4.301 17.712,3.747 l 0,0 c 0.17,-0.032 0.27,-0.007 0.297,0.06 l 0,0 c 0.141,0.297 0.27,0.597 0.406,0.889 l 0,0 c -0.029,-0.059 -0.125,-0.086 -0.293,-0.055 l 0,0 c -1.37,0.237 -3.785,0.612 -6.459,0.612 l 0,0 c -3.928,0 -8.413,-0.811 -10.951,-4.069"
               style="fill:url(#linearGradient140);stroke:none"
               id="path146" /></g></g></g></g><g
       id="g148"><g
         id="g150"><g
           id="g156"><g
             id="g158"><path
               d="m 18.048,56.379 c 0.019,0.031 0.039,0.061 0.059,0.092 l 0,0 c -0.02,-0.031 -0.04,-0.061 -0.059,-0.092 m -0.744,-1.141 c -1.933,-2.97 -3.01,-6.646 -2.79,-10.717 l 0,0 c 0.027,-0.47 0.065,-0.945 0.121,-1.417 l 0,0 c 1.448,-12.868 11.812,-25.793 26.6,-33.53 l 0,0 C 48.599,5.737 56.515,3.915 63.747,4.366 l 0,0 c 6.189,0.384 11.615,2.474 15.289,6.447 l 0,0 c 0.096,0.455 0.192,0.912 0.277,1.364 l 0,0 C 75.768,8.311 70.46,6.33 64.372,6.016 l 0,0 C 57.237,5.652 49.398,7.523 42.074,11.383 l 0,0 C 27.37,19.168 17.016,31.971 15.521,44.632 l 0,0 c -0.054,0.465 -0.095,0.928 -0.122,1.389 l 0,0 c -0.232,3.945 0.787,7.491 2.649,10.358 l 0,0 c -0.246,-0.376 -0.493,-0.758 -0.744,-1.141"
               style="fill:url(#linearGradient160);stroke:none"
               id="path166" /></g></g></g></g><g
       id="g168"><g
         id="g170"
         clip-path="url(#clipPath172)"><g
           id="g176"
           transform="translate(64.4971,6.3955)"><path
             d="m 0,0 c -7.133,-0.364 -14.974,1.507 -22.298,5.368 -14.704,7.783 -25.057,20.586 -26.55,33.25 -0.055,0.463 -0.098,0.928 -0.123,1.389 -0.133,2.247 0.168,4.356 0.804,6.285 -0.725,-2.03 -1.072,-4.268 -0.931,-6.667 0.027,-0.46 0.068,-0.923 0.122,-1.389 1.496,-12.661 11.849,-25.464 26.553,-33.249 7.324,-3.859 15.163,-5.73 22.298,-5.366 6.088,0.314 11.396,2.294 14.941,6.16 C 14.506,5.539 14.186,5.313 13.863,5.098 10.359,1.934 5.5,0.283 0,0"
             style="fill:#e4e4e4;fill-opacity:1;fill-rule:nonzero;stroke:none"
             id="path178" /></g></g></g><g
       id="g180"><g
         id="g182"><g
           id="g188"><g
             id="g190"><path
               d="M 16.331,52.688 C 15.694,50.759 15.393,48.65 15.527,46.402 l 0,0 c 0.007,-0.146 0.026,-0.295 0.039,-0.444 l 0,0 c 2.823,0.931 5.744,1.742 8.75,2.421 l 0,0 c -0.03,1.811 0.196,3.514 0.744,5.042 l 0,0 c 0.37,1.154 0.902,2.217 1.633,3.159 l 0,0 c 4.261,5.477 14.026,4.042 17.408,3.46 l 0,0 c 0.01,-0.003 0.018,-0.003 0.028,-0.005 l 0,0 c -0.821,1.022 -5.112,3.75 -11.091,4.016 l 0,0 c -0.214,0.009 -0.429,0.014 -0.644,0.014 l 0,0 c -6.789,0 -13.603,-4.478 -16.063,-11.377"
               style="fill:url(#linearGradient192);stroke:none"
               id="path198" /></g></g></g></g><g
       id="g200"><g
         id="g202"><g
           id="g208"><g
             id="g210"><path
               d="m 15.566,45.958 c 0.023,-0.314 0.045,-0.628 0.083,-0.944 l 0,0 C 17.141,32.35 27.495,19.547 42.198,11.764 l 0,0 C 49.523,7.902 57.364,6.031 64.497,6.395 l 0,0 c 5.5,0.284 10.36,1.934 13.863,5.098 l 0,0 C 72.288,7.431 64.643,8.105 57.182,10.76 l 0,0 C 49.14,13.633 41.816,17.92 33.555,27.24 l 0,0 c -4.534,5.126 -8.006,11.982 -8.981,18.233 l 0,0 c -0.157,0.991 -0.241,1.963 -0.258,2.906 l 0,0 C 21.31,47.7 18.389,46.889 15.566,45.958"
               style="fill:url(#linearGradient212);stroke:none"
               id="path218" /></g></g></g></g></g></svg>