<?xml version="1.0" encoding="UTF-8" standalone="no"?>
<!-- Created with Inkscape (http://www.inkscape.org/) -->

<svg
   xmlns:dc="http://purl.org/dc/elements/1.1/"
   xmlns:cc="http://creativecommons.org/ns#"
   xmlns:rdf="http://www.w3.org/1999/02/22-rdf-syntax-ns#"
   xmlns:svg="http://www.w3.org/2000/svg"
   xmlns="http://www.w3.org/2000/svg"
   xmlns:xlink="http://www.w3.org/1999/xlink"
   xmlns:sodipodi="http://sodipodi.sourceforge.net/DTD/sodipodi-0.dtd"
   xmlns:inkscape="http://www.inkscape.org/namespaces/inkscape"
   width="601.03125"
   height="399.85901"
   id="svg2"
   version="1.1"
   inkscape:version="0.47 r22583"
   sodipodi:docname="Easystar.svg"
   style="display:inline">
  <defs
     id="defs4">
    <linearGradient
       id="linearGradient3781">
      <stop
         style="stop-color:#f5f5f5;stop-opacity:1;"
         offset="0"
         id="stop3783" />
      <stop
         id="stop3789"
         offset="0.50000006"
         style="stop-color:#a7a4a4;stop-opacity:1;" />
      <stop
         style="stop-color:#f5f5f5;stop-opacity:1;"
         offset="1"
         id="stop3785" />
    </linearGradient>
    <linearGradient
       inkscape:collect="always"
       id="linearGradient3712">
      <stop
         style="stop-color:#a3a3a3;stop-opacity:1;"
         offset="0"
         id="stop3714" />
      <stop
         style="stop-color:#555252;stop-opacity:1"
         offset="1"
         id="stop3716" />
    </linearGradient>
    <linearGradient
       inkscape:collect="always"
       id="linearGradient3645">
      <stop
         style="stop-color:#000000;stop-opacity:1;"
         offset="0"
         id="stop3647" />
      <stop
         style="stop-color:#000000;stop-opacity:0;"
         offset="1"
         id="stop3649" />
    </linearGradient>
    <inkscape:perspective
       sodipodi:type="inkscape:persp3d"
       inkscape:vp_x="0 : 526.18109 : 1"
       inkscape:vp_y="0 : 1000 : 0"
       inkscape:vp_z="744.09448 : 526.18109 : 1"
       inkscape:persp3d-origin="372.04724 : 350.78739 : 1"
       id="perspective10" />
    <inkscape:perspective
       id="perspective2824"
       inkscape:persp3d-origin="0.5 : 0.33333333 : 1"
       inkscape:vp_z="1 : 0.5 : 1"
       inkscape:vp_y="0 : 1000 : 0"
       inkscape:vp_x="0 : 0.5 : 1"
       sodipodi:type="inkscape:persp3d" />
    <linearGradient
       inkscape:collect="always"
       xlink:href="#linearGradient3645"
       id="linearGradient3651"
       x1="393.65405"
       y1="200.31696"
       x2="429.62698"
       y2="200.31696"
       gradientUnits="userSpaceOnUse" />
    <linearGradient
       inkscape:collect="always"
       xlink:href="#linearGradient3712"
       id="linearGradient3723"
       gradientUnits="userSpaceOnUse"
       x1="274.06821"
       y1="231.1479"
       x2="272.80237"
       y2="343.99475" />
    <inkscape:perspective
       id="perspective3733"
       inkscape:persp3d-origin="0.5 : 0.33333333 : 1"
       inkscape:vp_z="1 : 0.5 : 1"
       inkscape:vp_y="0 : 1000 : 0"
       inkscape:vp_x="0 : 0.5 : 1"
       sodipodi:type="inkscape:persp3d" />
    <linearGradient
       inkscape:collect="always"
       xlink:href="#linearGradient3712"
       id="linearGradient3757"
       x1="411.63715"
       y1="471.72086"
       x2="411.63715"
       y2="570.64941"
       gradientUnits="userSpaceOnUse" />
    <linearGradient
       inkscape:collect="always"
       xlink:href="#linearGradient3781"
       id="linearGradient3787"
       x1="391.45435"
       y1="294.84045"
       x2="431.81836"
       y2="294.84045"
       gradientUnits="userSpaceOnUse" />
    <linearGradient
       inkscape:collect="always"
       xlink:href="#linearGradient3712"
       id="linearGradient3793"
       gradientUnits="userSpaceOnUse"
       x1="274.06821"
       y1="231.1479"
       x2="272.80237"
       y2="343.99475"
       gradientTransform="matrix(-1,0,0,1,822.90625,0)" />
  </defs>
  <sodipodi:namedview
     id="base"
     pagecolor="#ffffff"
     bordercolor="#666666"
     borderopacity="1.0"
     inkscape:pageopacity="0.0"
     inkscape:pageshadow="2"
     inkscape:zoom="0.98994949"
     inkscape:cx="348.15631"
     inkscape:cy="177.3708"
     inkscape:document-units="px"
     inkscape:current-layer="layer2"
     showgrid="false"
     showguides="true"
     inkscape:guide-bbox="true"
     inkscape:window-width="1280"
     inkscape:window-height="949"
     inkscape:window-x="0"
     inkscape:window-y="24"
     inkscape:window-maximized="1">
    <sodipodi:guide
       orientation="1,0"
       position="300.69966,266.39513"
       id="guide2839" />
  </sodipodi:namedview>
  <metadata
     id="metadata7">
    <rdf:RDF>
      <cc:Work
         rdf:about="">
        <dc:format>image/svg+xml</dc:format>
        <dc:type
           rdf:resource="http://purl.org/dc/dcmitype/StillImage" />
        <dc:title></dc:title>
        <dc:creator>
          <cc:Agent>
            <dc:title>(c) Edouard Lafargue</dc:title>
          </cc:Agent>
        </dc:creator>
        <dc:rights>
          <cc:Agent>
            <dc:title>CC-BY-SA</dc:title>
          </cc:Agent>
        </dc:rights>
        <dc:date>13.07.2010</dc:date>
        <cc:license
           rdf:resource="http://creativecommons.org/licenses/by-sa/3.0/" />
      </cc:Work>
      <cc:License
         rdf:about="http://creativecommons.org/licenses/by-sa/3.0/">
        <cc:permits
           rdf:resource="http://creativecommons.org/ns#Reproduction" />
        <cc:permits
           rdf:resource="http://creativecommons.org/ns#Distribution" />
        <cc:requires
           rdf:resource="http://creativecommons.org/ns#Notice" />
        <cc:requires
           rdf:resource="http://creativecommons.org/ns#Attribution" />
        <cc:permits
           rdf:resource="http://creativecommons.org/ns#DerivativeWorks" />
        <cc:requires
           rdf:resource="http://creativecommons.org/ns#ShareAlike" />
      </cc:License>
    </rdf:RDF>
  </metadata>
  <g
     inkscape:groupmode="layer"
     id="layer2"
     inkscape:label="Drawing"
     transform="translate(-110.9375,-116.83717)">
    <path
       style="fill:url(#linearGradient3787);fill-opacity:1;stroke:#000000;stroke-width:1px;stroke-linecap:butt;stroke-linejoin:miter;stroke-opacity:1"
       d="m 410.53125,117.34375 c -22.49559,-0.88852 -19.17369,88.5247 -17.0625,113.5 8.92732,6.13002 4.01095,59.35167 6.03125,89.65625 l 3.5625,151.84375 8.5625,-0.5625 8.59375,0.5625 L 423.75,320.5 c 2.0203,-30.30458 -2.86482,-83.52623 6.0625,-89.65625 2.1447,-25.37173 5.50373,-117.22948 -18.1875,-113.375 -0.37018,-0.0602 -0.73668,-0.1109 -1.09375,-0.125 z"
       id="path2837" />
    <path
       style="fill:url(#linearGradient3651);fill-opacity:1;stroke:#000000;stroke-width:1px;stroke-linecap:butt;stroke-linejoin:miter;stroke-opacity:1"
       d="m 394.21875,203.34375 c -0.85638,18.72175 6.88616,23.23475 17.40625,23.21875 10.52009,0.016 18.29388,-4.497 17.4375,-23.21875 -0.92268,-14.56633 0.33444,-31.34543 -17.4375,-29.0625 -17.15346,-2.43001 -16.78983,17.12439 -17.40625,29.0625 z"
       id="path2868"
       sodipodi:nodetypes="ccccc" />
    <path
       style="fill:url(#linearGradient3723);fill-opacity:1;stroke:#000000;stroke-width:1px;stroke-linecap:butt;stroke-linejoin:miter;stroke-opacity:1"
       d="M 393.40625,231.65625 C 274.58425,240.94988 113.0725,210.12161 111.4375,329.5 c 2.51212,2.56535 10.33597,-4.15152 16.53125,-8.15625 5.6138,-3.62885 13.77013,-4.31906 24.875,-3.96875 l 246.625,3.90625 C 397.46031,291.15464 402.2768,238.39143 393.5625,231.75 l 0,-0.0937 c -0.0413,0.003 -0.0837,-0.003 -0.125,0 -0.0103,8.1e-4 -0.0209,-8.1e-4 -0.0312,0 z"
       id="path2831"
       sodipodi:nodetypes="ccsccccsc" />
    <path
       style="fill:url(#linearGradient3757);fill-opacity:1;stroke:#000000;stroke-width:1px;stroke-linecap:butt;stroke-linejoin:miter;stroke-opacity:1"
       d="m 411.625,471.53125 c -34.79952,6.09565 -103.28275,-15.25037 -115.15625,43.9375 -0.35371,2.85486 10.20479,-3.58376 24.75,-4.03125 37.44094,2.43795 61.9834,2.64814 90.40625,3.53125 28.42285,-0.88311 52.96531,-1.0933 90.40625,-3.53125 14.54521,0.44749 25.10371,6.88611 24.75,4.03125 -11.8735,-59.18787 -80.35673,-37.84185 -115.15625,-43.9375 z"
       id="path2862" />
    <g
       id="g3795">
      <path
         sodipodi:nodetypes="ccc"
         id="path3653"
         d="m 411.63716,310.91022 c -0.35468,-2.92832 -2.5149,-4.0511 -5.55584,-4.29315 -3.64851,1.69909 -1.62701,13.60421 -2.27284,20.70813"
         style="fill:none;stroke:#000000;stroke-width:1px;stroke-linecap:butt;stroke-linejoin:miter;stroke-opacity:1" />
      <path
         transform="matrix(0.92753757,0,0,1,29.242643,0)"
         d="m 420.98106,328.71414 c 0,1.74341 -3.90075,3.15673 -8.71257,3.15673 -4.81181,0 -8.71256,-1.41332 -8.71256,-3.15673 0,-1.74341 3.90075,-3.15672 8.71256,-3.15672 4.81182,0 8.71257,1.41331 8.71257,3.15672 z"
         sodipodi:ry="3.1567266"
         sodipodi:rx="8.7125654"
         sodipodi:cy="328.71414"
         sodipodi:cx="412.26849"
         id="path3655"
         style="fill:none;stroke:#060000;stroke-width:1;stroke-linejoin:round;stroke-miterlimit:4;stroke-opacity:1;stroke-dasharray:none"
         sodipodi:type="arc" />
      <path
         style="fill:none;stroke:#000000;stroke-width:1px;stroke-linecap:butt;stroke-linejoin:miter;stroke-opacity:1"
         d="m 411.80848,310.91022 c 0.35468,-2.92832 2.5149,-4.0511 5.55584,-4.29315 3.64851,1.69909 1.62701,13.60421 2.27284,20.70813"
         id="path3657"
         sodipodi:nodetypes="ccc" />
    </g>
    <g
       id="g3675"
       transform="translate(42.559661,-12.374369)">
      <path
         style="fill:#474545;fill-opacity:1;stroke:#060000;stroke-width:0.07486456;stroke-linejoin:round;stroke-miterlimit:4;stroke-opacity:1;stroke-dasharray:none"
         d="m 369.146,348.51815 c -0.24926,-0.10174 -0.56604,-0.46675 -0.78999,-0.91039 -0.23696,-0.46942 -0.40657,-1.08646 -0.74187,-2.69885 -0.12546,-0.60334 -0.31333,-1.39109 -0.4175,-1.75053 -0.10412,-0.35945 -0.17538,-0.66754 -0.15826,-0.68466 0.0171,-0.0171 0.39726,-0.1136 0.84477,-0.21444 0.44751,-0.10079 0.9653,-0.2376 1.15062,-0.30393 0.32473,-0.11621 0.36012,-0.11372 0.97324,0.0694 0.34996,0.10447 0.83841,0.22836 1.08546,0.27528 0.75114,0.14264 0.716,0.11739 0.60437,0.43418 -0.10103,0.28678 -0.33088,1.25878 -0.7134,3.01707 -0.34956,1.60681 -0.66442,2.30955 -1.19503,2.66713 -0.26636,0.17949 -0.39721,0.19981 -0.64241,0.0998 z"
         id="path3698" />
      <g
         id="g3671"
         style="fill:#474545;fill-opacity:1">
        <path
           sodipodi:type="arc"
           style="fill:#474545;fill-opacity:1;stroke:#060000;stroke-width:1;stroke-linejoin:round;stroke-miterlimit:4;stroke-opacity:1;stroke-dasharray:none"
           id="path3659"
           sodipodi:cx="350.39667"
           sodipodi:cy="341.08853"
           sodipodi:rx="19.319168"
           sodipodi:ry="1.8940361"
           d="m 369.71584,341.08853 c 0,1.04605 -8.64949,1.89404 -19.31917,1.89404 -10.66968,0 -19.31917,-0.84799 -19.31917,-1.89404 0,-1.04605 8.64949,-1.89403 19.31917,-1.89403 10.66968,0 19.31917,0.84798 19.31917,1.89403 z" />
        <path
           d="m 369.71584,341.08853 c 0,1.04605 -8.64949,1.89404 -19.31917,1.89404 -10.66968,0 -19.31917,-0.84799 -19.31917,-1.89404 0,-1.04605 8.64949,-1.89403 19.31917,-1.89403 10.66968,0 19.31917,0.84798 19.31917,1.89403 z"
           sodipodi:ry="1.8940361"
           sodipodi:rx="19.319168"
           sodipodi:cy="341.08853"
           sodipodi:cx="350.39667"
           id="path3661"
           style="fill:#474545;fill-opacity:1;stroke:#060000;stroke-width:1;stroke-linejoin:round;stroke-miterlimit:4;stroke-opacity:1;stroke-dasharray:none"
           sodipodi:type="arc"
           transform="translate(38,0)" />
      </g>
    </g>
    <g
       id="g3800">
      <path
         sodipodi:nodetypes="cc"
         id="path2866"
         d="m 411.63716,442.48258 c -2.23642,-3.36826 0,46.29866 0,69.44799"
         style="fill:none;stroke:#000000;stroke-width:1px;stroke-linecap:butt;stroke-linejoin:miter;stroke-opacity:1" />
      <path
         style="fill:none;stroke:#000000;stroke-width:1px;stroke-linecap:butt;stroke-linejoin:miter;stroke-opacity:1"
         d="m 411.63716,442.48258 c 2.23642,-3.36826 0,46.29866 0,69.44799"
         id="path3696"
         sodipodi:nodetypes="cc" />
    </g>
    <path
       sodipodi:nodetypes="ccsccccsc"
       id="path3791"
       d="m 429.5,231.65625 c 118.822,9.29363 280.33375,-21.53464 281.96875,97.84375 -2.51212,2.56535 -10.33597,-4.15152 -16.53125,-8.15625 -5.6138,-3.62885 -13.77013,-4.31906 -24.875,-3.96875 l -246.625,3.90625 c 2.00844,-30.12661 -2.80805,-82.88982 5.90625,-89.53125 l 0,-0.0937 c 0.0413,0.003 0.0837,-0.003 0.125,0 0.0103,8.1e-4 0.0209,-8.1e-4 0.0312,0 z"
       style="fill:url(#linearGradient3793);fill-opacity:1;stroke:#000000;stroke-width:1px;stroke-linecap:butt;stroke-linejoin:miter;stroke-opacity:1" />
  </g>
</svg>
