<?xml version="1.0" encoding="utf-8"?>
<!-- Generator: Adobe Illustrator 15.0.3, SVG Export Plug-In . SVG Version: 6.00 Build 0)  -->
<!DOCTYPE svg PUBLIC "-//W3C//DTD SVG 1.1//EN" "http://www.w3.org/Graphics/SVG/1.1/DTD/svg11.dtd">
<svg version="1.1" id="Layer_1" xmlns="http://www.w3.org/2000/svg" xmlns:xlink="http://www.w3.org/1999/xlink" x="0px" y="0px"
	 width="1008px" height="792px" viewBox="0 0 1008 792" enable-background="new 0 0 1008 792" xml:space="preserve">
<g id="Layer_1_1_" display="none">
	
		<image display="inline" overflow="visible" enable-background="new    " width="2000" height="1052" xlink:href="ECE5DAD6.png"  transform="matrix(0.4856 0 0 0.4856 18.3838 7)">
	</image>
</g>
<g id="Layer_2">
	<path stroke="#000000" stroke-miterlimit="10" d="M974.03,611.714l-465-234.666l-463,233.999c0,0-20.667,32.666,0,54
		l262.544-46.498l1.373,5.785h7.06l2.536-7.729l7.139-1.266l1.003,4.229h7.06l1.97-6.004l7.685-1.36l0.847,3.567h7.06l1.731-5.274
		l6.705-1.188l1.094,4.611h7.06l2.109-6.429l123.284-21.834c1.546,19.691,5.211,34.813,8.505,45.013
		c-2.879-1.494-10.784-4.102-31.208-4.456c-28.851-0.5-84.887,5.5-84.887,5.5c6.658,1,52.151,5.5,73.791,6.5
		c18.843,0.871,38.101-4.702,42.762-6.157c3.118,9.333,5.781,14.156,5.781,14.156c2.58-4.366,4.771-8.979,6.638-13.693
		c3.183,1.518,11.262,3.921,30.808,4.26c28.853,0.5,84.89-5.5,84.89-5.5c-6.658-1-52.153-5.5-73.791-6.5
		c-17.102-0.79-34.535,3.726-41.103,5.653c5.828-15.604,8.188-32.1,9.107-44.469l122.715,21.643l2.188,6.668h7.06l1.146-4.836
		l6.568,1.157l1.814,5.529h7.06l0.903-3.806l7.54,1.33l2.058,6.271h7.061l1.063-4.476l6.987,1.23l2.629,8.009h7.059l1.437-6.048
		l263.168,46.408C974.03,665.047,994.03,651.047,974.03,611.714z"/>
	<path d="M971.643,169.991c-1.667-4.349-14-4.651-14-4.651l-250.438-6.059c-0.082-1.397-0.177-2.794-0.292-4.191
		c-0.453-5.028-1.041-10.056-2.223-15.083c-1.185,5.028-1.771,10.056-2.225,15.083c-0.11,1.356-0.205,2.713-0.286,4.069
		l-65.543-1.585c-0.021-0.272-0.036-0.544-0.059-0.817c-0.453-5.028-1.041-10.056-2.225-15.083
		c-1.183,5.028-1.771,10.056-2.223,15.083c-0.02,0.235-0.032,0.471-0.051,0.707l-129.107-3.124c0,0-57.396,1.329-131.684,3.062
		c-0.017-0.215-0.028-0.431-0.046-0.646c-0.452-5.028-1.041-10.056-2.223-15.083c-1.182,5.028-1.771,10.056-2.223,15.083
		c-0.021,0.25-0.034,0.501-0.054,0.751c-20.793,0.485-42.818,1-65.221,1.525c-0.079-1.314-0.171-2.629-0.28-3.943
		c-0.452-5.028-1.041-10.056-2.223-15.083c-1.182,5.028-1.771,10.056-2.223,15.083c-0.112,1.354-0.205,2.707-0.286,4.061
		c-120.294,2.82-249.426,5.882-254.438,6.153c-9.459,0.511-10.653,4.687-10.653,4.687c2.114,3.651,10.219,5.016,10.219,5.016
		l255.105,9.615c0.017,0.211,0.028,0.423,0.045,0.635c0.449,5.028,1.042,10.056,2.23,15.083c1.189-5.028,1.782-10.056,2.23-15.083
		c0.013-0.155,0.021-0.31,0.033-0.464l65.539,2.47c0.445,4.915,1.036,9.83,2.197,14.745c1.149-4.86,1.737-9.72,2.181-14.58
		l130.354,4.913c0,0,56.938-2.241,130.593-5.158c0.445,4.942,1.036,9.883,2.205,14.825c1.184-5,1.773-10,2.225-15
		c20.973-0.831,43.213-1.712,65.816-2.611c0.021,0.287,0.038,0.574,0.063,0.86c0.448,5.028,1.041,10.056,2.229,15.083
		c1.188-5.028,1.781-10.056,2.23-15.083c0.028-0.348,0.048-0.695,0.075-1.043c117.162-4.657,242.424-9.682,250.646-10.207
		C973.31,173.007,971.643,169.991,971.643,169.991z"/>
</g>
<g>
	
		<linearGradient id="SVGID_1_" gradientUnits="userSpaceOnUse" x1="692.5527" y1="487.6445" x2="920.1484" y2="487.6445" gradientTransform="matrix(0.9843 0.1764 -0.1764 0.9843 144.3178 8.2142)">
		<stop  offset="0" style="stop-color:#FFFFFF"/>
		<stop  offset="1" style="stop-color:#27AAE1"/>
	</linearGradient>
	<polygon fill="url(#SVGID_1_)" stroke="#010101" stroke-linecap="round" stroke-linejoin="round" points="962.162,660.769 
		738.14,620.621 741.814,600.116 965.837,640.264 	"/>
	<g>
		<path id="_x31_63_2_" fill="none" stroke="#010101" stroke-width="0.6388" stroke-linecap="round" stroke-linejoin="round" d="
			M965.118,639.741l-3.744,20.887"/>
		<path id="_x31_64_2_" fill="none" stroke="#010101" stroke-width="0.2981" stroke-linecap="round" stroke-linejoin="round" d="
			M960.618,638.935l-3.743,20.889"/>
		<path id="_x31_65_2_" fill="none" stroke="#010101" stroke-width="0.2981" stroke-linecap="round" stroke-linejoin="round" d="
			M956.146,638.134l-3.744,20.886"/>
		<path id="_x31_66_2_" fill="none" stroke="#010101" stroke-width="0.2981" stroke-linecap="round" stroke-linejoin="round" d="
			M951.646,637.327l-3.743,20.886"/>
		<path id="_x31_67_2_" fill="none" stroke="#010101" stroke-width="0.2981" stroke-linecap="round" stroke-linejoin="round" d="
			M947.173,636.525l-3.743,20.886"/>
		<path id="_x31_68_2_" fill="none" stroke="#010101" stroke-width="0.2981" stroke-linecap="round" stroke-linejoin="round" d="
			M942.7,635.725l-3.742,20.888"/>
		<path id="_x31_69_2_" fill="none" stroke="#010101" stroke-width="0.2981" stroke-linecap="round" stroke-linejoin="round" d="
			M938.202,634.917l-3.744,20.887"/>
		<path id="_x31_70_2_" fill="none" stroke="#010101" stroke-width="0.2981" stroke-linecap="round" stroke-linejoin="round" d="
			M933.729,634.116l-3.741,20.886"/>
		<path id="_x31_71_2_" fill="none" stroke="#010101" stroke-width="0.2981" stroke-linecap="round" stroke-linejoin="round" d="
			M929.229,633.311l-3.742,20.888"/>
		<path id="_x31_72_2_" fill="none" stroke="#010101" stroke-width="0.2981" stroke-linecap="round" stroke-linejoin="round" d="
			M924.758,632.508l-3.743,20.887"/>
		<path id="_x31_73_2_" fill="none" stroke="#010101" stroke-width="0.2981" stroke-linecap="round" stroke-linejoin="round" d="
			M920.285,631.707l-3.743,20.886"/>
		<path id="_x31_74_2_" fill="none" stroke="#010101" stroke-width="0.2981" stroke-linecap="round" stroke-linejoin="round" d="
			M915.785,630.901l-3.743,20.886"/>
		<path id="_x31_75_2_" fill="none" stroke="#010101" stroke-width="0.2981" stroke-linecap="round" stroke-linejoin="round" d="
			M911.313,630.099l-3.741,20.888"/>
		<path id="_x31_76_2_" fill="none" stroke="#010101" stroke-width="0.2981" stroke-linecap="round" stroke-linejoin="round" d="
			M906.814,629.293l-3.743,20.886"/>
		<path id="_x31_77_2_" fill="none" stroke="#010101" stroke-width="0.2981" stroke-linecap="round" stroke-linejoin="round" d="
			M902.342,628.492l-3.743,20.885"/>
		<path id="_x31_78_2_" fill="none" stroke="#010101" stroke-width="0.2981" stroke-linecap="round" stroke-linejoin="round" d="
			M897.869,627.689l-3.743,20.886"/>
		<path id="_x31_79_2_" fill="none" stroke="#010101" stroke-width="0.2981" stroke-linecap="round" stroke-linejoin="round" d="
			M893.369,626.884l-3.743,20.886"/>
		<path id="_x31_80_2_" fill="none" stroke="#010101" stroke-width="0.2981" stroke-linecap="round" stroke-linejoin="round" d="
			M888.896,626.082l-3.741,20.886"/>
		<path id="_x31_81_2_" fill="none" stroke="#010101" stroke-width="0.2981" stroke-linecap="round" stroke-linejoin="round" d="
			M884.396,625.275l-3.742,20.886"/>
		<path id="_x31_82_2_" fill="none" stroke="#010101" stroke-width="0.2981" stroke-linecap="round" stroke-linejoin="round" d="
			M879.927,624.475l-3.743,20.888"/>
		<path id="_x31_83_2_" fill="none" stroke="#010101" stroke-width="0.2981" stroke-linecap="round" stroke-linejoin="round" d="
			M875.453,623.672l-3.743,20.886"/>
		<path id="_x31_86_2_" fill="none" stroke="#010101" stroke-width="0.2981" stroke-linecap="round" stroke-linejoin="round" d="
			M866.34,622.855l-3.602,20.096"/>
		<path id="_x31_87_2_" fill="none" stroke="#010101" stroke-width="0.2981" stroke-linecap="round" stroke-linejoin="round" d="
			M861.84,622.048l-3.601,20.096"/>
		<path id="_x31_88_2_" fill="none" stroke="#010101" stroke-width="0.2981" stroke-linecap="round" stroke-linejoin="round" d="
			M857.368,621.247l-3.603,20.096"/>
		<path id="_x31_89_2_" fill="none" stroke="#010101" stroke-width="0.2981" stroke-linecap="round" stroke-linejoin="round" d="
			M852.867,620.44l-3.603,20.096"/>
		<path id="_x31_90_2_" fill="none" stroke="#010101" stroke-width="0.2981" stroke-linecap="round" stroke-linejoin="round" d="
			M848.396,619.639l-3.604,20.098"/>
		<path id="_x31_91_2_" fill="none" stroke="#010101" stroke-width="0.2981" stroke-linecap="round" stroke-linejoin="round" d="
			M843.925,618.838l-3.602,20.096"/>
		<path id="_x31_92_2_" fill="none" stroke="#010101" stroke-width="0.2981" stroke-linecap="round" stroke-linejoin="round" d="
			M839.424,618.031l-3.602,20.096"/>
		<path id="_x31_93_2_" fill="none" stroke="#010101" stroke-width="0.2981" stroke-linecap="round" stroke-linejoin="round" d="
			M834.952,617.229l-3.604,20.098"/>
		<path id="_x31_94_2_" fill="none" stroke="#010101" stroke-width="0.2981" stroke-linecap="round" stroke-linejoin="round" d="
			M830.452,616.424l-3.603,20.096"/>
		<path id="_x31_95_2_" fill="none" stroke="#010101" stroke-width="0.2981" stroke-linecap="round" stroke-linejoin="round" d="
			M825.979,615.621l-3.601,20.096"/>
		<path id="_x31_96_2_" fill="none" stroke="#010101" stroke-width="0.2981" stroke-linecap="round" stroke-linejoin="round" d="
			M821.509,614.82l-3.602,20.096"/>
		<path id="_x31_97_2_" fill="none" stroke="#010101" stroke-width="0.2981" stroke-linecap="round" stroke-linejoin="round" d="
			M817.009,614.015l-3.602,20.098"/>
		<path id="_x31_98_2_" fill="none" stroke="#010101" stroke-width="0.2981" stroke-linecap="round" stroke-linejoin="round" d="
			M812.536,613.213l-3.604,20.095"/>
		<path id="_x31_99_2_" fill="none" stroke="#010101" stroke-width="0.2981" stroke-linecap="round" stroke-linejoin="round" d="
			M808.036,612.406l-3.603,20.096"/>
		<path id="_x32_00_2_" fill="none" stroke="#010101" stroke-width="0.2981" stroke-linecap="round" stroke-linejoin="round" d="
			M803.564,611.604l-3.603,20.099"/>
		<path id="_x32_01_2_" fill="none" stroke="#010101" stroke-width="0.2981" stroke-linecap="round" stroke-linejoin="round" d="
			M799.092,610.803l-3.601,20.098"/>
		<path id="_x32_02_2_" fill="none" stroke="#010101" stroke-width="0.2981" stroke-linecap="round" stroke-linejoin="round" d="
			M794.593,609.997l-3.602,20.096"/>
		<path id="_x32_03_2_" fill="none" stroke="#010101" stroke-width="0.2981" stroke-linecap="round" stroke-linejoin="round" d="
			M790.12,609.195l-3.604,20.096"/>
		<path id="_x32_04_2_" fill="none" stroke="#010101" stroke-width="0.2981" stroke-linecap="round" stroke-linejoin="round" d="
			M785.621,608.389l-3.604,20.098"/>
		<path id="_x32_05_2_" fill="none" stroke="#010101" stroke-width="0.2981" stroke-linecap="round" stroke-linejoin="round" d="
			M781.148,607.588l-3.603,20.096"/>
		<path id="_x32_06_2_" fill="none" stroke="#010101" stroke-width="0.2981" stroke-linecap="round" stroke-linejoin="round" d="
			M776.677,606.786l-3.602,20.095"/>
		<path id="_x32_07_2_" fill="none" stroke="#010101" stroke-width="0.2981" stroke-linecap="round" stroke-linejoin="round" d="
			M772.176,605.979l-3.601,20.098"/>
		<path id="_x32_08_2_" fill="none" stroke="#010101" stroke-width="0.2981" stroke-linecap="round" stroke-linejoin="round" d="
			M767.705,605.178l-3.604,20.099"/>
		<path id="_x32_09_2_" fill="none" stroke="#010101" stroke-width="0.2981" stroke-linecap="round" stroke-linejoin="round" d="
			M763.205,604.371l-3.602,20.096"/>
		<path id="_x32_10_2_" fill="none" stroke="#010101" stroke-width="0.2981" stroke-linecap="round" stroke-linejoin="round" d="
			M758.733,603.57l-3.604,20.096"/>
		<path id="_x32_11_2_" fill="none" stroke="#010101" stroke-width="0.2981" stroke-linecap="round" stroke-linejoin="round" d="
			M754.26,602.769l-3.601,20.099"/>
		<path id="_x32_12_2_" fill="none" stroke="#010101" stroke-width="0.2981" stroke-linecap="round" stroke-linejoin="round" d="
			M749.761,601.962l-3.602,20.096"/>
		<path id="_x32_13_2_" fill="none" stroke="#010101" stroke-width="0.2981" stroke-linecap="round" stroke-linejoin="round" d="
			M745.287,601.161l-3.603,20.096"/>
		<path id="path8516_2_" fill="none" stroke="#010101" stroke-width="0.6952" stroke-linecap="round" stroke-linejoin="round" d="
			M872.354,618.974l-4.462,24.9"/>
	</g>
</g>
<linearGradient id="SVGID_2_" gradientUnits="userSpaceOnUse" x1="694.7197" y1="382.293" x2="922.3115" y2="382.293" gradientTransform="matrix(-0.9829 0.1842 0.1842 0.9829 891.2466 105.4769)">
	<stop  offset="0" style="stop-color:#FFFFFF"/>
	<stop  offset="1" style="stop-color:#27AAE1"/>
</linearGradient>
<polygon fill="url(#SVGID_2_)" stroke="#010101" stroke-linecap="round" stroke-linejoin="round" points="57.043,661.355 
	280.743,619.442 276.907,598.968 53.208,640.88 "/>
<g>
	<path id="_x31_63_1_" fill="none" stroke="#010101" stroke-width="0.6388" stroke-linecap="round" stroke-linejoin="round" d="
		M57.831,661.207l-3.908-20.855"/>
	<path id="_x31_64_1_" fill="none" stroke="#010101" stroke-width="0.2981" stroke-linecap="round" stroke-linejoin="round" d="
		M62.324,660.365l-3.907-20.855"/>
	<path id="_x31_65_1_" fill="none" stroke="#010101" stroke-width="0.2981" stroke-linecap="round" stroke-linejoin="round" d="
		M66.791,659.528l-3.908-20.855"/>
	<path id="_x31_66_1_" fill="none" stroke="#010101" stroke-width="0.2981" stroke-linecap="round" stroke-linejoin="round" d="
		M71.282,658.688l-3.907-20.854"/>
	<path id="_x31_67_1_" fill="none" stroke="#010101" stroke-width="0.2981" stroke-linecap="round" stroke-linejoin="round" d="
		M75.749,657.85l-3.908-20.854"/>
	<path id="_x31_68_1_" fill="none" stroke="#010101" stroke-width="0.2981" stroke-linecap="round" stroke-linejoin="round" d="
		M80.215,657.014l-3.908-20.854"/>
	<path id="_x31_69_1_" fill="none" stroke="#010101" stroke-width="0.2981" stroke-linecap="round" stroke-linejoin="round" d="
		M84.708,656.172L80.8,635.316"/>
	<path id="_x31_70_1_" fill="none" stroke="#010101" stroke-width="0.2981" stroke-linecap="round" stroke-linejoin="round" d="
		M89.173,655.336l-3.907-20.857"/>
	<path id="_x31_71_1_" fill="none" stroke="#010101" stroke-width="0.2981" stroke-linecap="round" stroke-linejoin="round" d="
		M93.667,654.492l-3.908-20.854"/>
	<path id="_x31_72_1_" fill="none" stroke="#010101" stroke-width="0.2981" stroke-linecap="round" stroke-linejoin="round" d="
		M98.131,653.657l-3.907-20.856"/>
	<path id="_x31_73_1_" fill="none" stroke="#010101" stroke-width="0.2981" stroke-linecap="round" stroke-linejoin="round" d="
		M102.598,652.82l-3.908-20.856"/>
	<path id="_x31_74_1_" fill="none" stroke="#010101" stroke-width="0.2981" stroke-linecap="round" stroke-linejoin="round" d="
		M107.091,651.979l-3.908-20.854"/>
	<path id="_x31_75_1_" fill="none" stroke="#010101" stroke-width="0.2981" stroke-linecap="round" stroke-linejoin="round" d="
		M111.557,651.142l-3.907-20.854"/>
	<path id="_x31_76_1_" fill="none" stroke="#010101" stroke-width="0.2981" stroke-linecap="round" stroke-linejoin="round" d="
		M116.049,650.299l-3.907-20.854"/>
	<path id="_x31_77_1_" fill="none" stroke="#010101" stroke-width="0.2981" stroke-linecap="round" stroke-linejoin="round" d="
		M120.516,649.463l-3.908-20.854"/>
	<path id="_x31_78_1_" fill="none" stroke="#010101" stroke-width="0.2981" stroke-linecap="round" stroke-linejoin="round" d="
		M124.981,648.626l-3.907-20.854"/>
	<path id="_x31_79_1_" fill="none" stroke="#010101" stroke-width="0.2981" stroke-linecap="round" stroke-linejoin="round" d="
		M129.475,647.785l-3.908-20.857"/>
	<path id="_x31_80_1_" fill="none" stroke="#010101" stroke-width="0.2981" stroke-linecap="round" stroke-linejoin="round" d="
		M133.94,646.948l-3.907-20.856"/>
	<path id="_x31_81_1_" fill="none" stroke="#010101" stroke-width="0.2981" stroke-linecap="round" stroke-linejoin="round" d="
		M138.434,646.105l-3.908-20.855"/>
	<path id="_x31_82_1_" fill="none" stroke="#010101" stroke-width="0.2981" stroke-linecap="round" stroke-linejoin="round" d="
		M142.898,645.269l-3.907-20.854"/>
	<path id="_x31_83_1_" fill="none" stroke="#010101" stroke-width="0.2981" stroke-linecap="round" stroke-linejoin="round" d="
		M147.366,644.433l-3.908-20.854"/>
	<path id="_x31_86_1_" fill="none" stroke="#010101" stroke-width="0.2981" stroke-linecap="round" stroke-linejoin="round" d="
		M156.324,642.754l-3.759-20.064"/>
	<path id="_x31_87_1_" fill="none" stroke="#010101" stroke-width="0.2981" stroke-linecap="round" stroke-linejoin="round" d="
		M160.817,641.912l-3.76-20.068"/>
	<path id="_x31_88_1_" fill="none" stroke="#010101" stroke-width="0.2981" stroke-linecap="round" stroke-linejoin="round" d="
		M165.282,641.076l-3.76-20.067"/>
	<path id="_x31_89_1_" fill="none" stroke="#010101" stroke-width="0.2981" stroke-linecap="round" stroke-linejoin="round" d="
		M169.776,640.232l-3.759-20.066"/>
	<path id="_x31_90_1_" fill="none" stroke="#010101" stroke-width="0.2981" stroke-linecap="round" stroke-linejoin="round" d="
		M174.242,639.396l-3.76-20.066"/>
	<path id="_x31_91_1_" fill="none" stroke="#010101" stroke-width="0.2981" stroke-linecap="round" stroke-linejoin="round" d="
		M178.707,638.56l-3.76-20.064"/>
	<path id="_x31_92_1_" fill="none" stroke="#010101" stroke-width="0.2981" stroke-linecap="round" stroke-linejoin="round" d="
		M183.201,637.718l-3.76-20.064"/>
	<path id="_x31_93_1_" fill="none" stroke="#010101" stroke-width="0.2981" stroke-linecap="round" stroke-linejoin="round" d="
		M187.666,636.882l-3.76-20.065"/>
	<path id="_x31_94_1_" fill="none" stroke="#010101" stroke-width="0.2981" stroke-linecap="round" stroke-linejoin="round" d="
		M192.159,636.039l-3.76-20.065"/>
	<path id="_x31_95_1_" fill="none" stroke="#010101" stroke-width="0.2981" stroke-linecap="round" stroke-linejoin="round" d="
		M196.625,635.203l-3.76-20.066"/>
	<path id="_x31_96_1_" fill="none" stroke="#010101" stroke-width="0.2981" stroke-linecap="round" stroke-linejoin="round" d="
		M201.091,634.366l-3.76-20.067"/>
	<path id="_x31_97_1_" fill="none" stroke="#010101" stroke-width="0.2981" stroke-linecap="round" stroke-linejoin="round" d="
		M205.583,633.524l-3.76-20.067"/>
	<path id="_x31_98_1_" fill="none" stroke="#010101" stroke-width="0.2981" stroke-linecap="round" stroke-linejoin="round" d="
		M210.05,632.688l-3.76-20.065"/>
	<path id="_x31_99_1_" fill="none" stroke="#010101" stroke-width="0.2981" stroke-linecap="round" stroke-linejoin="round" d="
		M214.543,631.846l-3.76-20.064"/>
	<path id="_x32_00_1_" fill="none" stroke="#010101" stroke-width="0.2981" stroke-linecap="round" stroke-linejoin="round" d="
		M219.009,631.009l-3.76-20.065"/>
	<path id="_x32_01_1_" fill="none" stroke="#010101" stroke-width="0.2981" stroke-linecap="round" stroke-linejoin="round" d="
		M223.475,630.172l-3.76-20.064"/>
	<path id="_x32_02_1_" fill="none" stroke="#010101" stroke-width="0.2981" stroke-linecap="round" stroke-linejoin="round" d="
		M227.968,629.33l-3.759-20.066"/>
	<path id="_x32_03_1_" fill="none" stroke="#010101" stroke-width="0.2981" stroke-linecap="round" stroke-linejoin="round" d="
		M232.434,628.494l-3.76-20.066"/>
	<path id="_x32_04_1_" fill="none" stroke="#010101" stroke-width="0.2981" stroke-linecap="round" stroke-linejoin="round" d="
		M236.926,627.652l-3.76-20.068"/>
	<path id="_x32_05_1_" fill="none" stroke="#010101" stroke-width="0.2981" stroke-linecap="round" stroke-linejoin="round" d="
		M241.392,626.815l-3.759-20.067"/>
	<path id="_x32_06_1_" fill="none" stroke="#010101" stroke-width="0.2981" stroke-linecap="round" stroke-linejoin="round" d="
		M245.858,625.979l-3.76-20.066"/>
	<path id="_x32_07_1_" fill="none" stroke="#010101" stroke-width="0.2981" stroke-linecap="round" stroke-linejoin="round" d="
		M250.352,625.136l-3.76-20.063"/>
	<path id="_x32_08_1_" fill="none" stroke="#010101" stroke-width="0.2981" stroke-linecap="round" stroke-linejoin="round" d="
		M254.817,624.3l-3.759-20.065"/>
	<path id="_x32_09_1_" fill="none" stroke="#010101" stroke-width="0.2981" stroke-linecap="round" stroke-linejoin="round" d="
		M259.31,623.458l-3.76-20.066"/>
	<path id="_x32_10_1_" fill="none" stroke="#010101" stroke-width="0.2981" stroke-linecap="round" stroke-linejoin="round" d="
		M263.775,622.622l-3.76-20.067"/>
	<path id="_x32_11_1_" fill="none" stroke="#010101" stroke-width="0.2981" stroke-linecap="round" stroke-linejoin="round" d="
		M268.241,621.784l-3.759-20.066"/>
	<path id="_x32_12_1_" fill="none" stroke="#010101" stroke-width="0.2981" stroke-linecap="round" stroke-linejoin="round" d="
		M272.735,620.943l-3.76-20.067"/>
	<path id="_x32_13_1_" fill="none" stroke="#010101" stroke-width="0.2981" stroke-linecap="round" stroke-linejoin="round" d="
		M277.201,620.106l-3.76-20.068"/>
	<path id="path8516_1_" fill="none" stroke="#010101" stroke-width="0.6952" stroke-linecap="round" stroke-linejoin="round" d="
		M151.177,643.718l-4.659-24.864"/>
</g>
<linearGradient id="SVGID_3_" gradientUnits="userSpaceOnUse" x1="868.8613" y1="351.0532" x2="1085.2949" y2="351.0532" gradientTransform="matrix(0.9848 0.174 -0.174 0.9848 -44.6099 115.8461)">
	<stop  offset="0" style="stop-color:#FFFFFF;stop-opacity:0"/>
	<stop  offset="1" style="stop-color:#27AAE1"/>
</linearGradient>
<polygon fill="url(#SVGID_3_)" points="964.826,640.645 751.684,602.999 748.239,622.506 961.383,660.153 "/>
<g>
	<g>
		<path fill="#58595B" d="M899.012,589.359l-0.68-0.11c0.067,0.317,0.085,0.661,0.027,1.018c-0.199,1.229-1.137,2.098-2.088,1.94
			c-0.953-0.154-1.565-1.274-1.367-2.501c0.059-0.356,0.184-0.677,0.349-0.957l-2.433-0.395c0.065,0.316,0.085,0.659,0.025,1.018
			c-0.197,1.227-1.135,2.096-2.088,1.94c-0.953-0.154-1.564-1.274-1.367-2.501c0.061-0.356,0.186-0.679,0.351-0.956l-1.011-0.164
			c-0.547-0.089-1.061,0.28-1.146,0.826l-0.574,3.535c-0.089,0.547,0.281,1.061,0.826,1.147l10.282,1.668
			c0.545,0.089,1.059-0.281,1.146-0.826l0.573-3.537C899.928,589.962,899.558,589.448,899.012,589.359z"/>
		<path fill="#58595B" d="M882.947,623.331l0.68,0.11c-0.066-0.317-0.084-0.66-0.026-1.02c0.199-1.226,1.136-2.095,2.09-1.938
			c0.951,0.153,1.563,1.273,1.365,2.502c-0.058,0.354-0.184,0.676-0.349,0.956l2.433,0.395c-0.065-0.317-0.085-0.66-0.025-1.018
			c0.198-1.228,1.134-2.097,2.088-1.94c0.953,0.155,1.564,1.275,1.367,2.502c-0.06,0.356-0.185,0.676-0.351,0.956L893.23,625
			c0.546,0.088,1.059-0.282,1.146-0.827l0.574-3.538c0.088-0.544-0.282-1.059-0.827-1.146l-10.281-1.669
			c-0.546-0.091-1.06,0.28-1.146,0.825l-0.574,3.537C882.031,622.729,882.401,623.243,882.947,623.331z"/>
		
			<rect x="884.43" y="593.153" transform="matrix(0.9871 0.1602 -0.1602 0.9871 108.5889 -134.8914)" fill="#939598" width="13.249" height="26.002"/>
	</g>
	<g>
		
			<rect x="883.59" y="608.529" transform="matrix(0.9871 0.1602 -0.1602 0.9871 109.8054 -134.6316)" fill="#808285" width="12.416" height="10.189"/>
		
			<rect x="884.122" y="610.198" transform="matrix(0.9871 0.1602 -0.1602 0.9871 109.84 -134.6078)" fill="#1C75BC" width="11.333" height="7.5"/>
	</g>
	<g>
		<g>
			<path fill="#6D6E71" d="M893.271,595.604c-0.547-0.088-1.082-0.061-1.592,0.057l-12.588,0.431
				c-1.408-0.229-2.732,0.729-2.963,2.138c-0.229,1.407,0.729,2.735,2.136,2.966l13.67,2.64c2.271,0.368,4.412-1.174,4.781-3.445
				C897.086,598.112,895.543,595.973,893.271,595.604z"/>
			<g>
				<circle cx="892.468" cy="599.695" r="2.75"/>
				<polygon fill="#FFFFFF" points="893.782,601.18 892.745,599.74 894.184,598.704 893.951,598.381 892.513,599.418 
					891.476,597.979 891.152,598.212 892.189,599.65 890.751,600.688 890.983,601.01 892.423,599.973 893.459,601.412 				"/>
			</g>
		</g>
		<g>
			<g>
				
					<rect x="875.809" y="598.142" transform="matrix(0.987 0.1605 -0.1605 0.987 110.3109 -132.6351)" fill="#BCBEC0" width="0.328" height="36.408"/>
			</g>
			
				<line fill="none" stroke="#414042" stroke-width="1.0187" stroke-miterlimit="10" x1="879.466" y1="598.473" x2="873.635" y2="634.406"/>
			
				<rect x="870.357" y="630.017" transform="matrix(0.9871 0.1599 -0.1599 0.9871 112.5479 -131.1912)" fill="#414042" width="2.584" height="7.783"/>
		</g>
	</g>
</g>
<linearGradient id="SVGID_4_" gradientUnits="userSpaceOnUse" x1="693.7373" y1="382.4771" x2="921.3281" y2="382.4771" gradientTransform="matrix(-0.9829 0.1842 0.1842 0.9829 891.2466 105.4769)">
	<stop  offset="0" style="stop-color:#FFFFFF;stop-opacity:0"/>
	<stop  offset="1" style="stop-color:#27AAE1"/>
</linearGradient>
<polygon fill="url(#SVGID_4_)" points="58.043,661.355 281.743,619.442 277.907,598.968 54.208,640.88 "/>
<g>
	<g>
		<path fill="#58595B" d="M120.524,589.811l0.681-0.104c-0.071,0.317-0.091,0.66-0.036,1.018c0.188,1.229,1.117,2.104,2.071,1.958
			c0.954-0.146,1.577-1.262,1.388-2.487c-0.055-0.357-0.177-0.681-0.34-0.96l2.437-0.374c-0.071,0.315-0.091,0.658-0.037,1.018
			c0.188,1.229,1.117,2.104,2.071,1.958c0.954-0.146,1.577-1.262,1.388-2.489c-0.055-0.355-0.177-0.679-0.34-0.96l1.011-0.155
			c0.546-0.084,1.057,0.29,1.141,0.838l0.544,3.543c0.084,0.545-0.291,1.057-0.836,1.141l-10.295,1.581
			c-0.546,0.084-1.057-0.291-1.14-0.837l-0.544-3.542C119.604,590.404,119.978,589.895,120.524,589.811z"/>
		<path fill="#58595B" d="M136.301,623.917l-0.682,0.104c0.07-0.316,0.09-0.659,0.036-1.019c-0.188-1.228-1.116-2.104-2.071-1.958
			c-0.955,0.146-1.577,1.262-1.388,2.489c0.055,0.355,0.177,0.679,0.34,0.96l-2.435,0.374c0.07-0.317,0.09-0.66,0.035-1.02
			c-0.188-1.228-1.116-2.104-2.071-1.958c-0.955,0.146-1.577,1.264-1.388,2.489c0.055,0.357,0.177,0.679,0.34,0.96l-1.011,0.155
			c-0.546,0.084-1.056-0.292-1.14-0.837l-0.544-3.542c-0.084-0.546,0.29-1.056,0.836-1.14l10.295-1.581
			c0.546-0.084,1.056,0.29,1.14,0.836l0.544,3.542C137.222,623.322,136.848,623.833,136.301,623.917z"/>
		
			<rect x="121.806" y="593.715" transform="matrix(-0.9884 0.1518 -0.1518 -0.9884 347.4488 1186.9131)" fill="#939598" width="13.25" height="26.001"/>
	</g>
	<g>
		
			<rect x="123.324" y="609.059" transform="matrix(-0.9884 0.1518 -0.1518 -0.9884 350.7923 1201.5267)" fill="#808285" width="12.416" height="10.189"/>
		
			<rect x="123.874" y="610.728" transform="matrix(-0.9884 0.1518 -0.1518 -0.9884 350.8815 1202.1611)" fill="#1C75BC" width="11.332" height="7.5"/>
	</g>
	<g>
		<g>
			<path fill="#6D6E71" d="M126.211,596.104c0.546-0.084,1.083-0.053,1.589,0.067l12.584,0.539c1.41-0.217,2.729,0.75,2.945,2.16
				c0.216,1.41-0.75,2.729-2.161,2.945l-13.692,2.523c-2.274,0.352-4.402-1.212-4.751-3.486
				C122.376,598.58,123.938,596.452,126.211,596.104z"/>
			<g>
				<circle cx="126.98" cy="600.201" r="2.75"/>
				<polygon fill="#FFFFFF" points="125.654,601.673 126.703,600.243 125.273,599.194 125.509,598.874 126.938,599.923 
					127.987,598.493 128.308,598.729 127.259,600.158 128.689,601.207 128.454,601.528 127.024,600.479 125.975,601.908 				"/>
			</g>
		</g>
		<g>
			<g>
				
					<rect x="143.169" y="598.79" transform="matrix(-0.9884 0.1518 -0.1518 -0.9884 378.6852 1205.0662)" fill="#BCBEC0" width="0.328" height="36.403"/>
			</g>
			
				<line fill="none" stroke="#414042" stroke-width="1.0187" stroke-miterlimit="10" x1="139.993" y1="599.089" x2="145.52" y2="635.072"/>
			
				<rect x="146.201" y="630.704" transform="matrix(-0.9884 0.1519 -0.1519 -0.9884 389.6966 1239.4126)" fill="#414042" width="2.584" height="7.784"/>
		</g>
	</g>
</g>
<g>
	<g id="g2591_1_" transform="matrix(1.0223231,0,0,1.0223231,154.67431,-51.033292)">
		<path id="path2603_1_" fill="#FFFFFF" d="M350.382,473.994c-1.389-0.025-2.601,0.562-3.125,2.237l-4.802,16.212l7.722,4.226
			l3.33-12.642c0.946-1.46,2.325-0.898,3.777-0.017l11.449,7.539c0.992,0.843,1.67,1.974,1.605,3.785l-0.707,10.026
			c-0.145,1.374-0.974,2.23-1.628,2.115l-18.086-9.826l-3.199,12.132l1.674,0.604l2.729,0.99l18.065,6.54
			c2.696,0.986,5.107-1.998,5.197-6.442l0.074-15.973c-0.052-3.921-1.956-6.072-3.859-7.608L355.499,476.1
			C354.241,475.07,352.168,474.027,350.382,473.994z M335.343,489.526l-3.792,14.76l2.509,0.739v-0.006l13.568,5.086l3.977-11.537
			L335.343,489.526z M337.303,509.846l-3.311,11.193l8.527,4.694l3.446-13.083L337.303,509.846z"/>
		<path id="path2605_1_" fill="#FFFFFF" d="M331.937,493.905l-1.568-0.886l1.376-5.076l-3.479-1.901l-7.676,3.259l-10.587-2.801
			l9.414,6.377l3.682,8.817l4.77,1.563l1.499-5.638l1.481,0.235L331.937,493.905z"/>
	</g>
	<path id="path2613_1_" fill="#FFFFFF" d="M522.56,492.3v1.32h1.344v-1.32H522.56z M524.837,492.3v6.025v0.008
		c0,0.346,0.064,0.668,0.191,0.967c0.125,0.299,0.301,0.563,0.527,0.781c0.229,0.229,0.49,0.406,0.789,0.539
		c0.299,0.125,0.615,0.188,0.955,0.188h0.273v-1.262l-0.248-0.01c-0.314-0.023-0.588-0.15-0.816-0.379
		c-0.102-0.109-0.184-0.234-0.248-0.375c-0.055-0.143-0.078-0.295-0.078-0.459V492.3H524.837z M537.931,492.97v1.502h-0.602v1.271
		h0.602v2.604c0,0.348,0.063,0.668,0.189,0.969c0.133,0.291,0.309,0.549,0.529,0.775c0.229,0.229,0.49,0.404,0.791,0.529
		c0.299,0.125,0.62,0.188,0.967,0.188h0.967v-1.271h-0.955c-0.33-0.023-0.6-0.15-0.811-0.379c-0.104-0.109-0.189-0.234-0.252-0.375
		c-0.057-0.143-0.08-0.293-0.08-0.451v-2.59h2.098v-0.271v-1.002h-2.098v-1.502L537.931,492.97L537.931,492.97z M506.723,494.728
		c-0.346,0-0.668,0.068-0.967,0.203c-0.291,0.125-0.549,0.303-0.778,0.529c-0.228,0.229-0.406,0.492-0.531,0.791
		c-0.127,0.289-0.188,0.607-0.188,0.953v3.604h1.342v-3.592c0-0.338,0.117-0.625,0.354-0.859c0.109-0.109,0.236-0.197,0.379-0.264
		c0.148-0.062,0.303-0.092,0.467-0.092h3.113c0.164,0,0.322,0.029,0.463,0.092c0.15,0.064,0.279,0.152,0.389,0.264
		c0.235,0.234,0.354,0.521,0.354,0.859v3.592h0.385h0.957h0.937v2.43h1.349v-2.43h1.129h2.781h0.494
		c0.338,0,0.658-0.063,0.959-0.188c0.297-0.125,0.557-0.301,0.783-0.529c0.229-0.228,0.408-0.484,0.533-0.775
		c0.127-0.301,0.188-0.621,0.188-0.969v-1.129c0-0.346-0.061-0.67-0.188-0.967c-0.125-0.299-0.305-0.562-0.533-0.791
		c-0.228-0.229-0.486-0.404-0.783-0.529c-0.301-0.127-0.621-0.188-0.959-0.188h-3.275c-0.346,0-0.668,0.062-0.967,0.188
		c-0.291,0.125-0.549,0.303-0.777,0.529c-0.227,0.229-0.408,0.492-0.543,0.791c-0.125,0.297-0.188,0.621-0.188,0.967v2.32h-0.938
		v-2.32v-0.014c0-0.346-0.063-0.664-0.188-0.953c-0.125-0.299-0.305-0.562-0.529-0.791c-0.229-0.229-0.492-0.404-0.791-0.529
		c-0.29-0.135-0.606-0.202-0.952-0.202L506.723,494.728L506.723,494.728z M522.56,494.728v6.082h1.344v-6.082H522.56z
		 M479.244,494.741c-0.346,0-0.668,0.062-0.967,0.188c-0.301,0.125-0.559,0.303-0.777,0.529c-0.229,0.229-0.409,0.492-0.543,0.791
		c-0.125,0.297-0.188,0.621-0.188,0.967v1.129c0,0.348,0.063,0.668,0.188,0.967c0.134,0.291,0.313,0.551,0.543,0.777
		c0.221,0.229,0.479,0.404,0.777,0.529c0.298,0.125,0.621,0.188,0.967,0.188h2.454h0.812h3.422v2.43h1.348v-2.43h1.131h0.439h2.834
		c0.34,0,0.658-0.063,0.957-0.188c0.301-0.125,0.563-0.301,0.791-0.529c0.229-0.228,0.403-0.486,0.529-0.777
		c0.125-0.299,0.189-0.619,0.189-0.967v-1.129c0-0.346-0.064-0.67-0.189-0.967c-0.126-0.299-0.302-0.563-0.529-0.791
		c-0.229-0.229-0.49-0.404-0.791-0.529c-0.299-0.127-0.617-0.188-0.957-0.188h-3.273c-0.346,0-0.668,0.062-0.967,0.188
		c-0.291,0.125-0.551,0.303-0.777,0.529s-0.409,0.492-0.543,0.791c-0.125,0.297-0.189,0.621-0.189,0.967v2.32h-1.25
		c0.041-0.072,0.082-0.146,0.115-0.227c0.126-0.299,0.189-0.619,0.189-0.967v-1.129c0-0.346-0.064-0.67-0.189-0.967
		c-0.125-0.299-0.302-0.563-0.527-0.791c-0.229-0.229-0.492-0.404-0.791-0.529c-0.301-0.127-0.62-0.188-0.969-0.188L479.244,494.741
		L479.244,494.741z M497.572,494.741c-0.348,0-0.669,0.062-0.967,0.188c-0.301,0.125-0.56,0.303-0.777,0.529
		c-0.229,0.229-0.41,0.492-0.543,0.791c-0.126,0.289-0.189,0.606-0.189,0.953v1.129c0,0.346,0.064,0.668,0.189,0.967
		c0.133,0.299,0.313,0.563,0.543,0.791c0.221,0.229,0.479,0.404,0.777,0.529c0.298,0.125,0.619,0.188,0.967,0.188h4.996v-1.271
		h-4.917c-0.339,0-0.62-0.117-0.856-0.354c-0.086-0.096-0.162-0.199-0.225-0.316c-0.063-0.117-0.104-0.246-0.119-0.381h6.857v-1.283
		c0-0.347-0.063-0.664-0.188-0.953c-0.127-0.299-0.303-0.563-0.53-0.791c-0.227-0.229-0.491-0.404-0.79-0.529
		c-0.299-0.127-0.621-0.188-0.967-0.188L497.572,494.741L497.572,494.741z M530.995,494.741c-0.346,0-0.668,0.062-0.967,0.188
		c-0.3,0.125-0.559,0.303-0.775,0.529c-0.229,0.229-0.41,0.492-0.543,0.791c-0.127,0.297-0.186,0.621-0.186,0.967v1.129
		c0,0.348,0.059,0.668,0.186,0.967c0.133,0.291,0.314,0.551,0.543,0.777c0.219,0.229,0.479,0.404,0.775,0.529
		s0.621,0.188,0.967,0.188h3.268c0.348,0,0.668-0.063,0.966-0.188c0.3-0.125,0.563-0.301,0.791-0.529
		c0.229-0.228,0.403-0.486,0.528-0.777c0.127-0.299,0.189-0.619,0.189-0.967v-1.129c0-0.346-0.063-0.67-0.189-0.967
		c-0.125-0.299-0.301-0.563-0.528-0.791c-0.229-0.229-0.491-0.404-0.791-0.529c-0.298-0.127-0.618-0.188-0.966-0.188H530.995z
		 M479.328,496.013h3.099c0.338,0,0.625,0.117,0.86,0.354c0.109,0.109,0.197,0.244,0.261,0.395c0.063,0.143,0.093,0.295,0.093,0.467
		v1.107c0,0.166-0.027,0.324-0.093,0.473c-0.063,0.145-0.148,0.271-0.261,0.382c-0.235,0.233-0.522,0.353-0.86,0.353h-0.384h-2.715
		c-0.338,0-0.625-0.117-0.861-0.353c-0.107-0.11-0.197-0.237-0.26-0.382c-0.063-0.146-0.094-0.307-0.094-0.473v-1.107
		c0-0.172,0.028-0.324,0.094-0.467c0.062-0.148,0.15-0.283,0.26-0.395C478.703,496.13,478.99,496.011,479.328,496.013z
		 M488.492,496.013h3.098c0.338,0,0.625,0.117,0.861,0.354c0.234,0.234,0.354,0.521,0.354,0.859v1.107
		c0,0.346-0.117,0.633-0.354,0.854c-0.236,0.234-0.523,0.354-0.861,0.354h-2.314h-1.996v-1.205v-0.631v-0.479
		c0-0.172,0.028-0.324,0.094-0.467c0.07-0.148,0.163-0.283,0.271-0.395C487.864,496.13,488.146,496.011,488.492,496.013z
		 M497.651,496.013h3.103c0.338,0,0.625,0.117,0.861,0.354c0.107,0.109,0.191,0.244,0.256,0.395
		c0.062,0.143,0.098,0.293,0.098,0.459h-5.531c0-0.166,0.033-0.316,0.099-0.459c0.063-0.148,0.149-0.283,0.261-0.395
		C497.031,496.13,497.313,496.011,497.651,496.013z M515.956,496.013h3.1c0.338,0,0.625,0.117,0.859,0.354
		c0.236,0.234,0.354,0.521,0.354,0.859v1.107c0,0.346-0.115,0.633-0.354,0.854c-0.23,0.23-0.51,0.35-0.838,0.354h-4.334v-1.205
		v-0.631v-0.479c0-0.172,0.028-0.324,0.092-0.467c0.07-0.148,0.16-0.283,0.271-0.395C515.325,496.13,515.61,496.011,515.956,496.013
		z M531.079,496.013h3.1c0.338,0,0.625,0.117,0.859,0.354c0.111,0.109,0.197,0.244,0.262,0.395c0.063,0.143,0.092,0.295,0.092,0.467
		v1.107c0,0.166-0.027,0.324-0.092,0.473c-0.063,0.145-0.148,0.271-0.262,0.382c-0.234,0.233-0.521,0.353-0.859,0.353h-3.1
		c-0.338,0-0.625-0.117-0.861-0.353c-0.107-0.11-0.197-0.237-0.26-0.382c-0.063-0.146-0.092-0.307-0.092-0.473v-1.107
		c0-0.172,0.027-0.324,0.092-0.467c0.062-0.148,0.15-0.283,0.26-0.395C530.454,496.13,530.741,496.011,531.079,496.013z"/>
</g>
<g>
	
		<rect x="841.824" y="586.259" transform="matrix(0.9851 0.172 -0.172 0.9851 116.2092 -138.4325)" fill="#6D6E71" width="30.257" height="30.258"/>
	<g>
		<path fill="#FFFFFF" d="M857.371,611.08l-2.274-0.397l2.532-14.502c-0.64,0.429-1.448,0.823-2.43,1.19
			c-0.98,0.368-1.85,0.62-2.604,0.758l0.387-2.2c1.375-0.377,2.613-0.904,3.718-1.592c1.101-0.686,1.919-1.394,2.455-2.125
			l1.466,0.256L857.371,611.08z"/>
	</g>
</g>
<g>
	
		<rect x="148.276" y="585.747" transform="matrix(0.9863 -0.1649 0.1649 0.9863 -96.8496 35.1721)" fill="#6D6E71" width="30.256" height="30.254"/>
	<g>
		<path fill="#FFFFFF" d="M169.531,606.485l0.366,2.188l-12.265,2.051c-0.109-0.545-0.109-1.088,0-1.626
			c0.173-0.888,0.535-1.795,1.087-2.719c0.553-0.927,1.39-2.028,2.512-3.31c1.74-1.992,2.884-3.529,3.431-4.614
			c0.548-1.085,0.75-2.057,0.605-2.918c-0.151-0.903-0.601-1.61-1.35-2.123c-0.75-0.513-1.643-0.683-2.681-0.509
			c-1.098,0.184-1.92,0.659-2.468,1.428c-0.549,0.771-0.729,1.735-0.542,2.901l-2.383,0.149c-0.132-1.771,0.249-3.206,1.143-4.297
			c0.893-1.091,2.222-1.783,3.985-2.078c1.781-0.298,3.272-0.039,4.476,0.774c1.203,0.813,1.926,1.95,2.17,3.41
			c0.125,0.741,0.095,1.497-0.088,2.267c-0.184,0.769-0.563,1.607-1.135,2.521c-0.571,0.909-1.56,2.193-2.965,3.854
			c-1.176,1.376-1.923,2.301-2.243,2.775c-0.32,0.474-0.572,0.938-0.756,1.395L169.531,606.485z"/>
	</g>
</g>
<g>
	<rect x="494.754" y="579.073" fill="#6D6E71" width="30.256" height="30.256"/>
	<g>
		<path fill="#FFFFFF" d="M503.443,598.514l2.311-0.308c0.264,1.309,0.717,2.253,1.354,2.829c0.637,0.578,1.414,0.867,2.329,0.867
			c1.087,0,2.005-0.377,2.753-1.129c0.749-0.756,1.122-1.688,1.122-2.801c0-1.061-0.347-1.936-1.038-2.625
			c-0.693-0.688-1.574-1.031-2.646-1.031c-0.437,0-0.979,0.086-1.63,0.258l0.257-2.029c0.154,0.018,0.278,0.026,0.372,0.026
			c0.983,0,1.87-0.259,2.657-0.771s1.18-1.305,1.18-2.374c0-0.847-0.285-1.548-0.857-2.104c-0.573-0.559-1.313-0.834-2.223-0.834
			c-0.896,0-1.646,0.28-2.245,0.847c-0.599,0.565-0.982,1.412-1.153,2.541l-2.313-0.411c0.283-1.549,0.924-2.748,1.926-3.6
			c1-0.854,2.246-1.277,3.734-1.277c1.026,0,1.973,0.221,2.837,0.662c0.864,0.439,1.524,1.041,1.983,1.803
			c0.457,0.763,0.686,1.57,0.686,2.426c0,0.813-0.219,1.555-0.654,2.223c-0.436,0.666-1.082,1.195-1.938,1.592
			c1.111,0.256,1.977,0.789,2.592,1.598c0.617,0.81,0.924,1.82,0.924,3.035c0,1.645-0.599,3.035-1.796,4.178
			c-1.198,1.144-2.713,1.715-4.544,1.715c-1.652,0-3.021-0.492-4.113-1.478C504.22,601.355,503.597,600.08,503.443,598.514z"/>
	</g>
</g>
<g>
	<path d="M62.963,654.311l-1.608-8.438l6.101-1.162l0.189,0.995l-4.984,0.95l0.493,2.584l4.667-0.891l0.189,0.99l-4.668,0.889
		l0.547,2.873l5.179-0.985l0.189,0.995L62.963,654.311z"/>
	<path d="M70.757,652.825l-1.608-8.438l1.117-0.213l1.418,7.442l4.156-0.792l0.19,0.995L70.757,652.825z"/>
	<path d="M77.383,651.563l-1.608-8.438l6.102-1.163l0.189,0.995l-4.985,0.95l0.493,2.584l4.668-0.89l0.188,0.99l-4.668,0.891
		l0.548,2.872l5.179-0.987l0.189,0.997L77.383,651.563z"/>
	<path d="M87.633,649.607l-4.877-7.814l1.208-0.23l3.361,5.714c0.271,0.457,0.505,0.89,0.706,1.296
		c0.042-0.485,0.106-0.976,0.192-1.469l1.111-6.563l1.14-0.218l-1.696,9.066L87.633,649.607z"/>
	<path d="M91.961,644.524c-0.266-1.4-0.1-2.568,0.501-3.506c0.602-0.936,1.497-1.517,2.687-1.743
		c0.779-0.148,1.517-0.097,2.213,0.157c0.697,0.252,1.272,0.68,1.728,1.282c0.455,0.604,0.763,1.328,0.924,2.172
		c0.163,0.856,0.137,1.654-0.08,2.396c-0.216,0.741-0.609,1.344-1.176,1.813c-0.567,0.469-1.217,0.772-1.949,0.912
		c-0.793,0.151-1.541,0.095-2.239-0.17c-0.698-0.265-1.272-0.698-1.721-1.301C92.397,645.938,92.102,645.265,91.961,644.524z
		 M93.116,644.322c0.194,1.016,0.619,1.765,1.278,2.246c0.659,0.479,1.4,0.643,2.226,0.485c0.84-0.161,1.476-0.589,1.906-1.282
		c0.43-0.694,0.542-1.584,0.335-2.671c-0.131-0.686-0.361-1.264-0.691-1.732c-0.33-0.468-0.744-0.8-1.246-0.997
		c-0.501-0.197-1.03-0.241-1.586-0.135c-0.79,0.149-1.418,0.551-1.885,1.202C92.985,642.091,92.874,643.053,93.116,644.322z"/>
	<path d="M102.242,646.824l-1.608-8.438l1.146-0.219l5.694,5.779l-1.262-6.625l1.07-0.204l1.608,8.438l-1.146,0.221l-5.696-5.786
		l1.264,6.631L102.242,646.824z"/>
</g>
<g>
	<path d="M910.462,646.528l1.459-8.466l6.12,1.056l-0.173,0.999l-5-0.862l-0.446,2.592l4.685,0.808l-0.173,0.992l-4.684-0.808
		l-0.496,2.883l5.198,0.896l-0.173,0.999L910.462,646.528z"/>
	<path d="M918.28,647.877l1.458-8.468l1.12,0.192l-1.286,7.467l4.17,0.72l-0.172,0.998L918.28,647.877z"/>
	<path d="M924.927,649.021l1.459-8.466l6.119,1.054l-0.171,0.999l-5.001-0.861l-0.446,2.592l4.685,0.81l-0.173,0.991l-4.683-0.808
		l-0.496,2.882l5.195,0.896l-0.171,0.998L924.927,649.021z"/>
	<path d="M935.21,650.792l-1.821-9.031l1.213,0.21l1.143,6.528c0.091,0.522,0.161,1.011,0.207,1.463
		c0.209-0.438,0.441-0.877,0.693-1.308l3.347-5.756l1.144,0.195l-4.773,7.896L935.21,650.792z"/>
	<path d="M941.049,647.552c0.241-1.403,0.81-2.44,1.701-3.105c0.89-0.664,1.931-0.895,3.126-0.688
		c0.781,0.133,1.453,0.442,2.017,0.924c0.564,0.481,0.952,1.083,1.166,1.81c0.215,0.724,0.249,1.512,0.102,2.358
		c-0.146,0.857-0.453,1.596-0.914,2.215c-0.464,0.618-1.044,1.046-1.738,1.284c-0.694,0.239-1.411,0.295-2.146,0.169
		c-0.797-0.137-1.477-0.451-2.036-0.943c-0.563-0.493-0.946-1.102-1.155-1.823C940.961,649.027,940.921,648.295,941.049,647.552z
		 M942.2,647.769c-0.177,1.021-0.04,1.869,0.408,2.553c0.447,0.682,1.085,1.095,1.913,1.235c0.844,0.146,1.586-0.029,2.232-0.528
		c0.648-0.499,1.064-1.295,1.252-2.384c0.118-0.689,0.106-1.313-0.038-1.865c-0.145-0.556-0.416-1.014-0.816-1.372
		c-0.398-0.359-0.877-0.586-1.438-0.685c-0.792-0.136-1.521,0.02-2.187,0.465S942.42,646.495,942.2,647.769z"/>
	<path d="M949.867,653.316l1.458-8.468l1.147,0.198l3.303,7.412l1.145-6.646l1.074,0.185l-1.458,8.466l-1.148-0.197l-3.3-7.418
		l-1.146,6.653L949.867,653.316z"/>
</g>
<g id="g5053_2_" transform="matrix(1,0,0,-1,0,2792.2535)">
	<g>
		<g>
			<g>
				<defs>
					<rect id="SVGID_5_" x="401.676" y="2528.472" width="199.767" height="199.754"/>
				</defs>
				<clipPath id="SVGID_6_">
					<use xlink:href="#SVGID_5_"  overflow="visible"/>
				</clipPath>
				<g id="g5055_2_" opacity="0.5" clip-path="url(#SVGID_6_)">
					<g id="g5057_2_" transform="translate(1170.2617,1551.2617)">
						<path id="path5059_2_" fill="#B2C7E7" d="M-598.04,1147.709c38.963-39.022,38.963-102.269-0.056-141.233
							c-39.02-39.019-102.264-39.019-141.236,0c-39.013,38.965-39.013,102.208,0.009,141.224
							C-700.308,1186.721-637.063,1186.721-598.04,1147.709"/>
					</g>
				</g>
			</g>
		</g>
	</g>
</g>
<rect x="454.726" y="135.034" fill="none" width="140.57" height="103.964"/>
<rect x="405.77" y="104.08" fill="none" width="140.765" height="104.773"/>
<radialGradient id="path5161_3_" cx="324.2627" cy="2076.5977" r="0.9098" gradientTransform="matrix(-98.0973 98.0973 98.0973 98.0973 -171343.25 -235369.4063)" gradientUnits="userSpaceOnUse">
	<stop  offset="0" style="stop-color:#F06924"/>
	<stop  offset="1" style="stop-color:#B4CDEA"/>
</radialGradient>
<path id="path5161_1_" fill="url(#path5161_3_)" d="M475.025,180.077c3.421,11.114,13.77,19.187,26.002,19.188
	c13.843,0,25.252-10.356,26.954-23.74h-13.664l40.486-40.489l40.487,40.489h-12.835c-1.865,35.373-31.135,63.479-66.97,63.471
	c-26.869,0.012-50.042-15.805-60.759-38.625L475.025,180.077L475.025,180.077z"/>
<radialGradient id="path5161_4_" cx="324.2129" cy="2076.999" r="0.9106" gradientTransform="matrix(98.0973 -98.0973 -98.0973 -98.0973 172389.2656 235747.4063)" gradientUnits="userSpaceOnUse">
	<stop  offset="0" style="stop-color:#F06924"/>
	<stop  offset="1" style="stop-color:#B4CDEA"/>
</radialGradient>
<path id="path5161_2_" fill="url(#path5161_4_)" d="M526.793,163.468c-3.42-11.114-13.77-19.187-26.002-19.188
	c-13.842,0-25.251,10.356-26.954,23.74h13.664l-40.486,40.489l-40.487-40.489h12.835c1.865-35.373,31.135-63.479,66.97-63.471
	c26.869-0.012,50.042,15.805,60.759,38.625L526.793,163.468L526.793,163.468z"/>
<path stroke="#58595B" stroke-width="1.095" stroke-miterlimit="10" d="M417.099,116.218c0,0-1.378,6.73-1.378,8.133
	c0,1.402,27.274,35.612,66.674,44.868c0,0,20.389,4.486,27,8.693c6.609,4.207,43.81,41.225,71.356,44.027
	c0,0,1.929-3.926,1.651-7.01c0,0-19.28-33.539-74.66-45.851c0,0-2.483-2.384-5.786-3.226c-3.309-0.842-5.785-0.842-8.815-1.963
	c-3.03-1.123-5.235-3.365-7.716-4.767C482.945,157.722,448.232,122.387,417.099,116.218z"/>
<path id="path5397_2_" fill="#49494B" d="M521.323,151.751c10.919,10.928,10.919,28.644-0.011,39.564
	c-10.923,10.925-28.639,10.925-39.565,0c-10.921-10.921-10.921-28.633,0.01-39.555c10.921-10.926,28.635-10.928,39.565-0.011"/>
<g>
	<path fill="#FFFFFF" d="M493.852,176.915l2.883-0.383c0.331,1.631,0.894,2.809,1.688,3.529c0.795,0.721,1.763,1.078,2.906,1.078
		c1.354,0,2.498-0.466,3.432-1.408c0.938-0.937,1.4-2.102,1.4-3.486c0-1.324-0.434-2.416-1.296-3.274
		c-0.866-0.858-1.965-1.288-3.298-1.288c-0.545,0-1.224,0.105-2.033,0.318l0.317-2.528c0.194,0.021,0.353,0.032,0.468,0.032
		c1.225,0,2.331-0.318,3.313-0.96c0.982-0.642,1.472-1.627,1.472-2.962c0-1.056-0.354-1.932-1.07-2.625
		c-0.714-0.693-1.639-1.041-2.771-1.041c-1.12,0-2.052,0.353-2.798,1.057c-0.747,0.705-1.228,1.762-1.442,3.17l-2.88-0.512
		c0.354-1.932,1.15-3.43,2.399-4.49s2.802-1.594,4.657-1.594c1.279,0,2.462,0.275,3.541,0.824c1.074,0.551,1.896,1.301,2.472,2.25
		c0.569,0.949,0.854,1.958,0.854,3.025c0,1.014-0.271,1.938-0.813,2.77s-1.35,1.494-2.417,1.984c1.387,0.32,2.464,0.983,3.23,1.992
		c0.771,1.008,1.151,2.271,1.151,3.785c0,2.05-0.744,3.787-2.237,5.213c-1.493,1.422-3.384,2.135-5.668,2.135
		c-2.061,0-3.769-0.611-5.131-1.84C494.82,180.458,494.043,178.868,493.852,176.915z"/>
</g>
</svg>
