<?xml version="1.0" encoding="UTF-8" standalone="no"?>
<!-- Created with Inkscape (http://www.inkscape.org/) -->

<svg
   xmlns:dc="http://purl.org/dc/elements/1.1/"
   xmlns:cc="http://creativecommons.org/ns#"
   xmlns:rdf="http://www.w3.org/1999/02/22-rdf-syntax-ns#"
   xmlns:svg="http://www.w3.org/2000/svg"
   xmlns="http://www.w3.org/2000/svg"
   xmlns:xlink="http://www.w3.org/1999/xlink"
   xmlns:sodipodi="http://sodipodi.sourceforge.net/DTD/sodipodi-0.dtd"
   xmlns:inkscape="http://www.inkscape.org/namespaces/inkscape"
   width="730.97046mm"
   height="381.12195mm"
   viewBox="0 0 2590.0513 1350.432"
   id="svg4260"
   version="1.1"
   inkscape:version="0.91 r13725"
   sodipodi:docname="vehicle_bg.svg">
  <defs
     id="defs4262">
    <linearGradient
       inkscape:collect="always"
       xlink:href="#linearGradient7883"
       id="linearGradient9262"
       gradientUnits="userSpaceOnUse"
       gradientTransform="matrix(0,-32.260666,-32.260666,0,357.64941,958.53813)"
       spreadMethod="pad"
       x1="0"
       y1="0"
       x2="1"
       y2="0" />
    <linearGradient
       x1="0"
       y1="0"
       x2="1"
       y2="0"
       id="linearGradient7883"
       gradientUnits="userSpaceOnUse"
       gradientTransform="matrix(0,-32.260666,-32.260666,0,357.64941,952.9375)"
       spreadMethod="pad">
      <stop
         id="stop7885"
         style="stop-color:#ffffff;stop-opacity:1"
         offset="0" />
      <stop
         id="stop7887"
         style="stop-color:#ed1c34;stop-opacity:1"
         offset="1" />
    </linearGradient>
  </defs>
  <sodipodi:namedview
     id="base"
     pagecolor="#ffffff"
     bordercolor="#666666"
     borderopacity="1.0"
     inkscape:pageopacity="0.0"
     inkscape:pageshadow="2"
     inkscape:zoom="0.35"
     inkscape:cx="1412.655"
     inkscape:cy="337.91999"
     inkscape:document-units="px"
     inkscape:current-layer="layer1"
     showgrid="false"
     inkscape:window-width="1680"
     inkscape:window-height="988"
     inkscape:window-x="-8"
     inkscape:window-y="-8"
     inkscape:window-maximized="1"
     inkscape:snap-others="false"
     fit-margin-bottom="0"
     fit-margin-top="0"
     fit-margin-left="0"
     fit-margin-right="0" />
  <metadata
     id="metadata4265">
    <rdf:RDF>
      <cc:Work
         rdf:about="">
        <dc:format>image/svg+xml</dc:format>
        <dc:type
           rdf:resource="http://purl.org/dc/dcmitype/StillImage" />
        <dc:title></dc:title>
      </cc:Work>
    </rdf:RDF>
  </metadata>
  <g
     inkscape:groupmode="layer"
     id="layer3"
     inkscape:label="Layer 2"
     style="opacity:1"
     transform="translate(349.44338,137.29287)">
    <g
       id="g7881"
       transform="matrix(13.404322,0,0,-12.488463,-3849.1904,11608.194)"
       style="opacity:1">
      <path
         inkscape:connector-curvature="0"
         style="fill:url(#linearGradient9262);stroke:none"
         id="path7889"
         d="m 346.133,928.991 2.769,0 0,-17.191 17.192,0 0,17.191 3.072,0 -11.518,11.516 -11.515,-11.516 z" />
    </g>
  </g>
  <g
     inkscape:label="Layer 1"
     inkscape:groupmode="layer"
     id="layer1"
     style="opacity:1"
     transform="translate(349.44338,137.29287)">
    <path
       inkscape:connector-curvature="0"
       style="fill:#2f2d2e;fill-opacity:1;fill-rule:nonzero;stroke:none"
       id="path8061"
       d="m -237.17071,47.677182 2365.42951,0 c 61.9429,0 112.3497,22.61335 112.3497,50.520318 l 0,1064.3186 c 0,27.9412 -50.4068,50.623 -112.3497,50.623 l -2365.42951,0 c -62.09484,0 -112.27328,-22.6818 -112.27328,-50.623 l 0,-1064.3186 c 0,-27.906968 50.17844,-50.520318 112.27328,-50.520318" />
    <path
       inkscape:connector-curvature="0"
       style="fill:#c8c7c6;fill-opacity:1;fill-rule:nonzero;stroke:none"
       id="path8065"
       d="m 828.76674,642.59278 -37.22379,117.36656 95.94812,49.22952 38.69828,-137.11082 -97.42261,-29.48526 z m -24.03394,-211.00507 -40.6553,152.99616 26.31267,9.3039 148.72093,49.52923 40.0387,-123.48589 -174.417,-88.3434 z m 171.09274,-164.523 c -15.40156,-0.27474 -29.24822,5.8446 -34.98529,23.31597 l -54.19365,169.88054 86.98064,44.37153 37.53206,-132.39021 c 10.6565,-15.44822 25.8704,-9.49123 42.3711,-0.17483 l 128.6144,79.00201 c 11.3937,8.72942 18.7795,20.6809 18.1495,39.6384 l -7.9354,104.79065 c -1.5147,14.67394 -11.0719,23.60319 -18.3505,22.26692 l -203.34352,-102.8175 -36.004,126.84533 49.59602,16.72204 0,0.0749 203.129,68.56166 c 30.2402,10.303 57.4107,-20.75582 58.4831,-67.46269 l 0.8713,-167.20799 c -0.6569,-41.33681 -22.0502,-63.75358 -43.4166,-79.77629 L 1033.4239,289.13181 c -14.222,-10.8025 -37.3713,-21.80483 -57.59836,-22.0671" />
    <path
       inkscape:connector-curvature="0"
       style="fill:#658acf;fill-opacity:1;fill-rule:nonzero;stroke:none"
       id="path8069"
       d="m 768.36822,475.73067 -17.57306,-9.44126 15.56242,-53.26329 -39.16743,-19.90661 -86.29701,34.24336 -119.1108,-29.29793 105.84052,66.86323 41.47296,92.31471 53.61729,16.54719 16.90285,-59.20778 16.60795,2.44774 12.14431,-41.29936 z" />
    <path
       inkscape:connector-curvature="0"
       style="fill:#c8c7c6;fill-opacity:1;fill-rule:nonzero;stroke:none"
       id="path8073"
       d="m 1175.9963,1055.1671 34.2748,0 c 3.7398,0 6.7022,1.3362 9.316,3.7091 1.3405,1.099 2.3592,2.4852 2.8819,3.9213 0.6837,1.4737 1.126,3.0722 1.126,4.833 l 0,11.4145 c 0,1.6859 -0.4423,3.322 -1.126,4.933 -0.5227,1.3363 -1.5414,2.6101 -2.8819,3.7215 -2.6138,2.4228 -5.5762,3.7341 -9.316,3.7341 l -34.2748,0 c -3.6862,0 -6.7558,-1.3113 -9.2892,-3.7341 -1.3941,-1.1114 -2.3324,-2.3852 -3.016,-3.7215 -0.5227,-1.611 -1.0455,-3.2471 -1.0455,-4.933 l 0,-11.4145 c 0,-1.7608 0.5228,-3.3593 1.0455,-4.833 0.6836,-1.4361 1.6219,-2.8223 3.016,-3.9213 2.5334,-2.3729 5.603,-3.7091 9.2892,-3.7091 m -166.3476,0 34.2882,0 c 3.6996,0 6.6619,1.3362 9.2222,3.7091 2.5602,2.3353 4.1419,5.32 4.1419,8.7543 l 0,11.4145 c 0,3.4593 -1.5817,6.569 -4.1419,8.6545 -2.4664,2.3978 -5.4958,3.7341 -9.0614,3.7341 l -47.7997,0 0,-12.3886 0,-6.5065 0,-4.908 c 0,-1.7608 0.4691,-3.3593 1.1259,-4.833 0.6836,-1.4361 1.7292,-2.8223 3.0562,-3.9213 2.3592,-2.3729 5.402,-3.7091 9.1686,-3.7091 m -201.35973,0 34.19442,0 c 3.84704,0 6.78258,1.3362 9.39642,3.7091 1.28683,1.099 2.22512,2.4852 2.85513,3.9213 0.71043,1.4737 1.09915,3.0722 1.09915,4.7332 l -60.86902,0 c 0,-1.661 0.44235,-3.2595 1.07235,-4.7332 0.68362,-1.4361 1.62192,-2.8223 2.93555,-3.9213 2.5334,-2.3729 5.71023,-3.7091 9.316,-3.7091 m -100.65305,0 34.00676,0 c 3.76663,0 6.95685,1.3362 9.5841,3.7091 2.64065,2.3353 3.7666,5.32 3.7666,8.7543 l 0,11.4145 c 0,3.4593 -1.12595,6.569 -3.7666,8.6545 -2.62725,2.4228 -5.81747,3.7341 -9.5841,3.7341 l -25.37437,0 -21.99649,0 0,-12.3886 0,-6.5065 0,-4.908 c 0,-1.7608 0.26808,-3.3593 0.97851,-4.833 0.83109,-1.4361 1.80958,-2.8223 3.00256,-3.9213 2.41279,-2.3729 5.62981,-3.7091 9.38303,-3.7091 m -100.77368,0 34.03357,0 c 3.71299,0 6.99706,1.3362 9.50367,3.7091 1.17958,1.099 2.11789,2.4852 2.88193,3.9213 0.68361,1.4737 0.99191,3.0722 0.99191,4.833 l 0,11.4145 c 0,1.6859 -0.3083,3.322 -0.99191,4.933 -0.76404,1.3363 -1.70235,2.6101 -2.88193,3.7215 -2.50661,2.4228 -5.79068,3.7341 -9.50367,3.7341 l -4.26255,0 -29.77102,0 c -3.76661,0 -6.88981,-1.3113 -9.55726,-3.7341 -1.09918,-1.1114 -2.11791,-2.3852 -2.80152,-3.7215 -0.76405,-1.611 -0.9919,-3.2471 -0.9919,-4.933 l 0,-11.4145 c 0,-1.7608 0.22785,-3.3593 0.9919,-4.833 0.68361,-1.4361 1.70234,-2.8223 2.80152,-3.9213 2.66745,-2.3729 5.79065,-3.7091 9.55726,-3.7091 m 568.22256,-13.0005 c -3.7264,0 -7.2786,0.6119 -10.6565,2.0731 -3.1232,1.099 -6.0721,3.0222 -8.2972,5.2451 -2.6005,2.3603 -4.5575,5.0703 -6.1258,8.1425 -1.4209,3.1721 -1.89,6.494 -1.89,9.9034 l 0,11.6142 c 0,3.5093 0.4691,6.8312 1.89,9.9284 1.5683,3.0221 3.5253,5.6823 6.1258,8.0176 2.2251,2.2229 5.174,4.1462 8.2972,5.3201 3.3779,1.4361 6.9301,1.998 10.6565,1.998 l 36.0978,0 c 3.713,0 7.2786,-0.5619 10.6028,-1.998 3.1634,-1.1739 6.1526,-3.0972 8.5386,-5.3201 2.5334,-2.3353 4.477,-4.9955 5.9649,-8.0176 1.2868,-3.0972 1.9704,-6.4191 1.9704,-9.9284 l 0,-11.6142 c 0,-3.4094 -0.6836,-6.7313 -1.9704,-9.9034 -1.4879,-3.0722 -3.4315,-5.7822 -5.9649,-8.1425 -2.386,-2.2229 -5.3752,-4.1461 -8.5386,-5.2451 -3.3242,-1.4612 -6.8898,-2.0731 -10.6028,-2.0731 l -36.0978,0 z m -367.65371,0 c -3.67279,0 -7.22493,0.6119 -10.68324,2.0731 -3.16342,1.099 -6.04535,3.0222 -8.37771,5.2451 -2.4932,2.3603 -4.55746,5.0703 -5.99173,8.1425 -1.44766,3.1471 -2.09107,6.3442 -2.09107,9.8034 l 0,11.6143 c 0,3.4593 0.64341,6.7563 2.09107,9.9283 1.43427,3.0472 3.49853,5.7823 5.99173,8.1176 2.33236,2.2229 5.21429,4.1462 8.37771,5.3201 3.45831,1.4361 7.01045,1.998 10.68324,1.998 l 55.10516,0 0,-12.9754 -54.24728,0 c -3.60577,0 -6.7826,-1.3113 -9.316,-3.7341 -0.99193,-0.974 -1.78279,-1.9982 -2.41278,-3.2095 -0.77746,-1.1989 -1.2198,-2.5352 -1.43427,-3.784 l 75.42612,0 0,-13.2753 c 0,-3.4592 -0.68362,-6.6563 -1.94364,-9.8034 -1.5683,-3.0722 -3.40469,-5.7822 -6.01854,-8.1425 -2.43958,-2.2229 -5.36172,-4.1461 -8.63238,-5.2451 -3.1232,-1.4612 -6.70215,-2.0731 -10.60281,-2.0731 l -35.92358,0 z m -201.48034,0 c -3.90066,0 -7.43938,0.6119 -10.62961,2.0731 -3.3511,1.099 -6.1526,3.0222 -8.64579,5.2451 -2.45301,2.3603 -4.50387,5.0703 -5.96493,8.1425 -1.34042,3.1721 -2.05088,6.494 -2.05088,9.9034 l 0,11.6142 c 0,3.5093 0.71046,6.8312 2.05088,9.9284 1.46106,3.0221 3.51192,5.6823 5.96493,8.0176 2.49319,2.2229 5.29469,4.1462 8.64579,5.3201 3.19023,1.4361 6.72895,1.998 10.62961,1.998 l 26.9561,0 8.90047,0 37.57231,0 0,24.8396 14.89219,0 0,-24.8396 12.43921,0 4.82556,0 31.15164,0 c 3.79342,0 7.27853,-0.5619 10.49558,-1.998 3.37787,-1.1739 6.2062,-3.0972 8.76642,-5.3201 2.57363,-2.3353 4.47703,-4.9955 5.84429,-8.0176 1.32702,-3.0972 2.11788,-6.4191 2.11788,-9.9284 l 0,-11.6142 c 0,-3.4094 -0.79086,-6.7313 -2.11788,-9.9034 -1.36726,-3.0722 -3.27066,-5.7822 -5.84429,-8.1425 -2.56022,-2.2229 -5.38855,-4.1461 -8.76642,-5.2451 -3.21705,-1.4612 -6.70216,-2.0731 -10.49558,-2.0731 l -35.9772,0 c -3.7666,0 -7.30535,0.6119 -10.62961,2.0731 -3.27067,1.099 -6.099,3.0222 -8.60559,5.2451 -2.49321,2.3603 -4.53064,5.0703 -5.8979,8.1425 -1.43426,3.1721 -2.1983,6.494 -2.1983,9.9034 l 0,23.9029 -13.63219,0 c 0.3619,-0.7743 0.91148,-1.586 1.16615,-2.3603 1.50128,-3.0972 2.21172,-6.4191 2.21172,-9.9284 l 0,-11.6142 c 0,-3.4094 -0.71044,-6.7313 -2.21172,-9.9034 -1.21978,-3.0722 -3.27064,-5.7822 -5.67003,-8.1425 -2.57362,-2.2229 -5.45554,-4.1461 -8.75301,-5.2451 -3.37788,-1.4612 -6.93005,-2.0731 -10.68323,-2.0731 l -35.85657,0 z m 476.42975,62.2424 14.8118,0 0,-62.4422 -14.8118,0 0,62.4422 z m -174.30977,-62.4422 c -3.67279,0 -7.22493,0.7368 -10.60282,2.2729 -3.06959,1.099 -5.97833,3.0222 -8.37769,5.2451 -2.49321,2.3603 -4.50387,5.0703 -6.04535,8.1425 -1.28682,3.1471 -1.8632,6.3442 -1.8632,9.8034 l 0,36.9783 14.55708,0 0,-36.8783 c 0,-3.4094 1.51469,-6.4066 4.0347,-8.8294 1.07235,-1.1239 2.64065,-1.9732 4.04811,-2.66 1.62192,-0.6495 3.27065,-0.9241 5.10705,-0.9241 l 34.43569,0 c 1.76937,0 3.52533,0.2746 4.9462,0.9241 1.62193,0.6868 3.27066,1.5361 4.20896,2.66 2.64064,2.4228 4.03468,5.42 4.03468,8.8294 l 0,36.8783 4.11514,0 10.5224,0 10.41512,0 0,24.8396 14.6912,0 0,-24.8396 12.4258,0 30.8165,0 5.4555,0 c 3.5522,0 7.1177,-0.5619 10.4956,-1.998 3.083,-1.1739 6.0454,-3.0972 8.4582,-5.3201 2.453,-2.3353 4.5306,-4.9955 5.9649,-8.0176 1.3806,-3.0972 1.8632,-6.4191 1.8632,-9.9284 l 0,-11.6142 c 0,-3.4094 -0.4826,-6.7313 -1.8632,-9.9034 -1.4343,-3.0722 -3.5119,-5.7822 -5.9649,-8.1425 -2.4128,-2.2229 -5.3752,-4.1461 -8.4582,-5.2451 -3.3779,-1.4612 -6.9434,-2.0731 -10.4956,-2.0731 l -36.272,0 c -3.7398,0 -7.292,0.6119 -10.6163,2.0731 -3.0159,1.099 -5.8711,3.0222 -8.3777,5.2451 -2.5468,2.3603 -4.5574,5.0703 -6.1123,8.1425 -1.3271,3.1721 -2.0107,6.494 -2.0107,9.9034 l 0,23.9029 -10.41512,0 0,-23.9029 0,-0.1 c 0,-3.4594 -0.71045,-6.6564 -1.86321,-9.8035 -1.59512,-3.0722 -3.51192,-5.7822 -6.04534,-8.1425 -2.4664,-2.2229 -5.44217,-4.1462 -8.61899,-5.2451 -3.08298,-1.5361 -6.64854,-2.2729 -10.41516,-2.2729 l -36.17825,0 z m 343.37847,-17.846 0,15.2359 -6.5681,0 0,13.1504 6.5681,0 0,26.6378 c 0,3.5093 0.8043,6.8312 2.0643,9.9284 1.5013,3.0221 3.3779,5.6823 5.871,8.0176 2.6139,2.2229 5.3618,4.1462 8.7397,5.3201 3.1634,1.4361 6.7289,1.998 10.6296,1.998 l 10.6028,0 0,-12.9754 -10.4152,0 c -3.6191,-0.3123 -6.7557,-1.6111 -8.9004,-3.9964 -1.2868,-0.974 -2.2519,-2.3853 -2.8551,-3.8338 -0.6568,-1.3114 -0.8713,-2.8974 -0.8713,-4.5584 l 0,-26.5379 23.042,0 0,-2.785 0,-10.3654 -23.042,0 0,-15.2359 -14.8654,0 z m -144.1233,-7.031 0,61.9552 c 0,3.4593 0.8043,6.7563 2.1715,9.9283 1.3405,3.0472 3.2171,5.7823 5.8175,7.9801 2.6407,2.2854 5.3349,4.1463 8.8469,5.4576 3.1366,1.4361 6.5681,1.998 10.4151,1.998 l 2.9624,0 0,-12.9255 -2.6943,-0.05 c -3.5119,-0.3123 -6.4207,-1.6111 -8.9005,-3.9963 -1.1795,-0.9741 -2.1044,-2.3854 -2.654,-3.8339 -0.8579,-1.3113 -0.9115,-2.8974 -0.9115,-4.5583 l 0,-61.9553 -15.0531,0 z m -24.9454,13.6873 14.8118,0 0,-13.6873 -14.8118,0 0,13.6873 z" />
  </g>
</svg>
