<?xml version="1.0" encoding="UTF-8" standalone="no"?>
<!-- Created with Inkscape (http://www.inkscape.org/) -->

<svg
   xmlns:dc="http://purl.org/dc/elements/1.1/"
   xmlns:cc="http://creativecommons.org/ns#"
   xmlns:rdf="http://www.w3.org/1999/02/22-rdf-syntax-ns#"
   xmlns:svg="http://www.w3.org/2000/svg"
   xmlns="http://www.w3.org/2000/svg"
   xmlns:xlink="http://www.w3.org/1999/xlink"
   xmlns:sodipodi="http://sodipodi.sourceforge.net/DTD/sodipodi-0.dtd"
   xmlns:inkscape="http://www.inkscape.org/namespaces/inkscape"
   width="210mm"
   height="297mm"
   viewBox="0 0 744.09448819 1052.3622047"
   id="svg4260"
   version="1.1"
   inkscape:version="0.91 r13725"
   sodipodi:docname="vehicle_bg.svg">
  <defs
     id="defs4262">
    <linearGradient
       inkscape:collect="always"
       xlink:href="#linearGradient7883"
       id="linearGradient9262"
       gradientUnits="userSpaceOnUse"
       gradientTransform="matrix(0,-32.260666,-32.260666,0,357.64941,958.53813)"
       spreadMethod="pad"
       x1="0"
       y1="0"
       x2="1"
       y2="0" />
    <linearGradient
       x1="0"
       y1="0"
       x2="1"
       y2="0"
       id="linearGradient7883"
       gradientUnits="userSpaceOnUse"
       gradientTransform="matrix(0,-32.260666,-32.260666,0,357.64941,952.9375)"
       spreadMethod="pad">
      <stop
         id="stop7885"
         style="stop-color:#ffffff;stop-opacity:1"
         offset="0" />
      <stop
         id="stop7887"
         style="stop-color:#ed1c34;stop-opacity:1"
         offset="1" />
    </linearGradient>
  </defs>
  <sodipodi:namedview
     id="base"
     pagecolor="#ffffff"
     bordercolor="#666666"
     borderopacity="1.0"
     inkscape:pageopacity="0.0"
     inkscape:pageshadow="2"
     inkscape:zoom="0.35"
     inkscape:cx="45"
     inkscape:cy="177.14286"
     inkscape:document-units="px"
     inkscape:current-layer="layer3"
     showgrid="false"
     inkscape:window-width="1680"
     inkscape:window-height="988"
     inkscape:window-x="-8"
     inkscape:window-y="-8"
     inkscape:window-maximized="1"
     inkscape:snap-others="false" />
  <metadata
     id="metadata4265">
    <rdf:RDF>
      <cc:Work
         rdf:about="">
        <dc:format>image/svg+xml</dc:format>
        <dc:type
           rdf:resource="http://purl.org/dc/dcmitype/StillImage" />
        <dc:title />
      </cc:Work>
    </rdf:RDF>
  </metadata>
  <g
     inkscape:groupmode="layer"
     id="layer3"
     inkscape:label="Layer 2"
     style="opacity:0.543">
    <g
       id="g7881"
       transform="matrix(9.9958989,0,0,-9.9832559,-3199.6549,9508.6012)"
       style="opacity:1">
      <path
         inkscape:connector-curvature="0"
         style="fill:url(#linearGradient9262);stroke:none"
         id="path7889"
         d="m 346.133,928.991 2.769,0 0,-17.191 17.192,0 0,17.191 3.072,0 -11.518,11.516 -11.515,-11.516 z" />
    </g>
  </g>
  <g
     inkscape:label="Layer 1"
     inkscape:groupmode="layer"
     id="layer1"
     style="opacity:1">
    <path
       inkscape:connector-curvature="0"
       style="fill:#2f2d2e;fill-opacity:1;fill-rule:nonzero;stroke:none"
       id="path8061"
       d="m 62.033913,292.27425 621.055197,0 c 16.26333,0 29.4979,13.17789 29.4979,29.44062 l 0,620.22974 c 0,16.28269 -13.23457,29.50052 -29.4979,29.50052 l -621.055197,0 c -16.303311,0 -29.477906,-13.21783 -29.477906,-29.50052 l 0,-620.22974 c 0,-16.26273 13.174595,-29.44062 29.477906,-29.44062" />
    <path
       inkscape:connector-curvature="0"
       style="fill:#c8c7c6;fill-opacity:1;fill-rule:nonzero;stroke:none"
       id="path8065"
       d="m 299.24159,650.73603 -27.75861,93.82264 71.55064,39.35399 28.85817,-109.60617 -72.6502,-23.57046 z m -17.92264,-168.6771 -30.31757,122.30487 19.62195,7.43753 110.9045,39.59359 29.85775,-98.71443 -130.06663,-70.62156 z M 408.9066,350.53952 c -11.48529,-0.21963 -21.81105,4.67217 -26.0893,18.63874 l -40.41342,135.80223 64.86339,35.47051 27.98852,-105.8325 c 7.94674,-12.34928 19.29208,-7.58727 31.59703,-0.13976 l 95.91065,63.15407 c 8.49652,6.9783 14.00426,16.53228 13.53445,31.68686 l -5.91757,83.7695 c -1.12954,11.73032 -8.25661,18.86835 -13.68439,17.80014 l -151.63778,-82.19214 -26.84899,101.39993 36.98483,13.36758 0,0.0599 151.47785,54.80807 c 22.55075,8.23619 42.81244,-16.59217 43.61211,-53.92955 l 0.64973,-133.66581 c -0.4898,-33.04458 -16.44325,-50.96452 -32.37672,-63.77304 L 451.85898,368.17993 c -10.60565,-8.63551 -27.86857,-17.43076 -42.95238,-17.64041" />
    <path
       inkscape:connector-curvature="0"
       style="fill:#658acf;fill-opacity:1;fill-rule:nonzero;stroke:none"
       id="path8069"
       d="m 254.20107,517.34675 -13.10462,-7.54734 11.60524,-42.57859 -29.20802,-15.91331 -64.3536,27.37409 -88.823555,-23.42072 78.927615,53.45035 30.92731,73.79623 39.9836,13.22781 12.60483,-47.33061 12.38492,1.95672 9.05628,-33.01463 z" />
    <path
       inkscape:connector-curvature="0"
       style="fill:#c8c7c6;fill-opacity:1;fill-rule:nonzero;stroke:none"
       id="path8073"
       d="m 558.17836,862.23629 25.55951,0 c 2.78886,0 4.99795,1.06821 6.94715,2.96503 0.99959,0.87853 1.75928,1.98667 2.14912,3.13474 0.50979,1.17803 0.83965,2.45588 0.83965,3.86352 l 0,9.1247 c 0,1.34774 -0.32986,2.65555 -0.83965,3.94339 -0.38984,1.0682 -1.14953,2.0865 -2.14912,2.97501 -1.9492,1.93675 -4.15829,2.98499 -6.94715,2.98499 l -25.55951,0 c -2.74888,0 -5.03794,-1.04824 -6.92716,-2.98499 -1.03958,-0.88851 -1.73929,-1.90681 -2.24908,-2.97501 -0.38984,-1.28784 -0.77968,-2.59565 -0.77968,-3.94339 l 0,-9.1247 c 0,-1.40764 0.38984,-2.68549 0.77968,-3.86352 0.50979,-1.14807 1.2095,-2.25621 2.24908,-3.13474 1.88922,-1.89682 4.17828,-2.96503 6.92716,-2.96503 m -124.04911,0 25.56951,0 c 2.75887,0 4.96796,1.06821 6.87718,2.96503 1.90921,1.86687 3.08873,4.25287 3.08873,6.99826 l 0,9.1247 c 0,2.76536 -1.17952,5.25119 -3.08873,6.9184 -1.83925,1.91678 -4.09832,2.98499 -6.75723,2.98499 l -35.64537,0 0,-9.90339 0,-5.20128 0,-3.92342 c 0,-1.40764 0.34985,-2.68549 0.83965,-3.86352 0.50979,-1.14807 1.28947,-2.25621 2.27907,-3.13474 1.75927,-1.89682 4.02834,-2.96503 6.83719,-2.96503 m -150.15839,0 25.49954,0 c 2.86882,0 5.05792,1.06821 7.00712,2.96503 0.95961,0.87853 1.65932,1.98667 2.12913,3.13474 0.52978,1.17803 0.81966,2.45588 0.81966,3.78366 l -45.39138,0 c 0,-1.32778 0.32987,-2.60563 0.79968,-3.78366 0.50979,-1.14807 1.2095,-2.25621 2.1891,-3.13474 1.88922,-1.89682 4.25825,-2.96503 6.94715,-2.96503 m -75.05921,0 25.3596,0 c 2.80885,0 5.18787,1.06821 7.14707,2.96503 1.96919,1.86687 2.80884,4.25287 2.80884,6.99826 l 0,9.1247 c 0,2.76536 -0.83965,5.25119 -2.80884,6.9184 -1.9592,1.93675 -4.33822,2.98499 -7.14707,2.98499 l -18.92224,0 -16.40327,0 0,-9.90339 0,-5.20128 0,-3.92342 c 0,-1.40764 0.19992,-2.68549 0.7297,-3.86352 0.61975,-1.14807 1.34945,-2.25621 2.23908,-3.13474 1.79926,-1.89682 4.19828,-2.96503 6.99713,-2.96503 m -75.14917,0 25.37959,0 c 2.76887,0 5.21786,1.06821 7.08709,2.96503 0.87964,0.87853 1.57936,1.98667 2.14912,3.13474 0.50979,1.17803 0.7397,2.45588 0.7397,3.86352 l 0,9.1247 c 0,1.34774 -0.22991,2.65555 -0.7397,3.94339 -0.56976,1.0682 -1.26948,2.0865 -2.14912,2.97501 -1.86923,1.93675 -4.31822,2.98499 -7.08709,2.98499 l -3.17869,0 -22.2009,0 c -2.80884,0 -5.13789,-1.04824 -7.12707,-2.98499 -0.81967,-0.88851 -1.57935,-1.90681 -2.08914,-2.97501 -0.56977,-1.28784 -0.7397,-2.59565 -0.7397,-3.94339 l 0,-9.1247 c 0,-1.40764 0.16993,-2.68549 0.7397,-3.86352 0.50979,-1.14807 1.26947,-2.25621 2.08914,-3.13474 1.98918,-1.89682 4.31823,-2.96503 7.12707,-2.96503 m 423.73615,-10.39257 c -2.77886,0 -5.42777,0.48918 -7.94674,1.65723 -2.32904,0.87852 -4.52814,2.41594 -6.18746,4.19296 -1.9392,1.88684 -3.3986,4.0532 -4.56812,6.50909 -1.05957,2.53574 -1.40942,5.19129 -1.40942,7.91672 l 0,9.28443 c 0,2.80529 0.34985,5.46084 1.40942,7.93668 1.16952,2.41595 2.62892,4.54239 4.56812,6.40925 1.65932,1.77702 3.85842,3.31445 6.18746,4.25287 2.51897,1.14808 5.16788,1.59732 7.94674,1.59732 l 26.91896,0 c 2.76886,0 5.42777,-0.44924 7.90676,-1.59732 2.35903,-0.93842 4.58811,-2.47585 6.36738,-4.25287 1.88923,-1.86686 3.33863,-3.9933 4.44818,-6.40925 0.95961,-2.47584 1.4694,-5.13139 1.4694,-7.93668 l 0,-9.28443 c 0,-2.72543 -0.50979,-5.38098 -1.4694,-7.91672 -1.10955,-2.45589 -2.55895,-4.62225 -4.44818,-6.50909 -1.77927,-1.77702 -4.00835,-3.31444 -6.36738,-4.19296 -2.47899,-1.16805 -5.1379,-1.65723 -7.90676,-1.65723 l -26.91896,0 z m -274.16751,0 c -2.73888,0 -5.38779,0.48918 -7.96673,1.65723 -2.35903,0.87852 -4.50815,2.41594 -6.24744,4.19296 -1.85924,1.88684 -3.3986,4.0532 -4.46817,6.50909 -1.07955,2.51578 -1.55936,5.07149 -1.55936,7.83685 l 0,9.28443 c 0,2.76536 0.47981,5.40094 1.55936,7.93669 1.06957,2.43591 2.60893,4.62225 4.46817,6.48911 1.73929,1.77702 3.88841,3.31445 6.24744,4.25287 2.57894,1.14808 5.22785,1.59732 7.96673,1.59732 l 41.09314,0 0,-10.3726 -40.4534,0 c -2.6889,0 -5.05793,-1.04824 -6.94715,-2.98499 -0.7397,-0.7787 -1.32946,-1.59733 -1.79926,-2.5657 -0.57977,-0.95839 -0.90963,-2.0266 -1.06957,-3.02493 l 56.24693,0 0,-10.6122 c 0,-2.76536 -0.50979,-5.32107 -1.44941,-7.83685 -1.16952,-2.45589 -2.53896,-4.62225 -4.48816,-6.50909 -1.81925,-1.77702 -3.99836,-3.31444 -6.43736,-4.19296 -2.32904,-1.16805 -4.99794,-1.65723 -7.90675,-1.65723 l -26.78901,0 z m -150.24836,0 c -2.9088,0 -5.54772,0.48918 -7.92674,1.65723 -2.49898,0.87852 -4.58812,2.41594 -6.44736,4.19296 -1.82925,1.88684 -3.35862,4.0532 -4.44817,6.50909 -0.99959,2.53574 -1.52938,5.19129 -1.52938,7.91672 l 0,9.28443 c 0,2.80529 0.52979,5.46084 1.52938,7.93668 1.08955,2.41595 2.61892,4.54239 4.44817,6.40925 1.85924,1.77702 3.94838,3.31445 6.44736,4.25287 2.37902,1.14808 5.01794,1.59732 7.92674,1.59732 l 20.10176,0 6.63727,0 28.01851,0 0,19.8567 11.10544,0 0,-19.8567 9.2762,0 3.59852,0 23.23047,0 c 2.82884,0 5.42777,-0.44924 7.82679,-1.59732 2.51896,-0.93842 4.6281,-2.47585 6.53731,-4.25287 1.91922,-1.86686 3.33863,-3.9933 4.35822,-6.40925 0.98959,-2.47584 1.57935,-5.13139 1.57935,-7.93668 l 0,-9.28443 c 0,-2.72543 -0.58976,-5.38098 -1.57935,-7.91672 -1.01959,-2.45589 -2.439,-4.62225 -4.35822,-6.50909 -1.90921,-1.77702 -4.01835,-3.31444 -6.53731,-4.19296 -2.39902,-1.16805 -4.99795,-1.65723 -7.82679,-1.65723 l -26.82899,0 c -2.80885,0 -5.44777,0.48918 -7.92675,1.65723 -2.439,0.87852 -4.54814,2.41594 -6.41737,4.19296 -1.85924,1.88684 -3.37861,4.0532 -4.3982,6.50909 -1.06956,2.53574 -1.63932,5.19129 -1.63932,7.91672 l 0,19.10795 -10.16583,0 c 0.26989,-0.61896 0.67972,-1.26787 0.86964,-1.88684 1.11954,-2.47584 1.64932,-5.13139 1.64932,-7.93668 l 0,-9.28443 c 0,-2.72543 -0.52978,-5.38098 -1.64932,-7.91672 -0.90963,-2.45589 -2.439,-4.62225 -4.22826,-6.50909 -1.91922,-1.77702 -4.06833,-3.31444 -6.52733,-4.19296 -2.51896,-1.16805 -5.16788,-1.65723 -7.96673,-1.65723 l -26.73903,0 z m 355.28424,49.75655 11.04547,0 0,-49.91628 -11.04547,0 0,49.91628 z M 358.38033,851.68399 c -2.73888,0 -5.38779,0.58901 -7.90676,1.81696 -2.28906,0.87852 -4.45817,2.41594 -6.24743,4.19296 -1.85924,1.88684 -3.35863,4.0532 -4.50815,6.50909 -0.95961,2.51578 -1.38943,5.07149 -1.38943,7.83685 l 0,29.56042 10.85554,0 0,-29.48055 c 0,-2.72543 1.12954,-5.12141 3.00877,-7.05816 0.79967,-0.8985 1.96919,-1.57736 3.01876,-2.12644 1.2095,-0.51913 2.439,-0.73876 3.80844,-0.73876 l 25.67946,0 c 1.31946,0 2.62892,0.21963 3.68849,0.73876 1.2095,0.54908 2.439,1.22794 3.13871,2.12644 1.96919,1.93675 3.00876,4.33273 3.00876,7.05816 l 0,29.48055 3.06875,0 7.84678,0 7.76681,0 0,19.8567 10.95551,0 0,-19.8567 9.26619,0 22.98057,0 4.06834,0 c 2.64891,0 5.30782,-0.44924 7.82678,-1.59732 2.29906,-0.93842 4.50816,-2.47585 6.30742,-4.25287 1.82925,-1.86686 3.37861,-3.9933 4.44817,-6.40925 1.02958,-2.47584 1.38943,-5.13139 1.38943,-7.93668 l 0,-9.28443 c 0,-2.72543 -0.35985,-5.38098 -1.38943,-7.91672 -1.06956,-2.45589 -2.61892,-4.62225 -4.44817,-6.50909 -1.79926,-1.77702 -4.00836,-3.31444 -6.30742,-4.19296 -2.51896,-1.16805 -5.17787,-1.65723 -7.82678,-1.65723 l -27.04891,0 c -2.78885,0 -5.43777,0.48918 -7.91675,1.65723 -2.24908,0.87852 -4.3782,2.41594 -6.24744,4.19296 -1.89922,1.88684 -3.3986,4.0532 -4.55813,6.50909 -0.98959,2.53574 -1.49938,5.19129 -1.49938,7.91672 l 0,19.10795 -7.76681,0 0,-19.10795 0,-0.0799 c 0,-2.76536 -0.52979,-5.32107 -1.38943,-7.83685 -1.18952,-2.45589 -2.61893,-4.62225 -4.50815,-6.50909 -1.83925,-1.77702 -4.05834,-3.31444 -6.42737,-4.19296 -2.29905,-1.22795 -4.95796,-1.81696 -7.76681,-1.81696 l -26.97893,0 z m 256.06494,-14.26607 0,12.17957 -4.89799,0 0,10.51237 4.89799,0 0,21.29429 c 0,2.80529 0.59975,5.46084 1.53937,7.93668 1.11954,2.41595 2.51897,4.54239 4.3782,6.40925 1.9492,1.77702 3.99836,3.31445 6.51733,4.25287 2.35903,1.14808 5.01794,1.59732 7.92675,1.59732 l 7.90675,0 0,-10.3726 -7.76681,0 c -2.69889,-0.24958 -5.03793,-1.28784 -6.63728,-3.19464 -0.9596,-0.7787 -1.67931,-1.9068 -2.12912,-3.06486 -0.4898,-1.04824 -0.64974,-2.31612 -0.64974,-3.64389 l 0,-21.21442 17.18295,0 0,-2.22627 0,-8.2861 -17.18295,0 0,-12.17957 -11.08545,0 z m -107.4759,-5.62057 0,49.52693 c 0,2.76536 0.59975,5.40094 1.61933,7.93669 0.99959,2.43591 2.39902,4.62225 4.33822,6.3793 1.96919,1.82693 3.97837,3.31444 6.59729,4.36268 2.33905,1.14808 4.898,1.59732 7.76682,1.59732 l 2.20909,0 0,-10.33267 -2.00917,-0.0399 c -2.61893,-0.24958 -4.78804,-1.28784 -6.63728,-3.19464 -0.87964,-0.7787 -1.56936,-1.9068 -1.97919,-3.06486 -0.63974,-1.04824 -0.67972,-2.31612 -0.67972,-3.64389 l 0,-49.52693 -11.22539,0 z M 488.367,842.739 l 11.04547,0 0,-10.94165 -11.04547,0 0,10.94165 z" />
  </g>
</svg>
